<svg xmlns="http://www.w3.org/2000/svg" id="Layer_1" width="1540.12" height="1656.58" data-name="Layer 1" version="1.1" viewBox="0 0 1540.12 1656.58">
  <defs id="defs4">
    <linearGradient id="linearGradient6910">
      <stop id="stop6908" offset="0" style="stop-color:#fefefe;stop-opacity:1"/>
    </linearGradient>
    <style id="style2">
      .cls-1{fill:#fe3cb0}.cls-2{fill:#fff}
    </style>
  </defs>
  <g id="Background" style="opacity:.15;fill:#000" transform="translate(-84.23 -239.9)">
    <path id="path12" d="M995.7 792.8c1.5 0 3 1.8 2 3a3.1 3.1 0 0 1-2.8-.6c-.7-.7-.1-2.3.8-2.1z" class="cls-1" style="fill:#000"/>
  </g>
  <path id="path27" d="M704.67 125.93c-1.2-4.8-6.2-7.2-10.8-9.2l-39.6-17a2908.8 2908.8 0 0 0-185.8-75 1562.7 1562.7 0 0 0-60.8 165.1c-1.7 5.4-3.3 11.5-.7 16.6 2.6 5 8.4 7.4 13.8 9.3l204 72.2c7.4 2.6 17.7 4.2 21.3-2.8a712.5 712.5 0 0 0 58-151.4c.5-2.5 1.2-5.2.5-7.8zm-183.4 103c-1.7.9-3.7.3-5.5-.3l-104.2-34a310.3 310.3 0 0 1 13-39.3q53.3 12.3 105.5 29.2c2.3.8 5 1.8 5.6 4.2a7.3 7.3 0 0 1-.6 4.2l-10.8 31.6c-.6 1.7-1.4 3.5-3 4.4zm115.7 34.1c-1 3-5.3 2.6-8.3 1.6l-97.7-31.6c-1.2-.4-2.6-.9-3.2-2-.6-1.2-.2-2.7.2-4l12.5-37.7a725.8 725.8 0 0 0 111.6 38 277.4 277.4 0 0 0-15 35.7zm20-46c-.6 1.6-1.4 3.5-3 4.4-1.8 1.1-4 .7-6.2.3-62-14-118.7-46.9-180.9-60.4-14-3-28.3-5.1-41-11.6q19-58 42.6-114a7 7 0 0 1 2.4-3.6c2-1.1 4.3-.4 6.3.4q109.7 41 216.1 90z" class="cls-2" style="opacity:.15;fill:#000"/>
  <path id="path29" d="M350.17 244.5 277.37 88c-1-2.4-2.4-5-4.9-5.9-2.4-.9-5.2.2-7.7 1.3L37.47 185.9c-1.9.8-3.8 1.8-4.7 3.6-1.3 2.6.2 5.7 1.6 8.2l90.4 156.2c1 1.5 2 3.2 3.5 3.8 2 .7 4-.2 6-1l210-97.5c3.1-1.5 6.7-3.4 7.5-6.8.7-2.6-.5-5.4-1.6-7.9zm-219.7 106.7-91.5-158.7 231-104.5q38.5 81.3 75.5 163.4z" class="cls-2" style="opacity:.15;fill:#000"/>
  <path id="path31" d="M840.47 474.6q-62.3 54.4-123 110.3 45.2 41.4 91.6 81.5c1.1 1 2.4 2 3.8 2 1.7 0 3-1.3 4.2-2.5l98.9-105.5zm3.4 10 61.7 71-71.3 10c-1.2-.9-1.2-2.7-1-4.2zm-8.6-.4-12.5 79.8a7.5 7.5 0 0 1-1 3.3c-.6.7-1.7 0-2.6 0q-45.4 5.8-90.6 13.1 53.1-48.4 106.7-96.2zM808.57 660l-80-70c7.1-1.1 14.4-2 21.7-3l70.7-9zm10.6-2.8q5.1-37 10.4-73.9c.3-2.2.8-4.6 2.4-6a9.4 9.4 0 0 1 4.8-1.7q33.5-5.4 67.3-8.9z" class="cls-2" style="opacity:.15;fill:#000"/>
  <path id="path35" d="M308.77 402.5a4.2 4.2 0 0 1 .7 3c-.3 1-1.4 1.7-2.5 2.2L49.17 534.6a8.7 8.7 0 0 1-4.7 1.3c-3-.4-4.7-3.5-5.9-6.3l-10.5-24.2c-.6-1.6-1.3-3.3-.7-4.8.6-1.6 2-2.3 3.5-3l257.8-132.4 20 37.3zm-21.5-31.5L31.77 501.6a283.2 283.2 0 0 0 13.2 30.5L304.47 404Z" class="cls-2" style="opacity:.15;fill:#000"/>
  <path id="path37" d="M612.28 378.33c-1.8-6.2-6.4-12.7-3.5-18.4a11.3 11.3 0 0 0-19.7-10.8c-3 5.1-10.6 3.8-16.4 5-13.9 3.1-18.3 22.2-31.4 27.7-4.5 1.9-10.4 2.5-12.6 6.9-2.9 5.6 3 11.7 8.4 14.8 5.5 3 12.2 6.7 12.4 13a14.1 14.1 0 0 0 21.2 11.8c5-3 10.8 1 15.2 4.5 4.4 3.5 11 6.9 15.3 3.4 4-3.3 2.7-9.6 2.7-14.9-.3-14.7 12-28.7 8.3-43zm-9.4-13zm-40.5 60.6a11.8 11.8 0 0 1-9-9.1l-1.9-9.2 22.8 13.3a11.8 11.8 0 0 1-11.9 5zm39-29.9a60.6 60.6 0 0 0-4.6 30.7c.2 2.2-3.3 1.9-5 .7a586.4 586.4 0 0 0-56.4-33.6l.4-2.7c9 .8 16.7-6.2 22.5-13.1 5.8-7 11.8-14.8 20.6-16.7a21 21 0 0 1 21.6 10.2 27.4 27.4 0 0 1 1 24.5z" class="cls-2" style="opacity:.15;fill:#000"/>
  <path id="path39" d="m675.47 679.8-2-34c-.3-4.4-1-9.5-4.6-12.2-3.2-2.3-7.5-1.8-11.4-1.3l-30.2 4.3c-3.2.4-4 5-2.5 7.7 1.6 2.8 4.4 4.5 6.6 6.8 2 2.4 3.3 6.3 1.1 8.6a324.2 324.2 0 0 0-35.8 45.2 5.3 5.3 0 0 0-1.2 3.2 5.4 5.4 0 0 0 1.4 2.8l13 16.2c1.2 1.5 2.8 3.2 4.7 2.9 1.4-.3 2.3-1.4 3.1-2.5l36-46.7c2.5-3.2 7.4-.6 10.4 2s7.8 5.3 10.3 2.2c1.2-1.3 1.1-3.4 1-5.2zm-73.3 27.5c-.4-3.6 2-6.8 4.3-9.5l30.4-37.2c1-1.3 2.1-2.7 2-4.3a6.8 6.8 0 0 0-1.6-3.6l-8.3-11.7q15.3-2.7 30.7-4.4l1.2 9c-.3 8.2 4.4 18 .5 25.6-1-6-9.7-8.6-13.8-4.3q-20 21-37.7 43.9c-2.2 2.7-7.2 0-7.6-3.5z" class="cls-2" style="opacity:.15;fill:#000"/>
  <path id="path39-6" d="m116.01 1439.54-2-34c-.3-4.4-1-9.5-4.6-12.2-3.2-2.3-7.5-1.8-11.4-1.3l-30.2 4.3c-3.2.4-4 5-2.5 7.7 1.6 2.8 4.4 4.5 6.6 6.8 2 2.4 3.3 6.3 1 8.6a324.2 324.2 0 0 0-35.7 45.2 5.3 5.3 0 0 0-1.2 3.2 5.4 5.4 0 0 0 1.4 2.8l13 16.2c1.2 1.5 2.8 3.2 4.7 2.9 1.4-.3 2.3-1.4 3-2.5l36-46.7c2.6-3.2 7.5-.6 10.5 2 2.9 2.6 7.8 5.3 10.3 2.2 1.2-1.3 1-3.4 1-5.2zm-73.3 27.5c-.4-3.6 2-6.8 4.3-9.5l30.4-37.2c1-1.3 2-2.7 2-4.3a6.8 6.8 0 0 0-1.6-3.6l-8.4-11.7q15.3-2.7 30.7-4.4l1.2 9c-.3 8.2 4.4 18 .5 25.6-1-6-9.7-8.6-13.8-4.3q-20 21-37.7 43.9c-2.2 2.7-7.2 0-7.6-3.5z" class="cls-2" style="opacity:.15;fill:#000"/>
  <path id="path41" d="m838.81 301.38-11 32.6c-1.7 5-3.6 10.1-8 13-4.3 3.1-10.1 3-15.4 3.8-5.3 1-11.2 4.2-11.5 9.5-.3 8-11 13.4-17.6 9-5.3 7.1-3 17.8-8 25-6.8 9.5-21.3 7.1-32.5 3.7-7.2-2.2-13 6.4-14.3 13.8-1.4 7.4-2 16.3-8.5 20-3 1.7-4.6-3.6-3.9-6.8l6.6-29.5c1.7-7.8 12.4-9 20.2-7 7.8 1.7 17 4.4 23-1 3.7-3.6 4.5-9 5-14.3.4-5 1.2-10.7 5-14.2 3.7-3.5 11.5-2.5 12.2 2.6 2.4-5.5 4.8-11 8.8-15.4 4-4.3 10.2-7 16-5.7 4.2 1 8.6-1.6 11-5.2 2.3-3.5 3.2-7.9 4.3-12a116.8 116.8 0 0 1 10.1-25.9c1.5-2.8 4.3-6 7.2-4.7 2.9 1.3 2.4 5.6 1.3 8.7z" class="cls-2" style="opacity:.15;fill:#000"/>
  <path id="path41-1" d="m1503.84 568.92-34.32-2.53c-5.26-.4-10.67-.97-14.58-4.51-4.07-3.4-5.42-9.03-7.52-13.97-2.28-4.88-6.85-9.8-12.06-8.77-7.82 1.7-15.72-7.31-13.1-14.8-8.2-3.37-17.99 1.53-26.2-1.52-10.9-4.22-12.19-18.86-11.69-30.56.34-7.52-9.43-11-16.92-10.4-7.52.48-16.29 2.12-21.49-3.26-2.4-2.48 2.34-5.35 5.61-5.47l30.22-.96c7.98-.3 11.8 9.77 11.81 17.82.3 7.98-.03 17.56 6.7 22.03 4.4 2.69 9.83 2.12 15.1 1.28 4.93-.86 10.65-1.5 14.99 1.3 4.31 2.72 5.29 10.52.52 12.47 5.93.95 11.85 1.9 17.1 4.68 5.17 2.8 9.33 8.14 9.51 14.08.08 4.32 3.7 7.93 7.78 9.36 3.96 1.35 8.45 1.13 12.7 1.17a116.8 116.8 0 0 1 27.6 3.33c3.08.76 6.87 2.67 6.34 5.8-.54 3.14-4.83 3.72-8.1 3.43z" class="cls-2" style="opacity:.15;fill:#000"/>
  <path id="path43" d="M464.97 449c-.8 3-3.4 5.2-5.3 7.6a29 29 0 0 0-6.2 25.2c.8 3.3 2.2 6.7 1.2 10-.9 3.2-6 5.1-7.7 2.3a105.6 105.6 0 0 0-27.4-30c-2.6-2.1-5.6-5.9-3.2-8.2a40 40 0 0 0 12.1-31.8c-.2-2.7 3.2-4.5 5.7-3.7 2.6.8 4.2 3.2 5.6 5.4 2.4 4.1 4.4 8.6 7.7 12 3.4 3.6 8.2 6 12.8 4.9 3-.7 5.5 3.2 4.7 6.3z" class="cls-2" style="opacity:.15;fill:#000"/>
  <path id="path45" d="M443.97 316c-1 1-1 3.2.2 3.8 6.8 3.5 7.5 14.7 1.2 19-6.3 4.4-16.4-.2-17.4-7.8 0-1.4-2.2-1.9-3.5-1.2-1.4.7-2.2 2-3.4 3-4.2 3.6-11 1-14.4-3.3a12 12 0 0 1-2.7-9c.6-3.2 3.4-6 6.6-6 3 .1 3.5-4.6 1.6-7-1.8-2.3-4.9-3.8-6-6.5-2-4.7 2.2-9.6 6-12.9a11 11 0 0 1 3.3-2.1c4.6-1.6 8.8 3 10.7 7.5.7 1.5 1.3 3.2 2.5 4.3 1.3 1.1 3.6 1.3 4.6-.1 3.7-5.5 13-6.2 17.4-1.2 4.5 5 3 14-3 17.2-1.2.7-2.7 1.2-3.7 2.3z" class="cls-2" style="opacity:.15;fill:#000"/>
  <path id="path45-01" d="M1452.86 87.8c-1 1-1 3.2.2 3.8 6.8 3.5 7.5 14.7 1.2 19-6.3 4.4-16.4-.2-17.4-7.8 0-1.4-2.2-1.9-3.5-1.2-1.4.7-2.2 2-3.4 3-4.2 3.6-11 1-14.4-3.3a12 12 0 0 1-2.7-9c.6-3.2 3.4-6 6.6-6 3 .1 3.5-4.6 1.6-7-1.8-2.3-4.9-3.8-6-6.5-2-4.7 2.2-9.6 6-12.9a11 11 0 0 1 3.3-2.1c4.6-1.6 8.8 3 10.7 7.5.7 1.5 1.3 3.2 2.5 4.3 1.3 1.1 3.6 1.3 4.6-.1 3.7-5.5 13-6.2 17.4-1.2 4.5 5 3 14-3 17.2-1.2.7-2.7 1.2-3.7 2.3z" class="cls-2" style="opacity:.15;fill:#000"/>
  <path id="path47" d="M708.77 781.2c-2.2 3-6 4.6-9 6.6a26.7 26.7 0 0 0-12 22c0 2.6.2 6-2 7.6-2 1.3-5 .4-6.7-1.5-1.5-1.9-2.2-4.3-3-6.7a56.5 56.5 0 0 0-12.4-21c-1.4-1.4-3-3-3.6-4.8-.6-1.9 0-4.5 2-5.2 9-3.6 18.5-8.7 21.8-17.9 1-2.4 1.5-5.3 4-6.2 2.6-1 5.4 1.4 6.2 4.1 1 2.7.5 5.6 1 8.4.3 2.8 2 5.8 4.7 6.2 2.3.3 4.6-1.2 6.8-.8 3.6.7 4.3 6.2 2.2 9.2z" class="cls-2" style="opacity:.15;fill:#000"/>
  <path id="path47-1" d="M1534.55 1435.7c-2.2 3-6 4.6-9 6.6a26.7 26.7 0 0 0-12 22c0 2.6.2 6-2 7.6-2 1.3-5 .4-6.7-1.5-1.5-1.9-2.2-4.3-3-6.7a56.5 56.5 0 0 0-12.4-21c-1.4-1.4-3-3-3.6-4.8-.6-1.9 0-4.5 2-5.2 9-3.6 18.5-8.7 21.8-17.9 1-2.4 1.5-5.3 4-6.2 2.6-1 5.4 1.4 6.2 4.1 1 2.7.5 5.6 1 8.4.3 2.8 2 5.8 4.7 6.2 2.3.3 4.6-1.2 6.8-.8 3.6.7 4.3 6.2 2.2 9.2z" class="cls-2" style="opacity:.15;fill:#000"/>
  <path id="path47-9" d="M683.27 1283.6c-3.4 1.5-7.5 1-11 1.2a26.7 26.7 0 0 0-21.4 13c-1.4 2.3-2.9 5.3-5.6 5.6-2.4.2-4.6-2.1-5-4.6-.4-2.4.2-4.8.7-7.3a56.5 56.5 0 0 0-.2-24.4c-.5-2-1.1-4.1-.7-6 .4-2 2.2-3.9 4.2-3.5 9.6 1.4 20.5 1.8 28-4.5 2-1.6 3.9-3.9 6.5-3.4 2.8.5 4 4 3.3 6.7-.5 2.8-2.3 5-3.3 7.7-1.2 2.6-1.2 6 1 7.8 1.8 1.4 4.5 1.2 6.2 2.7 2.8 2.4.6 7.5-2.7 9z" class="cls-2" style="opacity:.15;fill:#000"/>
  <path id="path49" d="M123.77 380.8c-4-8.6-16.4-12.8-23.7-6.7-5.4 4.5-6.4 12.6-5.3 19.6.6 4 1.8 8 4.3 11 2.5 3.1 6.5 5.3 10.5 4.7a14 14 0 0 0 6.6-3.2c7.4-5.9 11.4-16.7 7.6-25.4zm-18 .7a5.5 5.5 0 0 1 1.9-.9c4-1 7.9 3 8 7 .4 4-2 8-4.5 11-1.1 1.3-3.4 1-4.6-.2a9.6 9.6 0 0 1-2.2-4.6c-1.2-4.2-2-9.7 1.5-12.3z" class="cls-2" style="opacity:.15;fill:#000"/>
  <path id="path51" d="M906.34 227c-1.3 1.2-2 3.6-.6 4.7 2 1.6 2.5 4.4 2 6.8a19.4 19.4 0 0 1-3.6 6.6c-2 2.8-5.1 6-8.4 4.8-2.4-.8-3.5-3.6-5-5.7-1.5-2.2-5-3.6-6.4-1.4-3.1 4.8-11.4 4.9-14.5 0-3.1-4.8.3-12.4 6-13.2 2.4-.3 3-3.8 2-6s-3-4.2-3.3-6.6c-.6-3.2 1.6-6.3 4-8.5 3.5-3.2 9.5-5.4 12.5-1.7 1.3 1.6 2 4.3 4.2 4.4 1.9 0 2.9-2.2 4.4-3.3 3-2.3 7.4.2 9.9 3.2 3 3.7 4.7 9.5 1.3 12.8-1.3 1.3-3.1 1.9-4.5 3z" class="cls-2" style="opacity:.15;fill:#000"/>
  <path id="path57" d="M634.88 416.93a59.9 59.9 0 0 0-2-58.5 2.8 2.8 0 0 1 2-4c5.5 3.7 8.1 10.4 9.7 16.9 4.7 18.8 3.1 40.5-9.4 55.3-1.7-.7-2.5-2.8-2.3-4.6a15 15 0 0 1 2-5.1z" class="cls-2" style="opacity:.15;fill:#000"/>
  <path id="path65" d="m852.57 458.7-11.4-11.4c0 3.8-5 6-8.6 4.8-3.7-1.1-6.2-4.4-8.5-7.4l-3.2-4.1a2.2 2.2 0 0 1 .4-3.6l8.8-8.4c2-1.8 4.1-3.7 6.7-3.3 1.8.3 3.2 1.5 4.5 2.8 2.4 2.3 5 4.7 6.1 7.9 1.2 3.1.7 7.2-2 9 1.3 2.7 4.2 4 6.3 6 2.1 2.1 3.3 6 1 7.7z" class="cls-2" style="opacity:.15;fill:#000"/>
  <path id="path67" d="M523.28 364.63c-3.4-3.2-1.7-8.9.7-13a67.8 67.8 0 0 1 55.5-32.4 3.3 3.3 0 0 1 1.8.3c1.3.7 1 2.9-.3 3.8-1.2.9-2.8.9-4.3 1a60.1 60.1 0 0 0-53.4 40.3z" class="cls-2" style="opacity:.15;fill:#000"/>
  <path id="path69" d="M963.17 562.4a4 4 0 0 1-1.3 2.2 114.6 114.6 0 0 1-11.8 10.9 4 4 0 0 1-2.3 1.1c-1.2 0-2-.9-3-1.8l-9.3-10.1a4.2 4.2 0 0 1-1.4-2.4c0-1.3 1-2.3 1.8-3.2l10-9c1.6-1.4 3.6-2.9 5.6-2.2a6.1 6.1 0 0 1 2.6 2.2l7.8 9.5a4 4 0 0 1 1.3 2.8z" class="cls-2" style="opacity:.15;fill:#000"/>
  <path id="path71" d="M693.17 586.3a4 4 0 0 1-1.3 2.4 108.8 108.8 0 0 1-11.3 10.2c-1 .8-2 1.6-3.4 1.4a4.7 4.7 0 0 1-2.4-1.6q-5-5-9.4-10.3a3 3 0 0 1 .4-5.1 191 191 0 0 1 14.8-12.5l11.2 12.7a4.1 4.1 0 0 1 1.4 2.7z" class="cls-2" style="opacity:.15;fill:#000"/>
  <path id="path73" d="M622.28 410.23a44.3 44.3 0 0 0 1-39c-.6-1.3-1.2-3-.3-4.1 1.1-1.5 3.6-.5 4.8.9a19 19 0 0 1 4.2 9.4 53.4 53.4 0 0 1-3.3 31.7c-.7 1.6-1.7 3.3-3.3 3.8-1.6.5-3.9-1.2-3-2.7z" class="cls-2" style="opacity:.15;fill:#000"/>
  <path id="path75" d="M824.97 706.5a3.6 3.6 0 0 1-1.2 2.2 115.1 115.1 0 0 1-11.7 10.7 4 4 0 0 1-2.2 1.1c-1.2.1-2-.8-3-1.7l-7.2-7.5c-1.8-2-3.8-4.4-3-6.8 1-3 5.2-3.3 7.6-5.4 2.4-2 3.2-6.2 6.3-7.2 3-.9 5.7 2 7.6 4.5l5.8 7.9a3.7 3.7 0 0 1 1 2.3z" class="cls-2" style="opacity:.15;fill:#000"/>
  <path id="path77" d="M538.58 365.83c-3.5-2-2-7.3.1-10.6a47.3 47.3 0 0 1 35-20.1c1.4-.1 3-.1 4 .8 1 1 .5 3.2-.8 3.2a42 42 0 0 0-38.3 26.7z" class="cls-2" style="opacity:.15;fill:#000"/>
  <path id="path37-1" d="M234.97 1265.6c-6.2-1.6-14.1-1-17.6-6.3a11.3 11.3 0 0 0-19.2 11.7c3 5.1-2 11-3.9 16.7-4.2 13.6 10.1 27 8.4 41-.6 4.9-3 10.3-.4 14.4 3.4 5.3 11.6 3.3 17 .1 5.4-3.2 12-7.2 17.5-4.2a14.1 14.1 0 0 0 20.8-12.5c-.1-5.7 6.3-8.9 11.5-11 5.2-2 11.4-6 10.6-11.5-.9-5-7-7.1-11.6-9.8-12.8-7-18.8-24.7-33-28.6zm-15.9 1.5zm32.3 65.4a11.8 11.8 0 0 1-12.4 3.2l-8.9-2.9 23-13.1a11.8 11.8 0 0 1-1.7 12.8zm-6.4-48.7a60.6 60.6 0 0 0 24.3 19.3c2 1 0 3.8-2 4.8a586.4 586.4 0 0 0-57.2 32l-2.1-1.7c5.2-7.4 3-17.6-.1-26-3.2-8.6-7-17.7-4.2-26.3a21 21 0 0 1 19.6-13.6 27.4 27.4 0 0 1 21.7 11.4z" class="cls-2" style="opacity:.15;fill:#000"/>
  <path id="path43-1" d="M261.37 1449c-.7 3-3.3 5.2-5.3 7.6a29 29 0 0 0-6 25.2c.7 3.3 2 6.7 1 10-.8 3.2-5.9 5.1-7.6 2.3a105.6 105.6 0 0 0-27.4-30c-2.7-2.1-5.7-5.9-3.3-8.2a40 40 0 0 0 12.2-31.9c-.2-2.8 3.2-4.5 5.6-3.7 2.6.8 4.3 3.2 5.6 5.4 2.5 4.1 4.5 8.6 7.8 12 3.3 3.6 8.2 6 12.8 4.9 3-.7 5.4 3.2 4.6 6.3z" class="cls-2" style="opacity:.15;fill:#000"/>
  <path id="path43-1-1" d="M1166.44 1569.26c-.7 3-3.3 5.2-5.3 7.6a29 29 0 0 0-6 25.2c.7 3.3 2 6.7 1 10-.8 3.2-5.9 5.1-7.6 2.3a105.6 105.6 0 0 0-27.4-30c-2.7-2.1-5.7-5.9-3.3-8.2a40 40 0 0 0 12.2-31.9c-.2-2.8 3.2-4.5 5.6-3.7 2.6.8 4.3 3.2 5.6 5.4 2.5 4.1 4.5 8.6 7.8 12 3.3 3.6 8.2 6 12.8 4.9 3-.7 5.4 3.2 4.6 6.3z" class="cls-2" style="opacity:.15;fill:#000"/>
  <path id="path45-0" d="M77.07 1216.1c-1 1-1 3.2.3 3.8 6.8 3.5 7.5 14.7 1.2 19-6.3 4.4-16.4-.2-17.4-7.8-.1-1.4-2.2-2-3.5-1.2-1.4.7-2.2 2-3.4 3-4.2 3.6-11 1-14.4-3.3a12 12 0 0 1-2.7-9c.6-3.2 3.4-6 6.6-6 3 0 3.5-4.6 1.6-7-1.8-2.3-5-3.8-6-6.5-2-4.7 2.2-9.6 6-13a11 11 0 0 1 3.3-2c4.6-1.6 8.8 3 10.7 7.5.7 1.5 1.3 3.2 2.5 4.3 1.3 1 3.6 1.3 4.6-.1 3.7-5.5 12.9-6.2 17.4-1.2 4.5 5 3 14-3 17.2-1.2.7-2.7 1.2-3.7 2.3z" class="cls-2" style="opacity:.15;fill:#000"/>
  <path id="path57-1" d="M279.77 1265.2a59.9 59.9 0 0 0-51.7-27.4 2.8 2.8 0 0 1-2.5-3.7c6-3 13.1-2 19.6 0 18.6 5.2 36.6 17.5 43.2 35.7-1.5 1.1-3.7.7-5.2-.3a15 15 0 0 1-3.4-4.3z" class="cls-2" style="opacity:.15;fill:#000"/>
  <path id="path67-8" d="M178.77 1335.7c-4.5 1.4-8.6-3-11-7a67.8 67.8 0 0 1-.3-64.3 3.3 3.3 0 0 1 1.2-1.4c1.2-.8 3 .6 3.1 2.1.2 1.5-.6 3-1.3 4.3a60.1 60.1 0 0 0 8.3 66.3z" class="cls-2" style="opacity:.15;fill:#000"/>
  <path id="path73-7" d="M267.67 1272.8a44.3 44.3 0 0 0-33.3-20.4c-1.4-.1-3.2-.4-3.7-1.8-.7-1.7 1.4-3.3 3.2-3.7a19 19 0 0 1 10.3 1 53.4 53.4 0 0 1 25.8 18.8c1 1.4 2 3 1.6 4.7-.4 1.7-3 2.8-3.8 1.3z" class="cls-2" style="opacity:.15;fill:#000"/>
  <path id="path77-6" d="M187.37 1323c-3.4 2.1-7.3-1.7-9-5.3a47.3 47.3 0 0 1 0-40.4c.6-1.2 1.4-2.6 2.7-3 1.3-.4 3 1.1 2.4 2.3a42 42 0 0 0 4 46.5z" class="cls-2" style="opacity:.15;fill:#000"/>
  <path id="path85" d="m924.67 530.6 8.6 9.4c2 2.2 4.1 5.9 2 8l-18.3-19c1.5-2.7 5.6-.6 7.7 1.7z" class="cls-2" style="opacity:.15;fill:#000"/>
  <path id="path89" d="m701.27 615.3-11.2-10.3a2.7 2.7 0 0 1-1-1.6c-.3-2 3-1.7 4.6-.5a113.3 113.3 0 0 1 16 14.5c-2.3 2.1-6 0-8.4-2.2z" class="cls-2" style="opacity:.15;fill:#000"/>
  <path id="path95" d="M702.17 559.3a6.2 6.2 0 0 1 3.2-1.9c1.3-.1 2.8 1 2.5 2.2l-16 15c-1.4-.3-2-2.2-1.7-3.6a8 8 0 0 1 2.7-3.5z" class="cls-2" style="opacity:.15;fill:#000"/>
  <path id="path97" d="M857.77 464.8a8 8 0 0 1-2.3-3.8c-.3-1.4.6-3.2 2-3.4q7.4 7.7 14 15.9c-.2 1.3-2 2-3.2 1.6a7.5 7.5 0 0 1-3.2-2.4z" class="cls-2" style="opacity:.15;fill:#000"/>
  <path id="path101" d="M903.77 508.4c-1.7 2.1-5 .2-7-1.8l-10.7-11.3c.2-1.5 2-2.3 3.5-1.9a8 8 0 0 1 3.6 2.7q5.4 6 10.6 12.3z" class="cls-2" style="opacity:.15;fill:#000"/>
  <path id="path103" d="M732.07 641a9.2 9.2 0 0 1-2.8-3.5c-.6-1.4-.2-3.3 1.2-4l15.8 13.9c-.2 1.4-2 2.2-3.4 2a8.3 8.3 0 0 1-3.8-2.3z" class="cls-2" style="opacity:.15;fill:#000"/>
  <path id="path105" d="m713.97 619.8 12 10a3.1 3.1 0 0 1 1 1.1c.4 1.3-1 2.6-2.4 2.6a6.2 6.2 0 0 1-3.5-1.8l-9.8-8.2c-1.4-1.2-3-3.4-1.6-4.7 1.2-1 3 0 4.2 1z" class="cls-2" style="opacity:.15;fill:#000"/>
  <path id="path107" d="m746.27 652.8 1.6-3a68.5 68.5 0 0 1 16.4 13c-1 2.5-5 1-7.2-.8z" class="cls-2" style="opacity:.15;fill:#000"/>
  <path id="path109" d="M917.17 522.3a3.4 3.4 0 0 1 1 2c.2 1.4-1.8 2.4-3.3 1.9-1.4-.6-2.3-2-3.2-3.2a40.6 40.6 0 0 0-10.5-10c.7-1.6 3-2.1 4.7-1.5a11.3 11.3 0 0 1 4.2 3.2l7 7.6z" class="cls-2" style="opacity:.15;fill:#000"/>
  <path id="path111" d="M900.47 616.5a64 64 0 0 1 7.3-6.8c1.7-1.3 4.5-2.3 5.5-.5a161.6 161.6 0 0 1-13.4 14.3c-2.7-.8-1.4-5 .6-7z" class="cls-2" style="opacity:.15;fill:#000"/>
  <path id="path113" d="M813.07 463c-.8.8-1.8 1.7-2.9 1.6-1.4-.1-2.2-2-1.8-3.3a7.3 7.3 0 0 1 2.7-3.3l7-5.8c1.2-1 2.5-2 4-1.7 1.6.2 2.6 2.2 1.4 3.1a71 71 0 0 0-10.4 9.3z" class="cls-2" style="opacity:.15;fill:#000"/>
  <path id="path115" d="m714.77 547.4 8.5-7.3a5.5 5.5 0 0 1 2.8-1.6c1 0 2.3.7 2.1 1.8l-12.2 12.2a3.1 3.1 0 0 1-1.3.9c-1.3.3-2.5-1.3-2.2-2.7a6.3 6.3 0 0 1 2.4-3.3z" class="cls-2" style="opacity:.15;fill:#000"/>
  <path id="path117" d="M884.07 486.6a6.8 6.8 0 0 1 2 3.2c.1 1.2-.6 2.7-1.9 2.8l-13-13.6c.4-1.4 2.4-2 3.8-1.5a8.5 8.5 0 0 1 3.5 2.8z" class="cls-2" style="opacity:.15;fill:#000"/>
  <path id="path119" d="M878.17 643.8c-.2 3.4-2.5 6.3-5 8.7a32.8 32.8 0 0 1-9.3 6 21.3 21.3 0 0 1 14.3-14.7z" class="cls-2" style="opacity:.15;fill:#000"/>
  <path id="path121" d="M804.17 698.6a21.7 21.7 0 0 1-14.5-9.8c-.7-1-1-2.6 0-3.3a27.7 27.7 0 0 1 14.5 13z" class="cls-2" style="opacity:.15;fill:#000"/>
  <path id="path123" d="M848.97 674.7a25.8 25.8 0 0 1 10.8-14.4c1.2-.8 3 .6 3 2a5.7 5.7 0 0 1-2 3.7 46.3 46.3 0 0 1-11.9 8.7z" class="cls-2" style="opacity:.15;fill:#000"/>
  <path id="path125" d="M769.77 502.9a7.5 7.5 0 0 1-3 3.2c-1.4.6-3.4 0-3.6-1.4-.2-1.1.6-2.1 1.3-3l4-4.3c1.2-1.3 2.4-2.6 4-3 1.6-.5 3.7.8 3.6 2.5l-6 6z" class="cls-2" style="opacity:.15;fill:#000"/>
  <path id="path127" d="M879.47 641.9a21 21 0 0 1 13.7-14.5 21.6 21.6 0 0 1-13.6 14.5z" class="cls-2" style="opacity:.15;fill:#000"/>
  <path id="path129" d="M783.47 681.9a26.8 26.8 0 0 1-14-9.9 2.8 2.8 0 0 1-.5-1.4c0-2.2 3.3-1.6 5-.3 4 3.2 8.2 6.7 9.6 11.6z" class="cls-2" style="opacity:.15;fill:#000"/>
  <path id="path131" d="M923.07 593.6a3.7 3.7 0 0 1 2.5-.9c1 .1 1.7 1.2 1.2 2a38.4 38.4 0 0 1-12.8 12 22.2 22.2 0 0 1 9-13.1z" class="cls-2" style="opacity:.15;fill:#000"/>
  <path id="path133" d="M842.27 683.5c-.7 2-1.8 4.3-3.9 4.8-2 .5-4.2-2.9-2.2-3.8 2.6-1.2 3.8-4.1 5.7-6.2 2-2 6-3 7.2-.3l-6.6 5.3z" class="cls-2" style="opacity:.15;fill:#000"/>
  <path id="path135" d="M751.67 520.3c-1.3 1-3.4-.6-3.3-2.3.1-1.7 1.5-3 2.7-4.2l7.5-6.8c2.2 1.7.8 5.4-1.3 7.2-2.2 1.8-5 3.3-5.6 6z" class="cls-2" style="opacity:.15;fill:#000"/>
  <path id="path137" d="M779.47 491.3c-1.9-.4-.7-3.4.8-4.6a95.8 95.8 0 0 1 10.7-7.7c1 5.3-4.7 9.3-9.5 11.8a2.7 2.7 0 0 1-1.8.5z" class="cls-2" style="opacity:.15;fill:#000"/>
  <path id="path139" d="M794.47 476.2a2.4 2.4 0 0 1 0-1.5 10.4 10.4 0 0 1 13-6.3l-8.6 7.4c-1.4 1.2-3.9 2-4.4.4z" class="cls-2" style="opacity:.15;fill:#000"/>
  <path id="path143" d="M824.07 701.2a10.7 10.7 0 0 1 6.2-10 9.7 9.7 0 0 1 4.4-.8c1 1.8-.7 3.8-2.3 5.1a67.9 67.9 0 0 1-8.3 5.7z" class="cls-2" style="opacity:.15;fill:#000"/>
  <path id="path145" d="M736.47 528a10 10 0 0 1 3.2-3.8c1.4-.9 3.6-.8 4.5.6a30.3 30.3 0 0 1-9.5 9.6c-2.5-1.5-1.4-6.1 1.4-6.4z" class="cls-2" style="opacity:.15;fill:#000"/>
  <path id="path147" d="M930.27 591.2c-2 .4-2-3-.8-4.6a20.8 20.8 0 0 1 9.8-7.3 19.4 19.4 0 0 1-8 11.5 2.6 2.6 0 0 1-1 .4z" class="cls-2" style="opacity:.15;fill:#000"/>
  <path id="path149" d="M516.97 625.7c-3.7-3.4-9.5-3-14.4-2.2-71.8 11-144 22-213.5 43.5-8.3 2.6-7.6 14.6-5 23.1.9 2.9 1.7 6 3.9 8.2 4.8 4.8 12.6 3.4 19.1 1.7l192.7-51a33.6 33.6 0 0 0 16-7.3c4-4.2 5.6-12 1.2-16zm-8 11.5c1 .5 1 2.3.2 3.2a5.3 5.3 0 0 1-3.4 1.2 38.8 38.8 0 0 1-10-.1 5.3 5.3 0 0 1 6.6-3.7v.3zm-107.4 22.3a64 64 0 0 1-15.6 3.7 3.3 3.3 0 0 1-2-.2c-1.2-.8-1.2-2.6-.2-3.6a7 7 0 0 1 3.7-1.6l7.7-1.4c2.8-.5 7 .4 6.4 3zm18.4 2.3a9.4 9.4 0 0 1-7.8.3 8.5 8.5 0 0 1 11.9-2.5 4 4 0 0 1-4 2.2zm-60.1-7a6.5 6.5 0 0 1 3.6-.3l.2-.6 2.6 1.2a5.6 5.6 0 0 1-7.7 2.5 2.3 2.3 0 0 1 1.3-2.9zm9.6-.8c-.5-1.6 2.1-3.4 3.2-2l.5-.5c1.6-.5 3.7-.8 4.7.5a9.7 9.7 0 0 1-3.9 3.8c-1.6.6-4 0-4.5-1.7zm-18.8 11.3c-.6 2.5-4.6 3.5-6.4 1.5-1.2 1.6-2.5 3.5-4.5 4.2-1.9.6-4.5-.3-4.8-2.4a35 35 0 0 1 9-4.4c2.3-.7 5.4-1 6.7 1zm-21.4 9c-1.9.8-2.9-2-2.4-4 .9-.8 2.4-.2 2.9.8a3.8 3.8 0 0 1-.5 3.4zm-.7 12.4a13 13 0 0 1-12 2.6c.8-3 4.4-3.9 7.2-4.4a5.5 5.5 0 0 1 3.3 0 2.8 2.8 0 0 1 1.4 1.9zm-15.6-11.4a4 4 0 0 1-6.7.3 4.4 4.4 0 0 1 5.4-3 2.3 2.3 0 0 1 1.3 2.7z" class="cls-2" style="opacity:.15;fill:#000"/>
  <path id="path151" d="M419.67 754.5c4.6 1.4 5.6 7.3 5.8 12.1l.5 14.2c0 2 0 4.4-1.3 6-1.2 1.4-3.1 2-4.8 2.4l-93 22.8c-5.6 1.3-11.3-3-13.6-8.1a36.5 36.5 0 0 1-1.7-17 7 7 0 0 1 1.3-4.5c.8-.7 1.7-1.2 2.6-1.5 32-12 65.2-20.9 99-26.4 1.8-.4 3.5-.4 5.2 0zm1.2 9.6c0-2.2-.4-4.7-2.4-5.6-1-.4-2.2-.4-3.3 0a607 607 0 0 0-95.5 25.3c-4 1.4-4.3 6.8-4 11 .6 5.1 2.2 11.6 7.2 12.8 2 .3 4 .1 6-.6l46.3-11.3 42-10.4a6 6 0 0 0 3.3-1.5c1-1 1-2.7.9-4.2z" class="cls-2" style="opacity:.15;fill:#000"/>
  <path id="path153" d="M305.17 753.3c-1-2.9 2.8-4.8 5.7-5.5q108-22 216.2-43.1c2.2 1.4-1 4.2-3.4 4.7z" class="cls-2" style="opacity:.15;fill:#000"/>
  <path id="path155" d="M514.07 678c3-.6 7.4 1.3 5.6 3.5l-216.1 43.3c-2.4-.9.5-4.2 3-4.6z" class="cls-2" style="opacity:.15;fill:#000"/>
  <path id="path157" d="M476.57 124.43c-3.8-1.4-8.4-3.7-8.4-7.8q86.6 25.2 171 57.5c5.5 2 11.7 5 13.2 10.6-1.5 1.7-4.2 1-6.4.3z" class="cls-2" style="opacity:.15;fill:#000"/>
  <path id="path159" d="M481.47 98.53c-4.8-1.7-10.2-4-12-8.7l165.3 54.6c8.1 2.7 17.4 6.5 19.8 14.7l-24-8.4z" class="cls-2" style="opacity:.15;fill:#000"/>
  <path id="path161" d="M543.17 725.3c3.3 1.5 4.5 5.7 5 9.5a164.5 164.5 0 0 1 1.9 21.4c0 2.5-.5 5.6-3 6.2q-44 11.1-88.9 19.4c-5.2 1-11.3 1.5-14.8-2.3-2-2.1-2.6-5.2-3.2-8l-1.7-9c-.5-3.1-1-7 1.3-9.2a9.7 9.7 0 0 1 3.7-1.9 750.8 750.8 0 0 1 92.5-26.2c2.4-.5 5-1 7.1 0zm2.4 31.9a6 6 0 0 0 .3-3.1l-1.8-20.4c-.2-2.3-2.3-4-4.6-4.4a15.9 15.9 0 0 0-6.8.6q-43.5 10.5-86 24.9a5.9 5.9 0 0 0-3 1.8c-.9 1.2-.8 2.8-.6 4.2l1.1 9.2a11.7 11.7 0 0 0 1.6 5.4c2.7 3.6 8 3.2 12.3 2.3q41.8-8.4 83-18c1.8-.4 3.8-1 4.5-2.5z" class="cls-2" style="opacity:.15;fill:#000"/>
  <path id="path163" d="M547.97 92.33a555.4 555.4 0 0 1-66.5-24.4c-2-.9-4-2-4.9-4-.8-1.9 1-4.8 3-4.1q32.8 10.7 65.2 22.5c2.6 1 5.4 2 6.5 4.5 1.2 2.5-.8 6.3-3.4 5.5z" class="cls-2" style="opacity:.15;fill:#000"/>
  <path id="path165" d="M604.97 234.73c-3.7 1.4-8 2.5-9.7 6-1.5 3.3-6.2 4-9.3 2.2-3.2-1.7-5-5-6.8-8-1-1.8-2-3.6-2-5.6.2-2 1.7-4 3.7-3.7 2.3.2 3.2 3 5 4.5 2.4 2 6.1 1.1 8.8-.6 2.6-1.7 4.8-4.2 7.7-5.5 2.8-1.3 7-1 8.3 2 1.6 3.5-2.2 7.2-5.8 8.7z" class="cls-2" style="opacity:.15;fill:#000"/>
  <path id="path167" d="M478.47 197.43c1.6 2.7 4.2 5.5 3 8.4-1 2.9-5.2 3.2-7.7 1.5-2.4-1.8-3.5-4.8-4.3-7.7-.8-3-5.2-2.5-8-1.1-2.6 1.3-6.3 2.9-8.3.5-2-2.3.3-6 3-7.3 2.7-1.4 6-2 8-4.2-2-1.5-4-3.1-5-5.4-1-2.3-.2-5.5 2.2-6.2 5-1.6 7.5 7.7 12.6 7.2 2.1-.1 3.7-2 5.7-2.6a5 5 0 1 1 1 9.8c-3-.4-3.7 4.5-2 7.1z" class="cls-2" style="opacity:.15;fill:#000"/>
  <path id="path169" d="M257.97 413.8c1.5 2.8 2.6 7.1-.3 8.6l-20 10.3c-2.3 1.3-5.4 2.5-7.6 1a7.6 7.6 0 0 1-2.3-3.3l-7.3-15.3c-1-2.3 1.5-4.6 3.8-5.9l17.1-9.5c3-1.6 7.4-2.8 9 .1zm-32 2.7 5.7 12a3 3 0 0 0 1 1.4c.8.6 2 0 3-.4l17.3-9.6c.7-.3 1.5-.8 1.7-1.6a3.1 3.1 0 0 0-.5-2.2l-6.3-11.9c-.3-.6-.7-1.3-1.4-1.5a2.5 2.5 0 0 0-1.8.5l-17.3 9.2a2.6 2.6 0 0 0-1.3 4.1z" class="cls-2" style="opacity:.15;fill:#000"/>
  <path id="path171" d="m328.47 241.8-62.5-135.4c-1-2-2.2-4.3-4.3-4.8-1.6-.4-3.2.3-4.7 1L61.67 191a8.2 8.2 0 0 0-3.8 2.8c-1.5 2.5 0 5.5 1.4 8l79.3 137 187-86.7c1.4-.7 3-1.5 3.8-2.9 1.3-2.2.2-5-.8-7.4zm-182.8 89c-1.5.8-3.2 1.5-4.7 1-1.6-.6-2.4-2-3.2-3.3l-76.3-132.1q97-44.6 194.4-88.3c1.3-.6 2.8-1.2 4.2-.8 1.7.6 2.6 2.3 3.3 3.8l62.7 135.9z" class="cls-2" style="opacity:.15;fill:#000"/>
  <path id="path173" d="M147.27 452.6a6 6 0 0 1-.9-3.4c.3-1.7 2-2.8 3.4-3.6a224.9 224.9 0 0 1 21.6-11.3 3 3 0 0 1 4.7 1.4 114.5 114.5 0 0 1 9.7 18.6c.8 1.9-1.3 3.6-3 4.6q-9.8 5.5-19.7 10.4c-2 1-4.5 2-6.5.8a7 7 0 0 1-2.4-3.2zm33.4 1.5a3 3 0 0 0-.5-1.5l-6.8-13.5c-7 1.7-13.4 5.3-19.6 9-1 .5-2 1.2-2 2.2a3.6 3.6 0 0 0 .4 2.1l5 11.5c.4.9 1 1.9 2 2.1a3.3 3.3 0 0 0 2.2-.6l17.3-9c1-.6 2-1.2 2-2.3z" class="cls-2" style="opacity:.15;fill:#000"/>
  <path id="path175" d="M113.07 489.9a5 5 0 0 1 .5 3c-.3 1.2-1.5 2-2.7 2.6q-10.2 6-21 11c-1.5.7-3 1.3-4.5.9-1.4-.5-2.5-2.2-3.2-3.7l-7.4-14.6c-1.6-3.2 2.2-6.4 5.4-8l19.2-9.8a3.7 3.7 0 0 1 2.5-.6 3.6 3.6 0 0 1 2 1.7 86 86 0 0 1 9.2 17.5zm-4.8-.3-5-10c-.6-1.3-1.4-2.7-2.7-3.2-1.4-.5-3 .2-4.5 1l-14 7.6a3.2 3.2 0 0 0-1.9 5l4.5 10.1c.6 1.3 1.5 3 3 3a4.1 4.1 0 0 0 2-.7l17.8-9.7a1.8 1.8 0 0 0 .8-3z" class="cls-2" style="opacity:.15;fill:#000"/>
  <path id="path185" d="M309.47 490.7a21 21 0 0 0-6.2-6.2c-5-2.9-11.5-2.3-16.2 1a20.8 20.8 0 0 0-8.6 14.1c-1.1 7.2 1.7 15.5 8.4 18.6 4 2 8.8 1.6 13 .3 7.4-2.3 14-8.6 14-16.3 0-4.2-2-8-4.3-11.5zm-21.7 12c-.4-3.2.6-6.7 3.2-8.5 4.7-3.4 12.2 1.6 11.9 7.4a8.5 8.5 0 0 1-5 7.3 7.4 7.4 0 0 1-8.4-2 8.7 8.7 0 0 1-1.7-4.3z" class="cls-2" style="opacity:.15;fill:#000"/>
  <path id="path187" d="M898.46 769.12a18.7 18.7 0 0 0-20.4-3.2 17.5 17.5 0 0 0-9.5 18 16.5 16.5 0 0 0 15 13.6c5.8.2 11.3-2.8 15.3-7a16.8 16.8 0 0 0 4.5-8c1-4.8-1.3-10-5-13.4zm-9.5 16.3c-1.8.5-3.3 1.7-5 1.8-4.5.5-6.7-6.2-4-9.9 2.3-3.3 7.5-4.4 10.6-1.8 3 2.7 2.3 8.7-1.6 10z" class="cls-2" style="opacity:.15;fill:#000"/>
  <path id="path187-2" d="M1473.37 1226.67a18.7 18.7 0 0 0-20.4-3.2 17.5 17.5 0 0 0-9.5 18 16.5 16.5 0 0 0 15 13.6c5.8.2 11.3-2.8 15.3-7a16.8 16.8 0 0 0 4.5-8c1-4.8-1.3-10-5-13.4zm-9.5 16.3c-1.8.5-3.3 1.7-5 1.8-4.5.5-6.7-6.2-4-9.9 2.3-3.3 7.5-4.4 10.6-1.8 3 2.7 2.3 8.7-1.6 10z" class="cls-2" style="opacity:.15;fill:#000"/>
  <path id="path187-7" d="M122.17 62.8a18.7 18.7 0 0 0-20.4-3.2 17.5 17.5 0 0 0-9.5 18 16.5 16.5 0 0 0 15 13.6c5.8.2 11.3-2.8 15.3-7a16.8 16.8 0 0 0 4.5-8c1-4.8-1.3-10-5-13.4zm-9.5 16.2c-1.8.5-3.3 1.7-5 1.8-4.5.5-6.7-6.2-4-10 2.3-3.2 7.5-4.3 10.6-1.7 3.1 2.7 2.3 8.7-1.6 9.9z" class="cls-2" style="opacity:.15;fill:#000"/>
  <path id="path189" d="m268.27 813-37.8-192.4-150.3 27.6q20.6 100.8 44.4 200.9l139.5-29.7c1.5-.3 3.2-.7 4-2 .8-1.2.5-2.9.2-4.4zm-105.5.5c-2.9-2.5-.4-7.1 2.2-10l4.6-5.3c1.6-1.7 4.9-3.3 5.7-1a59 59 0 0 1-12.5 16.3zm4.1 3.3c-1.2.8-2.7 1.2-3.8.4-1-.8.5-3 1.3-2v.2a2.3 2.3 0 0 1 2.5 1.5zm-27.2-9.1c-2.7-3.6.8-8.3 4.1-11.3l16.9-15c.8-.7 1.9-1.5 3-1.2 1 .4 1.5 2.1 1 3.4a9.4 9.4 0 0 1-2.6 2.8c-5 4.4-6.8 11.1-10 16.8a13 13 0 0 1-5.3 5.7c-2.3 1.1-5.4 1-7-1.2zm8.8 15.4a3 3 0 1 1-2.9-4.1 3 3 0 0 1 2.8 4.1zm-31.1-63-1 7.7h-.1a2.1 2.1 0 0 1-2.6 1.3c-1.4-2.2-2.7-4.8-2-7.2.6-2.5 4.5-4 5.8-1.6zm-8.9-20a2.7 2.7 0 0 1 4 .3 5.7 5.7 0 0 1-2.8 3.1 2.1 2.1 0 0 1-1.1-3.2zm11 36.2a4.1 4.1 0 0 1 3.8 5 49 49 0 0 0-1.8 16c-.8 1-2.6.8-3.4-.3a6.8 6.8 0 0 1-1.3-3.6c-.7-6-1.1-12.6 2.7-17zm-.3 24.4h.2c.3-1.6 3.4-.4 2.6 1a1.6 1.6 0 0 1-2.7-1zm7.2 23.7a3.2 3.2 0 0 1 2.4-1v-.5l3.8 1.2a9 9 0 0 1-4 3.4 3.4 3.4 0 0 1-2.2-3zM104.57 692c-3.1-1.8-1.1-6.4 1.2-9l10.2-12c3.2-3.6 6.7-7.5 11.6-8.3.8 1.4-.4 3.2-1.5 4.4zm25-20.6c2.4.3 1.7 4 .2 6l-12.8 17.8a3 3 0 0 1-1.6 1.4c-2.2.4-2.3-3.2-1.3-5a75.8 75.8 0 0 1 15.4-20zm-13 29.4 18.4-22.4a38 38 0 0 1 11-10c1-.6 2.8-.8 3.2.4l-34.5 41c-2.4-2.4-.3-6.3 1.8-9zm99.5 40.3a4.2 4.2 0 1 1 5.1-6.5 5.6 5.6 0 0 1-2.8 3zm-3.6-25c-2.5-.2-4-3.4-3.2-5.7.6-2.5 2.9-4.1 5-5.4 1.2-.6 2.7-1 3.8-.3 1 .9.9 2.6.3 4a15.7 15.7 0 0 1-6 7.3zm-68.7 62-6 7.6c-1.7-1.4-2-4.4-1-6.5 1-2.2 2.8-3.8 4.5-5.4a5.5 5.5 0 0 1 2.9-1.6c1-.2 2.3.7 2.2 1.9l-2.7 4zm-13.4-62.9c-2-.3-1.3-3.6 0-5.4l22.8-29c1.6-2 5-4 6.1-1.7a242.9 242.9 0 0 1-28.8 36zm72.3-41.4c-1.4 1.2-3.8-1.4-3-3 .8-2 3-2.7 5-3a6 6 0 0 1-2.5 5.5zm-13.7-32.5a2.2 2.2 0 0 1-1.6-.4c-1.1-1 .5-2.6 1.8-3.3 3-1.4 7.7-2.4 9.4.5a18 18 0 0 1-9.6 3.1zm1.9 4.8c1.3-.6 3.3-.7 3.7.8a37 37 0 0 1-13.7 12.4 16.2 16.2 0 0 1 10-13.4zm2.8 29-13.3 15.9c-2.7-2.5-.4-6.8 2-9.5l8.8-10c.7-1 1.7-1.8 2.8-1.5 1.9.6 1 3.5-.3 5zm2.7 6a102.2 102.2 0 0 1-14.5 20.2c-1.4-.4-2.1-2-1.7-3.5a8.5 8.5 0 0 1 2.1-3.6l9.9-11.4c1-1.2 2.8-2.5 4.2-1.8zm-14.8 29.2a14 14 0 0 1-7.4 14.7c-1.1.6-2.5-.6-2.6-1.9a5.5 5.5 0 0 1 1.1-3.5 36.6 36.6 0 0 1 9-9.2zm-5.5-19.6c2 .3 2.3 3.9.3 4.5v-.2a2.6 2.6 0 0 1-.3-4.3zm-31.1 52.3a7.5 7.5 0 0 1 1.8-3.5l23.1-30.6c1.2-1.5 3-3.3 4.6-2.5.5 3.8-1.9 7-4.2 10l-23.2 29.6c-1.4 0-2.3-1.7-2.1-3zm29.1 2.5a28.4 28.4 0 0 1 9.5-10.4c1.4-1 4.2-1.3 4.4.5a158.4 158.4 0 0 1-12.8 15c-2 0-2-3.3-1-5.2zm11.3.2 14.6-17.8a7.5 7.5 0 0 1 3.6-3c1.4-.3 3.3.7 3.3 2.2q-9.7 12.4-20.3 24c-1 1-3-.2-3-1.6-.2-1.4.8-2.7 1.7-3.8zm5.2-38a55.5 55.5 0 0 1 19.5-24.8c1.6 1.6.5 4-.7 5.9l-7.5 11c-2.7 4.1-6.5 8.6-11.3 7.9zm30.7-44a4.6 4.6 0 0 1 5.8-2 12.9 12.9 0 0 1-4 7.9h-.1a4.6 4.6 0 0 1-1.7-6zm-2.4 14a11.9 11.9 0 0 1 6.4-5.7c1.5-.5 3.8-.3 3.8 1.3a2.8 2.8 0 0 1-1 1.7l-5.1 6c-.9.9-1.7 1.8-2.8 1.7-2-.2-2.2-3.2-1.3-5zm-83.9-10.6a1.6 1.6 0 0 1 .5 2.7 1.6 1.6 0 0 1-.5-2.7zm-16 44.9a309.6 309.6 0 0 1 25.9-31.8c1.3-1.2 3.9-2.5 4.6-.8l-27 34.8c-1 1.4-3 2.7-4.1 1.5-1-.9-.3-2.6.6-3.7zm38.3 33.5c-1.5 1.3-4.2 2.5-5 .7a83.8 83.8 0 0 1 12.2-15.7c1.2-1.3 3.9-2 4.1-.3a57 57 0 0 1-11.3 15.3zm21.1 53.6a6.6 6.6 0 0 1 7-2.3 38.3 38.3 0 0 1-7.3 9.7 6.6 6.6 0 0 1 .3-7.4zm9.3 12.6-.3-.4a5.4 5.4 0 0 1 4.2-1.6 5.6 5.6 0 0 1-5.2 7.1 3.6 3.6 0 0 1 1.3-5zm1.6-7.6c-1.3 1.2-4 2.2-4.5.5a194 194 0 0 1 24.2-30.4c1.5-1.6 4.5-2.9 5.3-.9a165 165 0 0 1-24.9 30.8zm17.6-10.4a10.7 10.7 0 0 1 3-4.4l16-17a6 6 0 0 1 3-2.1c1.1-.2 2.6.6 2.5 1.8q-9 14-17.5 28c-3.5 1.3-7.7-2.6-6.8-6.2zm15.6 5.5a6.3 6.3 0 0 1 1.2-3.2c2.8-4.8 6.3-10 11.8-10.9a37.8 37.8 0 0 1-9.3 15.5 3 3 0 0 1-1.4.9c-1 .2-2.2-1-2.2-2.2zm15.2-45a14.9 14.9 0 0 1-7.5 7.7 5.4 5.4 0 0 1 7.5-7.5zm-4.3-14.2a5.3 5.3 0 0 1 1.4 7l-.4.2c-3.2-.6-3.8-5.7-1-7.2zm4.9 36.5c-2.3 1-5.1-2.2-3.8-4.3 1.4-2.3 5.5-1 5.6 1.4l-2.3 2zm-4.2 25.2c-.1-1.6.7-3 1.5-4.1l3.9-5.6a8 8 0 0 1 2.9-3 2.8 2.8 0 0 1 3.6.9 87.2 87.2 0 0 1-7.8 13 3.4 3.4 0 0 1-1 1c-1.6.7-3.3-.7-3.2-2.2zm-14.4-86.5a26.5 26.5 0 0 1 12.5-17.4c1.8 1.7.6 4.8-1 6.7a40.5 40.5 0 0 1-11.7 10.6zm19.3 33.2-1-7.1c-.4-2.9-.5-6.3 1.6-8.2a53 53 0 0 1 3.5 20.6c-2.4.6-3.8-2.7-4.2-5.3zm25.5 60.3c.4 3.2-1.5 7-4.7 7.7l-126.8 27c-2 .4-4.1.8-5.6-.3a5 5 0 0 1-1.7-2.7l-1.1.2-37.5-163-3.3-25.6 46.2-8.7a77.3 77.3 0 0 0-14.7 4.2c-6.8 2.7-14.6 6.9-20.7 2.9-5 0-6.5 6.7-5.5 11.5.9 4.8 2.5 10.5-.7 14.2a7.3 7.3 0 0 1 10 3l-4.3 3.3-5.2-3.9a263.4 263.4 0 0 1 10.5 36.7l26 123.6a17.5 17.5 0 0 0 .3 1.7l5.2-1.2a3.5 3.5 0 0 1-3-1.2l18.4-6.7a5.8 5.8 0 0 1 2.9-.6c1 .2 2 1.2 3.2 1.5 2.4.5 4.4-1.9 6-4 1.7-1.9 4.5-3.6 6.4-2a2.1 2.1 0 0 0-.2 3.5 37.1 37.1 0 0 0 27-11.8 6.5 6.5 0 0 1 .4 6.6 6.8 6.8 0 0 1-1.7 2l7.9-1.5a266.6 266.6 0 0 1 56.7-14.1c3.3-.4 3.4-5.3 2.6-8.5l-6.3-25.4-5.6-1a56.5 56.5 0 0 0-1-35.4l3 3.9-21.8-110.8v-.1c-.5-2.9-.6-6 1.5-8l24.5 123.5a66 66 0 0 1-4.2-4.6l13.2 67.1c2.1-3.8-4.3-9.9-.5-11.8 1.8 2.7 3.8 5.5 4.2 8.8zm-14.8-16.5a1.9 1.9 0 0 1 2.6-1.5 4.1 4.1 0 0 1-.5 4.6 3.4 3.4 0 0 1-2.1-3zm7-10.7a46 46 0 0 1-3.7-20.5 25 25 0 0 1 3.8 20.5z" class="cls-2" style="opacity:.15;fill:#000"/>
  <path id="path191" d="M271.07 174.3c-1.6.4-3-.6-4.3-1.6a79.7 79.7 0 0 1-17-18.3l-17.5 81.4c-1.2 5.4-4 12.3-9.7 11.7-2.3-.3-4.2-1.9-5.9-3.4l-17-14.7a279.6 279.6 0 0 0-6.5 52.4c0 5.2-7.2 7.4-12.2 5.7-5-1.6-9-5.5-14-7s-12 1.1-11.7 6.3a33.5 33.5 0 0 1-10.9 26.2 93.8 93.8 0 0 1 4-37.2c1-3.4 2.8-7.3 6.3-8.1 2-.5 4 0 6 .7l21.6 6.7 8.3-57.7c.2-1.6.5-3.3 1.7-4.3 2.3-1.8 5.4.1 7.6 2l21.5 18.2q10.6-41.4 17.8-83.5l-23.5 21.5c-1.6 1.5-3.7 3.1-5.8 2.3-3.6-1.4-1.3-6.8 1.4-9.6l31.3-32.6a5.5 5.5 0 0 1 2.4-1.7c2.1-.6 4 1.5 5.2 3.4l21.2 32.3c2 3 3.1 8.2-.3 9z" class="cls-2" style="opacity:.15;fill:#000"/>
  <path id="path193" d="M442.97 597.6c-2.6-1.6-5.9-1.2-8.8-.7q-82.3 12.5-163.2 32.9l7.4 18c1.1 2.7 2.4 5.6 4.8 7 3 1.7 6.7.8 10.2 0l136.6-36.9c5-1.4 10.3-3 13.7-6.7 3.4-4 3.7-11-.7-13.6zM326.87 637l-5 1.4a7 7 0 0 1-4 .4c-1.2-.4-2.3-2-1.7-3.1-.7 1.6-3.6-.2-3-2 .5-1.6 2.5-2.4 4.1-2.8l8.5-2.6c6.8-2 14-4 21-2.3a19 19 0 0 1-15 5.4c1.4 2.6-2 4.9-5 5.6z" class="cls-2" style="opacity:.15;fill:#000"/>
  <path id="rect5242" d="m68.06 636.4 465.68-90.52 44.48 228.82-465.69 90.52z" style="opacity:.15;fill:#000;fill-opacity:0;stroke:#000;stroke-width:7.3;stroke-linejoin:round;stroke-dasharray:none;stroke-opacity:1"/>
  <path id="path149-5" d="M813.67 1472.96c-1.6-4.8-7-7-11.7-8.8-68.4-24.4-137.2-49-208.5-63-8.6-1.7-13.7 9.2-15.4 18-.6 2.9-1.3 6-.5 9 2 6.5 9.5 9 16 10.6l193.9 46.6c5.8 1.4 12 2.7 17.5 1 5.6-1.7 10.6-7.8 8.7-13.4zm-12.6 6.2c.7 1-.1 2.6-1.3 3a5.3 5.3 0 0 1-3.6-.5 38.8 38.8 0 0 1-8.6-4.9 5.3 5.3 0 0 1 7.5-.1l-.1.3zm-105-31.3a64 64 0 0 1-15.5-4 3.3 3.3 0 0 1-1.8-1.3c-.6-1.2.3-2.8 1.6-3.2a7 7 0 0 1 4 .4l7.5 2.4c2.7.8 6 3.7 4.1 5.7zm15 10.8a9.4 9.4 0 0 1-6.9-3.5 8.5 8.5 0 0 1 11.6 3.5 4 4 0 0 1-4.6 0zm-49.5-34.7a6.5 6.5 0 0 1 3.3 1.5l.5-.5 1.6 2.3a5.6 5.6 0 0 1-7.9-1.5 2.3 2.3 0 0 1 2.5-1.9zm8.8 3.9c.3-1.7 3.5-2 3.8-.3l.7-.2c1.7.3 3.6 1 3.8 2.7a9.7 9.7 0 0 1-5.2 1.5c-1.7-.2-3.6-1.9-3.1-3.6zm-22 1c-1.6 2-5.6.9-6.2-1.7-1.9.9-3.9 1.9-6 1.5-2-.3-3.8-2.3-3-4.3a35 35 0 0 1 9.9.3c2.4.5 5.2 1.7 5.4 4.2zm-23-2.2c-2-.2-1.6-3.2-.2-4.7 1.1-.3 2.2 1 2.1 2.1a3.8 3.8 0 0 1-2 2.7zm-6.6 10.5a13 13 0 0 1-11.7-3.4c2-2.2 5.7-1.3 8.5-.4a5.5 5.5 0 0 1 2.8 1.6 2.8 2.8 0 0 1 .3 2.2zm-8.3-17.4a4 4 0 0 1-6-2.9 4.4 4.4 0 0 1 6.2-.1 2.3 2.3 0 0 1-.2 3z" class="cls-2" style="opacity:.15;fill:#000"/>
  <path id="path151-5" d="M666.87 1540.16c3.4 3.3 1.4 9-.7 13.4l-6.2 12.7c-1 1.9-2.1 3.9-4 4.7-1.8.7-3.7.3-5.5-.2l-92.6-24.1c-5.5-1.4-8.5-8-8-13.6.4-5.7 3.4-10.9 6.4-15.8.9-1.3 1.9-2.7 3.4-3.3 1-.2 2-.3 3 0 34 4.5 67.3 12.5 99.6 23.7 1.7.5 3.3 1.3 4.6 2.4zm-3.5 9c1-2 1.8-4.4.6-6.1a5.7 5.7 0 0 0-3-1.6 607 607 0 0 0-96-23c-4.2-.7-7 4-8.7 7.8-2 4.8-3.7 11.2.2 14.6 1.6 1.2 3.5 2 5.5 2.4l46.2 12 42 10.9a6 6 0 0 0 3.4.1c1.5-.5 2.2-1.9 2.9-3.3z" class="cls-2" style="opacity:.15;fill:#000"/>
  <path id="path153-4" d="M566.67 1484.76c.5-3 4.7-3 7.6-2.1q105.5 31.8 210.8 64.6c1.2 2.3-2.9 3.3-5.3 2.5z" class="cls-2" style="opacity:.15;fill:#000"/>
  <path id="path155-1" d="M786.27 1517.56c2.9.9 5.9 4.7 3.3 5.7l-210.8-64.4c-1.7-2 2.4-3.4 4.8-2.7z" class="cls-2" style="opacity:.15;fill:#000"/>
  <path id="path161-8" d="M789.37 1572.96c2.3 3 1.3 7.3 0 10.8a164.5 164.5 0 0 1-8.6 19.8c-1 2.1-3 4.7-5.4 4q-44.1-11.1-87.6-25.1c-5-1.6-10.6-4-12-9-.7-3 .2-5.9 1.1-8.7l2.8-8.7c1-3 2.3-6.6 5.4-7.4a9.7 9.7 0 0 1 4.2 0 750.8 750.8 0 0 1 93.9 20.9c2.3.7 4.8 1.5 6.3 3.3zm-13 29.3a6 6 0 0 0 1.8-2.6l8-18.8c1-2-.1-4.6-1.9-6a15.9 15.9 0 0 0-6.2-2.8q-43.3-11.4-87.6-18.9a5.9 5.9 0 0 0-3.4.2c-1.4.6-2 2-2.6 3.4l-3.4 8.6a11.7 11.7 0 0 0-1.1 5.6c.6 4.4 5.4 6.5 9.7 7.8q40.7 12.4 81.7 23.5c1.7.6 3.7 1 5 0z" class="cls-2" style="opacity:.15;fill:#000"/>
  <path id="path189-8" d="m505.87 1519.76 58-187.3-145.4-47q-29.6 98.4-56.2 197.8l136.9 40.2c1.4.4 3 .8 4.4.1 1.3-.7 1.8-2.3 2.3-3.8zm-93.1-49.6c-1.4-3.6 3-6.5 6.7-7.9l6.5-2.4c2.3-.7 5.9-.5 5.5 1.8a59 59 0 0 1-18.7 8.5zm2 4.8c-1.4.1-3-.2-3.5-1.4s1.8-2.5 2-1.2v.1a2.3 2.3 0 0 1 1.5 2.6zm-19.6-21c-.7-4.3 4.7-6.8 9-7.9l21.9-5.2c1.1-.2 2.5-.4 3.3.3.7 1 .3 2.7-.7 3.5a9.4 9.4 0 0 1-3.7 1.2c-6.4 1.6-11.2 6.6-16.8 10.1a13 13 0 0 1-7.3 2.5c-2.6-.1-5.2-1.8-5.7-4.4zm.5 17.8a3 3 0 1 1-.6-5 3 3 0 0 1 .5 5zm2.4-70.1-4.5 6.2h-.1a2.1 2.1 0 0 1-3-.1c0-2.6 0-5.5 1.8-7.4 1.7-1.8 5.8-1.3 5.9 1.4zm1.7-21.8a2.7 2.7 0 0 1 3.4 2.1 5.7 5.7 0 0 1-4 1.3 2.1 2.1 0 0 1 .6-3.3zm-7.5 37a4.1 4.1 0 0 1 1 6.2 49 49 0 0 0-9.2 13.3c-1.2.4-2.6-.7-2.8-2a6.8 6.8 0 0 1 .5-3.8c2.2-5.6 5-11.6 10.5-13.7zm-11.8 21.3.1.1c1-1.2 3.2 1.2 1.9 2.2a1.6 1.6 0 0 1-2-2.2zm-5 24.3a3.2 3.2 0 0 1 2.6.3l.3-.4 2.8 2.7a9 9 0 0 1-5.3 1 3.4 3.4 0 0 1-.4-3.6zm43.7-127c-1.9-3 2-6.1 5.4-7.3l14.5-5.6c4.5-1.7 9.5-3.5 14.1-1.8 0 1.6-1.9 2.5-3.4 3.1zm31.7-6.2c2 1.4-.4 4.4-2.6 5.5l-19.7 9.4a3 3 0 0 1-2 .4c-2.1-.6-.6-3.8 1.3-5a75.8 75.8 0 0 1 23-10.3zm-25.4 19.7 27-11a38 38 0 0 1 14.3-3.6c1.2 0 3 .7 2.7 1.9l-49.8 19.7c-1-3.2 2.7-5.7 5.8-7zm68.5 82.7a4.2 4.2 0 1 1 7.7-3.3 5.6 5.6 0 0 1-3.9 1.3zm8.7-23.7c-2-1.3-1.9-4.8 0-6.6 1.7-1.8 4.4-2.2 7-2.2 1.2 0 2.8.2 3.3 1.5.6 1.2-.4 2.7-1.5 3.7a15.7 15.7 0 0 1-8.7 3.5zm-89.9 22-8.8 3.9c-.9-2.2.3-4.9 2.2-6.2 1.8-1.6 4.2-2.2 6.5-2.7a5.5 5.5 0 0 1 3.3 0c1 .3 1.7 1.7 1 2.6l-4.3 2.3zm18.1-61.8c-1.7-1.3.6-3.8 2.6-4.8l33.8-14.7c2.4-1 6.3-1.1 6.2 1.5a242.9 242.9 0 0 1-42.5 17.9zm83.3-2.2c-1.8.4-2.7-3-1.1-4 1.5-1.4 3.8-1 5.6-.3a6 6 0 0 1-4.7 3.7zm3.3-35a2.2 2.2 0 0 1-1.2-1.2c-.5-1.4 1.7-2 3.2-2 3.4.2 7.9 1.5 8 4.9a18 18 0 0 1-10-1.9zm-.5 5c1.4.1 3.2 1 2.8 2.5a37 37 0 0 1-18 4.4 16.2 16.2 0 0 1 15.2-7zm-11.3 26.8-19.3 7.7c-1.2-3.4 3-6 6.2-7.3l12.6-4.7c1-.4 2.3-.8 3.1 0 1.4 1.4-.7 3.6-2.6 4.3zm-.5 6.6a102.2 102.2 0 0 1-22.3 11c-1-1-1-2.9 0-4a8.5 8.5 0 0 1 3.7-2.1l14-5.3c1.6-.6 3.7-1 4.6.4zm-27 18.7a14 14 0 0 1-13.4 9.4c-1.3 0-2-1.6-1.4-2.8a5.5 5.5 0 0 1 2.7-2.6 36.6 36.6 0 0 1 12.3-3.9zm4.5-19.9c1.7 1.3.3 4.6-1.8 4.2v-.2a2.6 2.6 0 0 1 1.8-4zm-52.1 31.3a7.5 7.5 0 0 1 3.2-2.2l34.9-16c1.7-.7 4.1-1.4 5.2 0-1.3 3.6-5 5.4-8.4 6.8l-34.5 15c-1.2-.6-1.2-2.4-.4-3.6zm24.5 16a28.4 28.4 0 0 1 13.2-4.6c1.7-.1 4.3.9 3.6 2.6a158.4 158.4 0 0 1-18.4 7.1c-1.7-1-.2-4 1.6-5zm9.7 5.6 21.4-8.7a7.5 7.5 0 0 1 4.5-1c1.4.4 2.7 2.2 2 3.5q-14.5 6.4-29.3 11.5c-1.5.5-2.6-1.6-2-2.8.5-1.3 2-2 3.3-2.6zm22.7-31a55.5 55.5 0 0 1 28.9-12.5c.7 2.1-1.5 3.7-3.4 4.8l-11.9 6.2c-4.3 2.3-9.8 4.4-13.6 1.5zm48-24.2a4.6 4.6 0 0 1 5.9 1 12.9 12.9 0 0 1-7.2 5.1l-.1-.1a4.6 4.6 0 0 1 1.3-6zm-8.9 11.2a11.9 11.9 0 0 1 8.3-2c1.6.3 3.5 1.6 2.7 3a2.8 2.8 0 0 1-1.6 1l-7.4 3c-1.1.3-2.3.6-3.2 0-1.7-1-.4-3.8 1.2-5zm-68.8-49a1.6 1.6 0 0 1-.9 2.6 1.6 1.6 0 0 1 .9-2.6zm-35.4 31.8a309.6 309.6 0 0 1 37.9-15.6c1.7-.5 4.6-.5 4.4 1.4l-40.3 17.8c-1.5.7-3.9 1-4.3-.6-.4-1.3 1-2.4 2.3-3zm17.8 47.6c-2 .5-4.8.3-4.8-1.7a83.8 83.8 0 0 1 18.3-8c1.6-.5 4.4 0 3.7 1.7a57 57 0 0 1-17.2 8zm-6.8 57.3a6.6 6.6 0 0 1 7.2 1.2 38.3 38.3 0 0 1-11 5.1 6.6 6.6 0 0 1 3.8-6.3zm2.2 15.5-.1-.5a5.4 5.4 0 0 1 4.4.6 5.6 5.6 0 0 1-7.9 3.8 3.6 3.6 0 0 1 3.5-3.8zm5-6c-1.7.5-4.6.2-4.2-1.6a194 194 0 0 1 35.6-15.3c2.1-.7 5.4-.4 5.2 1.7a165 165 0 0 1-36.5 15.4zm20.4-.7a10.7 10.7 0 0 1 4.7-2.5l22.2-7.4a6 6 0 0 1 3.6-.4c1.1.3 2 1.8 1.4 2.8q-14.6 8-28.8 16.4c-3.7-.6-5.5-6-3-8.8zm11 12.2a6.3 6.3 0 0 1 2.7-2.3c4.7-2.9 10.3-5.8 15.6-4a37.8 37.8 0 0 1-15.6 9.3 3 3 0 0 1-1.7 0c-1-.2-1.4-1.7-.8-2.8zm34.8-32.3a14.9 14.9 0 0 1-10.2 3.1 5.4 5.4 0 0 1 10.1-3zm3-14.6a5.3 5.3 0 0 1-2.1 6.9l-.4-.2c-2.5-2-.7-6.8 2.4-6.7zm-13 34.5c-2.5-.2-3.5-4.4-1.3-5.7 2.3-1.4 5.3 1.7 4.2 3.9l-2.9.6zm-15.7 20c.7-1.3 2-2.1 3.3-2.8l6-3a8 8 0 0 1 4-1.3 2.8 2.8 0 0 1 2.8 2.4 87.2 87.2 0 0 1-13 7.7 3.4 3.4 0 0 1-1.5.5c-1.6-.1-2.4-2.1-1.7-3.5zm28.4-82.8a26.5 26.5 0 0 1 19.3-9.4c.7 2.3-1.7 4.5-4 5.4a40.5 40.5 0 0 1-15.4 3.7zm1.2 38.3 2.6-6.7c1-2.7 2.5-5.8 5.2-6.5a53 53 0 0 1-6.6 19.8c-2.5-.6-2.1-4.1-1.3-6.6zm-6.1 65.1c-1.2 3.1-4.6 5.5-7.8 4.6l-124.4-36.3c-2-.6-4-1.3-4.9-3a5 5 0 0 1-.1-3.1l-1.2-.4 44.5-161.3 9.2-24 44.8 14.2a77.3 77.3 0 0 0-15-3.3c-7.2-.8-16-1-19.5-7.3-4.4-2.3-9 2.8-10.4 7.5-1.5 4.7-2.7 10.5-7.3 12.2a7.3 7.3 0 0 1 7.4 7.4l-5.4 1-2.7-6a263.4 263.4 0 0 1-8.2 37.3l-35.8 121a17.5 17.5 0 0 0-.5 1.7l5.2 1.5a3.5 3.5 0 0 1-2.2-2.6l19.5 2.9a5.8 5.8 0 0 1 2.8.8c.8.7 1.2 2 2.1 2.8 1.9 1.7 4.8.5 7.1-.5 2.4-1 5.7-1.2 6.6 1.2a2.1 2.1 0 0 0-1.7 3 37.1 37.1 0 0 0 29.2 2.3 6.5 6.5 0 0 1-2.7 6 6.8 6.8 0 0 1-2.5 1.1l7.7 2.3a266.6 266.6 0 0 1 56.7 14.5c3 1.2 5.4-3 6.2-6.1l6.6-25.5-4.5-3.5a56.5 56.5 0 0 0 16-31.5c0 1.6.4 3.2.8 4.7l33.3-107.8v-.1c1-2.8 2.4-5.6 5.1-6.3l-37 120.3a66 66 0 0 1-1.4-6l-20.3 65.3c3.6-2.3.9-10.8 5.1-10.7a21 21 0 0 1-.4 9.7zm-5.3-21.5h.1a1.9 1.9 0 0 1 3 0 4.1 4.1 0 0 1-2.7 3.7 3.4 3.4 0 0 1-.4-3.7zm11.3-6a46 46 0 0 1 6.4-20 25 25 0 0 1-6.4 20z" class="cls-2" style="opacity:.15;fill:#000"/>
  <path id="path193-3" d="M761.87 1413.16c-1.5-2.7-4.6-3.9-7.5-4.9q-78.3-28-159.1-48.5l-2.1 19.3c-.3 3-.6 6.1.9 8.5 1.7 3 5.5 4 9 4.8l137.8 32.5c5 1.2 10.5 2.3 15.2.5 4.9-1.8 8.5-7.8 5.8-12.3zm-121-20.5-5-1.1a7 7 0 0 1-3.8-1.6c-.8-1-1-2.8 0-3.6-1.4 1.1-3-1.8-1.7-3.1 1.2-1.3 3.3-1 5-.6l8.7 1.7c6.8 1.6 14.2 3.2 19.5 8a19 19 0 0 1-15.6-2.3c-.1 2.9-4.2 3.2-7.2 2.5z" class="cls-2" style="opacity:.15;fill:#000"/>
  <path id="rect5242-5" d="m402.93 1269.8 451.18 146.6-72.03 221.69-451.18-146.6z" style="opacity:.15;fill:#000;fill-opacity:0;stroke:#000;stroke-width:7.3;stroke-linejoin:round;stroke-dasharray:none;stroke-opacity:1"/>
  <path id="path47-9-0" d="M1454.44 863.45c-2.5 2.75-6.46 3.95-9.58 5.55a26.7 26.7 0 0 0-14.32 20.54c-.35 2.67-.51 6.02-2.86 7.38-2.12 1.15-5.06-.06-6.43-2.19-1.34-2.03-1.76-4.47-2.31-6.96a56.5 56.5 0 0 0-10.05-22.23c-1.26-1.63-2.66-3.31-3.06-5.2-.44-2 .44-4.47 2.43-4.9 9.34-2.6 19.48-6.65 23.79-15.44 1.18-2.27 2-5.14 4.57-5.74 2.76-.67 5.28 2.05 5.73 4.8.67 2.76-.09 5.5.09 8.38-.05 2.86 1.33 5.97 4.07 6.73 2.2.55 4.6-.72 6.76-.04 3.53 1.06 3.58 6.62 1.17 9.32z" class="cls-2" style="opacity:.15;fill:#000"/>
  <path id="path149-5-2" d="M1476.38 1002.2c-3.4-3.75-9.23-3.58-14.26-3.33-72.43 5.33-145.3 10.63-216.18 26.63-8.55 1.93-8.81 13.96-6.8 22.7.61 2.89 1.23 6 3.17 8.43 4.46 5.13 12.33 4.4 18.92 3.23l196.2-35.73c5.86-1.07 12.06-2.38 16.4-6.16 4.44-3.82 6.55-11.42 2.55-15.77zm-9.02 10.76c1.04.63.96 2.42.02 3.27a5.3 5.3 0 0 1-3.5 1 38.8 38.8 0 0 1-9.84-1.01 5.3 5.3 0 0 1 6.82-3.12l.03.31zm-108.7 13.8a64 64 0 0 1-15.79 2.6 3.3 3.3 0 0 1-2.17-.46c-1.04-.85-.86-2.68.17-3.57a7 7 0 0 1 3.82-1.25l7.83-.84c2.8-.36 6.98.96 6.05 3.56zm18.09 3.82a9.4 9.4 0 0 1-7.73-.42 8.5 8.5 0 0 1 12.03-1.48 4 4 0 0 1-4.2 1.86zm-59.3-11.74a6.5 6.5 0 0 1 3.62.04l.26-.66 2.4 1.46a5.6 5.6 0 0 1-7.84 1.82 2.3 2.3 0 0 1 1.52-2.75zm9.62.01c-.4-1.67 2.4-3.24 3.36-1.8l.56-.47c1.67-.42 3.7-.54 4.57.93a9.7 9.7 0 0 1-4.15 3.47c-1.64.5-4.07-.28-4.3-2.04zm-19.72 9.8c-.65 2.48-4.75 3.1-6.35.96-1.38 1.59-2.8 3.31-4.89 3.8-1.95.53-4.4-.57-4.48-2.73a35 35 0 0 1 9.18-3.72c2.4-.52 5.44-.55 6.64 1.66zm-21.92 7.29c-1.91.62-2.76-2.28-2.08-4.22.88-.72 2.41.03 2.76 1.07a3.8 3.8 0 0 1-.73 3.28zm-1.8 12.27a13 13 0 0 1-12.07 1.62c.94-2.82 4.69-3.5 7.61-3.8a5.5 5.5 0 0 1 3.2.33 2.8 2.8 0 0 1 1.17 1.9zm-14.62-12.56a4 4 0 0 1-6.66-.23 4.4 4.4 0 0 1 5.63-2.6 2.3 2.3 0 0 1 1.03 2.83z" class="cls-2" style="opacity:.15;fill:#000"/>
  <path id="path151-5-4" d="M1369.25 1122.99c4.45 1.64 4.92 7.66 4.78 12.54l-.54 14.12c-.15 2.14-.34 4.42-1.76 5.92-1.36 1.36-3.26 1.77-5.11 2.04l-94.44 15.37c-5.6.94-11.01-3.88-12.82-9.2-1.93-5.38-1.3-11.35-.53-17.04.3-1.56.65-3.24 1.78-4.4a6.1 6.1 0 0 1 2.74-1.2 506.82 506.82 0 0 1 100.69-18.58c1.75-.23 3.54-.14 5.17.34zm.44 9.64c.1-2.23-.13-4.75-1.92-5.82a5.7 5.7 0 0 0-3.39-.25 607 607 0 0 0-97.1 17.76c-4.13 1.05-4.79 6.49-4.81 10.65.11 5.2 1.14 11.74 6.08 13.27 1.95.45 4.01.42 6-.02l47.11-7.7 42.83-7a6 6 0 0 0 3.15-1.28c1.17-1.07 1.24-2.63 1.31-4.2z" class="cls-2" style="opacity:.15;fill:#000"/>
  <path id="path153-4-8" d="M1255.21 1112.8c-.75-2.94 3.09-4.64 6.1-4.99q109.36-13.54 218.93-26.1c2.03 1.63-1.32 4.2-3.84 4.44z" class="cls-2" style="opacity:.15;fill:#000"/>
  <path id="path155-1-3" d="M1469.34 1054.06c3.01-.34 7.3 1.92 5.32 3.89l-218.85 26.27c-2.36-1.14.83-4.08 3.3-4.4z" class="cls-2" style="opacity:.15;fill:#000"/>
  <path id="path161-8-9" d="M1494.56 1103.49c3.32 1.81 4.14 6.15 4.37 9.88a164.5 164.5 0 0 1 .13 21.58c-.07 2.33-.84 5.51-3.32 5.84q-44.83 7.67-90.27 12.44c-5.22.56-11.32.63-14.62-3.38-1.85-2.46-2.2-5.48-2.5-8.4l-.96-9.1c-.3-3.14-.57-6.96 1.95-8.94a9.7 9.7 0 0 1 3.84-1.7 750.8 750.8 0 0 1 94.34-18.83c2.38-.29 5-.57 7.1.48zm-.05 32.05a6 6 0 0 0 .6-3.1l-.28-20.43c.1-2.24-1.95-4.17-4.17-4.72a15.9 15.9 0 0 0-6.8-.06q-44.21 7.07-87.77 18.11a5.9 5.9 0 0 0-3.02 1.56c-1.04 1.11-1.03 2.64-1 4.16l.36 9.24a11.7 11.7 0 0 0 1.25 5.57c2.33 3.78 7.57 3.76 12.03 3.21q42.24-5.1 84.23-11.52c1.8-.14 3.79-.58 4.57-2.02z" class="cls-2" style="opacity:.15;fill:#000"/>
  <path id="path189-8-0" d="m1213.74 1169.39-22.63-194.76-152 15.76q12.7 101.97 28.53 203.64l141.47-18.55c1.44-.2 3.07-.48 4.06-1.69.91-1.16.72-2.83.57-4.4zm-105.2-7.75c-2.74-2.72.12-7.16 2.93-9.93l4.98-4.82c1.82-1.57 5.2-2.84 5.76-.58a59 59 0 0 1-13.67 15.33zm3.77 3.58c-1.24.66-2.83 1.03-3.77.14-.94-.9.64-3.02 1.34-1.9l.04.08a2.3 2.3 0 0 1 2.43 1.78zm-26.42-11.28c-2.37-3.65 1.55-8.12 5.04-10.87l17.93-13.6c.93-.63 2.13-1.38 3.14-1.06 1.05.63 1.37 2.35.78 3.48a9.4 9.4 0 0 1-2.9 2.6c-5.2 4.04-7.58 10.56-11.29 16.02a13 13 0 0 1-5.66 5.24c-2.42.96-5.49.45-7-1.72zm7.65 16.08a3 3 0 1 1-2.57-4.33 3 3 0 0 1 2.48 4.37zm-26.13-65.1-1.61 7.5-.1.04a2.1 2.1 0 0 1-2.78 1.12c-1.05-2.38-2.22-5.03-1.34-7.5.83-2.33 4.78-3.53 5.96-1.1zm-7.25-20.62a2.7 2.7 0 0 1 3.95.54 5.7 5.7 0 0 1-3.13 2.81 2.1 2.1 0 0 1-.78-3.26zm8.09 36.87a4.1 4.1 0 0 1 3.42 5.27 49 49 0 0 0-3.04 15.88c-.94.85-2.66.41-3.37-.7a6.8 6.8 0 0 1-1.08-3.67c-.25-6.01-.11-12.63 4.07-16.78zm-2.19 24.25.13.06c.43-1.5 3.42-.2 2.63 1.24a1.6 1.6 0 0 1-2.72-1.2zm5.25 24.25a3.2 3.2 0 0 1 2.5-.77l.11-.5 3.65 1.35a9 9 0 0 1-4.44 3.05 3.4 3.4 0 0 1-1.82-3.13zm-11.35-133.83c-2.95-1.97-.64-6.38 1.99-8.85l11-10.99c3.43-3.37 7.27-7.04 12.17-7.34.65 1.46-.73 3.05-1.86 4.2zm26.49-18.48c2.4.48 1.41 4.19-.16 6.09l-14.22 16.55a3 3 0 0 1-1.66 1.18c-2.17.3-2.09-3.24-.84-5.1a75.8 75.8 0 0 1 16.88-18.72zm-15.27 28.29 20.25-20.98a38 38 0 0 1 11.62-9.07c1.1-.48 3.03-.57 3.24.65l-37.59 38.14c-2.2-2.52.17-6.3 2.48-8.74zm96.07 47.96a4.2 4.2 0 1 1 5.71-6.13 5.6 5.6 0 0 1-3.04 2.77zm-1.61-25.2c-2.36-.37-3.68-3.61-2.67-6.03.83-2.33 3.13-3.79 5.51-4.84 1.1-.48 2.64-.95 3.63.04 1.03.85.72 2.63.12 3.99a15.7 15.7 0 0 1-6.54 6.72zm-73.35 56.46-6.47 7.12c-1.71-1.64-1.7-4.6-.5-6.56 1-2.19 2.96-3.7 4.86-5.1a5.5 5.5 0 0 1 3.02-1.33c1.04-.13 2.24.87 1.97 1.98l-3 3.84zm-8.41-63.84c-2.08-.5-1-3.72.43-5.44l24.98-27.1c1.8-1.9 5.32-3.56 6.28-1.14a242.9 242.9 0 0 1-31.64 33.55zm75.3-35.68c-1.48 1.1-3.68-1.65-2.62-3.21.8-1.89 3.07-2.45 5-2.54a6 6 0 0 1-2.8 5.29zM1148.06 992a2.2 2.2 0 0 1-1.59-.6c-1.02-1.09.75-2.52 2.12-3.13 3.2-1.2 7.84-1.82 9.3 1.25a18 18 0 0 1-9.91 2.3zm1.56 4.78c1.32-.47 3.33-.38 3.57 1.16a37 37 0 0 1-14.69 11.3 16.2 16.2 0 0 1 11.08-12.55zm.5 29.08-14.55 14.84c-2.47-2.62.32-6.7 2.72-9.18l9.63-9.39c.75-.77 1.78-1.66 2.83-1.25 1.85.71.82 3.57-.64 4.98zm2.2 6.24a102.2 102.2 0 0 1-15.95 19.07c-1.32-.5-2.09-2.24-1.62-3.66a8.5 8.5 0 0 1 2.54-3.41l10.66-10.5c1.23-1.2 2.98-2.42 4.37-1.5zm-17.14 28.02a14 14 0 0 1-8.46 14.01c-1.18.52-2.47-.66-2.4-2a5.5 5.5 0 0 1 1.41-3.47 36.6 36.6 0 0 1 9.68-8.53zm-3.92-20.03c2.08.5 2.13 4.1.05 4.57l-.08-.18a2.6 2.6 0 0 1 .03-4.39zm-35.01 49.69a7.5 7.5 0 0 1 2.04-3.3l25.46-28.74c1.27-1.33 3.18-2.94 4.75-2.1.27 3.81-2.39 6.95-4.93 9.6l-25.5 27.67c-1.34-.06-2.07-1.71-1.82-3.13zm28.88 4.73a28.4 28.4 0 0 1 10.21-9.54c1.52-.78 4.3-.91 4.34.93a158.4 158.4 0 0 1-13.96 13.93c-1.96-.23-1.8-3.58-.55-5.22zm11.13 1.2 16.06-16.6a7.5 7.5 0 0 1 3.71-2.73c1.45-.2 3.36.92 3.25 2.4q-10.68 11.7-22.16 22.35c-1.17 1.06-3.02-.41-2.96-1.75-.07-1.4 1.02-2.64 1.97-3.71zm8.24-37.52a55.5 55.5 0 0 1 21.38-23.12c1.5 1.64.13 4-1.17 5.77l-8.38 10.48c-3 3.84-7.18 7.98-11.83 6.87zm34.12-41.54a4.6 4.6 0 0 1 5.8-1.47 12.9 12.9 0 0 1-4.52 7.58l-.13-.05a4.6 4.6 0 0 1-1.24-6.02zm-3.61 13.85a11.9 11.9 0 0 1 6.78-5.19c1.59-.37 3.85.05 3.69 1.65a2.8 2.8 0 0 1-1.06 1.57l-5.56 5.73c-.88.72-1.86 1.48-2.93 1.3-1.96-.23-1.9-3.32-.92-5.06zm-82.73-17.02a1.6 1.6 0 0 1 .22 2.74 1.6 1.6 0 0 1-.22-2.74zm-19.53 43.4a309.6 309.6 0 0 1 28.36-29.6c1.35-1.14 4-2.31 4.59-.5l-29.67 32.58c-1.09 1.24-3.16 2.49-4.18 1.18-.89-1.02-.05-2.6.9-3.67zm35.51 36.34c-1.62 1.26-4.27 2.21-5.07.38a83.8 83.8 0 0 1 13.5-14.71c1.26-1.1 4.03-1.78 4.07.06a57 57 0 0 1-12.5 14.27zm16.94 55.16a6.6 6.6 0 0 1 7.07-1.81 38.3 38.3 0 0 1-8 9.1 6.6 6.6 0 0 1 .93-7.3zm8.28 13.29-.3-.42a5.4 5.4 0 0 1 4.27-1.23 5.6 5.6 0 0 1-5.7 6.67 3.6 3.6 0 0 1 1.67-4.9zm2.14-7.51c-1.35 1.14-4.12 2.04-4.48.23a194 194 0 0 1 26.38-28.38c1.63-1.49 4.77-2.55 5.44-.55a165 165 0 0 1-27.16 28.84zm18.38-8.89a10.7 10.7 0 0 1 3.29-4.18l17.32-15.74a6 6 0 0 1 3.13-1.82c1.13-.17 2.55.84 2.41 2q-10.12 13.21-19.72 26.63c-3.62.95-7.45-3.26-6.3-6.83zm15 6.72a6.3 6.3 0 0 1 1.53-3.2c3.13-4.55 7.08-9.46 12.66-9.96a37.8 37.8 0 0 1-10.51 14.81 3 3 0 0 1-1.56.69c-1 .22-1.97-.99-1.86-2.24zm18.77-43.6a14.9 14.9 0 0 1-8.07 6.95 5.4 5.4 0 0 1 8.02-6.83zm-3.15-14.58a5.3 5.3 0 0 1 .86 7.16l-.44-.02c-3.1-.82-3.4-5.93-.51-7.1zm2.05 36.81c-2.37.83-4.98-2.6-3.5-4.68 1.54-2.21 5.54-.6 5.42 1.87l-2.4 1.72zm-6.28 24.64c.11-1.47.98-2.73 1.89-3.9l4.27-5.16a8 8 0 0 1 3.14-2.8 2.8 2.8 0 0 1 3.53 1.06 87.2 87.2 0 0 1-8.78 12.3 3.4 3.4 0 0 1-1.17 1.06c-1.5.55-3.05-.95-2.97-2.52zm-7.48-87.21a26.5 26.5 0 0 1 13.85-16.4c1.57 1.82.26 4.8-1.48 6.56a40.5 40.5 0 0 1-12.59 9.6zm16.57 34.55-.33-7.18c-.17-2.88-.06-6.32 2.13-8.05a53 53 0 0 1 1.97 20.78c-2.53.46-3.58-2.9-3.86-5.51zm20.73 62.01c.15 3.32-1.99 6.89-5.28 7.36l-128.46 17.07c-2.07.26-4.18.42-5.69-.77a5 5 0 0 1-1.34-2.8l-1.26.13-24.48-165.53-1.29-25.67 46.72-5.12a77.3 77.3 0 0 0-15.05 3.05c-6.91 2.18-15.04 5.55-20.79 1.2-4.95-.33-7.1 6.2-6.48 11.06.53 4.9 1.77 10.7-1.75 14.11a7.3 7.3 0 0 1 9.76 3.78l-4.53 3.1-4.9-4.4a263.4 263.4 0 0 1 7.57 37.43l16.15 125.15a17.5 17.5 0 0 0 .23 1.76l5.37-.73a3.5 3.5 0 0 1-3.07-1.5l19.01-5.22a5.8 5.8 0 0 1 2.89-.4c1.01.32 1.9 1.35 3.05 1.71 2.42.8 4.6-1.48 6.3-3.32 1.78-1.89 4.72-3.4 6.51-1.57a2.1 2.1 0 0 0-.34 3.43 37.1 37.1 0 0 0 27.64-9.7 6.5 6.5 0 0 1-.05 6.58 6.8 6.8 0 0 1-1.84 2.02l7.98-1a266.6 266.6 0 0 1 57.72-9.66c3.23-.11 3.73-4.92 3.2-8.08l-4.26-26-5.53-1.38a56.5 56.5 0 0 0 1.9-35.28 18.5 18.5 0 0 0 2.63 3.98l-13.1-112.06-.04-.1c-.22-2.96-.07-6.09 2.12-7.82l14.77 125a66 66 0 0 1-3.7-4.93l7.81 67.93c2.37-3.55-3.54-10.24.35-11.84a21 21 0 0 1 3.55 9.03zm-13.54-17.52.1-.04a1.9 1.9 0 0 1 2.74-1.22 4.1 4.1 0 0 1-.98 4.48 3.4 3.4 0 0 1-1.86-3.22zm7.91-10.06a46 46 0 0 1-2.22-20.88 25 25 0 0 1 2.22 20.88z" class="cls-2" style="opacity:.15;fill:#000"/>
  <path id="path193-3-5" d="M1404.83 968.43c-2.46-1.86-5.78-1.7-8.84-1.45q-82.94 6.03-165.13 19.93l5.88 18.5c.94 2.87 1.91 5.82 4.26 7.41 2.76 2.06 6.64 1.44 10.17.76l139.18-25.96c5.06-.93 10.53-2.14 14.1-5.69 3.76-3.62 4.63-10.57.34-13.6zm-118.96 30.15-5.02 1.01a7 7 0 0 1-4.12.07c-1.14-.59-2.05-2.16-1.46-3.3-.84 1.58-3.47-.43-2.8-2.14.56-1.67 2.6-2.25 4.32-2.57l8.65-1.96c6.87-1.28 14.28-2.81 21.07-.56a19 19 0 0 1-15.2 4.2c1.08 2.7-2.55 4.62-5.58 5.2z" class="cls-2" style="opacity:.15;fill:#000"/>
  <path id="rect5242-5-2" d="m1018.57 982.34 471.94-48.23 23.7 231.9-471.94 48.23z" style="opacity:.15;fill:#000;fill-opacity:0;stroke:#000;stroke-width:7.3;stroke-linejoin:round;stroke-dasharray:none;stroke-opacity:1"/>
  <path id="path35-8" d="M558.97 1172.1a4.2 4.2 0 0 1-2.7 1.4c-1-.1-2-1-2.7-2l-179.8-224.1a8.7 8.7 0 0 1-2.3-4.3c-.3-3 2.4-5.4 4.8-7.1l21.4-15.5c1.4-1 3-2 4.5-1.8 1.7.3 2.7 1.5 3.7 2.8l185.2 223-32 27.5zm26.1-27.8-182.9-221a283.2 283.2 0 0 0-27 19.4l181.5 225.6z" class="cls-2" style="opacity:.15;fill:#000"/>
  <path id="path49-4" d="M539.97 986.8c7.6-5.7 9-18.8 1.4-24.6-5.5-4.3-13.7-3.5-20.3-1a22.6 22.6 0 0 0-9.8 6.7c-2.4 3-3.7 7.4-2.3 11.2a14 14 0 0 0 4.6 5.8c7.3 6 18.8 7.5 26.4 1.9zm-4.6-17.4a5.5 5.5 0 0 1 1.3 1.6c1.9 3.7-1.2 8.4-5 9.4-3.9 1.2-8.2-.2-11.8-2-1.5-.8-1.7-3.2-.8-4.6a9.6 9.6 0 0 1 4-3.1c3.9-2.1 9-4 12.4-1.2z" class="cls-2" style="opacity:.15;fill:#000"/>
  <path id="path169-0" d="M536.97 1125c-2.4 2-6.4 4-8.5 1.6l-14.4-17.3c-1.7-2-3.6-4.7-2.6-7.2a7.6 7.6 0 0 1 2.7-3l13.4-10.4c2-1.5 4.8.4 6.6 2.4l13 14.6c2.2 2.6 4.3 6.7 1.8 8.8zm-9.6-30.6-10.5 8.1a3 3 0 0 0-1.1 1.2c-.4 1 .4 2 1 2.8l13.2 15c.4.6 1 1.2 1.9 1.3a3.1 3.1 0 0 0 2-1l10.3-8.7c.5-.5 1-1 1.1-1.7a2.5 2.5 0 0 0-.8-1.7l-12.8-14.9a2.6 2.6 0 0 0-4.3-.4z" class="cls-2" style="opacity:.15;fill:#000"/>
  <path id="path173-0" d="M475.07 1025.4a6 6 0 0 1 3.1-1.7c1.7 0 3.2 1.3 4.3 2.6a224.9 224.9 0 0 1 15.7 18.6 3 3 0 0 1-.4 5 114.5 114.5 0 0 1-16 13.4c-1.7 1.2-3.8-.5-5.1-2q-7.5-8.3-14.5-16.9c-1.4-1.7-2.9-4-2.2-6.2a7 7 0 0 1 2.6-3zm5.8 32.9a3 3 0 0 0 1.3-.8l11.7-9.6c-3.1-6.5-8-12-13-17.2-.7-.8-1.6-1.7-2.6-1.5a3.6 3.6 0 0 0-2 .9l-10 7.4c-.9.6-1.7 1.4-1.7 2.4a3.3 3.3 0 0 0 1 2l12.6 15c.8.7 1.6 1.6 2.7 1.4z" class="cls-2" style="opacity:.15;fill:#000"/>
  <path id="path175-9" d="M431.27 1000a5 5 0 0 1-2.9 1.2c-1.2 0-2.2-1-3-2q-8.1-8.7-15.4-18.2c-1-1.3-1.9-2.6-1.8-4.2.2-1.4 1.6-2.9 2.9-3.9l12.6-10.4c2.8-2.2 6.8.8 9 3.5l13.7 16.7a3.7 3.7 0 0 1 1.2 2.3 3.6 3.6 0 0 1-1.2 2.3 86 86 0 0 1-15.1 12.8zm-.8-4.7 8.7-7c1.1-.9 2.3-2 2.5-3.4.2-1.4-.8-2.8-2-4.1l-10.4-12a3.2 3.2 0 0 0-5.3-.8l-8.9 6.6c-1 .8-2.6 2-2.2 3.5a4.1 4.1 0 0 0 1 1.8l13.4 15.3a1.8 1.8 0 0 0 3.1.1z" class="cls-2" style="opacity:.15;fill:#000"/>
  <path id="path185-2" d="M472.97 1192a21 21 0 0 0 4.8-7.5c1.7-5.5-.3-11.7-4.4-15.6a20.8 20.8 0 0 0-15.8-5.3c-7.2.5-14.7 5-16.3 12.2-1 4.4.4 9 2.5 12.8 3.9 6.7 11.5 11.8 19 10.1a21 21 0 0 0 10.3-6.7zm-16.3-18.7c3-1 6.6-.8 9 1.3 4.3 3.9 1 12.3-4.7 13.2a8.5 8.5 0 0 1-8.2-3.3 7.4 7.4 0 0 1 .1-8.6 8.7 8.7 0 0 1 3.8-2.6z" class="cls-2" style="opacity:.15;fill:#000"/>
  <path id="path43-8" d="M818.87 96.6c-2.3 2.1-5.7 2.5-8.6 3.4a29 29 0 0 0-19.1 17.6c-1.3 3.2-2 6.7-4.6 9-2.6 2.1-7.8.9-7.7-2.4a105.6 105.6 0 0 0-6.1-40.2c-1-3.2-1.5-8 1.8-8.6a40 40 0 0 0 27.8-19.7c1.3-2.4 5.1-2 6.7 0 1.7 2.2 1.8 5 1.7 7.7-.2 4.8-1 9.6-.2 14.3.8 4.7 3.4 9.5 8 11 2.8 1.2 2.7 5.8.3 8z" class="cls-2" style="opacity:.15;fill:#000"/>
  <g id="Background-7" style="opacity:.15;fill:#000" transform="rotate(63 364.19 352.48)">
    <path id="path12-8" d="M995.7 792.8c1.5 0 3 1.8 2 3a3.1 3.1 0 0 1-2.8-.6c-.7-.7-.1-2.3.8-2.1z" class="cls-1" style="fill:#000"/>
  </g>
  <path id="path31-7" d="M296.87 1016.4q-76.9-30.7-154.2-59.4-16.3 59.1-31 118.7c-.3 1.4-.6 3 0 4.3.8 1.5 2.6 2 4.2 2.6l138.9 40zm-7.4 7.6-35.1 87.2-41.4-59c.3-1.4 1.9-2.2 3.3-2.7zm-3.5-7.9-76.8 25.2a7.5 7.5 0 0 1-3.4.5c-.9-.1-.8-1.4-1.2-2.2q-25.8-37.8-52.9-74.7 67.3 25.1 134.3 51.1zm-168.7 56.2 25.7-103.1c4.3 5.9 8.4 12 12.6 18l40.2 58.9zm7.3 8.2q35.2-12.3 70.5-24.4c2.1-.7 4.5-1.3 6.5-.6a9.4 9.4 0 0 1 3.6 3.5q20.1 27.4 38.6 56z" class="cls-2" style="opacity:.15;fill:#000"/>
  <path id="path65-7" d="m316.47 1020 5-15.4c-3.4 1.7-7.6-1.7-8.2-5.5-.7-3.8 1.1-7.5 2.7-11l2.2-4.6a2.2 2.2 0 0 1 3.4-1.3l11.5 4c2.5.9 5.2 2 6 4.5.5 1.7.1 3.5-.5 5.2-1 3.2-2 6.5-4.2 9s-6.1 4-9 2.4c-1.8 2.4-1.6 5.5-2.4 8.3-1 2.8-3.9 5.7-6.4 4.4z" class="cls-2" style="opacity:.15;fill:#000"/>
  <path id="path69-4" d="M274.47 1165.6a4 4 0 0 1-2.5-.2 114.6 114.6 0 0 1-15.1-5.5 4 4 0 0 1-2-1.6c-.6-1-.2-2.2.2-3.4l4.8-13a4.2 4.2 0 0 1 1.5-2.3c1-.6 2.4-.2 3.6.2l12.6 4.8c2 .8 4.2 1.9 4.5 4a6.1 6.1 0 0 1-.8 3.3l-4.9 11.3a4 4 0 0 1-1.9 2.4z" class="cls-2" style="opacity:.15;fill:#000"/>
  <path id="path71-4" d="M130.37 936a4 4 0 0 1-2.7 0 108.8 108.8 0 0 1-14.3-5.4c-1.1-.6-2.4-1.2-2.8-2.4a4.7 4.7 0 0 1 .4-2.9q2.1-6.7 4.9-13a3 3 0 0 1 4.7-2 191 191 0 0 1 17.9 7.5l-6.3 15.7a4.1 4.1 0 0 1-1.7 2.5z" class="cls-2" style="opacity:.15;fill:#000"/>
  <path id="path75-9" d="M83.27 1108.1a3.6 3.6 0 0 1-2.5 0 115.1 115.1 0 0 1-14.8-5.6 4 4 0 0 1-2-1.5c-.7-1-.3-2.2.1-3.4l3.4-9.8c1-2.6 2.2-5.4 4.7-5.8 3.1-.5 5.3 3.1 8.3 4.3 2.9 1.2 7 0 9.3 2.3 2.1 2.3.8 6-.6 8.8l-4.4 8.8a3.7 3.7 0 0 1-1.6 2z" class="cls-2" style="opacity:.15;fill:#000"/>
  <path id="path85-1" d="m285.27 1116.8-4.4 12c-1 2.8-3.4 6.3-6.3 5.3l8.6-24.8c3.1 0 3.1 4.7 2 7.6z" class="cls-2" style="opacity:.15;fill:#000"/>
  <path id="path89-5" d="m108.17 956.4 4.1-14.6a2.7 2.7 0 0 1 1-1.6c1.6-1.2 2.9 1.9 2.5 3.8a113.3 113.3 0 0 1-5.6 20.9c-3-1.1-2.7-5.4-1.9-8.5z" class="cls-2" style="opacity:.15;fill:#000"/>
  <path id="path95-5" d="M158.47 931.8a6.2 6.2 0 0 1 3.2 2c.6 1 .4 2.9-.9 3.2l-20.6-7.4c-.4-1.4 1-3 2.4-3.2a8 8 0 0 1 4.4.8z" class="cls-2" style="opacity:.15;fill:#000"/>
  <path id="path97-5" d="M313.47 1027.3a8 8 0 0 1 2.3-3.7c1.1-1 3.1-1 4 .2q-3.5 10-7.8 19.7c-1.3.4-2.7-.9-3-2.1a7.5 7.5 0 0 1 .8-4z" class="cls-2" style="opacity:.15;fill:#000"/>
  <path id="path101-8" d="M295.57 1088.1c-2.7-.5-2.5-4.3-1.6-7l5.2-14.7c1.4-.5 3 .7 3.3 2.3a8 8 0 0 1-.8 4.4q-2.9 7.5-6.1 15z" class="cls-2" style="opacity:.15;fill:#000"/>
  <path id="path103-2" d="M99.37 995.6a9.2 9.2 0 0 1 1.8-4.1c1-1.2 2.9-1.7 4.1-.8l-5.2 20.4c-1.3.5-2.8-.8-3.3-2a8.3 8.3 0 0 1 .3-4.5z" class="cls-2" style="opacity:.15;fill:#000"/>
  <path id="path105-9" d="m109.97 969.7-3.5 15.3a3.1 3.1 0 0 1-.5 1.3c-1 1-2.8.3-3.4-.8a6.2 6.2 0 0 1 0-4l2.9-12.4c.4-1.8 1.7-4.2 3.4-3.6 1.5.6 1.4 2.7 1 4.2z" class="cls-2" style="opacity:.15;fill:#000"/>
  <path id="path107-8" d="M95.27 1013.6h3.4a68.5 68.5 0 0 1-4 20.6c-2.8.1-3.3-4-2.7-6.8z" class="cls-2" style="opacity:.15;fill:#000"/>
  <path id="path109-2" d="M289.27 1106.4a3.4 3.4 0 0 1-1.3 1.8c-1.2.8-3-.5-3.2-2-.1-1.6.7-3 1.4-4.4a40.6 40.6 0 0 0 4.1-13.9c1.7 0 3.2 1.7 3.5 3.5a11.3 11.3 0 0 1-1 5.2l-3.6 9.7z" class="cls-2" style="opacity:.15;fill:#000"/>
  <path id="path111-0" d="M197.77 1134.4a64 64 0 0 1 9.4 3.4c2 1 4 3 3 4.7a161.6 161.6 0 0 1-18.9-5.5c-.5-2.7 3.8-3.5 6.5-2.6z" class="cls-2" style="opacity:.15;fill:#000"/>
  <path id="path113-7" d="M294.67 986.7c-1-.3-2.3-.8-2.7-1.8-.6-1.3.8-3 2.1-3.2a7.3 7.3 0 0 1 4.2 1l8.3 3.5c1.5.7 3 1.4 3.4 2.8.5 1.6-.8 3.4-2.2 2.7a71 71 0 0 0-13-5z" class="cls-2" style="opacity:.15;fill:#000"/>
  <path id="path115-4" d="m174.87 937.6 10.3 4.2a5.5 5.5 0 0 1 2.7 1.8c.5.9.4 2.4-.6 2.7l-16.5-5.4a3.1 3.1 0 0 1-1.4-.8c-.8-1 0-2.8 1.4-3.2a6.3 6.3 0 0 1 4 .7z" class="cls-2" style="opacity:.15;fill:#000"/>
  <path id="path117-8" d="M305.97 1060.7a6.8 6.8 0 0 1-2 3.1c-1 .7-2.6.8-3.3-.3l6.2-17.8c1.5-.3 2.9 1.3 3 2.7a8.5 8.5 0 0 1-.8 4.4z" class="cls-2" style="opacity:.15;fill:#000"/>
  <path id="path119-5" d="M163.37 1127c-3.2 1.3-6.8.6-10-.6a32.8 32.8 0 0 1-9.6-5.5 21.3 21.3 0 0 1 19.6 6z" class="cls-2" style="opacity:.15;fill:#000"/>
  <path id="path121-8" d="M80.87 1086a21.7 21.7 0 0 1 2.1-17.4c.6-1 1.8-2.2 3-1.6a27.7 27.7 0 0 1-5 19z" class="cls-2" style="opacity:.15;fill:#000"/>
  <path id="path123-3" d="M122.47 1115a25.8 25.8 0 0 1 17.8 3c1.2.8.8 3-.5 3.6a5.7 5.7 0 0 1-4.2-.1 46.3 46.3 0 0 1-13-6.6z" class="cls-2" style="opacity:.15;fill:#000"/>
  <path id="path125-0" d="M239.47 966.3a7.5 7.5 0 0 1-4.2-1.2c-1.2-1-1.6-3-.4-3.9.9-.6 2.1-.4 3.3-.2l5.6 1.6c1.7.5 3.4 1 4.5 2.2 1.2 1.2 1 3.7-.6 4.4l-8-2.6z" class="cls-2" style="opacity:.15;fill:#000"/>
  <path id="path127-6" d="M165.57 1127.2a21 21 0 0 1 19.2 5.6 21.6 21.6 0 0 1-19.1-5.5z" class="cls-2" style="opacity:.15;fill:#000"/>
  <path id="path129-2" d="M86.27 1060a26.8 26.8 0 0 1 2.5-17 2.8 2.8 0 0 1 1-1.1c2-1 3 2.2 2.5 4.3-1 5-2.2 10.4-6 13.8z" class="cls-2" style="opacity:.15;fill:#000"/>
  <path id="path131-2" d="M228.47 1144a3.7 3.7 0 0 1 2 1.9c.3 1-.4 2-1.3 2a38.4 38.4 0 0 1-16.5-6 22.2 22.2 0 0 1 15.7 2.1z" class="cls-2" style="opacity:.15;fill:#000"/>
  <path id="path133-5" d="M111.67 1113c-2.1.3-4.7.4-6-1.3-1.5-1.6.6-5 2.3-3.6 2.3 1.7 5.4 1.5 8.1 2.2 2.7.9 5.4 4 3.6 6.3l-7.8-3.5z" class="cls-2" style="opacity:.15;fill:#000"/>
  <path id="path135-2" d="M215.77 958.1c-1.5-.7-1-3.3.5-4 1.6-.7 3.4 0 5 .5l9.5 3.6c-.6 2.7-4.5 3.2-7 2.1-2.7-1.1-5.3-3-8-2.2z" class="cls-2" style="opacity:.15;fill:#000"/>
  <path id="path137-2" d="M254.17 969.7c-.5-2 2.8-2.2 4.5-1.4a95.8 95.8 0 0 1 11.7 6c-4.3 3.2-10.4 0-14.8-3.2a2.7 2.7 0 0 1-1.3-1.3z" class="cls-2" style="opacity:.15;fill:#000"/>
  <path id="path139-7" d="M274.47 976.2a2.4 2.4 0 0 1 1.4-.7 10.4 10.4 0 0 1 11.5 8.7l-10.5-4.3c-1.7-.7-3.6-2.6-2.4-3.7z" class="cls-2" style="opacity:.15;fill:#000"/>
  <path id="path143-1" d="M87.57 1104.9a10.7 10.7 0 0 1 11.8 1 9.7 9.7 0 0 1 2.7 3.5c-1.2 1.7-3.7 1.1-5.6.3a67.9 67.9 0 0 1-8.9-4.8z" class="cls-2" style="opacity:.15;fill:#000"/>
  <path id="path145-5" d="M201.97 948a10 10 0 0 1 4.8 1.2c1.5.8 2.4 2.8 1.6 4.3a30.3 30.3 0 0 1-13-4.1c.3-3 4.9-4 6.4-1.7z" class="cls-2" style="opacity:.15;fill:#000"/>
  <path id="path147-2" d="M233.87 1149.4c-1.3-1.6 1.8-3.1 3.7-2.8a20.8 20.8 0 0 1 11 5.4 19.4 19.4 0 0 1-13.9-1.9 2.6 2.6 0 0 1-.8-.7z" class="cls-2" style="opacity:.15;fill:#000"/>
  <path id="path29-2" d="m859.27 1131.1 81.7-152c1.2-2.3 2.5-5 1.8-7.5-.8-2.4-3.3-4-5.7-5.3l-218.1-120.6c-1.8-1-3.8-2-5.7-1.6-2.9.5-4.5 3.5-5.7 6.2l-70.8 166c-.7 1.6-1.5 3.4-1 5 .6 2 2.6 3 4.3 4.1l204 109.8c3 1.6 6.7 3.4 10 2 2.4-1 4-3.7 5.3-6zm-217-112 72.2-168.3 222 122.3q-42 79.6-85.5 158.4z" class="cls-2" style="opacity:.15;fill:#000"/>
  <path id="path171-8" d="m848.47 1112.2 70.9-131.3c1-2 2-4.3 1.2-6.3-.6-1.5-2.1-2.4-3.6-3.2l-187.7-103.3a8.2 8.2 0 0 0-4.5-1.4c-3 .3-4.5 3.3-5.6 6l-62.2 145.5 181.5 97.8c1.4.7 3 1.5 4.6 1.3 2.5-.3 4-2.8 5.4-5zm-180.8-93c-1.6-.8-3.1-1.7-3.6-3.2-.5-1.7.1-3.2.7-4.6l60-140.2q93.9 51 187.2 102.7c1.3.7 2.6 1.5 3.2 3 .5 1.6-.3 3.4-1.1 4.8l-71.2 131.7z" class="cls-2" style="opacity:.15;fill:#000"/>
  <path id="path191-9" d="M868.07 1025.8c-1.3-1-1.3-2.8-1.3-4.4a79.7 79.7 0 0 1 4.5-24.6l-75.7 34.7c-5 2.3-12.3 4.1-15.2-.7-1.1-2-1-4.5-.8-6.8l1.6-22.4a279.6 279.6 0 0 0-45.8 26.2c-4.3 3-10.3-1.3-12-6.4-1.6-5-.9-10.5-2.7-15.4-1.8-4.9-8-9-12-5.6a33.5 33.5 0 0 1-27.6 7 93.8 93.8 0 0 1 32.2-19c3.3-1.3 7.5-2.2 10.3.1 1.6 1.3 2.4 3.2 3 5.2l7.6 21.4 51.2-28c1.4-.8 3-1.5 4.4-1.2 2.8.8 3.2 4.4 3 7.3l-1.7 28.1q39.5-16.3 77.5-35.8l-31.3-5.9c-2.1-.4-4.7-1.1-5.3-3.3-1-3.7 4.7-5 8.5-4.6l44.9 5.5a5.5 5.5 0 0 1 2.8 1c1.7 1.3 1.2 4 .4 6.1l-13.2 36.4c-1.2 3.4-4.7 7.4-7.4 5.1z" class="cls-2" style="opacity:.15;fill:#000"/>
  <path id="path39-5" d="m827.97 1207.3-8.8 32.8c-1.2 4.3-2.1 9.4.4 13 2.3 3.3 6.5 4.2 10.4 5l30 5.5c3.2.6 5.4-3.5 4.8-6.5-.6-3.2-2.7-5.7-4-8.6-1.2-2.9-1.2-7 1.6-8.5a324.2 324.2 0 0 0 48.3-31.5 5.3 5.3 0 0 0 2.2-2.6 5.4 5.4 0 0 0-.4-3.1l-7.2-19.5c-.7-1.8-1.7-4-3.6-4.2-1.4-.2-2.6.6-3.7 1.3l-49 32.9c-3.4 2.2-7.2-1.8-9.2-5.2-2-3.4-5.7-7.5-9-5.4-1.6.9-2.2 2.9-2.7 4.6zm78.3-2.8c-.8 3.6-4 5.8-7.1 7.7l-40.7 25.6c-1.3.9-2.8 1.9-3.2 3.4a6.8 6.8 0 0 0 .3 4l4.3 13.7q-15.4-2.3-30.5-5.6l1.7-9c2.9-7.6 1.6-18.4 7.7-24.3-1 6 6.4 11.2 11.7 8.4q25.6-13.5 49.7-29.6c3-1.9 6.8 2.3 6 5.7z" class="cls-2" style="opacity:.15;fill:#000"/>
  <path id="path39-5-2" d="m1346.26 1369.6-9.06 32.73c-1.24 4.3-2.18 9.38.3 13 2.27 3.32 6.46 4.25 10.36 5.09l29.95 5.73c3.2.63 5.43-3.46 4.85-6.46-.57-3.2-2.65-5.72-3.93-8.63-1.18-2.91-1.14-7.01 1.67-8.49a324.2 324.2 0 0 0 48.54-31.12 5.3 5.3 0 0 0 2.22-2.58 5.4 5.4 0 0 0-.37-3.1l-7.05-19.56c-.68-1.8-1.67-4.01-3.56-4.23-1.4-.2-2.6.58-3.71 1.27l-49.26 32.52c-3.42 2.17-7.19-1.86-9.16-5.28-1.97-3.41-5.64-7.54-8.96-5.47-1.6.9-2.22 2.89-2.73 4.58zm78.32-2.18c-.83 3.6-4.05 5.77-7.16 7.64l-40.9 25.28c-1.31.89-2.82 1.88-3.23 3.38a6.8 6.8 0 0 0 .27 4l4.19 13.73q-15.38-2.42-30.46-5.84l1.78-8.99c2.96-7.57 1.74-18.38 7.89-24.23-1.05 5.99 6.3 11.25 11.63 8.49q25.7-13.3 49.93-29.21c3.02-1.88 6.78 2.35 5.96 5.75z" class="cls-2" style="opacity:.15;fill:#000"/>
  <path id="path45-5" d="M692.37 1130.1c-1 1-1.1 3.2.2 3.8 6.8 3.5 7.5 14.7 1.2 19-6.3 4.4-16.4-.2-17.4-7.8-.1-1.4-2.2-1.9-3.5-1.2-1.4.7-2.2 2-3.4 3-4.2 3.6-11 1-14.4-3.3a12 12 0 0 1-2.7-9c.6-3.2 3.4-6 6.6-6 3 .1 3.5-4.6 1.6-7-1.8-2.3-5-3.8-6-6.5-2-4.7 2.2-9.6 6-12.9a11 11 0 0 1 3.3-2.1c4.6-1.6 8.8 3 10.7 7.5.7 1.5 1.3 3.2 2.5 4.3 1.3 1.1 3.6 1.3 4.6-.1 3.7-5.5 12.9-6.2 17.4-1.2 4.5 5 3 14-3 17.2-1.2.7-2.7 1.2-3.7 2.3z" class="cls-2" style="opacity:.15;fill:#000"/>
  <path id="path45-5-8" d="M993.2 901.71c-1 1-1.1 3.2.2 3.8 6.8 3.5 7.5 14.7 1.2 19-6.3 4.4-16.4-.2-17.4-7.8-.1-1.4-2.2-1.9-3.5-1.2-1.4.7-2.2 2-3.4 3-4.2 3.6-11 1-14.4-3.3a12 12 0 0 1-2.7-9c.6-3.2 3.4-6 6.6-6 3 .1 3.5-4.6 1.6-7-1.8-2.3-5-3.8-6-6.5-2-4.7 2.2-9.6 6-12.9a11 11 0 0 1 3.3-2.1c4.6-1.6 8.8 3 10.7 7.5.7 1.5 1.3 3.2 2.5 4.3 1.3 1.1 3.6 1.3 4.6-.1 3.7-5.5 12.9-6.2 17.4-1.2 4.5 5 3 14-3 17.2-1.2.7-2.7 1.2-3.7 2.3z" class="cls-2" style="opacity:.15;fill:#000"/>
  <path id="path47-7" d="M1084.68 314.15c-2.2 3-6 4.6-9 6.6a26.7 26.7 0 0 0-12 22c0 2.6.2 6-2 7.6-2 1.3-5 .4-6.7-1.5-1.5-1.9-2.2-4.3-3-6.7a56.5 56.5 0 0 0-12.4-21c-1.4-1.4-3-3-3.6-4.8-.6-1.9 0-4.5 2-5.2 9-3.6 18.5-8.7 21.8-17.9 1-2.4 1.5-5.3 4-6.2 2.6-1 5.4 1.4 6.2 4.1 1 2.7.5 5.6 1 8.4.3 2.8 2 5.8 4.7 6.2 2.3.3 4.6-1.2 6.8-.8 3.6.7 4.3 6.2 2.2 9.2z" class="cls-2" style="opacity:.15;fill:#000"/>
  <path id="path29-2-7" d="m1282.42 627.85 19.15-171.5c.25-2.58.45-5.57-1.13-7.63-1.64-1.93-4.55-2.48-7.26-2.8l-247.34-30.59c-2.04-.26-4.27-.44-5.89.64-2.5 1.55-2.87 4.93-2.97 7.88l-3.82 180.43c-.05 1.74-.12 3.71.94 5 1.3 1.64 3.53 1.82 5.52 2.21l230.23 25.83c3.38.37 7.48.66 10.02-1.87 1.85-1.82 2.33-4.92 2.68-7.54zm-243.1-23.03 4.24-183.08 251.6 30.72q-9.3 89.52-20.3 178.86z" class="cls-2" style="opacity:.15;fill:#000"/>
  <path id="path171-8-1" d="m1265.35 614.34 16.85-148.26c.18-2.23.25-4.74-1.24-6.3-1.12-1.17-2.84-1.44-4.53-1.63l-212.68-25.87a8.2 8.2 0 0 0-4.7.37c-2.67 1.4-2.95 4.74-2.96 7.66l-3.47 158.2 204.87 23.09c1.56.12 3.34.27 4.75-.51 2.21-1.21 2.67-4.1 3.15-6.66zm-202.43-18.9c-1.79-.14-3.51-.41-4.54-1.62-1.1-1.4-1.1-3-1.06-4.53l3.4-152.46q106.15 12.32 212 25.5c1.47.17 2.97.43 4.09 1.6 1.06 1.3.99 3.27.77 4.86l-16.97 148.75z" class="cls-2" style="opacity:.15;fill:#000"/>
  <path id="path191-9-3" d="M1251.33 526.86c-1.58-.44-2.25-2.11-2.84-3.6a79.7 79.7 0 0 1-5-24.5l-57.3 60.42c-3.79 4-9.9 8.39-14.37 5.02-1.77-1.45-2.6-3.8-3.28-6.01l-6.87-21.39a279.6 279.6 0 0 0-32.73 41.39c-2.87 4.39-10.04 2.63-13.52-1.47-3.35-4.04-4.75-9.4-8.24-13.28-3.5-3.87-10.78-5.37-13.23-.72a33.5 33.5 0 0 1-23 16.78 93.8 93.8 0 0 1 22.8-29.63c2.58-2.44 6.14-4.84 9.6-3.75 1.96.61 3.41 2.08 4.72 3.7l15.03 17.03 37.07-45.07c1-1.26 2.22-2.5 3.63-2.75 2.9-.3 4.61 2.89 5.5 5.65l8.9 26.71q30.58-29.85 58.57-62.1l-31.24 6.19c-2.1.4-4.77.73-6.15-1.09-2.3-3.06 2.5-6.4 6.17-7.44l43.72-11.63a5.5 5.5 0 0 1 2.97-.12c2.06.57 2.6 3.27 2.64 5.51l1.32 38.7c.16 3.6-1.6 8.62-4.96 7.49z" class="cls-2" style="opacity:.15;fill:#000"/>
  <path id="path39-5-8" d="m1227.7 776.5-8.8 32.8c-1.2 4.3-2.1 9.4.4 13 2.3 3.3 6.5 4.2 10.4 5l30 5.5c3.2.6 5.4-3.5 4.8-6.5-.6-3.2-2.7-5.7-4-8.6-1.2-2.9-1.2-7 1.6-8.5a324.2 324.2 0 0 0 48.3-31.5 5.3 5.3 0 0 0 2.2-2.6 5.4 5.4 0 0 0-.4-3.1l-7.2-19.5c-.7-1.8-1.7-4-3.6-4.2-1.4-.2-2.6.6-3.7 1.3l-49 32.9c-3.4 2.2-7.2-1.8-9.2-5.2-2-3.4-5.7-7.5-9-5.4-1.6.9-2.2 2.9-2.7 4.6zm78.3-2.8c-.8 3.6-4 5.8-7.1 7.7l-40.7 25.6c-1.3.9-2.8 1.9-3.2 3.4a6.8 6.8 0 0 0 .3 4l4.3 13.7q-15.4-2.3-30.5-5.6l1.7-9c2.9-7.6 1.6-18.4 7.7-24.3-1 6 6.4 11.2 11.7 8.4q25.6-13.5 49.7-29.6c3-1.9 6.8 2.3 6 5.7z" class="cls-2" style="opacity:.15;fill:#000"/>
  <path id="path45-5-4" d="M1407.9 680.62c-1 1-1.1 3.2.2 3.8 6.8 3.5 7.5 14.7 1.2 19-6.3 4.4-16.4-.2-17.4-7.8-.1-1.4-2.2-1.9-3.5-1.2-1.4.7-2.2 2-3.4 3-4.2 3.6-11 1-14.4-3.3a12 12 0 0 1-2.7-9c.6-3.2 3.4-6 6.6-6 3 .1 3.5-4.6 1.6-7-1.8-2.3-5-3.8-6-6.5-2-4.7 2.2-9.6 6-12.9a11 11 0 0 1 3.3-2.1c4.6-1.6 8.8 3 10.7 7.5.7 1.5 1.3 3.2 2.5 4.3 1.3 1.1 3.6 1.3 4.6-.1 3.7-5.5 12.9-6.2 17.4-1.2 4.5 5 3 14-3 17.2-1.2.7-2.7 1.2-3.7 2.3z" class="cls-2" style="opacity:.15;fill:#000"/>
  <path id="path45-5-4-5" d="M1394.84 1522.13c.39 1.37 2.26 2.53 3.42 1.69 6.38-4.22 16.48.65 17.15 8.25.75 7.65-8.2 14.2-15.32 11.36-1.27-.6-2.73.99-2.76 2.46-.07 1.57.67 2.9.96 4.44 1.08 5.42-4.52 10.08-9.93 10.94a12 12 0 0 1-9.17-2.05c-2.5-2.1-3.57-5.9-2-8.7 1.55-2.56-2.3-5.3-5.32-4.82-2.89.45-5.76 2.5-8.6 2.06-5.09-.56-7.3-6.62-8.32-11.55a11 11 0 0 1-.22-3.9c.86-4.8 6.93-6.21 11.78-5.67 1.65.13 3.43.44 4.97-.07 1.6-.6 2.9-2.5 2.17-4.06-2.99-5.92.9-14.29 7.47-15.76 6.56-1.48 13.67 4.23 13.53 11.03.02 1.4-.28 2.94.2 4.35z" class="cls-2" style="opacity:.15;fill:#000"/>
  <g id="Background-6" style="opacity:.15;fill:#000" transform="rotate(70 1530.54 820.95)">
    <path id="path12-0" d="M995.7 792.8c1.5 0 3 1.8 2 3a3.1 3.1 0 0 1-2.8-.6c-.7-.7-.1-2.3.8-2.1z" class="cls-1" style="fill:#000"/>
  </g>
  <path id="path31-3" d="M1423.82 215.16q-72.4-39.99-145.66-77.96-23.49 56.61-45.34 113.91c-.57 1.38-1.06 2.94-.59 4.26.59 1.6 2.25 2.37 3.79 3.1l132.92 56.94zm-8.24 6.61L1369.9 304l-33.73-63.6c.43-1.44 2.12-2.06 3.6-2.38zm-2.56-8.22-79.28 15.49a7.5 7.5 0 0 1-3.44.19c-.86-.33-.58-1.6-.89-2.45q-20.94-40.7-43.23-80.69 63.61 33.4 126.84 67.46zm-174.36 34.9 38.5-99.08c3.45 6.3 6.79 12.85 10.22 19.37l32.6 63.39zm6.25 9.02q36.52-7.84 73.01-15.45c2.17-.47 4.6-.82 6.46.2a9.4 9.4 0 0 1 3.24 3.94q16.51 29.64 31.34 60.22z" class="cls-2" style="opacity:.15;fill:#000"/>
  <path id="path39-2" d="m1080.94 174.02 31.27-13.48c4.03-1.78 8.59-4.18 9.9-8.49 1.07-3.8-.87-7.66-2.67-11.16l-14.35-26.92c-1.47-2.87-6.06-2.05-8.1.28-2.08 2.46-2.72 5.67-4.13 8.53-1.57 2.7-4.8 5.25-7.7 3.97a324.2 324.2 0 0 0-54.71-18.23 5.3 5.3 0 0 0-3.42-.03 5.4 5.4 0 0 0-2.15 2.27l-10.8 17.75c-1 1.64-2.05 3.72-1.12 5.4.76 1.22 2.1 1.69 3.41 2.07l56.19 17.9c3.86 1.25 3.09 6.75 1.67 10.45-1.42 3.71-2.32 9.14 1.44 10.44 1.63.68 3.57-.13 5.23-.84zm-50.87-59.5c3.25-1.61 7.07-.45 10.4.8l45.34 15.87c1.56.5 3.25 1.05 4.72.41a6.8 6.8 0 0 0 2.84-2.73l8.16-11.8q7.76 13.46 14.62 27.36l-8.05 4.2c-7.81 2.52-15.42 10.28-23.9 9.2 5.3-2.98 4.78-12.05-.66-14.43q-26.57-11.63-54.13-20.46c-3.3-1.14-2.46-6.76.7-8.33z" class="cls-2" style="opacity:.15;fill:#000"/>
  <path id="path65-9" d="m1442.9 221.1 6.82-14.6c-3.57 1.3-7.35-2.65-7.45-6.44-.23-3.86 2.02-7.33 4.05-10.52l2.77-4.4a2.2 2.2 0 0 1 3.52-.86l10.9 5.4c2.37 1.27 4.87 2.6 5.38 5.18.34 1.8-.31 3.52-1.1 5.18-1.33 3.04-2.7 6.3-5.34 8.43-2.5 2.19-6.52 3.12-9.14 1.2-2.1 2.14-2.32 5.3-3.49 7.96-1.25 2.7-4.51 5.15-6.9 3.57z" class="cls-2" style="opacity:.15;fill:#000"/>
  <path id="path69-41" d="M1383.17 360.46a4 4 0 0 1-2.51-.47 114.6 114.6 0 0 1-14.28-7.37 4 4 0 0 1-1.81-1.79c-.41-1.12.16-2.18.66-3.43l6.32-12.19a4.2 4.2 0 0 1 1.78-2.13c1.22-.45 2.5.15 3.62.6l11.88 6.32c1.86 1.03 3.95 2.4 3.98 4.52a6.1 6.1 0 0 1-1.19 3.19l-6.26 10.57a4 4 0 0 1-2.2 2.18z" class="cls-2" style="opacity:.15;fill:#000"/>
  <path id="path71-3" d="M1268.55 114.83a4 4 0 0 1-2.7-.4 108.8 108.8 0 0 1-13.44-7.14c-1.1-.67-2.2-1.33-2.48-2.72a4.7 4.7 0 0 1 .68-2.8q3-6.4 6.48-12.35a3 3 0 0 1 4.93-1.37 191 191 0 0 1 16.8 9.65l-8.12 14.86a4.1 4.1 0 0 1-2.06 2.24z" class="cls-2" style="opacity:.15;fill:#000"/>
  <path id="path75-7" d="M1200.55 279.74a3.6 3.6 0 0 1-2.47-.37 115.1 115.1 0 0 1-14.06-7.35 4 4 0 0 1-1.78-1.7c-.5-1.08.07-2.14.57-3.4l4.6-9.32c1.26-2.37 2.83-5.07 5.36-5.14 3.16-.08 4.88 3.76 7.67 5.3 2.7 1.57 6.92.9 8.92 3.47 1.87 2.5.07 6.04-1.63 8.68l-5.45 8.14a3.7 3.7 0 0 1-1.82 1.73z" class="cls-2" style="opacity:.15;fill:#000"/>
  <path id="path85-8" d="m1399.92 313.42-5.9 11.3c-1.39 2.62-4.15 5.86-6.84 4.6l11.61-23.68c3.05.48 2.48 5.05 1.04 7.81z" class="cls-2" style="opacity:.15;fill:#000"/>
  <path id="path89-8" d="m1244.06 132.34 5.85-14.04a2.7 2.7 0 0 1 1.17-1.48c1.77-.97 2.62 2.24 2.04 4.15a113.3 113.3 0 0 1-8.17 19.99c-2.76-1.45-2.05-5.64-.8-8.65z" class="cls-2" style="opacity:.15;fill:#000"/>
  <path id="path95-3" d="M1297 114.08a6.2 6.2 0 0 1 2.88 2.36c.54 1.18.01 2.97-1.22 3.1l-19.56-9.92c-.2-1.42 1.39-2.63 2.8-2.83a8 8 0 0 1 4.22 1.34z" class="cls-2" style="opacity:.15;fill:#000"/>
  <path id="path97-8" d="M1438.93 228.08a8 8 0 0 1 2.79-3.46c1.21-.76 3.21-.53 3.88.72q-4.71 9.58-10.17 18.59c-1.29.25-2.56-1.2-2.6-2.47a7.5 7.5 0 0 1 1.17-3.82z" class="cls-2" style="opacity:.15;fill:#000"/>
  <path id="path101-1" d="M1413.65 286.2c-2.55-.88-1.9-4.63-.7-7.2l6.97-13.91c1.48-.32 2.85 1.1 2.98 2.64a8 8 0 0 1-1.3 4.3q-3.8 7.13-7.95 14.17z" class="cls-2" style="opacity:.15;fill:#000"/>
  <path id="path103-5" d="M1230.41 170.07a9.2 9.2 0 0 1 2.34-3.83c1.1-1.04 3.03-1.31 4.16-.24l-7.67 19.6c-1.38.29-2.75-1.13-3.04-2.51a8.3 8.3 0 0 1 .87-4.36z" class="cls-2" style="opacity:.15;fill:#000"/>
  <path id="path105-3" d="m1244.16 145.82-5.3 14.69a3.1 3.1 0 0 1-.7 1.32c-1.08.82-2.78-.06-3.26-1.37a6.2 6.2 0 0 1 .5-3.9l4.36-12.02c.65-1.72 2.17-3.98 3.87-3.1 1.35.78 1.03 2.81.5 4.28z" class="cls-2" style="opacity:.15;fill:#000"/>
  <path id="path107-5" d="m1224.17 187.44 3.36.48a68.5 68.5 0 0 1-6.62 19.85c-2.69-.08-2.65-4.35-1.7-7.04z" class="cls-2" style="opacity:.15;fill:#000"/>
  <path id="path109-4" d="M1405.16 303.54a3.4 3.4 0 0 1-1.54 1.62c-1.25.67-2.87-.87-2.91-2.45.09-1.52 1.1-2.85 1.92-4.1a40.6 40.6 0 0 0 5.81-13.29c1.74.12 3 2.1 3.02 3.91a11.3 11.3 0 0 1-1.58 5.04l-4.75 9.17z" class="cls-2" style="opacity:.15;fill:#000"/>
  <path id="path111-3" d="M1310.92 320a64 64 0 0 1 8.88 4.53c1.8 1.16 3.7 3.45 2.35 5a161.6 161.6 0 0 1-18.02-7.71c-.17-2.81 4.23-3.03 6.79-1.83z" class="cls-2" style="opacity:.15;fill:#000"/>
  <path id="path113-6" d="M1425.37 185.45c-1.03-.48-2.21-1.11-2.5-2.18-.38-1.35 1.13-2.75 2.5-2.82a7.3 7.3 0 0 1 4.02 1.41l7.84 4.6c1.35.79 2.73 1.67 2.96 3.18.36 1.57-1.18 3.2-2.44 2.38a71 71 0 0 0-12.29-6.6z" class="cls-2" style="opacity:.15;fill:#000"/>
  <path id="path115-5" d="m1312.49 121.86 9.76 5.5a5.5 5.5 0 0 1 2.46 2.08c.34.94.13 2.4-.98 2.6l-15.63-7.31a3.1 3.1 0 0 1-1.29-.92c-.72-1.12.37-2.8 1.79-2.99a6.3 6.3 0 0 1 3.92 1.13z" class="cls-2" style="opacity:.15;fill:#000"/>
  <path id="path117-9" d="M1427.42 260.24a6.8 6.8 0 0 1-2.33 2.97c-1.09.5-2.74.36-3.28-.83l8.35-16.86c1.45-.1 2.7 1.57 2.7 3.06a8.5 8.5 0 0 1-1.43 4.25z" class="cls-2" style="opacity:.15;fill:#000"/>
  <path id="path119-54" d="M1277.65 308.35c-3.27.97-6.78-.2-9.89-1.73a32.8 32.8 0 0 1-8.81-6.7 21.3 21.3 0 0 1 18.7 8.43z" class="cls-2" style="opacity:.15;fill:#000"/>
  <path id="path121-9" d="M1200.88 257.5a21.7 21.7 0 0 1 4.26-16.98c.7-1 2.1-1.82 3.1-1.12a27.7 27.7 0 0 1-7.27 18.06z" class="cls-2" style="opacity:.15;fill:#000"/>
  <path id="path123-1" d="M1238.63 291.45a25.8 25.8 0 0 1 17.23 5.24c1.16.85.46 3.02-.86 3.5a5.7 5.7 0 0 1-4.16-.62 46.3 46.3 0 0 1-12.24-8.21z" class="cls-2" style="opacity:.15;fill:#000"/>
  <path id="path125-7" d="M1373.09 158.37a7.5 7.5 0 0 1-4.04-1.73c-1.04-1.11-1.16-3.2.1-3.86.96-.57 2.17-.15 3.25.2l5.41 2.29c1.63.68 3.26 1.37 4.19 2.73 1.01 1.34.5 3.75-1.12 4.24l-7.7-3.6z" class="cls-2" style="opacity:.15;fill:#000"/>
  <path id="path127-5" d="M1279.88 308.92a21 21 0 0 1 18.3 7.93 21.6 21.6 0 0 1-18.27-7.83z" class="cls-2" style="opacity:.15;fill:#000"/>
  <path id="path129-5" d="M1209.51 232.34a26.8 26.8 0 0 1 4.53-16.54 2.8 2.8 0 0 1 1.14-.95c2.07-.75 2.63 2.56 2 4.6-1.65 4.85-3.5 10-7.63 12.98z" class="cls-2" style="opacity:.15;fill:#000"/>
  <path id="path131-4" d="M1340.16 333.42a3.7 3.7 0 0 1 1.7 2.04c.24.98-.55 2-1.47 1.81a38.4 38.4 0 0 1-15.65-7.93 22.2 22.2 0 0 1 15.38 3.98z" class="cls-2" style="opacity:.15;fill:#000"/>
  <path id="path133-1" d="M1228.08 288.16c-2.12.02-4.66-.23-5.85-2.03-1.15-1.71 1.3-4.94 2.82-3.37 2.02 2.04 5.16 2.18 7.78 3.24 2.56 1.2 4.87 4.62 2.74 6.67l-7.24-4.4z" class="cls-2" style="opacity:.15;fill:#000"/>
  <path id="path135-8" d="M1350.55 147.3c-1.38-.89-.6-3.4 1.04-3.9 1.63-.48 3.33.4 4.87 1.11l8.95 4.73c-.85 2.65-4.8 2.6-7.21 1.23-2.44-1.45-4.81-3.57-7.55-3.21z" class="cls-2" style="opacity:.15;fill:#000"/>
  <path id="path137-8" d="M1387.3 163.53c-.27-1.93 2.96-1.82 4.6-.82a95.8 95.8 0 0 1 10.89 7.43c-4.64 2.75-10.35-1.25-14.34-4.9a2.7 2.7 0 0 1-1.08-1.53z" class="cls-2" style="opacity:.15;fill:#000"/>
  <path id="path139-3" d="M1406.61 172.47a2.4 2.4 0 0 1 1.41-.51 10.4 10.4 0 0 1 10.36 10.07l-9.89-5.56c-1.6-.9-3.21-2.98-1.88-4z" class="cls-2" style="opacity:.15;fill:#000"/>
  <path id="path143-5" d="M1205.23 277.09a10.7 10.7 0 0 1 11.51 2.41 9.7 9.7 0 0 1 2.26 3.87c-1.35 1.55-3.81.64-5.58-.42a67.9 67.9 0 0 1-8.2-5.86z" class="cls-2" style="opacity:.15;fill:#000"/>
  <path id="path145-2" d="M1338.13 135.63a10 10 0 0 1 4.66 1.71c1.33 1.01 1.98 3.12.97 4.44a30.3 30.3 0 0 1-12.26-5.65c.55-2.87 5.25-3.4 6.5-.87z" class="cls-2" style="opacity:.15;fill:#000"/>
  <path id="path147-26" d="M1344.87 339.37c-1.06-1.75 2.14-2.9 4.05-2.32a20.8 20.8 0 0 1 10.2 6.72 19.4 19.4 0 0 1-13.53-3.6 2.6 2.6 0 0 1-.72-.8z" class="cls-2" style="opacity:.15;fill:#000"/>
  <path id="path187-6" d="M1205.06 346.94a18.7 18.7 0 0 0-3.96-20.27 17.5 17.5 0 0 0-20.16-2.78 16.5 16.5 0 0 0-7.66 18.74c1.8 5.52 6.49 9.67 11.8 12a16.8 16.8 0 0 0 9.06 1.5c4.85-.7 8.95-4.64 10.88-9.28zm-18.56-3.36c-1.09-1.53-2.73-2.53-3.4-4.09-2-4.06 3.54-8.41 7.94-7.14 3.88 1.04 6.7 5.55 5.3 9.35-1.5 3.74-7.39 5.13-9.94 1.91z" class="cls-2" style="opacity:.15;fill:#000"/>
  <path id="path187-6-5" d="M1133.85 903.77a18.7 18.7 0 0 0-3.96-20.27 17.5 17.5 0 0 0-20.16-2.79 16.5 16.5 0 0 0-7.67 18.74c1.8 5.52 6.5 9.67 11.8 12a16.8 16.8 0 0 0 9.06 1.5c4.86-.7 8.96-4.64 10.9-9.28zm-18.57-3.37c-1.08-1.52-2.72-2.52-3.4-4.08-2-4.06 3.54-8.42 7.94-7.14 3.89 1.03 6.7 5.54 5.31 9.35-1.51 3.74-7.39 5.13-9.94 1.9z" class="cls-2" style="opacity:.15;fill:#000"/>
  <path id="path37-1-4" d="M1070.84 705.31c-6.2-1.6-14.1-1-17.6-6.3a11.3 11.3 0 0 0-19.2 11.7c3 5.1-2 11-3.9 16.7-4.2 13.6 10.1 27 8.4 41-.6 4.9-3 10.3-.4 14.4 3.4 5.3 11.6 3.3 17 .1 5.4-3.2 12-7.2 17.5-4.2a14.1 14.1 0 0 0 20.8-12.5c-.1-5.7 6.3-8.9 11.5-11 5.2-2 11.4-6 10.6-11.5-.9-5-7-7.1-11.6-9.8-12.8-7-18.8-24.7-33-28.6zm-15.9 1.5zm32.3 65.4a11.8 11.8 0 0 1-12.4 3.2l-8.9-2.9 23-13.1a11.8 11.8 0 0 1-1.7 12.8zm-6.4-48.7a60.6 60.6 0 0 0 24.3 19.3c2 1 0 3.8-2 4.8a586.4 586.4 0 0 0-57.2 32l-2.1-1.7c5.2-7.4 3-17.6-.1-26-3.2-8.6-7-17.7-4.2-26.3a21 21 0 0 1 19.6-13.6 27.4 27.4 0 0 1 21.7 11.4z" class="cls-2" style="opacity:.15;fill:#000"/>
  <path id="path57-1-9" d="M1115.64 704.91a59.9 59.9 0 0 0-51.7-27.4 2.8 2.8 0 0 1-2.5-3.7c6-3 13.1-2 19.6 0 18.6 5.2 36.6 17.5 43.2 35.7-1.5 1.1-3.7.7-5.2-.3a15 15 0 0 1-3.4-4.3z" class="cls-2" style="opacity:.15;fill:#000"/>
  <path id="path67-8-1" d="M1014.64 775.41c-4.5 1.4-8.6-3-11-7a67.8 67.8 0 0 1-.3-64.3 3.3 3.3 0 0 1 1.2-1.4c1.2-.8 3 .6 3.1 2.1.2 1.5-.6 3-1.3 4.3a60.1 60.1 0 0 0 8.3 66.3z" class="cls-2" style="opacity:.15;fill:#000"/>
  <path id="path73-7-5" d="M1103.54 712.51a44.3 44.3 0 0 0-33.3-20.4c-1.4-.1-3.2-.4-3.7-1.8-.7-1.7 1.4-3.3 3.2-3.7a19 19 0 0 1 10.3 1 53.4 53.4 0 0 1 25.8 18.8c1 1.4 2 3 1.6 4.7-.4 1.7-3 2.8-3.8 1.3z" class="cls-2" style="opacity:.15;fill:#000"/>
  <path id="path77-6-5" d="M1023.24 762.71c-3.4 2.1-7.3-1.7-9-5.3a47.3 47.3 0 0 1 0-40.4c.6-1.2 1.4-2.6 2.7-3 1.3-.4 3 1.1 2.4 2.3a42 42 0 0 0 4 46.5z" class="cls-2" style="opacity:.15;fill:#000"/>
  <path id="path35-8-2" d="M1016.92 1464.7a4.2 4.2 0 0 1-1.6-2.6c.04-1 .86-2.06 1.8-2.83l210.43-195.63a8.7 8.7 0 0 1 4.13-2.6c2.97-.52 5.56 2 7.43 4.27l17.01 20.21c1.1 1.33 2.21 2.85 2.12 4.36-.17 1.72-1.3 2.8-2.52 3.9l-208.94 200.92-29.75-29.91zm29.63 24 207.1-198.49a283.2 283.2 0 0 0-21.3-25.51l-211.8 197.43z" class="cls-2" style="opacity:.15;fill:#000"/>
  <path id="path49-4-9" d="M1200.35 1432.27c6.24 7.16 19.4 7.6 24.63-.4 3.9-5.8 2.5-13.91-.47-20.31a22.6 22.6 0 0 0-7.4-9.29c-3.17-2.18-7.65-3.15-11.34-1.48a14 14 0 0 0-5.45 5.01c-5.45 7.72-6.11 19.3.03 26.47zm17.02-5.86a5.5 5.5 0 0 1-1.5 1.42c-3.56 2.16-8.47-.59-9.74-4.3-1.48-3.8-.4-8.2 1.13-11.92.7-1.55 3.07-1.93 4.53-1.13a9.6 9.6 0 0 1 3.39 3.76c2.37 3.74 4.64 8.69 2.1 12.28z" class="cls-2" style="opacity:.15;fill:#000"/>
  <path id="path169-0-8" d="M1062.3 1439.33c-2.17-2.25-4.46-6.1-2.22-8.36l16.2-15.62c1.88-1.84 4.43-3.93 7-3.12a7.6 7.6 0 0 1 3.19 2.48l11.35 12.6c1.64 1.89-.05 4.82-1.92 6.76l-13.61 14.03c-2.44 2.38-6.37 4.77-8.65 2.43zm29.82-11.8-8.85-9.88a3 3 0 0 0-1.27-1.01c-1.03-.33-1.97.54-2.72 1.2l-14 14.25c-.57.45-1.13 1.09-1.16 2a3.1 3.1 0 0 0 1.14 1.91l9.43 9.64c.53.47 1.07.93 1.77.98a2.5 2.5 0 0 0 1.64-.92l13.93-13.85a2.6 2.6 0 0 0 .09-4.32z" class="cls-2" style="opacity:.15;fill:#000"/>
  <path id="path173-0-2" d="M1157.13 1370.35a6 6 0 0 1 1.92 2.97c.12 1.7-1.06 3.28-2.28 4.47a224.9 224.9 0 0 1-17.4 17.02 3 3 0 0 1-5.02-.04 114.5 114.5 0 0 1-14.53-14.98c-1.32-1.61.22-3.83 1.62-5.23q7.73-8.09 15.8-15.7c1.6-1.52 3.78-3.18 6.02-2.64a7 7 0 0 1 3.19 2.37zm-32.4 8.18a3 3 0 0 0 .9 1.23l10.43 10.98c6.25-3.57 11.38-8.86 16.2-14.22.75-.76 1.58-1.72 1.31-2.7a3.6 3.6 0 0 0-1.04-1.93l-8.1-9.44c-.67-.85-1.53-1.6-2.53-1.52a3.3 3.3 0 0 0-1.92 1.14l-14.04 13.66c-.64.85-1.48 1.71-1.2 2.8z" class="cls-2" style="opacity:.15;fill:#000"/>
  <path id="path175-9-0" d="M1179.28 1324.82a5 5 0 0 1-1.41-2.8c-.09-1.2.84-2.28 1.77-3.15q8.1-8.7 17.04-16.68c1.22-1.1 2.45-2.08 4.05-2.1 1.42.1 3.01 1.38 4.1 2.6l11.3 11.82c2.4 2.63-.31 6.84-2.84 9.23l-15.66 14.88a3.7 3.7 0 0 1-2.2 1.36 3.6 3.6 0 0 1-2.39-1.03 86 86 0 0 1-13.86-14.13zm4.63-1.14 7.61 8.16c.98 1.04 2.16 2.15 3.57 2.25 1.41.1 2.74-1 3.95-2.3l11.2-11.24a3.2 3.2 0 0 0 .42-5.34l-7.23-8.4c-.87-.94-2.18-2.45-3.65-1.94a4.1 4.1 0 0 0-1.72 1.13l-14.29 14.48a1.8 1.8 0 0 0 .13 3.1z" class="cls-2" style="opacity:.15;fill:#000"/>
  <path id="path185-2-8" d="M990.82 1380.37a21 21 0 0 0 7.83 4.24c5.6 1.3 11.64-1.15 15.24-5.52a20.8 20.8 0 0 0 4.13-16.14c-1.02-7.15-6.05-14.3-13.35-15.37-4.46-.68-8.95 1.05-12.59 3.42-6.4 4.38-10.93 12.33-8.69 19.69a21 21 0 0 0 7.44 9.78zm17.46-17.61c1.22 2.91 1.28 6.52-.64 9.07-3.58 4.57-12.2 1.89-13.5-3.73a8.5 8.5 0 0 1 2.69-8.42 7.4 7.4 0 0 1 8.58-.53 8.7 8.7 0 0 1 2.87 3.6z" class="cls-2" style="opacity:.15;fill:#000"/>
  <path id="path51-6" d="M181.33 1592.02c-1.3 1.2-2 3.6-.6 4.7 2 1.6 2.5 4.4 2 6.8a19.4 19.4 0 0 1-3.6 6.6c-2 2.8-5.1 6-8.4 4.8-2.4-.8-3.5-3.6-5-5.7-1.5-2.2-5-3.6-6.4-1.4-3.1 4.8-11.4 4.9-14.5 0-3.1-4.8.3-12.4 6-13.2 2.4-.3 3-3.8 2-6s-3-4.2-3.3-6.6c-.6-3.2 1.6-6.3 4-8.5 3.5-3.2 9.5-5.4 12.5-1.7 1.3 1.6 2 4.3 4.2 4.4 1.9 0 2.9-2.2 4.4-3.3 3-2.3 7.4.2 9.9 3.2 3 3.7 4.7 9.5 1.3 12.8-1.3 1.3-3.1 1.9-4.5 3z" class="cls-2" style="opacity:.15;fill:#000"/>
</svg>
