<svg xmlns="http://www.w3.org/2000/svg" width="63.8" height="80.7" data-name="Layer 1" viewBox="0 0 63.8 80.7">
  <path d="M2 12.7c.1-1.7 1.7-3 3-3.9A84 84 0 0 1 21 .5a4.7 4.7 0 0 1 2.9-.4 4.8 4.8 0 0 1 2.4 2.5 145.3 145.3 0 0 1 14.5 36.2 57.1 57.1 0 0 1 23-7.3L40.5 78.2a4.9 4.9 0 0 1-1.4 2c-1.6 1.1-3.8 0-5.4-1.2L1 55.4c-2.5-1.8.2-5.6 2.8-7.4l12-8L3 16a6 6 0 0 1-1-3.3m37 59a4 4 0 0 0 1.7-2l16.6-33.5-15.4 5.2a4 4 0 0 1-2.4.3c-1.2-.3-1.8-1.6-2.2-2.8l-9.7-27.6c-1-3-4.8-4.1-7.8-3.4-3 .7-5.5 2.8-7.8 4.8-.8.7-1.7 1.8-1 2.7a129.9 129.9 0 0 1 14 25.3 3.7 3.7 0 0 1 .4 2.4 3.8 3.8 0 0 1-1.7 1.9l-11 7.1a142.8 142.8 0 0 0 22.4 18.6c1.2.7 2.6 1.5 3.8.9z"/>
</svg>
