<svg width="151" height="642" viewBox="0 0 151 642" fill="none" xmlns="http://www.w3.org/2000/svg">
<path d="M85.8496 81L74.2996 81.15C66.9996 80.75 60.8496 79.85 55.8496 78.45C50.8496 77.05 46.2996 74.3 42.1996 70.2C35.3996 63.4 31.9996 53.5 31.9996 40.5C31.9996 25.2 33.9996 14.7 37.9996 9.00001C42.0996 3.30001 49.4496 0.450008 60.0496 0.450008L138.8 0.450012L138.8 42C138.8 54 135.4 63.4 128.6 70.2C123.1 75.7 116.4 78.95 108.5 79.95C102.9 80.65 95.3496 81 85.8496 81ZM57.1996 55.65C59.4996 57.55 62.6497 58.75 66.6497 59.25C70.7497 59.85 77.0996 60.15 85.6996 60.15C94.2996 60.15 100.5 59.85 104.3 59.25C108.2 58.75 111.3 57.55 113.6 55.65C118 52.05 120.2 46.85 120.2 40.05L120.2 21.3L61.0996 21.3C57.0996 21.3 54.3496 22.65 52.8496 25.35C51.3496 28.05 50.5996 32.85 50.5996 39.75C50.5996 46.75 52.7996 52.05 57.1996 55.65Z" fill="#01F5AC"/>
<path d="M70.2496 162.027L70.2496 112.077C62.4496 112.077 56.7497 113.277 53.1497 115.677C49.5497 118.177 47.7496 123.127 47.7496 130.527C47.7496 135.327 49.2496 138.877 52.2496 141.177C55.3496 143.477 58.2996 144.627 61.0996 144.627L61.0996 162.177C50.3996 162.177 42.5496 159.277 37.5496 153.477C32.5496 147.777 30.0496 140.177 30.0496 130.677C30.0496 121.277 31.3996 113.977 34.0996 108.777C39.5996 98.077 54.1996 92.727 77.8997 92.727C91.9997 92.727 102.3 95.777 108.8 101.877C115.4 107.977 118.7 117.277 118.7 129.777C118.7 151.477 106.65 162.327 82.5496 162.327C79.9496 162.327 75.8496 162.227 70.2496 162.027ZM83.5996 112.527L83.5996 144.627C90.1996 144.627 94.9996 143.377 97.9996 140.877C101 138.377 102.5 134.527 102.5 129.327C102.5 124.227 100.95 120.127 97.8496 117.027C94.8496 114.027 90.0996 112.527 83.5996 112.527Z" fill="#01F5AC"/>
<path d="M99.4996 216.305L99.4996 200.405L31.9996 200.405L31.9996 180.905L99.4996 180.905L99.4996 172.805L114.35 172.805L114.35 180.905L122.6 180.905C128.7 180.905 133.95 182.855 138.35 186.755C142.75 190.655 144.95 196.305 144.95 203.705L144.95 216.305L128.45 216.305L128.45 207.155C128.45 202.655 126.1 200.405 121.4 200.405L114.35 200.405L114.35 216.305L99.4996 216.305Z" fill="#01F5AC"/>
<path d="M150.35 241.174C150.35 245.874 149.6 248.924 148.1 250.324C146.7 251.724 143.65 252.424 138.95 252.424C134.35 252.424 131.3 251.674 129.8 250.174C128.4 248.774 127.7 245.724 127.7 241.024C127.7 236.424 128.45 233.374 129.95 231.874C131.45 230.474 134.5 229.774 139.1 229.774C143.7 229.774 146.7 230.474 148.1 231.874C149.6 233.374 150.35 236.474 150.35 241.174ZM31.9996 250.774L31.9996 231.274L114.5 231.274L114.5 250.774L31.9996 250.774Z" fill="#01F5AC"/>
<path d="M31.9996 339.033L31.9996 319.533L86.7496 319.533C91.6496 319.533 94.9996 318.533 96.7996 316.533C98.5996 314.533 99.4996 311.733 99.4996 308.133L92.1496 290.583L31.9996 290.583L31.9996 271.083L117.65 271.083L117.65 285.633L107.45 290.133L118.55 314.133C118.55 320.833 116.05 326.633 111.05 331.533C106.15 336.533 98.9496 339.033 89.4496 339.033L31.9996 339.033Z" fill="#01F5AC"/>
<path d="M150.35 368.469C150.35 373.169 149.6 376.219 148.1 377.619C146.7 379.019 143.65 379.719 138.95 379.719C134.35 379.719 131.3 378.969 129.8 377.469C128.4 376.069 127.7 373.019 127.7 368.319C127.7 363.719 128.45 360.669 129.95 359.169C131.45 357.769 134.5 357.069 139.1 357.069C143.7 357.069 146.7 357.769 148.1 359.169C149.6 360.669 150.35 363.769 150.35 368.469ZM31.9996 378.069L31.9996 358.569L114.5 358.569L114.5 378.069L31.9996 378.069Z" fill="#01F5AC"/>
<path d="M31.9996 436.478L31.9996 424.328C31.9996 416.928 34.1996 411.278 38.5996 407.378C42.9996 403.578 48.2496 401.678 54.3496 401.678L99.3496 401.678L99.3496 393.428L114.2 393.428L114.2 401.678L131 401.678L131 421.178L114.2 421.178L114.2 434.978L99.3496 434.978L99.3496 421.178L55.5496 421.178C50.8496 421.178 48.4996 423.428 48.4996 427.928L48.4996 436.478L31.9996 436.478Z" fill="#01F5AC"/>
<path d="M150.35 462.512C150.35 467.212 149.6 470.262 148.1 471.662C146.7 473.062 143.65 473.762 138.95 473.762C134.35 473.762 131.3 473.012 129.8 471.512C128.4 470.112 127.7 467.062 127.7 462.362C127.7 457.762 128.45 454.712 129.95 453.212C131.45 451.812 134.5 451.112 139.1 451.112C143.7 451.112 146.7 451.812 148.1 453.212C149.6 454.712 150.35 457.812 150.35 462.512ZM31.9996 472.112L31.9996 452.612L114.5 452.612L114.5 472.112L31.9996 472.112Z" fill="#01F5AC"/>
<path d="M70.6996 540.271L78.4996 540.271C85.8996 540.271 91.5496 539.171 95.4496 536.971C99.3496 534.871 101.3 530.421 101.3 523.621C101.3 512.621 93.8996 507.121 79.0996 507.121L71.2996 507.121C55.3996 507.121 47.4496 512.621 47.4496 523.621C47.4496 530.721 50.0996 535.371 55.3996 537.571C59.5996 539.371 64.6996 540.271 70.6996 540.271ZM75.1996 559.771C56.6996 559.771 44.2996 556.271 37.9996 549.271C32.5996 543.371 29.8996 534.821 29.8996 523.621C29.8996 509.321 34.0996 499.671 42.4996 494.671C50.1996 489.971 61.0996 487.621 75.1996 487.621C88.3996 487.621 98.7496 489.971 106.25 494.671C114.65 499.871 118.85 509.321 118.85 523.021C118.85 536.821 115.15 546.371 107.75 551.671C100.45 557.071 89.5996 559.771 75.1996 559.771Z" fill="#01F5AC"/>
<path d="M31.9996 641.816L31.9996 622.316L86.7496 622.316C91.6496 622.316 94.9996 621.316 96.7996 619.316C98.5996 617.316 99.4996 614.516 99.4996 610.916L92.1496 593.366L31.9996 593.366L31.9996 573.866L117.65 573.866L117.65 588.416L107.45 592.916L118.55 616.916C118.55 623.616 116.05 629.416 111.05 634.316C106.15 639.316 98.9496 641.816 89.4496 641.816L31.9996 641.816Z" fill="#01F5AC"/>
</svg>
