<?xml version="1.0" encoding="UTF-8" standalone="no"?>
<svg
   width="790"
   height="642"
   viewBox="0 0 790 642"
   fill="none"
   version="1.1"
   id="svg4"
   sodipodi:docname="definition_text_light.svg"
   inkscape:version="1.2.1 (9c6d41e4, 2022-07-14)"
   xmlns:inkscape="http://www.inkscape.org/namespaces/inkscape"
   xmlns:sodipodi="http://sodipodi.sourceforge.net/DTD/sodipodi-0.dtd"
   xmlns="http://www.w3.org/2000/svg"
   xmlns:svg="http://www.w3.org/2000/svg">
  <defs
     id="defs8" />
  <sodipodi:namedview
     id="namedview6"
     pagecolor="#505050"
     bordercolor="#eeeeee"
     borderopacity="1"
     inkscape:showpageshadow="0"
     inkscape:pageopacity="0"
     inkscape:pagecheckerboard="0"
     inkscape:deskcolor="#505050"
     showgrid="false"
     showguides="true"
     inkscape:zoom="0.83681525"
     inkscape:cx="779.742"
     inkscape:cy="166.10596"
     inkscape:window-width="1309"
     inkscape:window-height="610"
     inkscape:window-x="0"
     inkscape:window-y="602"
     inkscape:window-maximized="0"
     inkscape:current-layer="svg4" />
  <path
     d="m 688.85,81 -11.55,0.15 c -7.3,-0.4 -13.45,-1.3 -18.45,-2.7 -5,-1.4 -9.55,-4.15 -13.65,-8.25 C 638.4,63.4 635,53.5 635,40.5 635,25.2 637,14.7 641,8.99999 645.1,3.3 652.45,0.449996 663.05,0.449996 L 741.8,0.45 V 42 c 0,12 -3.4,21.4 -10.2,28.2 -5.5,5.5 -12.2,8.75 -20.1,9.75 -5.6,0.7 -13.15,1.05 -22.65,1.05 z M 660.2,55.65 c 2.3,1.9 5.45,3.1 9.45,3.6 4.1,0.6 10.45,0.9 19.05,0.9 8.6,0 14.8,-0.3 18.6,-0.9 3.9,-0.5 7,-1.7 9.3,-3.6 4.4,-3.6 6.6,-8.8 6.6,-15.6 V 21.3 h -59.1 c -4,0 -6.75,1.35 -8.25,4.05 -1.5,2.7 -2.25,7.5 -2.25,14.4 0,7 2.2,12.3 6.6,15.9 z m 13.05,106.377 v -49.95 c -7.8,0 -13.5,1.2 -17.1,3.6 -3.6,2.5 -5.4,7.45 -5.4,14.85 0,4.8 1.5,8.35 4.5,10.65 3.1,2.3 6.05,3.45 8.85,3.45 v 17.55 c -10.7,0 -18.55,-2.9 -23.55,-8.7 -5,-5.7 -7.5,-13.3 -7.5,-22.8 0,-9.4 1.35,-16.7 4.05,-21.9 5.5,-10.7001 20.1,-16.0501 43.8,-16.0501 14.1,1e-4 24.4,3.0501 30.9,9.1501 6.6,6.1 9.9,15.4 9.9,27.9 0,21.7 -12.05,32.55 -36.15,32.55 -2.6,0 -6.7,-0.1 -12.3,-0.3 z m 13.35,-49.5 v 32.1 c 6.6,0 11.4,-1.25 14.4,-3.75 3,-2.5 4.5,-6.35 4.5,-11.55 0,-5.1 -1.55,-9.2 -4.65,-12.3 -3,-3 -7.75,-4.5 -14.25,-4.5 z m 15.9,103.778 v -15.9 H 635 v -19.5 h 67.5 v -8.1 h 14.85 v 8.1 h 8.25 c 6.1,0 11.35,1.95 15.75,5.85 4.4,3.9 6.6,9.55 6.6,16.95 v 12.6 h -16.5 v -9.15 c 0,-4.5 -2.35,-6.75 -7.05,-6.75 h -7.05 v 15.9 z m 50.85,24.869 c 0,4.7 -0.75,7.75 -2.25,9.15 -1.4,1.4 -4.45,2.1 -9.15,2.1 -4.6,0 -7.65,-0.75 -9.15,-2.25 -1.4,-1.4 -2.1,-4.45 -2.1,-9.15 0,-4.6 0.75,-7.65 2.25,-9.15 1.5,-1.4 4.55,-2.1 9.15,-2.1 4.6,0 7.6,0.7 9,2.1 1.5,1.5 2.25,4.6 2.25,9.3 z m -118.35,9.6 v -19.5 h 82.5 v 19.5 z m 0,88.259 v -19.5 h 54.75 c 4.9,0 8.25,-1 10.05,-3 1.8,-2 2.7,-4.8 2.7,-8.4 l -7.35,-17.55 H 635 v -19.5 h 85.65 v 14.55 l -10.2,4.5 11.1,24 c 0,6.7 -2.5,12.5 -7.5,17.4 -4.9,5 -12.1,7.5 -21.6,7.5 z m 118.35,29.436 c 0,4.7 -0.75,7.75 -2.25,9.15 -1.4,1.4 -4.45,2.1 -9.15,2.1 -4.6,0 -7.65,-0.75 -9.15,-2.25 -1.4,-1.4 -2.1,-4.45 -2.1,-9.15 0,-4.6 0.75,-7.65 2.25,-9.15 1.5,-1.4 4.55,-2.1 9.15,-2.1 4.6,0 7.6,0.7 9,2.1 1.5,1.5 2.25,4.6 2.25,9.3 z m -118.35,9.6 v -19.5 h 82.5 v 19.5 z m 0,58.409 v -12.15 c 0,-7.4 2.2,-13.05 6.6,-16.95 4.4,-3.8 9.65,-5.7 15.75,-5.7 h 45 v -8.25 h 14.85 v 8.25 H 734 v 19.5 h -16.8 v 13.8 h -14.85 v -13.8 h -43.8 c -4.7,0 -7.05,2.25 -7.05,6.75 v 8.55 z m 118.35,26.034 c 0,4.7 -0.75,7.75 -2.25,9.15 -1.4,1.4 -4.45,2.1 -9.15,2.1 -4.6,0 -7.65,-0.75 -9.15,-2.25 -1.4,-1.4 -2.1,-4.45 -2.1,-9.15 0,-4.6 0.75,-7.65 2.25,-9.15 1.5,-1.4 4.55,-2.1 9.15,-2.1 4.6,0 7.6,0.7 9,2.1 1.5,1.5 2.25,4.6 2.25,9.3 z m -118.35,9.6 v -19.5 h 82.5 v 19.5 z m 38.7,68.159 h 7.8 c 7.4,0 13.05,-1.1 16.95,-3.3 3.9,-2.1 5.85,-6.55 5.85,-13.35 0,-11 -7.4,-16.5 -22.2,-16.5 h -7.8 c -15.9,0 -23.85,5.5 -23.85,16.5 0,7.1 2.65,11.75 7.95,13.95 4.2,1.8 9.3,2.7 15.3,2.7 z m 4.5,19.5 c -18.5,0 -30.9,-3.5 -37.2,-10.5 -5.4,-5.9 -8.1,-14.45 -8.1,-25.65 0,-14.3 4.2,-23.95 12.6,-28.95 7.7,-4.7 18.6,-7.05 32.7,-7.05 13.2,0 23.55,2.35 31.05,7.05 8.4,5.2 12.6,14.65 12.6,28.35 0,13.8 -3.7,23.35 -11.1,28.65 -7.3,5.4 -18.15,8.1 -32.55,8.1 z M 635,641.816 v -19.5 h 54.75 c 4.9,0 8.25,-1 10.05,-3 1.8,-2 2.7,-4.8 2.7,-8.4 l -7.35,-17.55 H 635 v -19.5 h 85.65 v 14.55 l -10.2,4.5 11.1,24 c 0,6.7 -2.5,12.5 -7.5,17.4 -4.9,5 -12.1,7.5 -21.6,7.5 z M 530.85,81 519.3,81.15 c -7.3,-0.4 -13.45,-1.3 -18.45,-2.7 -5,-1.4 -9.55,-4.15 -13.65,-8.25 C 480.4,63.4 477,53.5 477,40.5 c 0,-15.3 2,-25.8 6,-31.50001 4.1,-5.7 11.45,-8.550001 22.05,-8.550001 l 78.75,4e-6 V 42 c 0,12 -3.4,21.4 -10.2,28.2 -5.5,5.5 -12.2,8.75 -20.1,9.75 -5.6,0.7 -13.15,1.05 -22.65,1.05 z M 502.2,55.65 c 2.3,1.9 5.45,3.1 9.45,3.6 4.1,0.6 10.45,0.9 19.05,0.9 8.6,0 14.8,-0.3 18.6,-0.9 3.9,-0.5 7,-1.7 9.3,-3.6 4.4,-3.6 6.6,-8.8 6.6,-15.6 V 21.3 h -59.1 c -4,0 -6.75,1.35 -8.25,4.05 -1.5,2.7 -2.25,7.5 -2.25,14.4 0,7 2.2,12.3 6.6,15.9 z m 13.05,106.377 v -49.95 c -7.8,0 -13.5,1.2 -17.1,3.6 -3.6,2.5 -5.4,7.45 -5.4,14.85 0,4.8 1.5,8.35 4.5,10.65 3.1,2.3 6.05,3.45 8.85,3.45 v 17.55 c -10.7,0 -18.55,-2.9 -23.55,-8.7 -5,-5.7 -7.5,-13.3 -7.5,-22.8 0,-9.4 1.35,-16.7 4.05,-21.9 5.5,-10.7001 20.1,-16.0501 43.8,-16.0501 14.1,0 24.4,3.05 30.9,9.1501 6.6,6.1 9.9,15.4 9.9,27.9 0,21.7 -12.05,32.55 -36.15,32.55 -2.6,0 -6.7,-0.1 -12.3,-0.3 z m 13.35,-49.5 v 32.1 c 6.6,0 11.4,-1.25 14.4,-3.75 3,-2.5 4.5,-6.35 4.5,-11.55 0,-5.1 -1.55,-9.2 -4.65,-12.3 -3,-3 -7.75,-4.5 -14.25,-4.5 z m 15.9,103.778 v -15.9 H 477 v -19.5 h 67.5 v -8.1 h 14.85 v 8.1 h 8.25 c 6.1,0 11.35,1.95 15.75,5.85 4.4,3.9 6.6,9.55 6.6,16.95 v 12.6 h -16.5 v -9.15 c 0,-4.5 -2.35,-6.75 -7.05,-6.75 h -7.05 v 15.9 z m 50.85,24.869 c 0,4.7 -0.75,7.75 -2.25,9.15 -1.4,1.4 -4.45,2.1 -9.15,2.1 -4.6,0 -7.65,-0.75 -9.15,-2.25 -1.4,-1.4 -2.1,-4.45 -2.1,-9.15 0,-4.6 0.75,-7.65 2.25,-9.15 1.5,-1.4 4.55,-2.1 9.15,-2.1 4.6,0 7.6,0.7 9,2.1 1.5,1.5 2.25,4.6 2.25,9.3 z m -118.35,9.6 v -19.5 h 82.5 v 19.5 z m 0,88.259 v -19.5 h 54.75 c 4.9,0 8.25,-1 10.05,-3 1.8,-2 2.7,-4.8 2.7,-8.4 l -7.35,-17.55 H 477 v -19.5 h 85.65 v 14.55 l -10.2,4.5 11.1,24 c 0,6.7 -2.5,12.5 -7.5,17.4 -4.9,5 -12.1,7.5 -21.6,7.5 z m 118.35,29.436 c 0,4.7 -0.75,7.75 -2.25,9.15 -1.4,1.4 -4.45,2.1 -9.15,2.1 -4.6,0 -7.65,-0.75 -9.15,-2.25 -1.4,-1.4 -2.1,-4.45 -2.1,-9.15 0,-4.6 0.75,-7.65 2.25,-9.15 1.5,-1.4 4.55,-2.1 9.15,-2.1 4.6,0 7.6,0.7 9,2.1 1.5,1.5 2.25,4.6 2.25,9.3 z m -118.35,9.6 v -19.5 h 82.5 v 19.5 z m 0,58.409 v -12.15 c 0,-7.4 2.2,-13.05 6.6,-16.95 4.4,-3.8 9.65,-5.7 15.75,-5.7 h 45 v -8.25 h 14.85 v 8.25 H 576 v 19.5 h -16.8 v 13.8 h -14.85 v -13.8 h -43.8 c -4.7,0 -7.05,2.25 -7.05,6.75 v 8.55 z m 118.35,26.034 c 0,4.7 -0.75,7.75 -2.25,9.15 -1.4,1.4 -4.45,2.1 -9.15,2.1 -4.6,0 -7.65,-0.75 -9.15,-2.25 -1.4,-1.4 -2.1,-4.45 -2.1,-9.15 0,-4.6 0.75,-7.65 2.25,-9.15 1.5,-1.4 4.55,-2.1 9.15,-2.1 4.6,0 7.6,0.7 9,2.1 1.5,1.5 2.25,4.6 2.25,9.3 z m -118.35,9.6 v -19.5 h 82.5 v 19.5 z m 38.7,68.159 h 7.8 c 7.4,0 13.05,-1.1 16.95,-3.3 3.9,-2.1 5.85,-6.55 5.85,-13.35 0,-11 -7.4,-16.5 -22.2,-16.5 h -7.8 c -15.9,0 -23.85,5.5 -23.85,16.5 0,7.1 2.65,11.75 7.95,13.95 4.2,1.8 9.3,2.7 15.3,2.7 z m 4.5,19.5 c -18.5,0 -30.9,-3.5 -37.2,-10.5 -5.4,-5.9 -8.1,-14.45 -8.1,-25.65 0,-14.3 4.2,-23.95 12.6,-28.95 7.7,-4.7 18.6,-7.05 32.7,-7.05 13.2,0 23.55,2.35 31.05,7.05 8.4,5.2 12.6,14.65 12.6,28.35 0,13.8 -3.7,23.35 -11.1,28.65 -7.3,5.4 -18.15,8.1 -32.55,8.1 z M 477,641.816 v -19.5 h 54.75 c 4.9,0 8.25,-1 10.05,-3 1.8,-2 2.7,-4.8 2.7,-8.4 l -7.35,-17.55 H 477 v -19.5 h 85.65 v 14.55 l -10.2,4.5 11.1,24 c 0,6.7 -2.5,12.5 -7.5,17.4 -4.9,5 -12.1,7.5 -21.6,7.5 z M 372.85,81 361.3,81.15 c -7.3,-0.4 -13.45,-1.3 -18.45,-2.7 -5,-1.4 -9.55,-4.15 -13.65,-8.25 C 322.4,63.4 319,53.5 319,40.5 c 0,-15.3 2,-25.8 6,-31.50002 4.1,-5.7 11.45,-8.549998 22.05,-8.549998 l 78.75,4e-6 V 42 c 0,12 -3.4,21.4 -10.2,28.2 -5.5,5.5 -12.2,8.75 -20.1,9.75 -5.6,0.7 -13.15,1.05 -22.65,1.05 z M 344.2,55.65 c 2.3,1.9 5.45,3.1 9.45,3.6 4.1,0.6 10.45,0.9 19.05,0.9 8.6,0 14.8,-0.3 18.6,-0.9 3.9,-0.5 7,-1.7 9.3,-3.6 4.4,-3.6 6.6,-8.8 6.6,-15.6 V 21.3 h -59.1 c -4,0 -6.75,1.35 -8.25,4.05 -1.5,2.7 -2.25,7.5 -2.25,14.4 0,7 2.2,12.3 6.6,15.9 z m 13.05,106.377 v -49.95 c -7.8,0 -13.5,1.2 -17.1,3.6 -3.6,2.5 -5.4,7.45 -5.4,14.85 0,4.8 1.5,8.35 4.5,10.65 3.1,2.3 6.05,3.45 8.85,3.45 v 17.55 c -10.7,0 -18.55,-2.9 -23.55,-8.7 -5,-5.7 -7.5,-13.3 -7.5,-22.8 0,-9.4 1.35,-16.7 4.05,-21.9 5.5,-10.7001 20.1,-16.0501 43.8,-16.0501 14.1,0 24.4,3.05 30.9,9.1501 6.6,6.1 9.9,15.4 9.9,27.9 0,21.7 -12.05,32.55 -36.15,32.55 -2.6,0 -6.7,-0.1 -12.3,-0.3 z m 13.35,-49.5 v 32.1 c 6.6,0 11.4,-1.25 14.4,-3.75 3,-2.5 4.5,-6.35 4.5,-11.55 0,-5.1 -1.55,-9.2 -4.65,-12.3 -3,-3 -7.75,-4.5 -14.25,-4.5 z m 15.9,103.778 v -15.9 H 319 v -19.5 h 67.5 v -8.1 h 14.85 v 8.1 h 8.25 c 6.1,0 11.35,1.95 15.75,5.85 4.4,3.9 6.6,9.55 6.6,16.95 v 12.6 h -16.5 v -9.15 c 0,-4.5 -2.35,-6.75 -7.05,-6.75 h -7.05 v 15.9 z m 50.85,24.869 c 0,4.7 -0.75,7.75 -2.25,9.15 -1.4,1.4 -4.45,2.1 -9.15,2.1 -4.6,0 -7.65,-0.75 -9.15,-2.25 -1.4,-1.4 -2.1,-4.45 -2.1,-9.15 0,-4.6 0.75,-7.65 2.25,-9.15 1.5,-1.4 4.55,-2.1 9.15,-2.1 4.6,0 7.6,0.7 9,2.1 1.5,1.5 2.25,4.6 2.25,9.3 z m -118.35,9.6 v -19.5 h 82.5 v 19.5 z m 0,88.259 v -19.5 h 54.75 c 4.9,0 8.25,-1 10.05,-3 1.8,-2 2.7,-4.8 2.7,-8.4 l -7.35,-17.55 H 319 v -19.5 h 85.65 v 14.55 l -10.2,4.5 11.1,24 c 0,6.7 -2.5,12.5 -7.5,17.4 -4.9,5 -12.1,7.5 -21.6,7.5 z m 118.35,29.436 c 0,4.7 -0.75,7.75 -2.25,9.15 -1.4,1.4 -4.45,2.1 -9.15,2.1 -4.6,0 -7.65,-0.75 -9.15,-2.25 -1.4,-1.4 -2.1,-4.45 -2.1,-9.15 0,-4.6 0.75,-7.65 2.25,-9.15 1.5,-1.4 4.55,-2.1 9.15,-2.1 4.6,0 7.6,0.7 9,2.1 1.5,1.5 2.25,4.6 2.25,9.3 z m -118.35,9.6 v -19.5 h 82.5 v 19.5 z m 0,58.409 v -12.15 c 0,-7.4 2.2,-13.05 6.6,-16.95 4.4,-3.8 9.65,-5.7 15.75,-5.7 h 45 v -8.25 h 14.85 v 8.25 H 418 v 19.5 h -16.8 v 13.8 h -14.85 v -13.8 h -43.8 c -4.7,0 -7.05,2.25 -7.05,6.75 v 8.55 z m 118.35,26.034 c 0,4.7 -0.75,7.75 -2.25,9.15 -1.4,1.4 -4.45,2.1 -9.15,2.1 -4.6,0 -7.65,-0.75 -9.15,-2.25 -1.4,-1.4 -2.1,-4.45 -2.1,-9.15 0,-4.6 0.75,-7.65 2.25,-9.15 1.5,-1.4 4.55,-2.1 9.15,-2.1 4.6,0 7.6,0.7 9,2.1 1.5,1.5 2.25,4.6 2.25,9.3 z m -118.35,9.6 v -19.5 h 82.5 v 19.5 z m 38.7,68.159 h 7.8 c 7.4,0 13.05,-1.1 16.95,-3.3 3.9,-2.1 5.85,-6.55 5.85,-13.35 0,-11 -7.4,-16.5 -22.2,-16.5 h -7.8 c -15.9,0 -23.85,5.5 -23.85,16.5 0,7.1 2.65,11.75 7.95,13.95 4.2,1.8 9.3,2.7 15.3,2.7 z m 4.5,19.5 c -18.5,0 -30.9,-3.5 -37.2,-10.5 -5.4,-5.9 -8.1,-14.45 -8.1,-25.65 0,-14.3 4.2,-23.95 12.6,-28.95 7.7,-4.7 18.6,-7.05 32.7,-7.05 13.2,0 23.55,2.35 31.05,7.05 8.4,5.2 12.6,14.65 12.6,28.35 0,13.8 -3.7,23.35 -11.1,28.65 -7.3,5.4 -18.15,8.1 -32.55,8.1 z M 319,641.816 v -19.5 h 54.75 c 4.9,0 8.25,-1 10.05,-3 1.8,-2 2.7,-4.8 2.7,-8.4 l -7.35,-17.55 H 319 v -19.5 h 85.65 v 14.55 l -10.2,4.5 11.1,24 c 0,6.7 -2.5,12.5 -7.5,17.4 -4.9,5 -12.1,7.5 -21.6,7.5 z M 214.85,81 203.3,81.15 c -7.3,-0.4 -13.45,-1.3 -18.45,-2.7 -5,-1.4 -9.55,-4.15 -13.65,-8.25 C 164.4,63.4 161,53.5 161,40.5 c 0,-15.3 2,-25.8 6,-31.50003 4.1,-5.7 11.45,-8.549995 22.05,-8.549995 l 78.75,4e-6 V 42 c 0,12 -3.4,21.4 -10.2,28.2 -5.5,5.5 -12.2,8.75 -20.1,9.75 -5.6,0.7 -13.15,1.05 -22.65,1.05 z M 186.2,55.65 c 2.3,1.9 5.45,3.1 9.45,3.6 4.1,0.6 10.45,0.9 19.05,0.9 8.6,0 14.8,-0.3 18.6,-0.9 3.9,-0.5 7,-1.7 9.3,-3.6 4.4,-3.6 6.6,-8.8 6.6,-15.6 V 21.3 h -59.1 c -4,0 -6.75,1.35 -8.25,4.05 -1.5,2.7 -2.25,7.5 -2.25,14.4 0,7 2.2,12.3 6.6,15.9 z m 13.05,106.377 v -49.95 c -7.8,0 -13.5,1.2 -17.1,3.6 -3.6,2.5 -5.4,7.45 -5.4,14.85 0,4.8 1.5,8.35 4.5,10.65 3.1,2.3 6.05,3.45 8.85,3.45 v 17.55 c -10.7,0 -18.55,-2.9 -23.55,-8.7 -5,-5.7 -7.5,-13.3 -7.5,-22.8 0,-9.4 1.35,-16.7 4.05,-21.9 5.5,-10.7001 20.1,-16.0501 43.8,-16.0501 14.1,0 24.4,3.05 30.9,9.1501 6.6,6.1 9.9,15.4 9.9,27.9 0,21.7 -12.05,32.55 -36.15,32.55 -2.6,0 -6.7,-0.1 -12.3,-0.3 z m 13.35,-49.5 v 32.1 c 6.6,0 11.4,-1.25 14.4,-3.75 3,-2.5 4.5,-6.35 4.5,-11.55 0,-5.1 -1.55,-9.2 -4.65,-12.3 -3,-3 -7.75,-4.5 -14.25,-4.5 z m 15.9,103.778 v -15.9 H 161 v -19.5 h 67.5 v -8.1 h 14.85 v 8.1 h 8.25 c 6.1,0 11.35,1.95 15.75,5.85 4.4,3.9 6.6,9.55 6.6,16.95 v 12.6 h -16.5 v -9.15 c 0,-4.5 -2.35,-6.75 -7.05,-6.75 h -7.05 v 15.9 z m 50.85,24.869 c 0,4.7 -0.75,7.75 -2.25,9.15 -1.4,1.4 -4.45,2.1 -9.15,2.1 -4.6,0 -7.65,-0.75 -9.15,-2.25 -1.4,-1.4 -2.1,-4.45 -2.1,-9.15 0,-4.6 0.75,-7.65 2.25,-9.15 1.5,-1.4 4.55,-2.1 9.15,-2.1 4.6,0 7.6,0.7 9,2.1 1.5,1.5 2.25,4.6 2.25,9.3 z m -118.35,9.6 v -19.5 h 82.5 v 19.5 z m 0,88.259 v -19.5 h 54.75 c 4.9,0 8.25,-1 10.05,-3 1.8,-2 2.7,-4.8 2.7,-8.4 l -7.35,-17.55 H 161 v -19.5 h 85.65 v 14.55 l -10.2,4.5 11.1,24 c 0,6.7 -2.5,12.5 -7.5,17.4 -4.9,5 -12.1,7.5 -21.6,7.5 z m 118.35,29.436 c 0,4.7 -0.75,7.75 -2.25,9.15 -1.4,1.4 -4.45,2.1 -9.15,2.1 -4.6,0 -7.65,-0.75 -9.15,-2.25 -1.4,-1.4 -2.1,-4.45 -2.1,-9.15 0,-4.6 0.75,-7.65 2.25,-9.15 1.5,-1.4 4.55,-2.1 9.15,-2.1 4.6,0 7.6,0.7 9,2.1 1.5,1.5 2.25,4.6 2.25,9.3 z m -118.35,9.6 v -19.5 h 82.5 v 19.5 z m 0,58.409 v -12.15 c 0,-7.4 2.2,-13.05 6.6,-16.95 4.4,-3.8 9.65,-5.7 15.75,-5.7 h 45 v -8.25 h 14.85 v 8.25 H 260 v 19.5 h -16.8 v 13.8 h -14.85 v -13.8 h -43.8 c -4.7,0 -7.05,2.25 -7.05,6.75 v 8.55 z m 118.35,26.034 c 0,4.7 -0.75,7.75 -2.25,9.15 -1.4,1.4 -4.45,2.1 -9.15,2.1 -4.6,0 -7.65,-0.75 -9.15,-2.25 -1.4,-1.4 -2.1,-4.45 -2.1,-9.15 0,-4.6 0.75,-7.65 2.25,-9.15 1.5,-1.4 4.55,-2.1 9.15,-2.1 4.6,0 7.6,0.7 9,2.1 1.5,1.5 2.25,4.6 2.25,9.3 z m -118.35,9.6 v -19.5 h 82.5 v 19.5 z m 38.7,68.159 h 7.8 c 7.4,0 13.05,-1.1 16.95,-3.3 3.9,-2.1 5.85,-6.55 5.85,-13.35 0,-11 -7.4,-16.5 -22.2,-16.5 h -7.8 c -15.9,0 -23.85,5.5 -23.85,16.5 0,7.1 2.65,11.75 7.95,13.95 4.2,1.8 9.3,2.7 15.3,2.7 z m 4.5,19.5 c -18.5,0 -30.9,-3.5 -37.2,-10.5 -5.4,-5.9 -8.1,-14.45 -8.1,-25.65 0,-14.3 4.2,-23.95 12.6,-28.95 7.7,-4.7 18.6,-7.05 32.7,-7.05 13.2,0 23.55,2.35 31.05,7.05 8.4,5.2 12.6,14.65 12.6,28.35 0,13.8 -3.7,23.35 -11.1,28.65 -7.3,5.4 -18.15,8.1 -32.55,8.1 z M 161,641.816 v -19.5 h 54.75 c 4.9,0 8.25,-1 10.05,-3 1.8,-2 2.7,-4.8 2.7,-8.4 l -7.35,-17.55 H 161 v -19.5 h 85.65 v 14.55 l -10.2,4.5 11.1,24 c 0,6.7 -2.5,12.5 -7.5,17.4 -4.9,5 -12.1,7.5 -21.6,7.5 z M 56.85,81 45.3,81.15 C 38,80.75 31.85,79.85 26.85,78.45 21.85,77.05 17.3,74.3 13.2,70.2 6.4,63.4 3,53.5 3,40.5 3,25.2 5,14.7 9,8.99997 c 4.1,-5.7 11.45,-8.550002 22.05,-8.550001 l 78.75,3e-6 V 42 c 0,12 -3.4,21.4 -10.2,28.2 -5.5,5.5 -12.2,8.75 -20.1,9.75 C 73.9,80.65 66.35,81 56.85,81 Z M 28.2,55.65 c 2.3,1.9 5.45,3.1 9.45,3.6 4.1,0.6 10.45,0.9 19.05,0.9 8.6,0 14.8,-0.3 18.6,-0.9 3.9,-0.5 7,-1.7 9.3,-3.6 4.4,-3.6 6.6,-8.8 6.6,-15.6 V 21.3 H 32.1 c -4,0 -6.75,1.35 -8.25,4.05 -1.5,2.7 -2.25,7.5 -2.25,14.4 0,7 2.2,12.3 6.6,15.9 z m 13.05,106.377 v -49.95 c -7.8,0 -13.5,1.2 -17.1,3.6 -3.6,2.5 -5.4,7.45 -5.4,14.85 0,4.8 1.5,8.35 4.5,10.65 3.1,2.3 6.05,3.45 8.85,3.45 v 17.55 c -10.7,0 -18.55,-2.9 -23.55001,-8.7 -5,-5.7 -7.5,-13.3 -7.5,-22.8 0,-9.4 1.35,-16.7 4.05,-21.9 C 10.6,98.0769 25.2,92.7269 48.9,92.7269 c 14.1,0 24.4,3.05 30.9,9.1501 6.6,6.1 9.9,15.4 9.9,27.9 0,21.7 -12.05,32.55 -36.15,32.55 -2.6,0 -6.7,-0.1 -12.3,-0.3 z m 13.35,-49.5 v 32.1 c 6.6,0 11.4,-1.25 14.4,-3.75 3,-2.5 4.5,-6.35 4.5,-11.55 0,-5.1 -1.55,-9.2 -4.65,-12.3 -3,-3 -7.75,-4.5 -14.25,-4.5 z m 15.9,103.778 v -15.9 H 2.99999 v -19.5 H 70.5 v -8.1 h 14.85 v 8.1 h 8.25 c 6.1,0 11.35,1.95 15.75,5.85 4.4,3.9 6.6,9.55 6.6,16.95 v 12.6 h -16.5 v -9.15 c 0,-4.5 -2.35,-6.75 -7.05,-6.75 h -7.05 v 15.9 z m 50.85,24.869 c 0,4.7 -0.75,7.75 -2.25,9.15 -1.4,1.4 -4.45,2.1 -9.15,2.1 -4.6,0 -7.65,-0.75 -9.15,-2.25 -1.4,-1.4 -2.1,-4.45 -2.1,-9.15 0,-4.6 0.75,-7.65 2.25,-9.15 1.5,-1.4 4.55,-2.1 9.15,-2.1 4.6,0 7.6,0.7 9,2.1 1.5,1.5 2.25,4.6 2.25,9.3 z m -118.35001,9.6 v -19.5 H 85.5 v 19.5 z m -1e-5,88.259 1e-5,-19.5 H 57.75 c 4.9,0 8.25,-1 10.05,-3 1.8,-2 2.7,-4.8 2.7,-8.4 l -7.35,-17.55 H 2.99999 v -19.5 H 88.65 v 14.55 l -10.2,4.5 11.1,24 c 0,6.7 -2.5,12.5 -7.5,17.4 -4.9,5 -12.1,7.5 -21.6,7.5 z M 121.35,368.469 c 0,4.7 -0.75,7.75 -2.25,9.15 -1.4,1.4 -4.45,2.1 -9.15,2.1 -4.6,0 -7.65,-0.75 -9.15,-2.25 -1.4,-1.4 -2.1,-4.45 -2.1,-9.15 0,-4.6 0.75,-7.65 2.25,-9.15 1.5,-1.4 4.55,-2.1 9.15,-2.1 4.6,0 7.6,0.7 9,2.1 1.5,1.5 2.25,4.6 2.25,9.3 z m -118.35002,9.6 v -19.5 H 85.5 v 19.5 z m 0,58.409 v -12.15 c 0,-7.4 2.2,-13.05 6.6,-16.95 4.40002,-3.8 9.65002,-5.7 15.75002,-5.7 h 45 v -8.25 H 85.2 v 8.25 H 102 v 19.5 H 85.2 v 13.8 H 70.35 v -13.8 h -43.8 c -4.7,0 -7.05,2.25 -7.05,6.75 v 8.55 z M 121.35,462.512 c 0,4.7 -0.75,7.75 -2.25,9.15 -1.4,1.4 -4.45,2.1 -9.15,2.1 -4.6,0 -7.65,-0.75 -9.15,-2.25 -1.4,-1.4 -2.1,-4.45 -2.1,-9.15 0,-4.6 0.75,-7.65 2.25,-9.15 1.5,-1.4 4.55,-2.1 9.15,-2.1 4.6,0 7.6,0.7 9,2.1 1.5,1.5 2.25,4.6 2.25,9.3 z m -118.35002,9.6 v -19.5 H 85.5 v 19.5 z M 41.7,540.271 h 7.8 c 7.4,0 13.05,-1.1 16.95,-3.3 3.9,-2.1 5.85,-6.55 5.85,-13.35 0,-11 -7.4,-16.5 -22.2,-16.5 h -7.8 c -15.9,0 -23.85,5.5 -23.85,16.5 0,7.1 2.65,11.75 7.95,13.95 4.2,1.8 9.3,2.7 15.3,2.7 z m 4.5,19.5 c -18.5,0 -30.9,-3.5 -37.20002,-10.5 -5.4,-5.9 -8.100004,-14.45 -8.100003,-25.65 0,-14.3 4.200003,-23.95 12.600023,-28.95 7.7,-4.7 18.6,-7.05 32.7,-7.05 13.2,0 23.55,2.35 31.05,7.05 8.4,5.2 12.6,14.65 12.6,28.35 0,13.8 -3.7,23.35 -11.1,28.65 -7.3,5.4 -18.15,8.1 -32.55,8.1 z M 2.99997,641.816 v -19.5 H 57.75 c 4.9,0 8.25,-1 10.05,-3 1.8,-2 2.7,-4.8 2.7,-8.4 l -7.35,-17.55 H 2.99997 v -19.5 H 88.65 v 14.55 l -10.2,4.5 11.1,24 c 0,6.7 -2.5,12.5 -7.5,17.4 -4.9,5 -12.1,7.5 -21.6,7.5 z"
     fill="#01f5ac"
     id="path2" />
</svg>
