<svg width="754" height="642" viewBox="0 0 754 642" fill="none" xmlns="http://www.w3.org/2000/svg">
<path d="M688.85 81L677.3 81.15C670 80.75 663.85 79.85 658.85 78.45C653.85 77.05 649.3 74.3 645.2 70.2C638.4 63.4 635 53.5 635 40.5C635 25.2 637 14.7 641 8.99999C645.1 3.3 652.45 0.449996 663.05 0.449996L741.8 0.45L741.8 42C741.8 54 738.4 63.4 731.6 70.2C726.1 75.7 719.4 78.95 711.5 79.95C705.9 80.65 698.35 81 688.85 81ZM660.2 55.65C662.5 57.55 665.65 58.75 669.65 59.25C673.75 59.85 680.1 60.15 688.7 60.15C697.3 60.15 703.5 59.85 707.3 59.25C711.2 58.75 714.3 57.55 716.6 55.65C721 52.05 723.2 46.85 723.2 40.05L723.2 21.3L664.1 21.3C660.1 21.3 657.35 22.65 655.85 25.35C654.35 28.05 653.6 32.85 653.6 39.75C653.6 46.75 655.8 52.05 660.2 55.65ZM673.25 162.027L673.25 112.077C665.45 112.077 659.75 113.277 656.15 115.677C652.55 118.177 650.75 123.127 650.75 130.527C650.75 135.327 652.25 138.877 655.25 141.177C658.35 143.477 661.3 144.627 664.1 144.627L664.1 162.177C653.4 162.177 645.55 159.277 640.55 153.477C635.55 147.777 633.05 140.177 633.05 130.677C633.05 121.277 634.4 113.977 637.1 108.777C642.6 98.0769 657.2 92.7269 680.9 92.7269C695 92.727 705.3 95.777 711.8 101.877C718.4 107.977 721.7 117.277 721.7 129.777C721.7 151.477 709.65 162.327 685.55 162.327C682.95 162.327 678.85 162.227 673.25 162.027ZM686.6 112.527L686.6 144.627C693.2 144.627 698 143.377 701 140.877C704 138.377 705.5 134.527 705.5 129.327C705.5 124.227 703.95 120.127 700.85 117.027C697.85 114.027 693.1 112.527 686.6 112.527ZM702.5 216.305L702.5 200.405L635 200.405L635 180.905L702.5 180.905L702.5 172.805L717.35 172.805L717.35 180.905L725.6 180.905C731.7 180.905 736.95 182.855 741.35 186.755C745.75 190.655 747.95 196.305 747.95 203.705L747.95 216.305L731.45 216.305L731.45 207.155C731.45 202.655 729.1 200.405 724.4 200.405L717.35 200.405L717.35 216.305L702.5 216.305ZM753.35 241.174C753.35 245.874 752.6 248.924 751.1 250.324C749.7 251.724 746.65 252.424 741.95 252.424C737.35 252.424 734.3 251.674 732.8 250.174C731.4 248.774 730.7 245.724 730.7 241.024C730.7 236.424 731.45 233.374 732.95 231.874C734.45 230.474 737.5 229.774 742.1 229.774C746.7 229.774 749.7 230.474 751.1 231.874C752.6 233.374 753.35 236.474 753.35 241.174ZM635 250.774L635 231.274L717.5 231.274L717.5 250.774L635 250.774ZM635 339.033L635 319.533L689.75 319.533C694.65 319.533 698 318.533 699.8 316.533C701.6 314.533 702.5 311.733 702.5 308.133L695.15 290.583L635 290.583L635 271.083L720.65 271.083L720.65 285.633L710.45 290.133L721.55 314.133C721.55 320.833 719.05 326.633 714.05 331.533C709.15 336.533 701.95 339.033 692.45 339.033L635 339.033ZM753.35 368.469C753.35 373.169 752.6 376.219 751.1 377.619C749.7 379.019 746.65 379.719 741.95 379.719C737.35 379.719 734.3 378.969 732.8 377.469C731.4 376.069 730.7 373.019 730.7 368.319C730.7 363.719 731.45 360.669 732.95 359.169C734.45 357.769 737.5 357.069 742.1 357.069C746.7 357.069 749.7 357.769 751.1 359.169C752.6 360.669 753.35 363.769 753.35 368.469ZM635 378.069L635 358.569L717.5 358.569L717.5 378.069L635 378.069ZM635 436.478L635 424.328C635 416.928 637.2 411.278 641.6 407.378C646 403.578 651.25 401.678 657.35 401.678L702.35 401.678L702.35 393.428L717.2 393.428L717.2 401.678L734 401.678L734 421.178L717.2 421.178L717.2 434.978L702.35 434.978L702.35 421.178L658.55 421.178C653.85 421.178 651.5 423.428 651.5 427.928L651.5 436.478L635 436.478ZM753.35 462.512C753.35 467.212 752.6 470.262 751.1 471.662C749.7 473.062 746.65 473.762 741.95 473.762C737.35 473.762 734.3 473.012 732.8 471.512C731.4 470.112 730.7 467.062 730.7 462.362C730.7 457.762 731.45 454.712 732.95 453.212C734.45 451.812 737.5 451.112 742.1 451.112C746.7 451.112 749.7 451.812 751.1 453.212C752.6 454.712 753.35 457.812 753.35 462.512ZM635 472.112L635 452.612L717.5 452.612L717.5 472.112L635 472.112ZM673.7 540.271L681.5 540.271C688.9 540.271 694.55 539.171 698.45 536.971C702.35 534.871 704.3 530.421 704.3 523.621C704.3 512.621 696.9 507.121 682.1 507.121L674.3 507.121C658.4 507.121 650.45 512.621 650.45 523.621C650.45 530.721 653.1 535.371 658.4 537.571C662.6 539.371 667.7 540.271 673.7 540.271ZM678.2 559.771C659.7 559.771 647.3 556.271 641 549.271C635.6 543.371 632.9 534.821 632.9 523.621C632.9 509.321 637.1 499.671 645.5 494.671C653.2 489.971 664.1 487.621 678.2 487.621C691.4 487.621 701.75 489.971 709.25 494.671C717.65 499.871 721.85 509.321 721.85 523.021C721.85 536.821 718.15 546.371 710.75 551.671C703.45 557.071 692.6 559.771 678.2 559.771ZM635 641.816L635 622.316L689.75 622.316C694.65 622.316 698 621.316 699.8 619.316C701.6 617.316 702.5 614.516 702.5 610.916L695.15 593.366L635 593.366L635 573.866L720.65 573.866L720.65 588.416L710.45 592.916L721.55 616.916C721.55 623.616 719.05 629.416 714.05 634.316C709.15 639.316 701.95 641.816 692.45 641.816L635 641.816ZM530.85 81L519.3 81.15C512 80.75 505.85 79.85 500.85 78.45C495.85 77.05 491.3 74.3 487.2 70.2C480.4 63.4 477 53.5 477 40.5C477 25.2 479 14.7 483 8.99999C487.1 3.29999 494.45 0.449989 505.05 0.449989L583.8 0.449993L583.8 42C583.8 54 580.4 63.4 573.6 70.2C568.1 75.7 561.4 78.95 553.5 79.95C547.9 80.65 540.35 81 530.85 81ZM502.2 55.65C504.5 57.55 507.65 58.75 511.65 59.25C515.75 59.85 522.1 60.15 530.7 60.15C539.3 60.15 545.5 59.85 549.3 59.25C553.2 58.75 556.3 57.55 558.6 55.65C563 52.05 565.2 46.85 565.2 40.05L565.2 21.3L506.1 21.3C502.1 21.3 499.35 22.65 497.85 25.35C496.35 28.05 495.6 32.85 495.6 39.75C495.6 46.75 497.8 52.05 502.2 55.65ZM515.25 162.027L515.25 112.077C507.45 112.077 501.75 113.277 498.15 115.677C494.55 118.177 492.75 123.127 492.75 130.527C492.75 135.327 494.25 138.877 497.25 141.177C500.35 143.477 503.3 144.627 506.1 144.627L506.1 162.177C495.4 162.177 487.55 159.277 482.55 153.477C477.55 147.777 475.05 140.177 475.05 130.677C475.05 121.277 476.4 113.977 479.1 108.777C484.6 98.0769 499.2 92.7269 522.9 92.7269C537 92.7269 547.3 95.7769 553.8 101.877C560.4 107.977 563.7 117.277 563.7 129.777C563.7 151.477 551.65 162.327 527.55 162.327C524.95 162.327 520.85 162.227 515.25 162.027ZM528.6 112.527L528.6 144.627C535.2 144.627 540 143.377 543 140.877C546 138.377 547.5 134.527 547.5 129.327C547.5 124.227 545.95 120.127 542.85 117.027C539.85 114.027 535.1 112.527 528.6 112.527ZM544.5 216.305L544.5 200.405L477 200.405L477 180.905L544.5 180.905L544.5 172.805L559.35 172.805L559.35 180.905L567.6 180.905C573.7 180.905 578.95 182.855 583.35 186.755C587.75 190.655 589.95 196.305 589.95 203.705L589.95 216.305L573.45 216.305L573.45 207.155C573.45 202.655 571.1 200.405 566.4 200.405L559.35 200.405L559.35 216.305L544.5 216.305ZM595.35 241.174C595.35 245.874 594.6 248.924 593.1 250.324C591.7 251.724 588.65 252.424 583.95 252.424C579.35 252.424 576.3 251.674 574.8 250.174C573.4 248.774 572.7 245.724 572.7 241.024C572.7 236.424 573.45 233.374 574.95 231.874C576.45 230.474 579.5 229.774 584.1 229.774C588.7 229.774 591.7 230.474 593.1 231.874C594.6 233.374 595.35 236.474 595.35 241.174ZM477 250.774L477 231.274L559.5 231.274L559.5 250.774L477 250.774ZM477 339.033L477 319.533L531.75 319.533C536.65 319.533 540 318.533 541.8 316.533C543.6 314.533 544.5 311.733 544.5 308.133L537.15 290.583L477 290.583L477 271.083L562.65 271.083L562.65 285.633L552.45 290.133L563.55 314.133C563.55 320.833 561.05 326.633 556.05 331.533C551.15 336.533 543.95 339.033 534.45 339.033L477 339.033ZM595.35 368.469C595.35 373.169 594.6 376.219 593.1 377.619C591.7 379.019 588.65 379.719 583.95 379.719C579.35 379.719 576.3 378.969 574.8 377.469C573.4 376.069 572.7 373.019 572.7 368.319C572.7 363.719 573.45 360.669 574.95 359.169C576.45 357.769 579.5 357.069 584.1 357.069C588.7 357.069 591.7 357.769 593.1 359.169C594.6 360.669 595.35 363.769 595.35 368.469ZM477 378.069L477 358.569L559.5 358.569L559.5 378.069L477 378.069ZM477 436.478L477 424.328C477 416.928 479.2 411.278 483.6 407.378C488 403.578 493.25 401.678 499.35 401.678L544.35 401.678L544.35 393.428L559.2 393.428L559.2 401.678L576 401.678L576 421.178L559.2 421.178L559.2 434.978L544.35 434.978L544.35 421.178L500.55 421.178C495.85 421.178 493.5 423.428 493.5 427.928L493.5 436.478L477 436.478ZM595.35 462.512C595.35 467.212 594.6 470.262 593.1 471.662C591.7 473.062 588.65 473.762 583.95 473.762C579.35 473.762 576.3 473.012 574.8 471.512C573.4 470.112 572.7 467.062 572.7 462.362C572.7 457.762 573.45 454.712 574.95 453.212C576.45 451.812 579.5 451.112 584.1 451.112C588.7 451.112 591.7 451.812 593.1 453.212C594.6 454.712 595.35 457.812 595.35 462.512ZM477 472.112L477 452.612L559.5 452.612L559.5 472.112L477 472.112ZM515.7 540.271L523.5 540.271C530.9 540.271 536.55 539.171 540.45 536.971C544.35 534.871 546.3 530.421 546.3 523.621C546.3 512.621 538.9 507.121 524.1 507.121L516.3 507.121C500.4 507.121 492.45 512.621 492.45 523.621C492.45 530.721 495.1 535.371 500.4 537.571C504.6 539.371 509.7 540.271 515.7 540.271ZM520.2 559.771C501.7 559.771 489.3 556.271 483 549.271C477.6 543.371 474.9 534.821 474.9 523.621C474.9 509.321 479.1 499.671 487.5 494.671C495.2 489.971 506.1 487.621 520.2 487.621C533.4 487.621 543.75 489.971 551.25 494.671C559.65 499.871 563.85 509.321 563.85 523.021C563.85 536.821 560.15 546.371 552.75 551.671C545.45 557.071 534.6 559.771 520.2 559.771ZM477 641.816L477 622.316L531.75 622.316C536.65 622.316 540 621.316 541.8 619.316C543.6 617.316 544.5 614.516 544.5 610.916L537.15 593.366L477 593.366L477 573.866L562.65 573.866L562.65 588.416L552.45 592.916L563.55 616.916C563.55 623.616 561.05 629.416 556.05 634.316C551.15 639.316 543.95 641.816 534.45 641.816L477 641.816ZM372.85 81L361.3 81.15C354 80.75 347.85 79.85 342.85 78.45C337.85 77.05 333.3 74.3 329.2 70.2C322.4 63.4 319 53.5 319 40.5C319 25.2 321 14.7 325 8.99998C329.1 3.29998 336.45 0.449982 347.05 0.449982L425.8 0.449986L425.8 42C425.8 54 422.4 63.4 415.6 70.2C410.1 75.7 403.4 78.95 395.5 79.95C389.9 80.65 382.35 81 372.85 81ZM344.2 55.65C346.5 57.55 349.65 58.75 353.65 59.25C357.75 59.85 364.1 60.15 372.7 60.15C381.3 60.15 387.5 59.85 391.3 59.25C395.2 58.75 398.3 57.55 400.6 55.65C405 52.05 407.2 46.85 407.2 40.05L407.2 21.3L348.1 21.3C344.1 21.3 341.35 22.65 339.85 25.35C338.35 28.05 337.6 32.85 337.6 39.75C337.6 46.75 339.8 52.05 344.2 55.65ZM357.25 162.027L357.25 112.077C349.45 112.077 343.75 113.277 340.15 115.677C336.55 118.177 334.75 123.127 334.75 130.527C334.75 135.327 336.25 138.877 339.25 141.177C342.35 143.477 345.3 144.627 348.1 144.627L348.1 162.177C337.4 162.177 329.55 159.277 324.55 153.477C319.55 147.777 317.05 140.177 317.05 130.677C317.05 121.277 318.4 113.977 321.1 108.777C326.6 98.0769 341.2 92.7269 364.9 92.7269C379 92.7269 389.3 95.7769 395.8 101.877C402.4 107.977 405.7 117.277 405.7 129.777C405.7 151.477 393.65 162.327 369.55 162.327C366.95 162.327 362.85 162.227 357.25 162.027ZM370.6 112.527L370.6 144.627C377.2 144.627 382 143.377 385 140.877C388 138.377 389.5 134.527 389.5 129.327C389.5 124.227 387.95 120.127 384.85 117.027C381.85 114.027 377.1 112.527 370.6 112.527ZM386.5 216.305L386.5 200.405L319 200.405L319 180.905L386.5 180.905L386.5 172.805L401.35 172.805L401.35 180.905L409.6 180.905C415.7 180.905 420.95 182.855 425.35 186.755C429.75 190.655 431.95 196.305 431.95 203.705L431.95 216.305L415.45 216.305L415.45 207.155C415.45 202.655 413.1 200.405 408.4 200.405L401.35 200.405L401.35 216.305L386.5 216.305ZM437.35 241.174C437.35 245.874 436.6 248.924 435.1 250.324C433.7 251.724 430.65 252.424 425.95 252.424C421.35 252.424 418.3 251.674 416.8 250.174C415.4 248.774 414.7 245.724 414.7 241.024C414.7 236.424 415.45 233.374 416.95 231.874C418.45 230.474 421.5 229.774 426.1 229.774C430.7 229.774 433.7 230.474 435.1 231.874C436.6 233.374 437.35 236.474 437.35 241.174ZM319 250.774L319 231.274L401.5 231.274L401.5 250.774L319 250.774ZM319 339.033L319 319.533L373.75 319.533C378.65 319.533 382 318.533 383.8 316.533C385.6 314.533 386.5 311.733 386.5 308.133L379.15 290.583L319 290.583L319 271.083L404.65 271.083L404.65 285.633L394.45 290.133L405.55 314.133C405.55 320.833 403.05 326.633 398.05 331.533C393.15 336.533 385.95 339.033 376.45 339.033L319 339.033ZM437.35 368.469C437.35 373.169 436.6 376.219 435.1 377.619C433.7 379.019 430.65 379.719 425.95 379.719C421.35 379.719 418.3 378.969 416.8 377.469C415.4 376.069 414.7 373.019 414.7 368.319C414.7 363.719 415.45 360.669 416.95 359.169C418.45 357.769 421.5 357.069 426.1 357.069C430.7 357.069 433.7 357.769 435.1 359.169C436.6 360.669 437.35 363.769 437.35 368.469ZM319 378.069L319 358.569L401.5 358.569L401.5 378.069L319 378.069ZM319 436.478L319 424.328C319 416.928 321.2 411.278 325.6 407.378C330 403.578 335.25 401.678 341.35 401.678L386.35 401.678L386.35 393.428L401.2 393.428L401.2 401.678L418 401.678L418 421.178L401.2 421.178L401.2 434.978L386.35 434.978L386.35 421.178L342.55 421.178C337.85 421.178 335.5 423.428 335.5 427.928L335.5 436.478L319 436.478ZM437.35 462.512C437.35 467.212 436.6 470.262 435.1 471.662C433.7 473.062 430.65 473.762 425.95 473.762C421.35 473.762 418.3 473.012 416.8 471.512C415.4 470.112 414.7 467.062 414.7 462.362C414.7 457.762 415.45 454.712 416.95 453.212C418.45 451.812 421.5 451.112 426.1 451.112C430.7 451.112 433.7 451.812 435.1 453.212C436.6 454.712 437.35 457.812 437.35 462.512ZM319 472.112L319 452.612L401.5 452.612L401.5 472.112L319 472.112ZM357.7 540.271L365.5 540.271C372.9 540.271 378.55 539.171 382.45 536.971C386.35 534.871 388.3 530.421 388.3 523.621C388.3 512.621 380.9 507.121 366.1 507.121L358.3 507.121C342.4 507.121 334.45 512.621 334.45 523.621C334.45 530.721 337.1 535.371 342.4 537.571C346.6 539.371 351.7 540.271 357.7 540.271ZM362.2 559.771C343.7 559.771 331.3 556.271 325 549.271C319.6 543.371 316.9 534.821 316.9 523.621C316.9 509.321 321.1 499.671 329.5 494.671C337.2 489.971 348.1 487.621 362.2 487.621C375.4 487.621 385.75 489.971 393.25 494.671C401.65 499.871 405.85 509.321 405.85 523.021C405.85 536.821 402.15 546.371 394.75 551.671C387.45 557.071 376.6 559.771 362.2 559.771ZM319 641.816L319 622.316L373.75 622.316C378.65 622.316 382 621.316 383.8 619.316C385.6 617.316 386.5 614.516 386.5 610.916L379.15 593.366L319 593.366L319 573.866L404.65 573.866L404.65 588.416L394.45 592.916L405.55 616.916C405.55 623.616 403.05 629.416 398.05 634.316C393.15 639.316 385.95 641.816 376.45 641.816L319 641.816ZM214.85 81L203.3 81.15C196 80.75 189.85 79.85 184.85 78.45C179.85 77.05 175.3 74.3 171.2 70.2C164.4 63.4 161 53.5 161 40.5C161 25.2 163 14.7 167 8.99997C171.1 3.29997 178.45 0.449975 189.05 0.449975L267.8 0.449979L267.8 42C267.8 54 264.4 63.4 257.6 70.2C252.1 75.7 245.4 78.95 237.5 79.95C231.9 80.65 224.35 81 214.85 81ZM186.2 55.65C188.5 57.55 191.65 58.75 195.65 59.25C199.75 59.85 206.1 60.15 214.7 60.15C223.3 60.15 229.5 59.85 233.3 59.25C237.2 58.75 240.3 57.55 242.6 55.65C247 52.05 249.2 46.85 249.2 40.05L249.2 21.3L190.1 21.3C186.1 21.3 183.35 22.65 181.85 25.35C180.35 28.05 179.6 32.85 179.6 39.75C179.6 46.75 181.8 52.05 186.2 55.65ZM199.25 162.027L199.25 112.077C191.45 112.077 185.75 113.277 182.15 115.677C178.55 118.177 176.75 123.127 176.75 130.527C176.75 135.327 178.25 138.877 181.25 141.177C184.35 143.477 187.3 144.627 190.1 144.627L190.1 162.177C179.4 162.177 171.55 159.277 166.55 153.477C161.55 147.777 159.05 140.177 159.05 130.677C159.05 121.277 160.4 113.977 163.1 108.777C168.6 98.0769 183.2 92.7269 206.9 92.7269C221 92.7269 231.3 95.7769 237.8 101.877C244.4 107.977 247.7 117.277 247.7 129.777C247.7 151.477 235.65 162.327 211.55 162.327C208.95 162.327 204.85 162.227 199.25 162.027ZM212.6 112.527L212.6 144.627C219.2 144.627 224 143.377 227 140.877C230 138.377 231.5 134.527 231.5 129.327C231.5 124.227 229.95 120.127 226.85 117.027C223.85 114.027 219.1 112.527 212.6 112.527ZM228.5 216.305L228.5 200.405L161 200.405L161 180.905L228.5 180.905L228.5 172.805L243.35 172.805L243.35 180.905L251.6 180.905C257.7 180.905 262.95 182.855 267.35 186.755C271.75 190.655 273.95 196.305 273.95 203.705L273.95 216.305L257.45 216.305L257.45 207.155C257.45 202.655 255.1 200.405 250.4 200.405L243.35 200.405L243.35 216.305L228.5 216.305ZM279.35 241.174C279.35 245.874 278.6 248.924 277.1 250.324C275.7 251.724 272.65 252.424 267.95 252.424C263.35 252.424 260.3 251.674 258.8 250.174C257.4 248.774 256.7 245.724 256.7 241.024C256.7 236.424 257.45 233.374 258.95 231.874C260.45 230.474 263.5 229.774 268.1 229.774C272.7 229.774 275.7 230.474 277.1 231.874C278.6 233.374 279.35 236.474 279.35 241.174ZM161 250.774L161 231.274L243.5 231.274L243.5 250.774L161 250.774ZM161 339.033L161 319.533L215.75 319.533C220.65 319.533 224 318.533 225.8 316.533C227.6 314.533 228.5 311.733 228.5 308.133L221.15 290.583L161 290.583L161 271.083L246.65 271.083L246.65 285.633L236.45 290.133L247.55 314.133C247.55 320.833 245.05 326.633 240.05 331.533C235.15 336.533 227.95 339.033 218.45 339.033L161 339.033ZM279.35 368.469C279.35 373.169 278.6 376.219 277.1 377.619C275.7 379.019 272.65 379.719 267.95 379.719C263.35 379.719 260.3 378.969 258.8 377.469C257.4 376.069 256.7 373.019 256.7 368.319C256.7 363.719 257.45 360.669 258.95 359.169C260.45 357.769 263.5 357.069 268.1 357.069C272.7 357.069 275.7 357.769 277.1 359.169C278.6 360.669 279.35 363.769 279.35 368.469ZM161 378.069L161 358.569L243.5 358.569L243.5 378.069L161 378.069ZM161 436.478L161 424.328C161 416.928 163.2 411.278 167.6 407.378C172 403.578 177.25 401.678 183.35 401.678L228.35 401.678L228.35 393.428L243.2 393.428L243.2 401.678L260 401.678L260 421.178L243.2 421.178L243.2 434.978L228.35 434.978L228.35 421.178L184.55 421.178C179.85 421.178 177.5 423.428 177.5 427.928L177.5 436.478L161 436.478ZM279.35 462.512C279.35 467.212 278.6 470.262 277.1 471.662C275.7 473.062 272.65 473.762 267.95 473.762C263.35 473.762 260.3 473.012 258.8 471.512C257.4 470.112 256.7 467.062 256.7 462.362C256.7 457.762 257.45 454.712 258.95 453.212C260.45 451.812 263.5 451.112 268.1 451.112C272.7 451.112 275.7 451.812 277.1 453.212C278.6 454.712 279.35 457.812 279.35 462.512ZM161 472.112L161 452.612L243.5 452.612L243.5 472.112L161 472.112ZM199.7 540.271L207.5 540.271C214.9 540.271 220.55 539.171 224.45 536.971C228.35 534.871 230.3 530.421 230.3 523.621C230.3 512.621 222.9 507.121 208.1 507.121L200.3 507.121C184.4 507.121 176.45 512.621 176.45 523.621C176.45 530.721 179.1 535.371 184.4 537.571C188.6 539.371 193.7 540.271 199.7 540.271ZM204.2 559.771C185.7 559.771 173.3 556.271 167 549.271C161.6 543.371 158.9 534.821 158.9 523.621C158.9 509.321 163.1 499.671 171.5 494.671C179.2 489.971 190.1 487.621 204.2 487.621C217.4 487.621 227.75 489.971 235.25 494.671C243.65 499.871 247.85 509.321 247.85 523.021C247.85 536.821 244.15 546.371 236.75 551.671C229.45 557.071 218.6 559.771 204.2 559.771ZM161 641.816L161 622.316L215.75 622.316C220.65 622.316 224 621.316 225.8 619.316C227.6 617.316 228.5 614.516 228.5 610.916L221.15 593.366L161 593.366L161 573.866L246.65 573.866L246.65 588.416L236.45 592.916L247.55 616.916C247.55 623.616 245.05 629.416 240.05 634.316C235.15 639.316 227.95 641.816 218.45 641.816L161 641.816ZM56.85 81L45.3 81.15C38 80.75 31.85 79.85 26.85 78.45C21.85 77.05 17.3 74.3 13.2 70.2C6.4 63.4 3 53.5 3 40.5C3 25.2 5 14.7 9 8.99997C13.1 3.29997 20.45 0.449968 31.05 0.449969L109.8 0.449972L109.8 42C109.8 54 106.4 63.4 99.6 70.2C94.1 75.7 87.4 78.95 79.5 79.95C73.9 80.65 66.35 81 56.85 81ZM28.2 55.65C30.5 57.55 33.65 58.75 37.65 59.25C41.75 59.85 48.1 60.15 56.7 60.15C65.3 60.15 71.5 59.85 75.3 59.25C79.2 58.75 82.3 57.55 84.6 55.65C89 52.05 91.2 46.85 91.2 40.05L91.2 21.3L32.1 21.3C28.1 21.3 25.35 22.65 23.85 25.35C22.35 28.05 21.6 32.85 21.6 39.75C21.6 46.75 23.8 52.05 28.2 55.65ZM41.25 162.027L41.25 112.077C33.45 112.077 27.75 113.277 24.15 115.677C20.55 118.177 18.75 123.127 18.75 130.527C18.75 135.327 20.25 138.877 23.25 141.177C26.35 143.477 29.3 144.627 32.1 144.627L32.1 162.177C21.4 162.177 13.55 159.277 8.54999 153.477C3.54999 147.777 1.04999 140.177 1.04999 130.677C1.04999 121.277 2.39999 113.977 5.09999 108.777C10.6 98.0769 25.2 92.7269 48.9 92.7269C63 92.7269 73.3 95.7769 79.8 101.877C86.4 107.977 89.7 117.277 89.7 129.777C89.7 151.477 77.65 162.327 53.55 162.327C50.95 162.327 46.85 162.227 41.25 162.027ZM54.6 112.527L54.6 144.627C61.2 144.627 66 143.377 69 140.877C72 138.377 73.5 134.527 73.5 129.327C73.5 124.227 71.95 120.127 68.85 117.027C65.85 114.027 61.1 112.527 54.6 112.527ZM70.5 216.305L70.5 200.405L2.99999 200.405L2.99999 180.905L70.5 180.905L70.5 172.805L85.35 172.805L85.35 180.905L93.6 180.905C99.7 180.905 104.95 182.855 109.35 186.755C113.75 190.655 115.95 196.305 115.95 203.705L115.95 216.305L99.45 216.305L99.45 207.155C99.45 202.655 97.1 200.405 92.4 200.405L85.35 200.405L85.35 216.305L70.5 216.305ZM121.35 241.174C121.35 245.874 120.6 248.924 119.1 250.324C117.7 251.724 114.65 252.424 109.95 252.424C105.35 252.424 102.3 251.674 100.8 250.174C99.4 248.774 98.7 245.724 98.7 241.024C98.7 236.424 99.45 233.374 100.95 231.874C102.45 230.474 105.5 229.774 110.1 229.774C114.7 229.774 117.7 230.474 119.1 231.874C120.6 233.374 121.35 236.474 121.35 241.174ZM2.99999 250.774L2.99999 231.274L85.5 231.274L85.5 250.774L2.99999 250.774ZM2.99998 339.033L2.99999 319.533L57.75 319.533C62.65 319.533 66 318.533 67.8 316.533C69.6 314.533 70.5 311.733 70.5 308.133L63.15 290.583L2.99999 290.583L2.99999 271.083L88.65 271.083L88.65 285.633L78.45 290.133L89.55 314.133C89.55 320.833 87.05 326.633 82.05 331.533C77.15 336.533 69.95 339.033 60.45 339.033L2.99998 339.033ZM121.35 368.469C121.35 373.169 120.6 376.219 119.1 377.619C117.7 379.019 114.65 379.719 109.95 379.719C105.35 379.719 102.3 378.969 100.8 377.469C99.4 376.069 98.7 373.019 98.7 368.319C98.7 363.719 99.45 360.669 100.95 359.169C102.45 357.769 105.5 357.069 110.1 357.069C114.7 357.069 117.7 357.769 119.1 359.169C120.6 360.669 121.35 363.769 121.35 368.469ZM2.99998 378.069L2.99998 358.569L85.5 358.569L85.5 378.069L2.99998 378.069ZM2.99998 436.478L2.99998 424.328C2.99998 416.928 5.19998 411.278 9.59998 407.378C14 403.578 19.25 401.678 25.35 401.678L70.35 401.678L70.35 393.428L85.2 393.428L85.2 401.678L102 401.678L102 421.178L85.2 421.178L85.2 434.978L70.35 434.978L70.35 421.178L26.55 421.178C21.85 421.178 19.5 423.428 19.5 427.928L19.5 436.478L2.99998 436.478ZM121.35 462.512C121.35 467.212 120.6 470.262 119.1 471.662C117.7 473.062 114.65 473.762 109.95 473.762C105.35 473.762 102.3 473.012 100.8 471.512C99.4 470.112 98.7 467.062 98.7 462.362C98.7 457.762 99.45 454.712 100.95 453.212C102.45 451.812 105.5 451.112 110.1 451.112C114.7 451.112 117.7 451.812 119.1 453.212C120.6 454.712 121.35 457.812 121.35 462.512ZM2.99998 472.112L2.99998 452.612L85.5 452.612L85.5 472.112L2.99998 472.112ZM41.7 540.271L49.5 540.271C56.9 540.271 62.55 539.171 66.45 536.971C70.35 534.871 72.3 530.421 72.3 523.621C72.3 512.621 64.9 507.121 50.1 507.121L42.3 507.121C26.4 507.121 18.45 512.621 18.45 523.621C18.45 530.721 21.1 535.371 26.4 537.571C30.6 539.371 35.7 540.271 41.7 540.271ZM46.2 559.771C27.7 559.771 15.3 556.271 8.99998 549.271C3.59998 543.371 0.899976 534.821 0.899977 523.621C0.899977 509.321 5.09998 499.671 13.5 494.671C21.2 489.971 32.1 487.621 46.2 487.621C59.4 487.621 69.75 489.971 77.25 494.671C85.65 499.871 89.85 509.321 89.85 523.021C89.85 536.821 86.15 546.371 78.75 551.671C71.45 557.071 60.6 559.771 46.2 559.771ZM2.99997 641.816L2.99997 622.316L57.75 622.316C62.65 622.316 66 621.316 67.8 619.316C69.6 617.316 70.5 614.516 70.5 610.916L63.15 593.366L2.99997 593.366L2.99997 573.866L88.65 573.866L88.65 588.416L78.45 592.916L89.55 616.916C89.55 623.616 87.05 629.416 82.05 634.316C77.15 639.316 69.95 641.816 60.45 641.816L2.99997 641.816Z" fill="#FE3CB0"/>
</svg>
