<svg xmlns="http://www.w3.org/2000/svg" id="Layer_1" width="966.7" height="856.2" data-name="Layer 1" version="1.1" viewBox="0 0 966.7 856.2">
  <defs id="defs4">
    <style id="style2">
      .cls-1{fill:#01f5ac}
    </style>
  </defs>
  <g id="Background" transform="translate(-80.7 -239.9)">
    <path id="path6" d="M996.9 802.6a2 2 0 0 1 .3.9c.5 3.6-7.2 9.1-9.4 11.4l-12.3 12.5-24 24.5q-24.5 24.6-49.3 48.8a13.7 13.7 0 0 1-4 3c-4.4 1.9-9-1-12-4-2.4-2.3-4.4-4.8-7-6.8-2.6-1.9-5.6-3.1-8.3-4.9-6.3-4-10.3-10.6-15.7-15.8a286.2 286.2 0 0 0-18.6-16.1l-15.2-12.5c-5-4.2-10.9-8.8-14.7-14.2-3.4-4.8 1.3-9.4 4.7-13 23.5-24.2 50.8-45 76.1-67.2q9.7-8.5 19.1-17.1 4.7-4.2 9.2-8.5c2-1.7 5.2-6.4 8-6 .3 0 1.1-1 1.6-1 1.4-.4 2.6.8 3.5 1.8L953 747c5.2 6.2 10.4 12.4 15.4 18.7l3.7 4.9 24.4 31.5z" class="cls-1"/>
    <path id="path8" d="M744 454.3c0 5-2.7 9.9-7.4 11.2a13 13 0 0 1-9.8 21.7c-2.3 0-4.6-.6-6.9-.4a51.7 51.7 0 0 0-5.8 1.4c-11.3 2.3-29-9-39.5-13l-43.5-16.5a13 13 0 0 0-5.2-1.2c-2 .1-3.8 1.2-5.7 1.7-12.7 3.8-17.9-7.5-15-17.7l7.1-25.4c6-20.8 20.1-15.1 36.4-7.4 25.3 12 54.3 14.3 79.3 26.8 6 3 12.2 7 14.9 13.2a13.6 13.6 0 0 1 1 5.6z" class="cls-1"/>
    <path id="path10" d="M859.4 661.2c-5.4 5.6-14.3 9.1-21 5a13.7 13.7 0 0 1-5.6-14c1-5.2 4.7-9.7 9.4-12.3a18.2 18.2 0 0 1 13-2.3 12.7 12.7 0 0 1 9.4 8.7c1.4 5.3-1.4 11-5.2 14.9z" class="cls-1"/>
    <path id="path12" d="M995.7 792.8c1.5 0 3 1.8 2 3a3.1 3.1 0 0 1-2.8-.6c-.7-.7-.1-2.3.8-2.1z" class="cls-1"/>
    <path id="path14" d="M497 1018.1a20 20 0 0 1-.1 3l-1.4 14.8c-.3 2.8-.6 5.8-2.4 8-2.6 3.2-7.2 3.7-11.3 3.8-27.6 1-55.5-2.8-82.8 1.8-16 2.7-21.2-7.1-18.6-22 .9-5.1 3.7-10.1 8.4-12.4 3-1.4 6.7-1.5 10.1-1.6l87.3-1.7c3.8 0 8.5.4 10.2 3.8a6.6 6.6 0 0 1 .6 2.5z" class="cls-1"/>
    <path id="path16" d="M151.8 618a15.5 15.5 0 0 1-.4-15.6c1.9-3.3 5.5-6 9.3-5.6a15.2 15.2 0 0 1 5.8 2c3 1.7 6.1 3.4 7.7 6.4 2.8 5 0 11.2-3.2 15.8-1.3 2-3 4-5.3 4a15.5 15.5 0 0 1-14-7z" class="cls-1"/>
    <path id="path18" d="M266 698.4a11.3 11.3 0 0 1-3.7 2.8l-9.8 5.5c-2.5 1.4-5.2 2.9-8 2.7-5.1-.3-8.5-5.4-11-9.9-2-3.6-4-8.2-1.7-11.7a11.5 11.5 0 0 1 4.2-3.2l12.6-7c2.7-1.5 6-3.1 8.8-1.9 1.9.8 3 2.5 4.1 4.3a63.8 63.8 0 0 1 4.2 8c1.4 3.3 2.5 7.5.3 10.4z" class="cls-1"/>
    <path id="path20" d="m329.7 668.6-4.4 2c-8.7 4.2-18.6-5.4-20.1-13.7-1.9-10.6 9-12 17.2-15.8 9.7-4.5 12.7 2.8 17 10 4.4 7.3.9 12.5-6 15.7z" class="cls-1"/>
    <path id="path22" d="m191.1 735.5-11.8 7.7c-2.2 1.4-4.5 2.9-7.1 2.8-4 0-7-3.4-9.5-6.6-3.6-4.6-7.3-11.3-3.6-15.9a13.1 13.1 0 0 1 4.7-3.2L175 715c2.7-1.3 5.5-2.5 8.3-2 3.2.6 5.6 3.2 7.5 5.9a19 19 0 0 1 3.7 8.4c.4 3-.7 6.4-3.3 8.2z" class="cls-1"/>
    <path id="path24" d="M363.8 758.3c-.2 5-3 9.8-6.6 13.4a22.2 22.2 0 0 1-12 6.5c-4.6.7-9.6-.6-12.7-4-4-4.3-4.1-11.2-1.4-16.4a25 25 0 0 1 13.2-11c4-1.6 8.4-2.5 12.2-.9 4.8 2 7.5 7.3 7.3 12.4z" class="cls-1"/>
  </g>
  <path id="path27" d="M708.2 101.2C707 96.4 702 94 697.4 92l-39.6-17A2908.8 2908.8 0 0 0 472 0a1562.7 1562.7 0 0 0-60.8 165.1c-1.7 5.4-3.3 11.5-.7 16.6 2.6 5 8.4 7.4 13.8 9.3l204 72.2c7.4 2.6 17.7 4.2 21.3-2.8a712.5 712.5 0 0 0 58-151.4c.5-2.5 1.2-5.2.5-7.8zm-183.4 103c-1.7.9-3.7.3-5.5-.3l-104.2-34a310.3 310.3 0 0 1 12.9-39.3q53.4 12.3 105.6 29.2c2.3.8 5 1.8 5.6 4.2a7.3 7.3 0 0 1-.6 4.2l-10.8 31.6c-.6 1.7-1.4 3.5-3 4.4zm115.7 34.1c-1 3-5.3 2.6-8.3 1.6l-97.7-31.6c-1.2-.4-2.6-.9-3.2-2-.6-1.2-.2-2.7.2-4l12.5-37.7a725.8 725.8 0 0 0 111.6 38 277.4 277.4 0 0 0-15.1 35.7zm20-46c-.6 1.6-1.4 3.5-3 4.4-1.8 1.1-4.1.7-6.2.3-62-14-118.7-46.9-180.9-60.4-14-3-28.3-5.1-41-11.6q19-58 42.6-114a7 7 0 0 1 2.4-3.6c1.9-1.1 4.3-.4 6.3.4q109.7 41 216.1 90z"/>
  <path id="path29" d="M353.7 244.5 280.9 88c-1.1-2.4-2.4-5-4.9-5.9-2.4-.9-5.2.2-7.7 1.3L41 185.9c-1.9.8-3.8 1.8-4.7 3.6-1.3 2.6.2 5.7 1.6 8.2l90.4 156.2c.9 1.5 1.9 3.2 3.5 3.8 2 .7 4-.2 5.9-1l210-97.5c3.2-1.5 6.8-3.4 7.6-6.8.7-2.6-.5-5.4-1.6-7.9zM134 351.2 42.5 192.5 273.4 88Q312 169.3 349 251.4z"/>
  <path id="path31" d="M844 474.6Q781.7 529 721 584.9q45.2 41.4 91.6 81.5c1.1 1 2.4 2 3.8 2 1.7 0 3-1.3 4.2-2.5l98.8-105.5zm3.4 10 61.7 71-71.3 10c-1.2-.9-1.2-2.7-1-4.2l10.6-76.8zm-8.6-.4L826.3 564a7.5 7.5 0 0 1-1.1 3.3c-.5.7-1.6 0-2.5 0q-45.4 5.8-90.6 13.1 53.1-48.4 106.7-96.2zM812.1 660 732 590c7.2-1.1 14.5-2 21.8-3l70.7-9zm10.6-2.8q5.1-37 10.4-73.9c.3-2.2.8-4.6 2.4-6a9.4 9.4 0 0 1 4.8-1.7q33.5-5.4 67.3-8.9z"/>
  <path id="path33" d="M609.6 688.2a96.2 96.2 0 0 0 23.8-108.6c-10 9-13.9 22.9-19.6 35.1a111.3 111.3 0 0 1-31.7 40 193.1 193.1 0 0 1-23-93.5l-27.6-1.5 10.1-10.8c-9.3-.9-14.6-11.8-13.6-21.1s6.3-17.5 10.1-26a86.9 86.9 0 0 0 7.2-43l-7.7 2 11-30c-2.8-2.4-8.1.8-7.3 4.5a112.6 112.6 0 0 1-29.1-59 61.5 61.5 0 0 0-38.3 44l-8.6-15.1a13.7 13.7 0 0 0-7 8.2 8.6 8.6 0 0 0-10.5-4.9 14.7 14.7 0 0 0 5.3-10.3 92.4 92.4 0 0 1-34.2 19.5 70.4 70.4 0 0 0-39-41.5 89.9 89.9 0 0 1-40 65.1c.3-3-3.5-5.5-6.2-4l12.1 35.3a30.5 30.5 0 0 0-6.7-27.2l9.3 5.9-3.7-8.5 7.2 2.4c-1.4-5.5 3.4-10.4 7.3-14.5A91.6 91.6 0 0 0 384 381a127 127 0 0 1 32.5 53.1c1.2-12.1 15-18.2 26.7-21.8l2.6 4.5c2.2-3.8 9-3.1 10.4 1l9-6.2a50.4 50.4 0 0 0 11 21.3 110.7 110.7 0 0 1 32.4-51.3 113.8 113.8 0 0 0 23.8 50.7 11.6 11.6 0 0 0-3 6.7l7.4-2.9a15.7 15.7 0 0 0-2.2 9.3l6.7-5.6-9.8 24.3 9.4 2.2a58.2 58.2 0 0 1-16.2 33.3 23 23 0 0 0 14.9-11.7 30.3 30.3 0 0 1-20.2 24.1 10.4 10.4 0 0 0 10.6.4l-7 9.2c-5.8-11-21.1-11.5-33.4-9.8a267 267 0 0 0-52 13l53-8c9.2-1.4 19.7-2.4 26.5 3.8 8.8 8.1 6.7 24.2 16.5 31.2a54.1 54.1 0 0 1-36.2 24 29.2 29.2 0 0 1-36-7.9 8.7 8.7 0 0 0 4 9.8c-7.1 1.1-12.6-5.6-17.9-10.5-5.3-4.8-15.5-7.3-18.3-.7a46.2 46.2 0 0 1-30 26 28 28 0 0 0 8-19.3 75.1 75.1 0 0 1-19.8 21.7l.9-8.3c-6.9 5.7-17.5 4.7-25 0-7.6-4.7-12.8-12.4-17.8-19.7.7-11 3.4-22.9 11.9-30 10-8.4 24.7-7.5 37.9-7.7 13.2-.3 28.8-4 33.5-16.3l4.5 9.7a16 16 0 0 0 11.2-11.8c-4.5 4.3-13.5-1.6-11.4-7.5a51.8 51.8 0 0 1-41.1 22.4c-11.1.2-23.8-2.7-32 4.7l-8.2-11.6a9.3 9.3 0 0 0 11.3-1 26 26 0 0 1-20.5-25.5 18.2 18.2 0 0 0 14.7 13.5 78.2 78.2 0 0 1-19.9-41 89.2 89.2 0 0 0 19.3 68.4 22.8 22.8 0 0 0-13 21c.3 7.8-10 10.5-17.8 10.6l-259 4.9 5 278.2c0 2.4.3 5.2 2.1 6.9 1.7 1.5 4.2 1.5 6.5 1.5l476.6-9c2.4 0 5.1-.2 6.7-2 1.2-1.5 1.2-3.6 1.2-5.5l-.6-73a74.3 74.3 0 0 0 25.9.8c8.5-1.7 16.8-7.2 19.5-15.4 2.6-8.3-2.4-19-11-20-9.6-1.3-13.2-14.4-9.1-23.2 4-8.8 12.7-14.3 20-20.7zM408.8 405.1a35.2 35.2 0 0 1 6.5 15.5 22.5 22.5 0 0 1-6.5-15.5zm70.1 10.3 1.6-6.5h.3a6.4 6.4 0 0 1 3.3-3.3 10.5 10.5 0 0 1-5.2 9.8zm72.3 427.7L79.5 852c-2.3 0-3-3-3-5.4L71 574l262-5.2c4.6-.1 10.3.3 12.4 4.4a47.6 47.6 0 0 0 83.3 1.9c2.2-3.7 4.7-8.2 8.9-8.1 2.8 0 5 2.1 7.2 4a55.9 55.9 0 0 0 54 10.6c18-6.3 35-22.1 53.3-16.8 3 .8 3.6 4.7 3.6 7.8l5 265c0 4-5.5 5.5-9.6 5.6zm58-98.3a38.2 38.2 0 0 1-40.7 18.5 6 6 0 0 1-3.6-1.8 6.5 6.5 0 0 1-1-4l-3.4-146c6.2 5 2.1 15.4 5.9 22.4a257.2 257.2 0 0 1 15.3 33.9c1.2 3.3 2.1 7.5-.4 9.9-.4-3.9-2-9-6-8.8a135.3 135.3 0 0 1 7.7 50.4c0-2-3.6-1.7-4.1.3-.6 2 .8 3.8 2.2 5.4a17.7 17.7 0 0 0-16.9-1.5 185.2 185.2 0 0 1 45 21.3zm-21.6-41.7a85.6 85.6 0 0 1-.5-31.3c.2-1.7.5-3.7-.8-4.8-2.7-2.6-2.6-7.2-.7-10.4 2-3.2 5.2-5.4 8.3-7.5a18.3 18.3 0 0 1-4.4 8.7c.1 2 3.4.8 4.6-.9a328.8 328.8 0 0 0 36.7-69.8l5.5 22.1a60 60 0 0 1 2.5 18.6 30.6 30.6 0 0 1-13.5 23c-2 1.3-4.3 2.4-5.8 4.3s-2 4.8-.4 6.6a17.5 17.5 0 0 1 7.9-6.5 63.6 63.6 0 0 1-32.1 36.1c1.8 2 1.2 5.4-.5 7.5-1.7 2-4.3 3.2-6.8 4.3z"/>
  <path id="path35" d="M312.3 402.5a4.2 4.2 0 0 1 .7 3c-.3 1-1.4 1.7-2.5 2.2L52.7 534.6a8.7 8.7 0 0 1-4.7 1.3c-3-.4-4.7-3.5-5.9-6.3l-10.5-24.2c-.6-1.6-1.3-3.3-.7-4.8.6-1.6 2-2.3 3.5-3l257.8-132.4 20 37.3zM290.8 371 35.3 501.6a283.2 283.2 0 0 0 13.2 30.5L308 404Z"/>
  <path id="path37" d="M598.4 326.4c-1.7-6.2-6.3-12.7-3.4-18.4a11.3 11.3 0 0 0-19.7-10.8c-3 5.1-10.6 3.8-16.4 5-13.9 3.1-18.3 22.2-31.4 27.7-4.5 1.9-10.4 2.5-12.6 6.9-2.9 5.6 2.9 11.7 8.4 14.8 5.5 3 12.2 6.7 12.4 13a14.1 14.1 0 0 0 21.2 11.8c4.9-3 10.8 1 15.2 4.5 4.4 3.5 10.9 6.9 15.3 3.4 4-3.3 2.7-9.6 2.7-14.9-.3-14.7 12-28.7 8.3-43zm-9.3-13zM548.6 374a11.8 11.8 0 0 1-9-9.1l-1.9-9.2 22.8 13.3a11.8 11.8 0 0 1-11.9 5zm39-29.9a60.6 60.6 0 0 0-4.6 30.7c.2 2.2-3.3 1.9-5.1.7a586.4 586.4 0 0 0-56.3-33.6l.4-2.7c9 .8 16.7-6.2 22.5-13.1 5.8-7 11.8-14.8 20.6-16.7a21 21 0 0 1 21.6 10.2 27.4 27.4 0 0 1 1 24.5z"/>
  <path id="path39" d="m679 450.6-2-33.9c-.3-4.5-1-9.6-4.6-12.3-3.2-2.3-7.5-1.8-11.4-1.3l-30.2 4.3c-3.2.4-4 5-2.5 7.7 1.6 2.8 4.4 4.5 6.6 6.8 2 2.4 3.3 6.3 1.1 8.6a324.2 324.2 0 0 0-35.8 45.2 5.3 5.3 0 0 0-1.2 3.2 5.4 5.4 0 0 0 1.4 2.8l13 16.2c1.2 1.5 2.8 3.2 4.7 2.9 1.4-.3 2.3-1.4 3.1-2.5l36-46.7c2.5-3.2 7.4-.6 10.4 2 2.9 2.6 7.8 5.3 10.3 2.2 1.2-1.3 1.1-3.4 1-5.2zm-73.3 27.5c-.4-3.6 2-6.8 4.3-9.5l30.4-37.2c1-1.3 2.1-2.7 2-4.3a6.8 6.8 0 0 0-1.6-3.6l-8.4-11.7q15.3-2.7 30.7-4.4l1.2 9c-.3 8.2 4.4 18 .5 25.6-1-6-9.7-8.6-13.8-4.3q-20 21-37.7 43.9c-2.2 2.7-7.2 0-7.6-3.5z"/>
  <path id="path41" d="m884.7 205.1-11 32.6c-1.7 4.9-3.6 10.1-8 13-4.3 3.1-10.1 3-15.4 3.8-5.3 1-11.2 4.2-11.5 9.5-.3 8-11 13.4-17.6 9-5.3 7.1-3 17.8-8 25-6.8 9.5-21.3 7.1-32.5 3.7-7.2-2.2-13 6.4-14.3 13.8-1.4 7.4-2 16.3-8.5 20-3 1.7-4.6-3.6-3.9-6.8l6.6-29.5c1.7-7.8 12.4-9 20.2-7.1 7.8 1.8 17 4.5 23-1 3.7-3.5 4.5-9 5-14.2.4-5 1.2-10.7 5-14.2 3.7-3.5 11.5-2.5 12.2 2.6 2.4-5.5 4.8-11 8.8-15.4 4-4.3 10.2-7.1 16-5.7 4.2 1 8.6-1.6 11-5.2 2.3-3.5 3.2-7.9 4.3-12a116.8 116.8 0 0 1 10.1-25.9c1.5-2.8 4.3-6 7.2-4.7 2.9 1.3 2.4 5.6 1.3 8.7z"/>
  <path id="path43" d="M703.1 726.1c-1.8 2.5-5 3.6-7.7 5.1a29 29 0 0 0-15 21.2c-.5 3.4-.5 7-2.6 9.7-2 2.7-7.4 2.6-8-.7a105.6 105.6 0 0 0-14.4-38c-1.7-2.9-3.1-7.5 0-8.8a40 40 0 0 0 23-25.1c.8-2.6 4.6-3 6.6-1.3 2.1 1.7 2.8 4.5 3.2 7.1.8 4.7 1 9.6 2.8 14 1.8 4.5 5.4 8.6 10.1 9.2 3.1.5 3.9 5 2 7.6z"/>
  <path id="path45" d="M447.5 316c-1 1-1.1 3.2.2 3.8 6.8 3.5 7.5 14.7 1.2 19-6.3 4.4-16.4-.2-17.4-7.8-.1-1.4-2.2-1.9-3.5-1.2-1.4.7-2.2 2-3.4 3-4.2 3.6-11 1-14.4-3.3a12 12 0 0 1-2.7-9c.6-3.2 3.4-6 6.6-6 3 .1 3.5-4.6 1.6-7-1.8-2.3-4.9-3.8-6-6.5-2-4.7 2.2-9.6 6-12.9a11 11 0 0 1 3.3-2.1c4.6-1.6 8.8 3 10.7 7.5.7 1.5 1.3 3.2 2.5 4.3 1.3 1.1 3.6 1.3 4.6-.1 3.7-5.5 12.9-6.2 17.4-1.2 4.5 5 3 14-3 17.2-1.2.7-2.7 1.2-3.7 2.3z"/>
  <path id="path47" d="M48.9 624.4c-2.2 3-6 4.6-9 6.6a26.7 26.7 0 0 0-12 21.9c0 2.7.2 6-2 7.7-2 1.3-5 .4-6.7-1.5-1.5-1.9-2.2-4.3-3-6.7a56.5 56.5 0 0 0-12.4-21c-1.4-1.4-3-3-3.6-4.8-.6-1.9 0-4.5 1.9-5.2 9-3.6 18.6-8.7 21.9-17.9.9-2.4 1.5-5.3 4-6.2 2.6-1 5.4 1.4 6.2 4.1.9 2.7.5 5.6 1 8.4.3 2.8 2 5.8 4.7 6.2 2.3.3 4.6-1.2 6.8-.8 3.6.7 4.3 6.2 2.2 9.2z"/>
  <path id="path49" d="M95.9 361.4c-3.9-8.6-16.4-12.8-23.7-6.7-5.4 4.5-6.4 12.6-5.3 19.6.6 4 1.8 7.9 4.3 11 2.5 3.1 6.5 5.3 10.5 4.7a14 14 0 0 0 6.6-3.2c7.4-5.9 11.4-16.7 7.6-25.4zm-18 .7a5.5 5.5 0 0 1 1.9-.9c4-1 7.9 3 8.1 7 .3 4-2 7.9-4.6 11-1.1 1.3-3.4 1-4.6-.2a9.6 9.6 0 0 1-2.2-4.6c-1.2-4.2-2-9.7 1.5-12.3z"/>
  <path id="path51" d="M778 139.3c-1.3 1.2-2 3.6-.6 4.7 2 1.6 2.5 4.4 2 6.8a19.4 19.4 0 0 1-3.6 6.6c-2 2.8-5.1 6-8.4 4.8-2.4-.8-3.5-3.6-5-5.7-1.5-2.2-5-3.6-6.4-1.4-3.1 4.8-11.4 4.9-14.5 0-3.1-4.8.3-12.4 6-13.2 2.4-.3 3-3.8 2-6s-2.9-4.2-3.3-6.6c-.6-3.2 1.6-6.3 4-8.5 3.5-3.2 9.5-5.4 12.5-1.7 1.3 1.6 2 4.3 4.2 4.4 1.9 0 2.9-2.2 4.4-3.3 3-2.3 7.4.2 9.9 3.2 3 3.7 4.7 9.5 1.3 12.8-1.3 1.3-3.1 1.9-4.5 3z"/>
  <path id="path53" d="M402 429.9c-2 1.1-4.3-.1-6.3-.8-2.1-.7-5.3 0-5 2.2-2.2-2.8-6.6-2.7-9.7-1-3.2 1.7-5.5 4.5-8.5 6.5a2.3 2.3 0 0 1-1 .4c-1.5.1-1.6-2.1-1.2-3.5a91.9 91.9 0 0 1 8.3-18.5c3.8-6.5 8.7-13.2 8.1-20.8a7.9 7.9 0 0 1 .2-3.5c.4-1.1 1.9-1.9 2.8-1.2a2.8 2.8 0 0 1 .8 1.2l15.3 34.8a24.7 24.7 0 0 1-7-1.5 9.2 9.2 0 0 0 3.1 5.7z"/>
  <path id="path55" d="m521.6 437.3-11.2-7.3c-2-1.3-5-2.4-6.3-.5-.7.9-2.1.4-3.2 0a10 10 0 0 0-9.7 1.7 5.4 5.4 0 0 1 4.4-5.9c.1-1.8-2.8-1.7-4.4-.7-1.5 1-4.2 2-4.8.1 8.5-11.1 8.9-27.6 19.4-36.8a30.6 30.6 0 0 0 2.1 17.5c1.8 4.1 4.6 7.8 6.9 11.7a72.8 72.8 0 0 1 6.6 14.1c.7 2 1.2 4.3.2 6z"/>
  <path id="path57" d="M621.1 365a59.9 59.9 0 0 0-2.1-58.5 2.8 2.8 0 0 1 2-4c5.6 3.7 8.2 10.4 9.8 16.9 4.7 18.8 3.1 40.5-9.4 55.3-1.7-.7-2.5-2.8-2.3-4.6a15 15 0 0 1 2-5.1z"/>
  <path id="path59" d="M435.4 470.4c.9 1.5-1.4 3.2-3 2.5-1.6-.6-2.3-2.5-2.8-4.2a65.7 65.7 0 0 1-1.8-24 5.2 5.2 0 0 1 1.4-3.6c1-.8 3-.5 3 .8a22.7 22.7 0 0 0 7.3 14.4 29.6 29.6 0 0 1 10.8-15.3 2.4 2.4 0 0 1 1.4-.6c1.4 0 1.7 2 1.5 3.3l-3.3 24.8c-3-1.5-3.5-5.6-3-9 .6-3.3 1.9-6.7 1-10a23.3 23.3 0 0 0-6.2 15q-4.8-5.6-9.7-11a25.3 25.3 0 0 0 3.4 16.9z"/>
  <path id="path61" d="M481.8 488.5a20 20 0 0 1-8 18.1c-4.5 3.3-11.3 4.3-15.6.6-3.2-2.7-4.2-7.3-3.5-11.4a26 26 0 0 1 5.7-11.1c3-4 7.2-7.8 12-7.3 5.3.5 8.8 6 9.4 11.1zm-16.8 6-2.8-6.3a21 21 0 0 0-3.7 9.9c-.2 3.5 2.1 7.5 5.7 7.9a8.3 8.3 0 0 0 4.6-1 17.4 17.4 0 0 0 8.9-11.3 11.8 11.8 0 0 0-.9-8.6 7.3 7.3 0 0 0-7.4-3.7c-2.9.6-5 3.9-4 6.7a13 13 0 0 0 4.6-2.9c1.8 1.2 1.8 4.1.5 5.9a12.5 12.5 0 0 1-5.5 3.4z"/>
  <path id="path63" d="M408.2 511.6c-5.5 1-10.7-4-11.7-9.5s1.2-11 4.4-15.6c3-4.6 8.4-8.8 13.5-6.7 2.7 1 4.5 3.8 5.5 6.5a20.8 20.8 0 0 1-5.8 22.3 12.2 12.2 0 0 1-6 3zm3.2-6.2a16.5 16.5 0 0 0 6-14.7c-.4-2.9-1.8-5.9-4.5-7-2.6-1.1-6.4 1-6 3.8 1.4-1.3 4 0 4.4 2 .4 2-.8 3.9-2.3 5.1a4.6 4.6 0 0 1-4 1.3c-1.3-.3-2.2-2.1-1.4-3.2-1.5-1-2.9 1.5-3 3.3-.2 4.5.5 10.4 4.9 11.4 2 .4 4.2-.6 6-2z"/>
  <path id="path65" d="m856.1 458.7-11.4-11.4c0 3.8-5 6-8.6 4.8-3.7-1.1-6.2-4.4-8.5-7.4l-3.2-4.1a2.2 2.2 0 0 1 .4-3.6l8.8-8.4c1.9-1.8 4.1-3.7 6.7-3.3 1.8.3 3.2 1.5 4.5 2.8 2.4 2.3 4.9 4.7 6.1 7.9 1.2 3.1.7 7.2-2 9 1.3 2.7 4.2 4 6.3 6 2.1 2.1 3.3 6 1 7.7z"/>
  <path id="path67" d="M509.5 312.7c-3.4-3.2-1.7-8.9.7-13a67.8 67.8 0 0 1 55.5-32.4 3.3 3.3 0 0 1 1.8.3c1.3.7 1 2.9-.3 3.8-1.2.9-2.8.9-4.3 1a60.1 60.1 0 0 0-53.4 40.3z"/>
  <path id="path69" d="M966.7 562.4a4 4 0 0 1-1.3 2.2 114.6 114.6 0 0 1-11.8 10.9 4 4 0 0 1-2.3 1.1c-1.2 0-2.1-.9-3-1.8l-9.3-10.1a4.2 4.2 0 0 1-1.4-2.4c-.1-1.3.9-2.3 1.8-3.2l10-9c1.6-1.4 3.6-2.9 5.6-2.2a6.1 6.1 0 0 1 2.6 2.2l7.8 9.5a4 4 0 0 1 1.3 2.8z"/>
  <path id="path71" d="M696.7 586.3a4 4 0 0 1-1.3 2.4 108.8 108.8 0 0 1-11.3 10.2c-1 .8-2.1 1.6-3.4 1.4a4.7 4.7 0 0 1-2.4-1.6q-5-5-9.4-10.3a3 3 0 0 1 .4-5.1 191 191 0 0 1 14.8-12.5l11.2 12.7a4.1 4.1 0 0 1 1.4 2.7z"/>
  <path id="path73" d="M608.5 358.3a44.3 44.3 0 0 0 1-39c-.6-1.3-1.2-3-.3-4.1 1.1-1.5 3.6-.5 4.8.9a19 19 0 0 1 4.2 9.4 53.4 53.4 0 0 1-3.3 31.7c-.7 1.6-1.7 3.3-3.3 3.8-1.6.5-3.9-1.2-3-2.7z"/>
  <path id="path75" d="M828.5 706.5a3.6 3.6 0 0 1-1.2 2.2 115.1 115.1 0 0 1-11.7 10.7 4 4 0 0 1-2.2 1.1c-1.2.1-2.1-.8-3-1.7l-7.2-7.5c-1.8-2-3.8-4.4-3-6.8 1-3 5.2-3.3 7.6-5.4 2.4-2 3.2-6.2 6.3-7.2 3-.9 5.7 2 7.6 4.5l5.8 7.9a3.7 3.7 0 0 1 1 2.3z"/>
  <path id="path77" d="M524.8 313.9c-3.5-2-2.1-7.3.1-10.6a47.3 47.3 0 0 1 35-20.1c1.4-.1 3-.1 4 .8 1 1 .5 3.2-.8 3.2a42 42 0 0 0-38.3 26.7z"/>
  <path id="path79" d="m372.3 467.3 6.8-1.9c1.7 1.6-.7 4.1-2.8 5l-12.8 6a3.3 3.3 0 0 1-2 .5c-2.3-.5-1.1-3.9.4-5.6l20.2-21.9c2.2 1 1 4.5-.6 6.4z"/>
  <path id="path81" d="M442 558.7c-5 2.4-12.2 3.1-15.7-1.4-2.6-3.3-2.1-8.2 0-11.7a15.1 15.1 0 0 1 18-5.8c2.8 1.1 5.4 3.3 6.1 6.3 1.4 5.3-3.4 10.2-8.3 12.6z"/>
  <path id="path83" d="M519.5 451.3a14.5 14.5 0 0 1 1.7-9.5c4.9 7.7 2.6 18.4 7.4 26.1-.2 1.8-3 1-4.3-.4-4.4-4.4-9.1-9.5-9-15.7z"/>
  <path id="path85" d="m928.2 530.6 8.6 9.4c2 2.2 4.1 5.9 1.9 8l-18.2-19c1.5-2.7 5.6-.6 7.7 1.7z"/>
  <path id="path87" d="M501.2 478.3c-1 1-2.7.7-4 .1-3.8-1.8-5.7-6.2-7.3-10.2l-5.6-13.9a3.4 3.4 0 0 1-.3-1c0-1.7 2.3-2.4 3.6-1.5 1.3 1 1.8 2.6 2.2 4.1l2.5 9.8 3.4-7 5.5 19.6z"/>
  <path id="path89" d="M704.8 615.3 693.6 605a2.7 2.7 0 0 1-1-1.6c-.3-2 3-1.7 4.6-.5a113.3 113.3 0 0 1 16 14.5c-2.3 2.1-6 0-8.4-2.2z"/>
  <path id="path91" d="M508.8 485a3 3 0 0 1 .8 1l10.2 16c.5.8 1 1.8.7 2.7-.4 1.2-2 1.5-3.1 1a6.5 6.5 0 0 1-2.4-2.7l-7.8-12.6a6 6 0 0 1-1.2-3.7c.2-1.3 1.8-2.4 2.8-1.7z"/>
  <path id="path93" d="M370.1 485.6c-1.6-2.3.6-5.3 2.9-7a22.2 22.2 0 0 1 13.5-3.8 2.4 2.4 0 0 1 1.5.4c1.3 1-.5 3-2 3.7q-7.9 3.5-15.9 6.7z"/>
  <path id="path95" d="M705.7 559.3a6.2 6.2 0 0 1 3.2-1.9c1.3-.1 2.8 1 2.5 2.2l-16 15c-1.4-.3-2.1-2.2-1.7-3.6a8 8 0 0 1 2.7-3.5z"/>
  <path id="path97" d="M861.3 464.8a8 8 0 0 1-2.3-3.8c-.3-1.4.6-3.2 2-3.4q7.4 7.7 14 15.9c-.2 1.3-2 2-3.2 1.6a7.5 7.5 0 0 1-3.2-2.4z"/>
  <path id="path99" d="M371.7 516.7a28.8 28.8 0 0 1 8.2-14.7c2.2 1.5 1 4.8-.2 7.2-1.2 2.3-1.6 6 1 6.8a5 5 0 0 0-5.5 4.1c-.2 1.3-2.3 1.5-3.1.4-.9-1-.7-2.5-.4-3.8z"/>
  <path id="path101" d="M907.3 508.4c-1.7 2.1-5 .2-7-1.8l-10.7-11.3c.2-1.5 2-2.3 3.5-1.9a8 8 0 0 1 3.6 2.7q5.4 6 10.6 12.3z"/>
  <path id="path103" d="M735.6 641a9.2 9.2 0 0 1-2.8-3.5c-.6-1.4-.2-3.3 1.2-4l15.8 13.9c-.2 1.4-2 2.2-3.4 2a8.3 8.3 0 0 1-3.8-2.3z"/>
  <path id="path105" d="m717.4 619.8 12 10a3.1 3.1 0 0 1 1 1.1c.5 1.3-1 2.6-2.3 2.6a6.2 6.2 0 0 1-3.5-1.8l-9.8-8.2c-1.4-1.2-3-3.4-1.6-4.7 1.2-1 3 0 4.2 1z"/>
  <path id="path107" d="m749.8 652.8 1.6-3a68.5 68.5 0 0 1 16.4 13c-1.1 2.5-5 1-7.2-.8z"/>
  <path id="path109" d="M920.7 522.3a3.4 3.4 0 0 1 1 2c.2 1.4-1.8 2.4-3.3 1.9-1.4-.6-2.3-2-3.2-3.2a40.6 40.6 0 0 0-10.5-10c.7-1.6 3-2.1 4.7-1.5a11.3 11.3 0 0 1 4.2 3.2l7 7.6z"/>
  <path id="path111" d="M904 616.5a64 64 0 0 1 7.3-6.8c1.7-1.3 4.5-2.3 5.5-.5a161.6 161.6 0 0 1-13.4 14.3c-2.7-.8-1.4-5 .6-7z"/>
  <path id="path113" d="M816.6 463c-.8.8-1.8 1.7-2.9 1.6-1.4-.1-2.2-2-1.8-3.3a7.3 7.3 0 0 1 2.7-3.3l7-5.8c1.2-1 2.5-2 4-1.7 1.6.2 2.6 2.2 1.4 3.1a71 71 0 0 0-10.4 9.3z"/>
  <path id="path115" d="m718.3 547.4 8.5-7.3a5.5 5.5 0 0 1 2.8-1.6c1 0 2.3.7 2.1 1.8l-12.3 12.2a3.1 3.1 0 0 1-1.3.9c-1.3.3-2.5-1.3-2.2-2.7a6.3 6.3 0 0 1 2.4-3.3z"/>
  <path id="path117" d="M887.6 486.6a6.8 6.8 0 0 1 1.9 3.2c.2 1.2-.5 2.7-1.8 2.8l-13-13.6c.4-1.4 2.4-2 3.8-1.5a8.5 8.5 0 0 1 3.5 2.8z"/>
  <path id="path119" d="M881.7 643.8c-.2 3.4-2.5 6.3-5 8.7a32.8 32.8 0 0 1-9.3 6 21.3 21.3 0 0 1 14.3-14.7z"/>
  <path id="path121" d="M807.7 698.6a21.7 21.7 0 0 1-14.5-9.8c-.7-1-1.1-2.6-.1-3.3a27.7 27.7 0 0 1 14.6 13z"/>
  <path id="path123" d="M852.4 674.7a25.8 25.8 0 0 1 10.9-14.4c1.2-.8 2.9.6 2.9 2a5.7 5.7 0 0 1-2 3.7 46.3 46.3 0 0 1-11.8 8.7z"/>
  <path id="path125" d="M773.3 502.9a7.5 7.5 0 0 1-3 3.2c-1.4.6-3.4 0-3.6-1.4-.2-1.1.6-2.1 1.3-3l4-4.3c1.2-1.3 2.4-2.6 4-3 1.6-.5 3.7.8 3.6 2.5l-6 6z"/>
  <path id="path127" d="M883 641.9a21 21 0 0 1 13.7-14.5 21.6 21.6 0 0 1-13.6 14.5z"/>
  <path id="path129" d="M787 681.9a26.8 26.8 0 0 1-14-9.9 2.8 2.8 0 0 1-.5-1.4c0-2.2 3.3-1.6 5-.3 4 3.2 8.2 6.7 9.6 11.6z"/>
  <path id="path131" d="M926.6 593.6a3.7 3.7 0 0 1 2.5-.9c1 .1 1.7 1.2 1.2 2a38.4 38.4 0 0 1-12.8 12 22.2 22.2 0 0 1 9-13.1z"/>
  <path id="path133" d="M845.8 683.5c-.7 2-1.8 4.3-3.9 4.8-2.1.5-4.2-2.9-2.2-3.8 2.6-1.2 3.8-4.1 5.7-6.2 2-2 6-3 7.2-.3l-6.6 5.3z"/>
  <path id="path135" d="M755.2 520.3c-1.3 1-3.4-.6-3.3-2.3.1-1.7 1.5-3 2.7-4.2l7.5-6.8c2.2 1.7.8 5.4-1.3 7.2-2.2 1.8-5 3.3-5.6 6z"/>
  <path id="path137" d="M783 491.3c-1.9-.4-.7-3.4.8-4.6a95.8 95.8 0 0 1 10.6-7.7c1 5.3-4.7 9.3-9.5 11.8a2.7 2.7 0 0 1-1.8.5z"/>
  <path id="path139" d="M798 476.2a2.4 2.4 0 0 1 0-1.5 10.4 10.4 0 0 1 13-6.3l-8.6 7.4c-1.4 1.2-3.9 2-4.4.4z"/>
  <path id="path141" d="M510.4 477.3c-.7-1.3 1.2-2.7 2.6-2.3 1.4.4 2.2 1.8 3 3 2 3.8 3.9 8.7 1 11.8z"/>
  <path id="path143" d="M827.6 701.2a10.7 10.7 0 0 1 6.2-10 9.7 9.7 0 0 1 4.4-.8c1 1.8-.7 3.8-2.3 5.1a67.9 67.9 0 0 1-8.3 5.7z"/>
  <path id="path145" d="M740 528a10 10 0 0 1 3.2-3.8c1.4-.9 3.6-.8 4.5.6a30.3 30.3 0 0 1-9.5 9.6c-2.5-1.5-1.4-6.1 1.4-6.4z"/>
  <path id="path147" d="M933.8 591.2c-2 .4-2-3-.8-4.6a20.8 20.8 0 0 1 9.8-7.3 19.4 19.4 0 0 1-8 11.5 2.6 2.6 0 0 1-1 .4z"/>
  <path id="path149" d="M532.2 663.7c-3-4-8.8-4.6-13.8-4.8-72.6-2.5-145.6-5-217.8 3.3-8.7 1-10.2 13-9.2 21.8.3 3 .6 6.2 2.3 8.8 3.8 5.6 11.8 5.7 18.5 5.2L511 683.5c6-.4 12.2-1 17-4.3 4.8-3.4 7.7-10.7 4.2-15.5zm-10.1 9.8c1 .7.7 2.5-.3 3.2a5.3 5.3 0 0 1-3.6.6 38.8 38.8 0 0 1-9.7-2 5.3 5.3 0 0 1 7.1-2.4v.3zm-109.6 2.1a64 64 0 0 1-16 .8 3.3 3.3 0 0 1-2-.6c-1-1-.6-2.8.5-3.6a7 7 0 0 1 4-.8h7.8c2.8 0 6.8 1.7 5.7 4.2zm17.7 5.7h-.1a9.4 9.4 0 0 1-7.6-1.2 8.5 8.5 0 0 1 12.1-.2 4 4 0 0 1-4.4 1.4zm-57.8-18a6.5 6.5 0 0 1 3.6.4l.3-.6 2.3 1.7a5.6 5.6 0 0 1-8 1 2.3 2.3 0 0 1 1.8-2.6zm9.6 1c-.2-1.7 2.7-3 3.5-1.4l.6-.4c1.7-.2 3.8-.1 4.5 1.4a9.7 9.7 0 0 1-4.5 3c-1.7.3-4-.7-4.1-2.5zm-20.6 7.6c-1 2.4-5.1 2.6-6.5.3-1.5 1.4-3.1 3-5.2 3.3-2 .3-4.4-1.1-4.3-3.2a35 35 0 0 1 9.6-2.7c2.4-.3 5.5 0 6.4 2.3zm-22.7 5c-2 .4-2.4-2.6-1.6-4.4 1-.7 2.4.2 2.7 1.3a3.8 3.8 0 0 1-1.1 3.2zm-3 12a13 13 0 0 1-12.2.3c1.3-2.7 5-3 7.9-3a5.5 5.5 0 0 1 3.2.7 2.8 2.8 0 0 1 1 2zm-13.2-14.1a4 4 0 0 1-6.6-.9 4.4 4.4 0 0 1 5.8-2 2.3 2.3 0 0 1 .8 2.9z"/>
  <path id="path151" d="M412.8 772.3c4.2 2.2 4.1 8.2 3.4 13l-2.1 14c-.3 2.1-.8 4.4-2.4 5.7-1.4 1.2-3.4 1.4-5.2 1.5l-95.6 5.2c-5.7.3-10.5-5-11.8-10.5-1.3-5.6 0-11.4 1.4-17 .4-1.5.9-3.2 2.2-4.2a6.7 6.7 0 0 1 2.8-1 516.5 516.5 0 0 1 102.2-7.6 11.6 11.6 0 0 1 5.1.9zm-.6 9.7c.3-2.2.4-4.7-1.3-6a5.7 5.7 0 0 0-3.3-.6 607 607 0 0 0-98.5 7.3c-4.2.6-5.5 5.9-5.9 10-.4 5.2-.1 11.8 4.6 13.9a12.6 12.6 0 0 0 6 .6l90.9-5a6 6 0 0 0 3.4-.9c1.2-.9 1.5-2.5 1.7-4l2.4-15.3z"/>
  <path id="path153" d="M300.5 750c-.5-3 3.6-4.2 6.6-4.3q110.2-1.7 220.4-2.5c1.9 1.8-1.7 4-4.2 4z"/>
  <path id="path155" d="M519.7 714.5c3 0 7 2.7 4.8 4.5l-220.4 2.7c-2.2-1.3 1.3-4 3.8-4z"/>
  <path id="path157" d="M480.1 99.7c-3.8-1.4-8.4-3.7-8.4-7.8q86.6 25.2 171 57.5c5.5 2 11.7 5 13.2 10.6-1.5 1.7-4.2 1-6.4.3z"/>
  <path id="path159" d="M485 73.8c-4.8-1.7-10.2-4-12-8.7l165.3 54.6c8.1 2.7 17.4 6.5 19.8 14.7L634 126z"/>
  <path id="path161" d="M539.5 766.4c3 2.1 3.4 6.5 3.2 10.3a164.5 164.5 0 0 1-2.1 21.4c-.4 2.4-1.5 5.4-4 5.5q-45.4 2.8-91 2.7c-5.3 0-11.4-.6-14.2-5-1.6-2.5-1.6-5.6-1.6-8.5v-9.2c0-3.1.2-7 2.9-8.7a9.7 9.7 0 0 1 4-1.2 750.8 750.8 0 0 1 95.8-8.7c2.4 0 5 0 7 1.3zm-3.5 31.8a6 6 0 0 0 .9-3l2-20.3c.2-2.3-1.6-4.4-3.7-5.2a15.9 15.9 0 0 0-6.8-.7q-44.7 2.3-89.2 8.6a5.9 5.9 0 0 0-3.2 1.2c-1.1 1-1.3 2.6-1.4 4l-.6 9.3a11.7 11.7 0 0 0 .6 5.6c1.9 4 7.2 4.6 11.6 4.5q42.6-.5 85-2.4c1.8 0 3.8-.2 4.8-1.6z"/>
  <path id="path163" d="M551.4 67.6A555.4 555.4 0 0 1 485 43.2c-2-.9-4-2-4.9-4-.8-1.9 1-4.8 3-4.1q32.8 10.7 65.2 22.5c2.6 1 5.4 2 6.5 4.5 1.2 2.5-.8 6.3-3.4 5.5z"/>
  <path id="path165" d="M608.4 210c-3.6 1.4-8 2.5-9.6 6-1.5 3.3-6.2 4-9.3 2.2-3.2-1.7-5-5-6.8-8-1-1.8-2-3.6-2-5.6.2-2 1.7-4 3.7-3.7 2.3.2 3.2 3 5 4.5 2.4 2 6.1 1.1 8.8-.6 2.6-1.7 4.8-4.2 7.7-5.5 2.8-1.3 7-1 8.3 2 1.6 3.5-2.2 7.2-5.8 8.7z"/>
  <path id="path167" d="M482 172.7c1.6 2.7 4.2 5.5 3 8.4-1.1 2.9-5.2 3.2-7.7 1.5-2.4-1.8-3.5-4.8-4.3-7.7-.8-3-5.2-2.5-8-1.1-2.6 1.3-6.3 2.9-8.3.5-2-2.3.3-6 3-7.3 2.7-1.4 6-2 8-4.2-2-1.5-4-3.1-5-5.4-1-2.3-.2-5.5 2.2-6.2 4.9-1.6 7.5 7.7 12.6 7.2 2.1-.1 3.7-2 5.7-2.6a5 5 0 1 1 .9 9.8c-3-.4-3.6 4.5-2 7.1z"/>
  <path id="path169" d="M261.5 413.8c1.5 2.8 2.6 7.1-.3 8.6l-20 10.3c-2.3 1.3-5.4 2.5-7.6 1a7.6 7.6 0 0 1-2.3-3.3l-7.3-15.3c-1-2.3 1.5-4.6 3.8-5.9l17.1-9.5c3-1.6 7.4-2.8 9 .1l7.6 14zm-32 2.7 5.7 12a3 3 0 0 0 .9 1.4c.9.6 2 0 3-.4l17.4-9.6c.7-.3 1.5-.8 1.7-1.6a3.1 3.1 0 0 0-.5-2.2l-6.3-11.9c-.3-.6-.7-1.3-1.4-1.5a2.5 2.5 0 0 0-1.8.5l-17.3 9.2a2.6 2.6 0 0 0-1.3 4.1z"/>
  <path id="path171" d="m332 241.8-62.6-135.4c-1-2-2.2-4.3-4.3-4.8-1.6-.4-3.2.3-4.7 1L65.2 191a8.2 8.2 0 0 0-3.8 2.8c-1.5 2.5 0 5.5 1.4 8l79.3 137 187-86.7c1.4-.7 3-1.5 3.8-2.9 1.3-2.2.2-5-.8-7.4zm-182.8 89c-1.5.8-3.2 1.5-4.7 1-1.6-.6-2.4-2-3.2-3.3L65 196.4q97-44.6 194.4-88.3c1.3-.6 2.8-1.2 4.2-.8 1.7.6 2.6 2.3 3.3 3.8L329.6 247z"/>
  <path id="path173" d="M150.8 452.6a6 6 0 0 1-.9-3.4c.3-1.7 1.9-2.8 3.4-3.6a224.9 224.9 0 0 1 21.6-11.3 3 3 0 0 1 4.7 1.4 114.5 114.5 0 0 1 9.7 18.6c.8 1.9-1.3 3.6-3 4.6q-9.8 5.5-19.7 10.4c-2 1-4.5 2-6.5.8a7 7 0 0 1-2.4-3.2l-6.9-14.3zm33.4 1.5a3 3 0 0 0-.5-1.5l-6.8-13.5c-7 1.7-13.4 5.3-19.6 9-1 .5-2 1.2-2.1 2.2a3.6 3.6 0 0 0 .5 2.1l5 11.5c.4.9 1 1.9 2 2.1a3.3 3.3 0 0 0 2.2-.6l17.3-9c.9-.6 2-1.2 2-2.3z"/>
  <path id="path175" d="M116.6 489.9a5 5 0 0 1 .5 3c-.3 1.2-1.5 2-2.7 2.6q-10.2 6-21 11c-1.5.7-3 1.3-4.5.9-1.4-.5-2.5-2.2-3.2-3.7l-7.4-14.6c-1.6-3.2 2.2-6.4 5.4-8l19.2-9.8a3.7 3.7 0 0 1 2.5-.6 3.6 3.6 0 0 1 2 1.7 86 86 0 0 1 9.2 17.5zm-4.8-.3-5-10c-.6-1.3-1.4-2.7-2.7-3.2-1.4-.5-3 .2-4.5 1l-14 7.6a3.2 3.2 0 0 0-1.9 5l4.5 10.1c.6 1.3 1.5 3 3 3a4.1 4.1 0 0 0 2-.7l17.8-9.7a1.8 1.8 0 0 0 .8-3z"/>
  <path id="path177" d="m292.3 385 5 9.8c1.4 2.8 2.8 6.2 1 8.8a8.7 8.7 0 0 1-3.2 2.5l-17 9c-2.3 1.3-5 2.5-7.5 1.8-5-1.3-5.2-8-7.6-12.6-1.5-2.8-4.2-5.4-3.8-8.5.5-2.8 3.2-4.5 5.7-5.8l17-9.3a8.4 8.4 0 0 1 4.3-1.4c2.9.1 4.7 3 6 5.7zm2.3 16.6a33 33 0 0 0-5-13.3c-1-1.8-2.3-3.9-4.3-4a6.2 6.2 0 0 0-3.2 1l-14.7 7.7c-1.7.8-3.6 2-3.6 4a5.2 5.2 0 0 0 .8 2.3l6.2 12c.4 1 1 1.9 2 2a3.1 3.1 0 0 0 2-.5z"/>
  <path id="path179" d="M225.8 433.1c.7 1.6 1.3 3.5.7 5.1-.7 1.9-2.6 3-4.3 3.9l-17 9c-2.9 1.5-6.6 3-9.2 1a8.8 8.8 0 0 1-2.4-3.5l-7.2-15.6a4.2 4.2 0 0 1-.6-2.6c.3-1 1.4-1.7 2.4-2.3l22.2-12a6 6 0 0 1 3.3-1c1.6.2 2.7 1.5 3.7 2.8a64 64 0 0 1 8.4 15.2zm-18-11.2-13.8 7.4c-1.4.7-3 1.7-3 3.3a4.5 4.5 0 0 0 .6 2l6.2 12.8a3.3 3.3 0 0 0 1.1 1.5c1 .5 2.2 0 3.1-.5l15.2-8.3c2-1.1 4.4-2.6 4.6-5a7.3 7.3 0 0 0-1.1-3.9l-3.4-6.6c-.8-1.5-1.7-3.2-3.3-3.9-2-.9-4.3.2-6.3 1.2z"/>
  <path id="path181" d="M144.6 453.8q4.5 8 8.3 16.3c.7 1.5 1.3 3.4.6 4.9a6 6 0 0 1-3 2.3l-20 10.1c-2.1 1-4.5 2.1-6.6 1.2-1.6-.8-2.5-2.5-3.3-4.2l-7.4-15.6c-1-2.2 1.5-4.4 3.8-5.6l18.4-9.6c3-1.6 7.6-2.8 9.2.2zM129.8 484l19.4-10.8-5-12.2c-.8-2.1-2-4.6-4.4-5a6.7 6.7 0 0 0-3.9 1.2l-15 8c-1.3.7-2.9 1.7-3 3.3a4.6 4.6 0 0 0 .7 2.2l6.1 12.3a4 4 0 0 0 1.1 1.6c1.2.8 2.8.1 4-.6z"/>
  <path id="path183" d="M41.5 506.1a3.8 3.8 0 0 1-.6-2.5c.3-1 1.2-1.6 2.1-2q12.1-6.8 24.5-12.8c2.5-1.2 4.9 1.6 6.2 4l5.8 10.8c1.7 3.2 3 8-.2 9.7l-22.7 11.9a6.5 6.5 0 0 1-2.9 1c-2.3 0-3.8-2.5-4.9-4.6zm7.3-3.7c-1.7.9-3.6 2.6-2.8 4.3l6.2 13A4.3 4.3 0 0 0 54 522c1.2.5 2.5-.2 3.7-.8l19-10.6a38.8 38.8 0 0 0-6-15.1 5 5 0 0 0-1.7-2.1c-1.5-.8-3.3 0-4.7.8z"/>
  <path id="path185" d="M280 511.8a21 21 0 0 0-6.2-6.2c-5-2.9-11.5-2.3-16.2.9a20.8 20.8 0 0 0-8.6 14.2c-1.1 7.2 1.7 15.5 8.4 18.6 4 2 8.8 1.6 13 .3 7.4-2.3 14-8.6 14-16.3 0-4.2-2-8.1-4.3-11.5zm-21.7 11.9c-.4-3.1.6-6.6 3.2-8.4 4.7-3.4 12.2 1.6 11.9 7.4a8.5 8.5 0 0 1-5 7.3 7.4 7.4 0 0 1-8.4-2 8.7 8.7 0 0 1-1.7-4.3z"/>
  <path id="path187" d="M782.9 401.4a18.7 18.7 0 0 0-20.4-3.2 17.5 17.5 0 0 0-9.5 18 16.5 16.5 0 0 0 15 13.6c5.8.2 11.3-2.8 15.3-7a16.8 16.8 0 0 0 4.5-8c1-4.8-1.3-10-5-13.4zm-9.5 16.3c-1.8.5-3.3 1.7-5 1.8-4.5.5-6.7-6.2-4-9.9 2.3-3.3 7.5-4.4 10.6-1.8 3.1 2.7 2.3 8.7-1.6 9.9z"/>
  <path id="path189" d="m253.2 801.9-1.7-196.1-152.8-.6q1.7 102.8 6.6 205.6l142.6-3.4c1.5 0 3.2-.1 4.3-1.2 1-1.1 1-2.8 1-4.3zm-103.8-19c-2.4-3 .9-7.1 4-9.5l5.5-4.3c1.9-1.4 5.4-2.3 5.8 0a59 59 0 0 1-15.3 13.8zm3.4 4c-1.3.5-2.9.7-3.8-.3-.8-1 1-2.9 1.6-1.7v.1a2.3 2.3 0 0 1 2.2 2zm-25-14c-2-4 2.3-8 6.1-10.3l19.3-11.6c1-.6 2.2-1.2 3.2-.7 1 .6 1.1 2.4.4 3.5a9.4 9.4 0 0 1-3.1 2.3c-5.7 3.4-8.7 9.7-13 14.7a13 13 0 0 1-6.2 4.6c-2.5.7-5.5-.1-6.7-2.5zm5.8 16.8a3 3 0 1 1-2.1-4.6 3 3 0 0 1 2 4.6zm-19-67.6-2.4 7.3h-.1a2.1 2.1 0 0 1-2.8.8c-.9-2.4-1.7-5.2-.6-7.5 1-2.3 5.1-3 6-.5zm-5-21.3a2.7 2.7 0 0 1 3.9 1 5.7 5.7 0 0 1-3.4 2.5 2.1 2.1 0 0 1-.5-3.4zm4.1 37.5a4.1 4.1 0 0 1 2.8 5.7 49 49 0 0 0-4.7 15.4c-1 .8-2.7.2-3.3-1a6.8 6.8 0 0 1-.6-3.8c.4-6 1.2-12.6 5.8-16.2zm-4.8 24h.2c.6-1.5 3.4.2 2.4 1.5a1.6 1.6 0 0 1-2.5-1.5zm2.7 24.6a3.2 3.2 0 0 1 2.5-.5l.2-.5 3.5 1.8a9 9 0 0 1-4.7 2.6 3.4 3.4 0 0 1-1.5-3.4zm3-134.2c-2.7-2.3.1-6.5 2.9-8.6l12.1-9.8c3.8-3 8-6.2 12.9-6 .5 1.5-1 3-2.3 4zm28.3-15.6c2.4.7 1 4.3-.8 6l-15.9 15a3 3 0 0 1-1.8 1c-2.2 0-1.7-3.5-.3-5.2a75.8 75.8 0 0 1 18.8-16.8zm-18.2 26.5L147 645a38 38 0 0 1 12.6-7.9c1.2-.3 3-.2 3.1 1L121.3 672c-2-2.7.8-6.2 3.4-8.4zm90.4 58a4.2 4.2 0 1 1 6.3-5.5 5.6 5.6 0 0 1-3.3 2.4zm1.1-25.3c-2.4-.6-3.3-4-2.1-6.2 1.1-2.3 3.6-3.5 6-4.3 1.2-.4 2.8-.6 3.7.4.9 1 .4 2.7-.4 4a15.7 15.7 0 0 1-7.2 6zm-79 48.3L130 751c-1.5-1.8-1.2-4.7.2-6.6 1.3-2 3.4-3.3 5.4-4.5a5.5 5.5 0 0 1 3.1-1c1.1 0 2.2 1.1 1.8 2.2l-3.4 3.5zm-1.5-64.3c-2-.7-.6-3.8 1-5.3l27.8-24.3c1.9-1.7 5.6-3 6.3-.5a242.9 242.9 0 0 1-35 30zm78.7-27.4c-1.6 1-3.5-2-2.3-3.5 1-1.7 3.4-2 5.3-2a6 6 0 0 1-3.4 5zm-7.5-34.4a2.2 2.2 0 0 1-1.5-.7c-.9-1.2 1-2.5 2.4-2.9 3.3-.8 8-1 9.2 2.2a18 18 0 0 1-10.1 1.3zm1 5c1.4-.3 3.4 0 3.5 1.5a37 37 0 0 1-15.8 9.7 16.2 16.2 0 0 1 12.3-11.4zm-2.6 29-16 13.2c-2.2-2.9.9-6.7 3.7-8.9l10.5-8.3c.9-.7 2-1.4 3-.9 1.8.9.4 3.6-1.2 4.9zm1.6 6.4a102.2 102.2 0 0 1-18 17.2c-1.3-.6-1.7-2.4-1.1-3.7a8.5 8.5 0 0 1 2.8-3.2l11.8-9.3c1.3-1 3.2-2 4.5-1zm-20 26a14 14 0 0 1-10 13.1c-1.2.4-2.3-1-2.2-2.3a5.5 5.5 0 0 1 1.8-3.3A36.6 36.6 0 0 1 187 685zm-1.8-20.3c2 .7 1.6 4.3-.5 4.5v-.2a2.6 2.6 0 0 1 .5-4.3zm-40.2 45.7a7.5 7.5 0 0 1 2.4-3.1l28.4-25.8c1.4-1.3 3.5-2.7 5-1.6-.2 3.8-3.2 6.6-6 9l-28.3 24.8c-1.3-.3-1.9-2-1.5-3.3zm28.2 7.8a28.4 28.4 0 0 1 11.2-8.4c1.6-.7 4.4-.5 4.2 1.3a158.4 158.4 0 0 1-15.3 12.4c-2-.5-1.4-3.7 0-5.3zm11 2.3 17.7-14.8a7.5 7.5 0 0 1 4-2.2c1.5-.1 3.2 1.2 2.9 2.7q-11.8 10.4-24.4 19.8c-1.2.9-2.9-.7-2.7-2.1.1-1.4 1.3-2.5 2.4-3.4zm12.2-36.4a55.5 55.5 0 0 1 23.7-20.7c1.3 1.8-.3 4-1.8 5.6l-9.4 9.5c-3.4 3.5-8 7.2-12.5 5.6zm38.3-37.6a4.6 4.6 0 0 1 6-.8 12.9 12.9 0 0 1-5.3 7l-.2-.1a4.6 4.6 0 0 1-.5-6.1zm-5 13.3a11.9 11.9 0 0 1 7.3-4.4c1.6-.2 3.8.5 3.5 2a2.8 2.8 0 0 1-1.2 1.5l-6.2 5c-1 .7-2 1.4-3 1.1-2-.5-1.6-3.5-.4-5.2zM149.1 634a1.6 1.6 0 0 1 0 2.7 1.6 1.6 0 0 1 0-2.7zm-24 41a309.6 309.6 0 0 1 31.3-26.4c1.5-1 4.3-1.8 4.7 0l-33 29.2c-1.2 1.2-3.4 2.2-4.3.8-.8-1.1.2-2.6 1.3-3.6zm31.4 40c-1.7 1-4.5 1.7-5.1-.2a83.8 83.8 0 0 1 15-13.2c1.4-1 4.2-1.3 4.1.5a57 57 0 0 1-14 12.9zm10.9 56.6a6.6 6.6 0 0 1 7.3-1 38.3 38.3 0 0 1-9 8.2 6.6 6.6 0 0 1 1.7-7.2zm6.8 14.1-.2-.4a5.4 5.4 0 0 1 4.4-.8 5.6 5.6 0 0 1-6.4 6 3.6 3.6 0 0 1 2.2-4.7zm3-7.2c-1.5 1-4.3 1.5-4.5-.3a194 194 0 0 1 29.3-25.4c1.8-1.3 5-2 5.4.1a165 165 0 0 1-30.1 25.7zm19.2-6.9a10.7 10.7 0 0 1 3.7-3.8L219 754a6 6 0 0 1 3.3-1.5c1.2 0 2.5 1.1 2.2 2.3q-11.5 12-22.4 24.3c-3.7.6-7.1-4-5.5-7.4zm14.3 8.3a6.3 6.3 0 0 1 1.8-3c3.6-4.2 8-8.7 13.6-8.5a37.8 37.8 0 0 1-12 13.5 3 3 0 0 1-1.6.6c-1 0-1.9-1.3-1.7-2.5zm23.2-41.4a14.9 14.9 0 0 1-8.7 6.1 5.4 5.4 0 0 1 8.7-6zm-1.6-14.8a5.3 5.3 0 0 1 .1 7.2h-.4c-3-1.1-2.7-6.3.3-7.2zm-1.9 36.8c-2.4.6-4.6-3.1-2.9-5 1.8-2 5.6 0 5.2 2.4l-2.6 1.5zm-8.8 23.9c.2-1.5 1.3-2.7 2.3-3.7l4.8-4.8a8 8 0 0 1 3.4-2.4 2.8 2.8 0 0 1 3.4 1.5 87.2 87.2 0 0 1-10 11.3 3.4 3.4 0 0 1-1.3.9c-1.6.4-3-1.3-2.7-2.8zm1.9-87.6A26.5 26.5 0 0 1 239 682c1.4 2-.3 4.8-2.2 6.4a40.5 40.5 0 0 1-13.5 8.2zm12.8 36.2.4-7.2c.1-2.9.6-6.3 3-7.8a53 53 0 0 1-.3 20.9c-2.5.2-3.3-3.3-3.2-5.9zm13.9 63.9c-.2 3.3-2.7 6.6-6 6.7l-129.6 3.2c-2 0-4.2 0-5.5-1.4a5 5 0 0 1-1.1-2.9h-1.2l-6.7-167.2 1.5-25.7h47a77.3 77.3 0 0 0-15.3 1.4c-7.1 1.4-15.6 4-20.8-1-4.9-.9-7.7 5.4-7.6 10.3 0 4.9.6 10.8-3.3 13.8a7.3 7.3 0 0 1 9.3 4.8l-4.8 2.5-4.4-4.8a263.4 263.4 0 0 1 3.5 38l2.7 126.2a17.5 17.5 0 0 0 0 1.8l5.4-.2a3.5 3.5 0 0 1-2.8-1.8l19.4-3.2a5.8 5.8 0 0 1 2.9 0c1 .4 1.8 1.5 2.9 2 2.3 1 4.7-1 6.6-2.7 2-1.6 5.1-2.8 6.7-.8a2.1 2.1 0 0 0-.8 3.3 37.1 37.1 0 0 0 28.6-6.6 6.5 6.5 0 0 1-.8 6.6 6.8 6.8 0 0 1-2 1.7l8-.1a266.6 266.6 0 0 1 58.4-3.4c3.3.2 4.3-4.5 4.1-7.8l-1.5-26.2-5.3-2a56.5 56.5 0 0 0 5.6-34.9c.6 1.5 1.4 2.9 2.2 4.3l-1-112.9v-.1c0-2.9.5-6 2.9-7.5l1.3 125.8a66 66 0 0 1-3.2-5.3l.5 68.4c2.8-3.3-2.4-10.5 1.7-11.7 1.3 3 2.7 6.1 2.5 9.4zM238.7 778h.1a1.9 1.9 0 0 1 2.8-1 4.1 4.1 0 0 1-1.4 4.4 3.4 3.4 0 0 1-1.5-3.4zm8.9-9.2a46 46 0 0 1 0-20.9 25 25 0 0 1 0 20.9z"/>
  <path id="path191" d="M274.6 174.3c-1.6.4-3-.6-4.3-1.6a79.7 79.7 0 0 1-17-18.3l-17.5 81.4c-1.2 5.4-4.1 12.3-9.7 11.7-2.3-.3-4.2-1.9-5.9-3.4l-17-14.7a279.6 279.6 0 0 0-6.5 52.4c-.1 5.2-7.2 7.4-12.2 5.7-5-1.6-9-5.5-14-7s-12 1.1-11.7 6.3a33.5 33.5 0 0 1-10.9 26.2 93.8 93.8 0 0 1 4-37.2c1-3.4 2.8-7.3 6.3-8.1 2-.5 4 0 6 .7l21.6 6.7 8.3-57.7c.2-1.6.5-3.3 1.7-4.3 2.3-1.8 5.4.1 7.6 2l21.5 18.2q10.6-41.4 17.8-83.5l-23.5 21.5c-1.6 1.5-3.7 3.1-5.8 2.3-3.6-1.4-1.3-6.8 1.4-9.6l31.3-32.6a5.5 5.5 0 0 1 2.4-1.7c2.1-.6 4 1.5 5.2 3.4l21.2 32.3c2 3 3.1 8.2-.3 9z"/>
  <path id="path193" d="M464.7 622.4c-2.3-2-5.6-2.2-8.6-2.3q-83.2-2.9-166.4 2.2l3.9 19c.6 2.9 1.3 6 3.4 7.8 2.6 2.3 6.5 2.1 10 1.9l141.2-11c5.2-.4 10.7-1 14.7-4.1 4.1-3.2 5.7-10 1.8-13.5zm-121.5 17.3-5.2.5a7 7 0 0 1-4-.4c-1.1-.6-1.9-2.3-1.1-3.4-1 1.5-3.5-.8-2.6-2.4.8-1.6 2.9-2 4.6-2.1l8.8-1c7-.6 14.5-1.3 21 1.7a19 19 0 0 1-15.6 2.5c.8 2.8-3 4.4-6 4.6z"/>
</svg>
