<svg xmlns="http://www.w3.org/2000/svg" width="303.1" height="365.3" data-name="Layer 1" viewBox="0 0 303.1 365.3">
  <path d="M251.4 330c5-4.2 4.7-8.4 0-13-4-4-7.8-8.2-11.6-12.4a5.6 5.6 0 0 1-1.7-3.3 43.1 43.1 0 0 1 1-9.2c1.9-7.3 4.6-14.2 5.6-21.7a54.4 54.4 0 0 0-.6-20c-.8-3.8-2.1-7.5-3-11.4-1.3-6-2.1-12.5-4-18.5a55.7 55.7 0 0 0-13.8-23.5c-.7-.7-1.5-1-.8-2.6l7.2-15a37 37 0 0 0 3.8-16.5c0-4.3-.5-8.6-1-12.8a42.9 42.9 0 0 0-1.4-8.3 49.3 49.3 0 0 0-15-21.5 7.5 7.5 0 0 1-2-4.2c-.2-1.8.4-3.6.4-5.4 0-4.8.2-9.6 0-14.4-.1-5.6-2-7.3-7.4-8-.5 0-1.5-1-1.5-1.5.4-3.6 1.2-7 1.4-10.6a77.3 77.3 0 0 0 0-12.9c-.5-4.7-2.5-6.2-7.2-7a5.3 5.3 0 0 1-3.2-2.5c-2.4-4.4-4-9.4-8-13a6 6 0 0 0-9.1 1.5c-.6 1-1.3.4-1.5-.2-1.4-3.4-3.5-6.8-3.8-10.3-.4-5.4.4-10.8 1-16.2 0-1 1.2-2.4 2.2-3.2a8 8 0 0 0 2.5-7.6 6.9 6.9 0 0 0-5-4.7A17.6 17.6 0 0 0 161.6 4c-3 2.4-5.8 5.2-9 7.4a65 65 0 0 0-17.3 17.4 54 54 0 0 0-9.3 22.6c-.2 1.3-.7 1.5-2 1.2-3.4-.8-5.7-3-8-5.5s-6.2-3.2-8.6-2a6.3 6.3 0 0 0-3 7.5c.8 2.4-.3 2.2-2 2.3a6 6 0 0 0-5.5 4.5l-.7 2a16.4 16.4 0 0 1-1.3-1.9c-1.5-3-6.1-5-9.4-2-2.3 2.1-2.8 5-3 7.6a11.4 11.4 0 0 1-3.6 7.7 2.7 2.7 0 0 1-2.2.5c-4.8-1.3-9.5-3-14.3-4a152 152 0 0 0-27.5-5.4c-5.8-.4-8 .4-10.3 5.6a8.5 8.5 0 0 0 1.8 8.8 17.4 17.4 0 0 1 4.3 5c2.7 5.6 5.2 11.4 7.5 17.2 1.5 3.8 3.3 7.6 3 12 0 1.4-.1 2.3-1.6 3.2-2.5 1.3-3.3 4.6-2.6 7.5a33.6 33.6 0 0 0 5.6 12c4.4 6 8.5 12.5 12.9 18.6 2.3 3.2 5 6 6.6 9.7a34.5 34.5 0 0 0 7.5 11 12.2 12.2 0 0 1 2.6 4.4 38 38 0 0 0 14 18.8c2.4 1.5 4.8 3 6.9 4.8.9.6 2.8 1.5 1 3-2.6 2.6-5.2 5.5-8.2 7.4a38.9 38.9 0 0 0-15.5 18c-2.2 5.2-4.7 10.3-6.7 15.7-1.3 3.6-2 7.4-3 11.2l-.7 2a13.7 13.7 0 0 1-1.3-1.6c-2.4-3.9-4-8.2-7-11.5-4-4.5-5.2-9.6-5-15.3 0-6.5.6-13 .9-19.4 0-1.6-.7-3.2-.4-4.7a97.8 97.8 0 0 1 2.6-9.5c.6-1.9.6-3.5-1.2-4.7-2-1.3-3.4 0-4.5 1.4-4 5.2-8 10.5-11.7 16a29 29 0 0 0-6.2 16 122 122 0 0 0 1 18 76.8 76.8 0 0 0 9.4 28.5 53.2 53.2 0 0 0 14.3 16c2.3 1.8 5.2 3.2 4.9 7.3-.2 3.3-.7 5.1-4 6.8-7.5 3.7-11 10.8-11.6 19a36.8 36.8 0 0 0 1 10.3c1.2 5.6 4 10.2 9.7 12a65 65 0 0 0 8.2 2.2c5 1 10.2 1 14.7-2.4 2-1.5 4-3 6-4.7 1.3-1 1.8-.7 2.6.7a33 33 0 0 0 4.4 6 43.9 43.9 0 0 0 13 9.5c4 2 7.7 3.2 12 2 5-1.4 9.6-3.8 12.7-8.2l7.4-10a37.8 37.8 0 0 1 7.5 1.3 99.2 99.2 0 0 0 28.3 5.6 64.5 64.5 0 0 0 23.7-3.2c3.4-1 5.2-.2 7 2.7a19.3 19.3 0 0 0 4.7 5 37 37 0 0 0 19 5.6c3.6.3 7.3-1.3 11-1.3 6 0 11-2.5 15.4-6.4a12.6 12.6 0 0 0 2.3-15.9c-1-1.8-.2-2.2.6-2.9zM44 76.8l-.5 4a32.9 32.9 0 0 1-2.5-3c-1-1.4-.7-2.4.5-2.5.8 0 1.7.8 2.5 1.3zM48 89l-2-2.7a18 18 0 0 1-1.4-2.6 4.8 4.8 0 0 1-.3-1.4c.6 0 1.4-.3 1.7 0a20.2 20.2 0 0 1 3 3.1zm91.3-41.2a4.8 4.8 0 0 1-1.5.7c-.2-.6-.8-1.5-.5-2l4.4-9a22.2 22.2 0 0 1 2.5-3.7c.4-.5 1.2-.5 1.9-.8l.6 2v.3c.5 6-4 9-7.4 12.5zm67 177.4c.3 6.7-4.4 12-10 14.3-3.8 1.6-7.5 2.6-11-.3a24.7 24.7 0 0 1-5-6.4 79.2 79.2 0 0 1-6-12 11 11 0 0 1 0-7 23.6 23.6 0 0 0 1.9-9.6c0-3 1.7-4 4.6-3a61.5 61.5 0 0 0 9.7 1.5c2.4.3 4.7.3 7 .6a5.7 5.7 0 0 1 4.7 3.7c2.3 5.8 4.8 11.5 4 18.2z" style="fill:#fff"/>
  <path d="M206.4 225.1c.3 6.7-4.3 12-10 14.3-3.8 1.6-7.5 2.6-11-.3a24.7 24.7 0 0 1-5-6.4 79.2 79.2 0 0 1-6-12 11 11 0 0 1 0-7 23.6 23.6 0 0 0 2-9.5c-.1-3.2 1.6-4 4.6-3.2a61.5 61.5 0 0 0 9.7 1.6c2.3.3 4.7.3 7 .6a5.7 5.7 0 0 1 4.6 3.7c2.3 5.8 4.8 11.5 4 18.2z" style="fill:#fe3cb0"/>
  <g data-name="Max Outline">
    <path d="m301.6 357.8-2.6-.2-9.6-1a22.7 22.7 0 0 1-6.3-1.2 7.4 7.4 0 0 0-1.6-.5 192 192 0 0 0-4.7-.7c-3-.3-5.7-.8-8.6-1-3.4-.3-6.8-.4-10.2-.5h-11a1.3 1.3 0 0 0-.8.3c-1.4 1.3-1.4 1.4-2.7 1.6a29.8 29.8 0 0 1-4.5 0c-.2 0-.5-.3-.8-.5a6.1 6.1 0 0 1 1-.3h.8l5-1 6-1.5c.7-.2 1.5 0 1.5-1s-1-1-1.6-1l-5.3 1.1-.7.1a3 3 0 0 1 .4-.6l2-2.3a14.2 14.2 0 0 0 3-9.7c0-2.2 0-4.4-1-6.4a1.5 1.5 0 0 1 0-.7 2.9 2.9 0 0 1 .7.4l.7 1.2a1.4 1.4 0 0 0 1.9.8c.6-.4.6-1 .3-1.8-.8-2.4-1.6-4.8-2.2-7.3-1-4.2-3.6-7.3-7-10a47.2 47.2 0 0 1-4-3.8c-1-.8-1.5-1.9-2.3-2.8a17.7 17.7 0 0 1-4.5-8c-.5-2.5-1-5-.1-7.5l3.8-12a3.1 3.1 0 0 1 .5-.8 4.4 4.4 0 0 1 .2 1l-.2 4.7a1.9 1.9 0 0 0 .9 1.3 1.3 1.3 0 0 0 1.7-.6 2.7 2.7 0 0 0 .3-1l.6-7 .7-8.4 1-7.3c.4-2.5 1-5.2 1-7.8.4-2 0-4 0-6 .4-4.2-1-8-2.6-11.7-.6-1-1.4-2.5-1.1-3.6a5.6 5.6 0 0 0-.3-3.4l-4.5-14.5a26.9 26.9 0 0 0-5-9c-1.4-1.9-3-3.7-4.5-5.5l-5.6-5.9c-.4-.4-.8-.8-.2-1.3l1.7-1.8c3-3 4.8-7 6.4-11a37.6 37.6 0 0 0 2.5-9.8 17.1 17.1 0 0 1 1.5-5.9 17.8 17.8 0 0 0 1.4-6 27.6 27.6 0 0 0-1-10c-.8-3.4-2.1-6.7-3.2-10l-3.5-5.5c-.8-1.2-2-2.2-2.2-3.7a12.2 12.2 0 0 0-.8-2.5 21.8 21.8 0 0 0-7-8c-.6-.5-1.6-.8-2-1.5-.2-.7.2-1.7.3-2.5.3-2 .7-4 .9-6.2a44.2 44.2 0 0 0-.2-5c-.2-3-.2-6-.5-9a18.2 18.2 0 0 0-1.1-4.8c-.6-1.5-2-1.5-3 0a38.7 38.7 0 0 1-2.4 3 6 6 0 0 1-1.4 1l.4-1.5 1.5-8.4a69.3 69.3 0 0 0 .7-8.5 48 48 0 0 0-.5-8.5 16 16 0 0 0-6.2-11c-.4-.3-1-.2-1.5-.3a11.6 11.6 0 0 0-.1 1.4 13.9 13.9 0 0 1 .3 2.2l-.7 4a1.8 1.8 0 0 1-.2.3 1.5 1.5 0 0 1-.2-.5 27 27 0 0 0-2.4-7.6 41.6 41.6 0 0 0-5.8-9.2 8.4 8.4 0 0 0-4-3.4 5.3 5.3 0 0 0-1.7-.4 1 1 0 0 0-.8 1.8c1.2 1.6 1.4 3.5 1.8 5.5a2 2 0 0 1-.1.7 3.2 3.2 0 0 1-.6-.4 23.9 23.9 0 0 0-5-4.4 12.6 12.6 0 0 1-2.5-1.8 27.3 27.3 0 0 1-2.5-3 28.6 28.6 0 0 1-5-15c-.4-4.7 0-9.3 0-13.9a34.6 34.6 0 0 1 .8-3.7 34.7 34.7 0 0 0 .4-4c0-.3-.5-1-.8-1a31 31 0 0 0-5.8.3A35.6 35.6 0 0 0 152.7 9a31.2 31.2 0 0 0-8.7 8.7 127.9 127.9 0 0 0-7 11 68 68 0 0 0-7.2 17 60.4 60.4 0 0 0-1.1 6.4c-.2 1.3-.4 1.6-1.5 1.2a71.2 71.2 0 0 1-7-3 58 58 0 0 1-5-3.5l-4.6-3.2a2.3 2.3 0 0 0-1.8 0c-.8.4-1 1.3-.7 2.1a23.3 23.3 0 0 1 .5 4 22.9 22.9 0 0 1-.3 6c-.3 1-.6 1-1.4 1-1.7-.4-3-1.3-4.4-2a1.2 1.2 0 0 0-1.8 1v1.8c0 2.4-.4 3-2.7 3.5a5.7 5.7 0 0 1-2.3 0c-1.8-.2-3.6-.6-4.4-2.5a22 22 0 0 1-1-3.5c-.2-.9-.5-1.7-1.4-1.9-1-.2-1.3.7-1.6 1.4a23.2 23.2 0 0 0-.8 2.4 55.8 55.8 0 0 1-3.1 9 43.9 43.9 0 0 1-6 9.2c-1 1.2-1.2 1.2-2.2.3a53.2 53.2 0 0 0-10.4-7 39.1 39.1 0 0 0-14.8-5 48.2 48.2 0 0 0-6.3-.2l-5.8.2c-2.3 0-4.6 0-7 .2-1.3.1-2.7.5-4.2.7l-4.6.7a1.2 1.2 0 0 0-1 1.7c.5 1 1.3 1.6 1.9 2.5 2.2 3.5 4.5 7 6.6 10.7 1.4 2.5 2.4 5.3 3.6 8 1.4 3.3 3 6.5 4.3 10a60.7 60.7 0 0 0 6.2 11.6 1.6 1.6 0 0 1 .3 1.2c-1.4 3.3-3.5 4.6-7 4-1.5-.4-2.6.4-2 1.8 1 2.8 2.5 5.5 3.7 8.2 1 2.3 3 3.8 3.8 6.3a38.2 38.2 0 0 0 4.7 10.2 31.8 31.8 0 0 0 5.9 7.1c1.7 1.5 3.4 2.7 4.3 5a55 55 0 0 0 7.3 12 53.5 53.5 0 0 0 5.8 6.3 12.9 12.9 0 0 0 2.9 1.6 5.5 5.5 0 0 1 .5.4 2.1 2.1 0 0 1-.6.2c-1.4.1-1.7.6-1.2 2a34.5 34.5 0 0 0 6.8 11.6 26.4 26.4 0 0 0 12.3 8 1.6 1.6 0 0 1 1 1 27.4 27.4 0 0 0 2.5 9.4 1 1 0 0 1-.5 1.4 53.7 53.7 0 0 0-9.7 7.3 77 77 0 0 0-13.3 16 113.4 113.4 0 0 0-8.4 15.5 114.8 114.8 0 0 0-6 15.6.8.8 0 0 1-.8.3l-3-2.6a36.9 36.9 0 0 1-8-9.7c-.2-.7-1-1.7-2-1-.2 0-.6-.4-.7-.6a77.6 77.6 0 0 1-2-8.4c-.4-3 .3-6 1-9.2.5-2 1.5-4 1.2-6.3a1.7 1.7 0 0 0-.7-1 1.5 1.5 0 0 0-1.4 0 6.7 6.7 0 0 0-1.1 1.4l-.6 1-.2-1.2a1.8 1.8 0 0 1 0-.4c.2-1.6.6-3 .7-4.7l.2-9.7a8.1 8.1 0 0 1 .3-2.3 1.6 1.6 0 0 0-.6-2c-.8-.6-1.5-.2-2 .4a25.2 25.2 0 0 0-5.4 9.7c-1 3.6-2.6 7-4 10.4a32.6 32.6 0 0 0-2.5 11.6 46.1 46.1 0 0 0 0 6.2 43.1 43.1 0 0 0 1.3 6.1c.6 2.2 2.2 4.1 1.8 6.6a.7.7 0 0 0 0 .3 29.6 29.6 0 0 0 4.8 9.6c1.3 1.6 2.6 3 3.8 4.7a24.9 24.9 0 0 0 7 7c2.6 1.6 5 3.6 8.5 3.4a1.7 1.7 0 0 1 1.4 1 19.8 19.8 0 0 1 .3 3.5c0 1.3 0 2.7.2 4 .4 3 .8 6.1 1.4 9.1.2 1.3-.3 1.3-1.2 1.3a11.7 11.7 0 0 0-8.4 2.5 43.3 43.3 0 0 0-4.7 4.5 26.3 26.3 0 0 0-5 8.5c-1.1 3-1 6-1.1 9.2a10.7 10.7 0 0 0 1.5 6 22 22 0 0 0 5.6 6.3c.8.6 1.7 1 2.5 1.5a2.6 2.6 0 0 1 .5.5 2.2 2.2 0 0 1-.6.1 9.4 9.4 0 0 0-1.2-.2l-19.2.2a406.1 406.1 0 0 1-20.6-.6c-1.2-.2-1.8.8-2.8 1.1-.6.2-1.3.7-1 1.4a2.3 2.3 0 0 0 1.5 1.2l11 .7h.9l6 .5H24l.5.2a1.5 1.5 0 0 1-.4.2l-2.7.2-11.5.7a17.8 17.8 0 0 0-3.6.5 2.3 2.3 0 0 0-1.3 1.3c-.3.7.3 1.2 1 1.3l5 .4 7 .3 7.7.2 11.7.2 8.2.2a1.6 1.6 0 0 1 .5.2 1.9 1.9 0 0 1-.5.3l-7.4 1-6 .3-9.3.7c-1.1 0-2.3 0-3.4.2l-5.5 1a29.5 29.5 0 0 0-3.8 1 1.5 1.5 0 0 0-1 1 1.8 1.8 0 0 0 1 1.2 8.2 8.2 0 0 0 2.8.7l17 .2a2 2 0 0 1 1.9 1.1 2 2 0 0 0 1.4 1l6.4.2 17.5-.2 17 .2h13a4.8 4.8 0 0 1 .6 0 1.2 1.2 0 0 1 .3.2l-.3.2a32.8 32.8 0 0 1-4 .4c-5.4 0-11 0-16.4.8a2 2 0 0 0-1.3 1 1 1 0 0 0 1 1.3 21.4 21.4 0 0 0 3.7.5H80a12.5 12.5 0 0 1 2.8 0c2.3.5 4.6 0 7 .7 1.7.6 3.8.3 5.7.4l22.2.2 4.7-.2 14.2.2 19.2.2h4.6a8.1 8.1 0 0 0 4-1c.4-.2.6-.8.9-1.2.2-.3.4-.6.7-.6l8.8-.5 8.7-.2 19-.5 4.5.2c1 0 2 0 2.7 1l1.2.2 11.9-.3 15.3-.2 6.6.2h9.5a1.4 1.4 0 0 0 1-.7 1 1 0 0 0-.7-1.2 8.2 8.2 0 0 0-2-.5l-8.7-.2a1.8 1.8 0 0 1-.6-.3 2.4 2.4 0 0 1 .5 0l5.2-.4 2 .2 5.4-.2 16.9-.2c6 0 12.2.3 18.3.4l3.7.3 6.4.6c.7 0 1.4 0 1.4-1s-.6-1.3-1.4-1.4zm-250.7-99h-.1l-.6-.7a2 2 0 0 1 .7.6zm-7.7-7.8.7.8a1.8 1.8 0 0 0 .5.3v-1.3a5 5 0 0 0 .3.6l.8 1a5.9 5.9 0 0 1 .3.5 2 2 0 0 1-.6.1c-.5 0-1.1.6-1.5-.2a15.4 15.4 0 0 1-1-1.5 2.1 2.1 0 0 1-.2-.7 3.2 3.2 0 0 1 .7.4zm-2-26.4c.5 0 .4.4 0 .6a7.5 7.5 0 0 0-.8.5c.2-.5.5-1 .8-1zm-3-18h.3l-1 1h-.3c.3-.5.6-.8 1-1zm-.1 23.8-.4 1.5-.3-1.4a12 12 0 0 1-.2-1.7l.5-.5.2.6.2 1.1a2.9 2.9 0 0 1 0 .4zm-7.6-7.5a2.3 2.3 0 0 1 .3-.4l.2.5-.5 3-.2.3-1.2-.4zM42.8 275a5 5 0 0 1-1-.4 3 3 0 0 1-.5-.4l-2-2.2a1.8 1.8 0 0 1-.1-.6l.6.3 2.6 2.2.8.8c-.2 0-.3.3-.4.3zm12.5 5.8H55l.3-1.3a.7.7 0 0 1 0 .4v1zm.4-13.7-1.1 7.8-.5 3.5c0 .3-.4.6-.6.6a5.8 5.8 0 0 1-3.4-.5l-5-2.8c-.2-.2-.3-.7-.6-1a8.2 8.2 0 0 0-1.1-1.6 83.5 83.5 0 0 1-6.1-5.8 78 78 0 0 1-5-7 3.5 3.5 0 0 1-.3-.5 2.3 2.3 0 0 1 0-.5s.3 0 .4.2c.4.4.7.7 1.3.3.6-.4.4-1 0-1.6-.7-1.4-1.7-2.8-2.4-4.3a26.3 26.3 0 0 1-3-7.8 26 26 0 0 1-.7-5.2l.9-10 .2-.4a2.6 2.6 0 0 1 .2.8l-.2 7c0 2.4.4 4.5.7 6.7a1.5 1.5 0 0 0 .4 1c.4.2.9.5 1.2.5a1.3 1.3 0 0 0 .8-1l-.5-4.7-.2-7.9a22.6 22.6 0 0 1 0-2.3 57.2 57.2 0 0 1 1-7.2 98.5 98.5 0 0 1 2.8-9.5 37.2 37.2 0 0 1 2.2-4.4 1.4 1.4 0 0 1 .3-.3l.2.3-.3 5.7c0 1-.3 2-.4 2.8l-1 10.7a43.7 43.7 0 0 0 0 5.1 1.4 1.4 0 0 0 1 1c.6.2.8-.2 1-.8a7 7 0 0 1 .6-1.5l.3-.3a1.3 1.3 0 0 1 0 .4 22.4 22.4 0 0 0-.8 7.2l1 5.7a25 25 0 0 0 4.5 9.4c.5.6 1 1.2 2 .7 0 0 .6.1.8.3l1.7 2 7 6.4c1 .7.8 1.8.6 2.8zm-42.5 80H7.5c-.2 0-.4-.3-.6-.5a4 4 0 0 1 .6-.2l1-.2 4.8.5.3.2zm-1.3 8.5a3.3 3.3 0 0 1-.3-.6l.6.2zm70.4 7c-1.8 0-3.5-.2-5.3-.3h-2.5l-.6.1h-5.7l.3-.4 4.2-.4a11.5 11.5 0 0 1 2-.2c2.5.1 5 .4 7.4.6.2 0 .3.2.5.3-.1.2-.3.4-.5.4zM250 328.4a1.2 1.2 0 0 1 .5.4 17 17 0 0 1 .8 1.7 1.6 1.6 0 0 1 0 .6 3.3 3.3 0 0 1-.4-.4l-1.6-2c-.4-.5-.8-1-1.6-.6 0 .1-.5-.2-.6-.4l-3.1-4.4a2.5 2.5 0 0 1-.2-.3 1.2 1.2 0 0 1 .4.1l1.5 1.5 3.3 3.3a5.3 5.3 0 0 0 1 .5zm-11.5-44.7-.2-.6.4-.5a3.6 3.6 0 0 1 0 .8l-.3.3zm.3-2-.2.1c-.2.2-.2-.2-.2-.3v-2.3l-.2-1.7v-1.4l.8 1c0 1.5 0 3-.2 4.4zm-.8-8c0-.3.4-.9.8-.3a3.8 3.8 0 0 1-.2 1l-.4.6a6 6 0 0 1-.2-1.4zm-1.8-45.3.7.4.2-.7.2-.7a2.5 2.5 0 0 1 .2.6c.2 1.4 1 2.7.5 4.2l-.3.6a2.9 2.9 0 0 1-.4-.7l-.5-2c0-.2-.2-.3-.3-.4l-1-1.4a1.1 1.1 0 0 1 0-.3 1.6 1.6 0 0 1 .4.1zm-7-62.3-.4-.4a1.2 1.2 0 0 1 .7-.4l-.2.8zM201.9 57.7h.5l.6.6-1 .5a5 5 0 0 1-.2-.7 1 1 0 0 1 0-.4zm-2 8a3.3 3.3 0 0 1-.3 1.1h-.3zm-11-20.5.6.8-.5-.3-.3-.2-.6-.7zm-4 5.4 1.8 1.3a1.3 1.3 0 0 1 .2.3c-.2 0-.4.1-.4 0l-2-1.5Zm-15-46 1.2.7a.6.6 0 0 1-.5 0l-.8-.6v-.2zm-36.3 35 3-6.6.3-1c2.4-3.7 4.5-7.5 6.8-11a37.3 37.3 0 0 1 7.4-8.8 30.6 30.6 0 0 1 9-5.3l6-2a2.3 2.3 0 0 1 .8-.2l.4.1c-.1.1-.2.3-.4.3a32.4 32.4 0 0 0-10.7 6.4 76.5 76.5 0 0 0-8 7.4 68.3 68.3 0 0 0-8.3 11.6c-1.3 2.4-2.8 4.7-4 7.2a58.1 58.1 0 0 0-3 8 30.4 30.4 0 0 0-.8 5.6l-.2 3.5a1.3 1.3 0 0 1-.3.8 7 7 0 0 1-1 .7 5.5 5.5 0 0 1-.2-1 36 36 0 0 1 3.2-15.7zm-23.4 5 1 .4a3.6 3.6 0 0 1-1 0zm-8 11.4a3.1 3.1 0 0 1 .3.3l-.6.6a4 4 0 0 1 .4-1zm-3 5.7a4.2 4.2 0 0 0 1-.2l.8-.4c-.2.3-.4.8-.7 1a3 3 0 0 1-1.2 0zm-15 5.3.6-.7-.2.7v.1l-.7 1.4c0-.6.2-1 .3-1.5zM23 66.7l.5-.4a6.7 6.7 0 0 1 1.4-.3 53.9 53.9 0 0 0 5.7-.5c3.3-.6 6.7-.3 10-.3a85.8 85.8 0 0 1 9 0 35.4 35.4 0 0 1 15 4.6c3.2 2 6 4 9 6.1a12.6 12.6 0 0 1 2.2 2c.2.1 0 .6.2 1a3.4 3.4 0 0 1-1-.4c-2.6-2-5.2-4.3-8.4-5.7-2.5-1.2-5-2.5-7.6-3.5a41 41 0 0 0-8.8-1.9 90.5 90.5 0 0 0-11.8-.5c-2.4 0-4.8.3-7.1.4-1.5 0-3-.4-4.4-.4a27.7 27.7 0 0 0-3.2.2 2.6 2.6 0 0 1-.7-.4zm14 49.5-.7.5c-.1-.4-.2-.8 0-.9a2.8 2.8 0 0 1 1-.2h.2zm7 14.7-.2.4a2 2 0 0 1-.3-.5l-.2-1.6c1-.2.8.5.9 1a2.1 2.1 0 0 1-.3.6zm15.3 20.7-1.6-.6a8 8 0 0 1 1.7.2l-.1.3zm35.4 40.8A33 33 0 0 1 96 187l1.9-5.9a1.1 1.1 0 0 0 0-.5c-.7-2.8 1-4.6 2.3-6.6 2-3.4 5.8-5 8.7-7.4a7.8 7.8 0 0 0 .9-.7c.3-.4.9-.8.3-1.4-.6-.6-1-.8-1.6-.4l-4.2 2.7a21.4 21.4 0 0 0-8 9 23.1 23.1 0 0 0-2.5 9 28.4 28.4 0 0 1-1 4.4l-.5 3.2c0 .7-.3.8-1 .5a23.5 23.5 0 0 1-10-6.4 39.8 39.8 0 0 1-6.1-9.7c-.4-.8 0-.7.4-.6a9.5 9.5 0 0 0 2.3.1 4.4 4.4 0 0 0 2-.8c1-.8.7-1.7-.5-2a20.4 20.4 0 0 1-11.2-7.8l-5.7-8.2-2.5-4v-.4a1 1 0 0 1 .5 0 21.4 21.4 0 0 0 3.6.3c.5 0 1-.9 1.2-1.4.2-.7-.6-.8-1.2-.8-3 .3-5-1.3-7.2-2.8a26.7 26.7 0 0 1-8-8.8 85.2 85.2 0 0 1-3.4-6.7c-.1-.2 0-.5 0-.8a4.5 4.5 0 0 1 .6.4l3 2.4a4.7 4.7 0 0 0 2 .5 1.3 1.3 0 0 0 1-.4 1 1 0 0 0-.5-1.4l-3-1.8a25.5 25.5 0 0 1-9.8-12.3 8.8 8.8 0 0 0-.7-1.4c-.4-.8-.2-1 .6-1a7.4 7.4 0 0 0 7.3-5 2 2 0 0 1 .6-.9c1-.8.5-1.6 0-2.3a46 46 0 0 1-6-10.7l-2.6-6c-1.3-3-2.4-6-3.8-8.8-1-2.5-2.2-5-3.5-7.3-1.2-2.2-2.7-4.2-4-6.3l-.3-.4-.5-.7a5.6 5.6 0 0 1 1.2-.2c2 .2 4.3.8 6.3.5a65.5 65.5 0 0 1 11.9-.5 55.5 55.5 0 0 1 10 1.5 45.8 45.8 0 0 1 9 3.3 47.9 47.9 0 0 1 8.6 5.6c.5.4.7.8 0 1.5-.3.5-1.1 1.2-.1 2s1.5.2 2-.4A55 55 0 0 0 86 66.5a21.1 21.1 0 0 0 2.3-7l.3-.7a3.2 3.2 0 0 1 .4.5c1.3 3.1 4 4 7 4.2 1.3.1 2.5-.3 3.6.4.2.1.8-.2 1-.5a6 6 0 0 0 2.4-4.7c0-.7 0-.9.9-.6 1 .4 2 .5 3 .7.2 0 .4.6.3.7l-2.4 3.1c-.4.6-1 1.2-.2 1.7a2 2 0 0 0 1.9 0 15 15 0 0 0 3.8-6 24.3 24.3 0 0 0 .7-10.4 1.8 1.8 0 0 1 0-.3v-1a6.3 6.3 0 0 1 .9.5 37.9 37.9 0 0 0 7.4 5.2 28.5 28.5 0 0 0 7 3.2 1.9 1.9 0 0 0 .7.2c1.3-.2 2 .2 2.2 1.5a1 1 0 0 0 1.3 1 12.5 12.5 0 0 0 2.6-1.3c.2 0 .3-.5.3-.8.3-3 .2-5.9.8-8.7a37.1 37.1 0 0 1 2.3-7 62.8 62.8 0 0 1 7.6-13.3c2-2.9 4.3-5.6 6.6-8.3A51.3 51.3 0 0 1 162.5 9a49 49 0 0 1 5.6-2.8 2 2 0 0 1 .8 0c.6 0 1-.2.6.7a22.4 22.4 0 0 0-1 5.4c-.1 4.3-.2 8.5-.1 12.7a34.1 34.1 0 0 0 2.6 12c1.2 3.2 3.4 5.6 5.2 8.3 1.2 1.7 3 2 4.5 3.3l3.5 3.3a12 12 0 0 0 1.9 1.5c.7.5 2-.2 2.3-1.2a7.3 7.3 0 0 0 0-5 3.8 3.8 0 0 1-.2-.8c.2.1.5.1.6.3l4.7 7.1a31.1 31.1 0 0 1 3.6 8.3 17 17 0 0 1 .9 5.4c0 .5.3 1.2.5 1.3a1.7 1.7 0 0 0 1.4-.6 14.7 14.7 0 0 0 2.7-6.7 3 3 0 0 1 .5-.9 8 8 0 0 1 .4.8 42 42 0 0 1 1.8 4.4 18.8 18.8 0 0 1 .8 5c0 3.7-.1 7.4-.4 11.1a49.6 49.6 0 0 1-2.3 12.8c-.4 1 .8 2.1 1.9 2a8.8 8.8 0 0 0 5-3.4 4.5 4.5 0 0 1 .8-.6l.2 1a67.3 67.3 0 0 1 .7 9.5c0 2.2.3 4.4 0 6.7a37.3 37.3 0 0 1-.7 5.6c-.2.6-.6 1-1.4.6a49.3 49.3 0 0 0-5.8-1 38.5 38.5 0 0 0-4-.2h-7a20.6 20.6 0 0 0-8 1.7 22.7 22.7 0 0 0-8 5.4l-.3.4c-.4.5-.8 1.1-.2 1.8.6.7 1.3.3 1.9-.2l3.9-3a24.7 24.7 0 0 1 7-3.2l2.5-.6.4.2-.4.2a6.2 6.2 0 0 0-1.2.5 3.9 3.9 0 0 0-.8.8c.4.3.8.8 1.3 1a5.6 5.6 0 0 0 3.6-.9 18 18 0 0 1 11.3-1 15.6 15.6 0 0 1 7 2.8 71.7 71.7 0 0 1 6.6 6.1c.2.1 0 .4.2.7a2.3 2.3 0 0 1-.6-.3c-.7-.6-1.2-1.3-2.2-1.2-1 .1-1.4.5-.8 1.3a17.8 17.8 0 0 0 2 2 38.2 38.2 0 0 1 4 4.3 47.8 47.8 0 0 1 4.4 7 42.7 42.7 0 0 1 2.5 7.2 31.8 31.8 0 0 1 1.5 10.6l-.2 2.2a2.8 2.8 0 0 1-.3.6 2.4 2.4 0 0 1-.4-.7c-.4-1.8-.6-3.8-1.1-5.6a10.6 10.6 0 0 0-1.5-3 1.6 1.6 0 0 0-1.3-.6c-.7.3-1 1-.6 1.7a47.8 47.8 0 0 1 1.7 5 32.5 32.5 0 0 1 .6 3.5l.4 2.7-.2 2a34.9 34.9 0 0 1-1.5 10.3 52.1 52.1 0 0 1-5.7 12.1 3 3 0 0 1-.5.6 3.5 3.5 0 0 1 0-.8c1.8-4 1.4-8.3 1.4-12.6 0-.6-.2-1.6-1.3-1.6-.8 0-1.2.3-1.1 1.1v6.2c-.3 3.1-.7 6.4-2.4 9.2-1 1.4-1.8 3-2.7 4.3-2.4 3.4-6.2 4.7-10 6a24.4 24.4 0 0 1-7.4 1.3 61.7 61.7 0 0 1-8 0 38.1 38.1 0 0 1-10.5-2.5 7.1 7.1 0 0 1-2-1.4 1.3 1.3 0 0 0-1.7-.4c-.6.4-.5 1-.3 1.7a19.3 19.3 0 0 1 .7 3 14.4 14.4 0 0 1 .4 3 18.1 18.1 0 0 1-2.1 8.2 39.1 39.1 0 0 1-3.6 5.7 14.2 14.2 0 0 1-6 4 24 24 0 0 1-8 2c-2 0-4 .3-5.8.5-.8 0-1.3.4-1.3 1.2 0 .7 1 1.2 1.9 1a3.9 3.9 0 0 1 .7 0 2.6 2.6 0 0 1-.7.5c-3 .6-6 1.3-9 .8a41.6 41.6 0 0 1-7-2 36.6 36.6 0 0 1-10.8-5.8l-6.8-5.6a3.3 3.3 0 0 0-1.2-.8c-.4 0-1 0-1 .3a1.6 1.6 0 0 0 0 1.3 27.5 27.5 0 0 0 2.5 2.6l3.7 3.2c.8.7 1.8 1.2 2.6 1.8a4.4 4.4 0 0 1 .5.5 2.7 2.7 0 0 1-.7 0l-6-3a37 37 0 0 1-8.7-5.8 48 48 0 0 1-9-9.7c-.2-.5-1-.7-1.5-1.2a9 9 0 0 1-1.6-2.4 22.4 22.4 0 0 1-1.6-10.8zm1-12.9a3.5 3.5 0 0 1 .6 1.8 8.1 8.1 0 0 1-.7 2.1c0 .2-.2.3-.3.5l-.2-.6.7-3.3a3.2 3.2 0 0 0 0-.5zM76 173.7a3 3 0 0 1 .3-.3l2 1.5c-1.2.3-1.5-.8-2.3-1.2zm129-79.3a1 1 0 0 1-.4.6 1.7 1.7 0 0 1-.2-.2zm-8 22.4a9.5 9.5 0 0 0-1 .2l.5-.6zm21.2 74.7c0 1-1.2 3-2 3.2l-.3-.5c.7-1 1.3-2 2-2.8a.9.9 0 0 1 .2-.2v.3zM197 235.1a25.5 25.5 0 0 1-6.1 2.7c-2 .6-3.6-.5-5.2-1.5-2.2-1.2-3.2-3.3-4.4-5.3l-3.5-6.8a66.8 66.8 0 0 0-2.8-6.3c-.6-1 0-1.6.3-2.3a25.3 25.3 0 0 0 2.2-7 6.5 6.5 0 0 0-.2-4l.2-.7a1.8 1.8 0 0 1 .5.4l6.9 12.4c.4.8.8 1.8 2 1.8.6 0 1 0 .8-.8a7.3 7.3 0 0 0-.5-2l-6-10.7a9.2 9.2 0 0 0-1.2-1.3l-.2-.5h.6a15.7 15.7 0 0 0 6.4 1.5c3.3.2 6.5.4 9.8.4a2.2 2.2 0 0 1 2.3 1.6c1 3.1 2.4 6.2 3.3 9.4a34 34 0 0 1 .9 7.7 12.3 12.3 0 0 1-6.1 11.3zm.3 1.5a12.2 12.2 0 0 1-1.2.8h-.5a1.6 1.6 0 0 1 .4-.4zm-21.4-36.4h.3l2 1.2a3 3 0 0 1 .5.2 1.3 1.3 0 0 1-.5.2 5.1 5.1 0 0 0-1 0 2.5 2.5 0 0 0-.8.3l-.2.4a1.9 1.9 0 0 1-.2-.5v-1.3a5.4 5.4 0 0 0 0-.6zm-2.4 16.4a1.6 1.6 0 0 1-.1.6 11 11 0 0 1-1 1.1 2.8 2.8 0 0 1-.4.4l.3-.6.8-1a5.6 5.6 0 0 1 .4-.5zm-14.4 9.8a5.5 5.5 0 0 1-1 .6 9.2 9.2 0 0 1-1.7.6l-1-.4c.4 0 .6-.4.9-.4a9.9 9.9 0 0 1 1.6 0 8.5 8.5 0 0 0 1.2-.4zm-30 1a10.8 10.8 0 0 1-1.5-.5c-.2 0-.2-.5-.3-.8l.6.3 1 .6a.4.4 0 0 1 .3.4zm-27.8-15.8a1.9 1.9 0 0 1-.5-.2l-2-1.9-2.1-1.9a.3.3 0 0 1-.1-.3.3.3 0 0 1 .2 0c1 0 2 0 2.5 1.1a23 23 0 0 0 1.9 2.6 1.7 1.7 0 0 1 0 .6zm-44 52.5v.8a1.4 1.4 0 0 1-.3-.7zm-9 38.7v.3h-.7a4 4 0 0 1 .8-.3zM44 335a18.1 18.1 0 0 1-5.6-7.2 3.9 3.9 0 0 1-.5-1.5 25.1 25.1 0 0 1 1-9.2 27.4 27.4 0 0 1 5-9 18 18 0 0 1 5.8-4.5 11 11 0 0 1 7.5-.7c1.3.3 1.7.1 1.6-1.3l-.6-4.4c-.4-2.3-1-4.7-1.1-7a98.5 98.5 0 0 1-.6-11 69 69 0 0 1 1-8.8 59.4 59.4 0 0 1 1.2-6.2 66 66 0 0 1 2-6.5 138.6 138.6 0 0 1 8.2-18.3c1.9-3.5 4.3-6.7 6.4-10a56.4 56.4 0 0 1 10.8-12.8c2.5-2.3 5.3-4.2 8-6.3 2.3-1.3 2.2-1.3 4 .4l9.5 8.4a38.6 38.6 0 0 0 8.9 5.7c3.4 1.7 6.9 3.3 10.7 3.6 2.8.2 5.2 1.6 7.7 2.4a24.4 24.4 0 0 0 10.4 1.5 33.4 33.4 0 0 0 9.5-2.6c2.8-1.2 5.6-2.2 8.5-3.2a18.7 18.7 0 0 0 9-6.2 3.7 3.7 0 0 1 .7-.7 4.2 4.2 0 0 1 .4.8 77.5 77.5 0 0 0 7.2 14.6 11.9 11.9 0 0 0 7.3 5.2 10.2 10.2 0 0 0 6.8-1 25.8 25.8 0 0 0 6-3.7 13.4 13.4 0 0 0 3.4-4.7 16.9 16.9 0 0 0 1.6-8.7 31.4 31.4 0 0 0-.8-5.2c-.8-3-1.8-6-2.8-9a14 14 0 0 0-.6-1.7c-.6-1.3-.4-1.7.9-2a26.2 26.2 0 0 0 9.9-4 31.2 31.2 0 0 0 3.7-3.5c.7-.6 1.2-1 2-.3l3.7 3.5c1.2 1.2 2 2.6 3.2 4 3.2 3.6 6 7.4 7.5 12.2a385 385 0 0 0 2.7 8c0 .6.4 1 .6 1.5v.5l-.5-.2-1-1.2-7.8-7.8c-.4-.4-.8-.9-1.5-.4-1 .5-1 1.3 0 2.3 2.7 2.7 5.4 5.4 8 8.3a22.3 22.3 0 0 1 2.7 4 26.1 26.1 0 0 1 1.4 3.2l3 7.3a16.6 16.6 0 0 1 1 6.1c0 1 .3 2 .2 3l-1 7.1-.6 5.5-1 5.4-.1 2c0 .4 0 .8-.2.8-1.4.2-1.2 1.3-1.5 2.2a29.8 29.8 0 0 1-1.2 3.3l-3.3 7.8c-.8 2.2-1.4 4.4-2 6.5a16.8 16.8 0 0 0-.2 6.4 14.2 14.2 0 0 0 1.4 5.5 54 54 0 0 0 3 5.1 33.9 33.9 0 0 0 3.4 4 46.9 46.9 0 0 0 4 3.7c2.5 2 4.8 4.3 5.8 7.6.2.7.6 1.4.9 2v.5a1.4 1.4 0 0 1-.4-.2l-3.8-4.4c-.6-.6-1-1.3-1.7-1.9-.7-.6-1.1-.8-2-.2-.7.6-.5 1.1 0 1.8l4.4 6a15.8 15.8 0 0 1 2.4 6.4 27.8 27.8 0 0 1 .4 4.4 13.7 13.7 0 0 1-3 8.7c-1.5 2-3.3 3.7-6 4-.7.1-1.3.5-2 .6h-2l-2.7.4-2.1.3-4.4.8a3 3 0 0 1-.4.1c-3 .1-5.8.4-8.7.4a24 24 0 0 1-9.8-1.7 9.4 9.4 0 0 1-4-3.3c-1.5-2.2-3.2-4.3-3.7-7a46.2 46.2 0 0 1-1-4.6c0-1.2.5-2.5.5-3.7a50.4 50.4 0 0 0-2.1-14.2 72.6 72.6 0 0 1-2-9.5c-.4-2.7-1-5.5-1.2-8.2-.3-1.9-.3-3.8-.5-5.6-.3-2.8-.5-5.6-1-8.3a3.2 3.2 0 0 0-1-1.7 1.2 1.2 0 0 0-1 .2 2.2 2.2 0 0 0-.5 1.6 45.6 45.6 0 0 1 1 9.6c.2 2.2.7 4.4 1 6.6l.4 4.4.7 4 1.3 6.5 1.7 6.5c.3 1.2.4 2.4.6 3.7 0 1 0 1.8.2 2.7a3.7 3.7 0 0 1-1.8 3.7c-3 2-6 4-9.5 4.8-2.5.6-5 1-7.4 1.3a42 42 0 0 1-5 .2c-2.6 0-5.2.2-7.7 0-3.8-.2-7.6-.7-11.4-1-2-.3-4-.4-6-.8a46.3 46.3 0 0 1-6-1.5c-3-1-6.1-2-9.1-3.4a25 25 0 0 1-5-3 2.9 2.9 0 0 1-1-2 47 47 0 0 1 .3-5l.2-2.9a97 97 0 0 0-.5-6.6 32 32 0 0 0-1-5.6 15 15 0 0 1 .3-7c1-6 3.9-11.6 6-17.2l2.4-7a3.3 3.3 0 0 0 0-1.5 1 1 0 0 0-1.6-.3 13.2 13.2 0 0 0-1.4 2.8l-6.2 16c-.8 2.3-1.7 4.4-1.6 7l-.3.3-.4-.4-3.1-9.2a2 2 0 0 0-.8-1c-.3-.2-1-.4-1.2-.2-.3.3-.7 1-.6 1.4l2 6.2c1.2 3 2.5 6 3.5 9a38 38 0 0 1 1.3 6.4c.3 2.2.2 4.4.5 6.6.3 2.2-.4 4.4-.5 6.6a17 17 0 0 0 .3 2.6l.6 4.5c.3 2.5-.8 4.6-2.2 6.6a16.5 16.5 0 0 1-9 6.1 51.4 51.4 0 0 1-10 2.3 18.4 18.4 0 0 1-6.4-.2 27.8 27.8 0 0 0-3.7-.3c-2-.2-3.4-1.4-4.8-2.4-3-2.2-4.6-5.3-6.8-8a14.4 14.4 0 0 1-2.3-3.4c-1.1-2.6-2.4-5-2.4-8a35.1 35.1 0 0 1 4.4-17c2-3.6 3.7-7.4 5.6-11.2a1.4 1.4 0 0 0-.5-2c-.8-.5-1.3.1-1.8 1a11.4 11.4 0 0 1-1.4 1.6.3.3 0 0 1-.3 0 .3.3 0 0 1-.1-.3 11.3 11.3 0 0 0 .7-1.4 56.7 56.7 0 0 0 2-5.8 32.6 32.6 0 0 0 1-9.2c-.2-4.3-.5-8.6-2-12.7a12.8 12.8 0 0 1-.7-2.6c-.2-1.2-.4-1.4-1.7-1.3l-.3-.3.5-6.3a18 18 0 0 1 .7-4c.6-1.6 1.6-3 2.3-4.7a1.7 1.7 0 0 0-.1-1.5c-.4-.5-1-.3-1.5.2a12.4 12.4 0 0 0-3.2 6.4l-1 7c0 1.8 0 3.7-.2 5.6 0 2.1 0 4.3-.2 6.5l-.4 6.4a6.3 6.3 0 0 1-.7 2 1.1 1.1 0 0 0 .3 1.6c.5.4 1 .2 1.5-.2 1.3-1.3 1.7-3 2.4-4.7a27 27 0 0 0 1-3.6c0-.2.2-.3.4-.5 0 .2.4.3.4.5l-.2 1.6c0 1.8 0 3.7.2 5.6a26.2 26.2 0 0 1-1 7.7 38.8 38.8 0 0 1-2.4 6.8 13.4 13.4 0 0 1-3.4 4.7 2.3 2.3 0 0 0-.5 2c0 .8 1.2 1.1 2.2.5a29.1 29.1 0 0 0 2.7-2l.6-.4-.1.8-1.6 2.5a43.6 43.6 0 0 0-5.3 12.6 41.3 41.3 0 0 0-.8 9.3 15.8 15.8 0 0 0 1.4 5.5c.3.8 0 1.2-.6 1.4-3 1-5.7 2-8.6 2.7-3.3 1-6.6.5-10 .4a25.7 25.7 0 0 1-7-.9 21.7 21.7 0 0 1-5.6-3zm12.4-33.6a.8.8 0 0 1 .7-.2v.2zM231 223.1a5.2 5.2 0 0 1-.5 0 .6.6 0 0 1-.2-.4l-.6-.7.8.5zm-17 132.4-.3-.2.6-.2a.3.3 0 0 1-.2.4zm-18.4-1.5a30.8 30.8 0 0 0-4-.6l-8.2-.5h-4.3a3.4 3.4 0 0 1-.7 0 5.7 5.7 0 0 0 .5-.4l.6-.5c0-.4-.2-1-.4-1a9.1 9.1 0 0 0-4.2-1.2 13.8 13.8 0 0 1-1.5 0 1.3 1.3 0 0 1-.4 0l.3-.4a10.1 10.1 0 0 1 2.3-.7l6.7-.3c1.3 0 1.6-.4 1.4-1.7l.5-.5c.4 0 .9 0 1.3-.2.7 0 1-.7.8-1.2a1.8 1.8 0 0 0-1.2-1h-5a2 2 0 0 1-.6-.2 3.4 3.4 0 0 1 .6-.3 31.9 31.9 0 0 0 10-2.7c1.6-.7 3-1.7 4.4-2.7.5-.2.8-.6 1 .4a95.7 95.7 0 0 0 3 9.4 10 10 0 0 0 4.5 5 30.5 30.5 0 0 0 6 2.2 26.7 26.7 0 0 0 2.7.5l.5.3-.6.3-2.2-.2-3.5.2-3.7.5-6.6.6-1.5.2H193l-16 .3-1-.2 1-1h.2l15-.2h3.3a1.6 1.6 0 0 0 1-.8 1 1 0 0 0-.8-1.4zm-26.5-2.7c-.2 0-.2 0-.3-.2.2 0 .4-.4.6-.4h4.7a8.2 8.2 0 0 1 1.7.4v.4zm6 1.5a.3.3 0 0 1-.1 0h-1.2a4.6 4.6 0 0 1 1.3-.3.6.6 0 0 1 0 .3zm-48.8-13.2a15.1 15.1 0 0 0 .6-2.9v-.8c.3-1 .5-1.2 1.5-.5a42.4 42.4 0 0 0 11.4 4.8 89 89 0 0 0 10.4 2.2l5.8.7a1.7 1.7 0 0 1 .5.3 2 2 0 0 1-.5.1l-5 .3a12 12 0 0 0-2.2.2c-.5.1-1 .5-1.1.8-.3 1.4-1.4 1.2-2.2 1.2H139a44 44 0 0 0-4.6.4 1.5 1.5 0 0 0-1 .7c-.3.8-1 1-1.6 1l-5.2.1c-.7 0-1.3.4-1.2 1 0 .4.6 1.1 1 1.1l5.8-.2h1.6l.4.1a1.8 1.8 0 0 1-.4.2l-2.5.5c-.5 0-1.3.2-1 1a2 2 0 0 0 1.3 1 129.5 129.5 0 0 0 5.4 0c1.9-.3 3.6.4 5.4.7a3.1 3.1 0 0 0 .5.2l6.7.2 10.5.2c.3 0 .5.3.8.4-.3.2-.6.5-.8.5l-13.8-.2-5.4-.3c-2.5 0-5 0-7.5-.2l-9-.7a19.3 19.3 0 0 1-2.2-.5l-4-.8-4.7-.2a2.2 2.2 0 0 1-.7-.2 5.7 5.7 0 0 1 .6-.5l6.2-3.7a17.4 17.4 0 0 0 6.8-8.2zm-.7-6.2a10.4 10.4 0 0 1 .3-1.2 7 7 0 0 1 .6 1.2l-.4.6zm43.2 12.6a1.2 1.2 0 0 1 .4.2l-.5.2-6-.2h-7.5a34 34 0 0 1-4.5-.8l-.2-.2.3-.3c1.7.3 3.4-.8 5.2.2.5.3 1.2 0 1.8 0a7.4 7.4 0 0 1 1 .3zm-5.4-2.8a1.3 1.3 0 0 1 .7 0l-.2.3c-.2 0-.3-.2-.5-.3zm10 1.5c.2 0 .3.2.5.3l-7 .1a2.5 2.5 0 0 1-.6 0c.2-.2.3-.4.5-.4l3.4-.2c1 0 2.2 0 3.3.2zm-1.8-1.2h3.4c-.1.1-.2.3-.4.3H173a5.8 5.8 0 0 1-1 0zm-11.3 9.6.6-.2h.5l-.4.4a2.5 2.5 0 0 1-.7-.2zm-7.5-1.7a26.2 26.2 0 0 0-2.8.2c-.2 0-.4.3-.6.4a1.9 1.9 0 0 0 .6.2l7 .3a2.4 2.4 0 0 1 .6.2 2 2 0 0 1-.6.2c-1.5.1-3 .3-4.5.2l-4.2-.4a39.5 39.5 0 0 1-5-.3 36.8 36.8 0 0 0-8.3-.6l-.3-.2.2-.2h7.6l4 .4a1.8 1.8 0 0 0 .8-.2 7.3 7.3 0 0 1 2-.6h16.2a4.6 4.6 0 0 1 .7 0 1.7 1.7 0 0 1-1 .4h-12.5zm-8.7-.4c0-.2.3-.5.5-.5a8.2 8.2 0 0 1 1.3 0c.5.3 1 .6 0 .7h-1.4a2.4 2.4 0 0 1-.5-.3zm22-.5-3.3-.2-4.8-.3-7.2.2a2.3 2.3 0 0 1-.7 0 2.8 2.8 0 0 1 .7-.4l6-.4.4-.4c-.2 0-.3-.3-.5-.3h-3.4l-7 .2h-8.1a4.4 4.4 0 0 1-2.8-.5 2.8 2.8 0 0 1-.4-.5l.6-.3c4-.3 8-1 12-.7a4 4 0 0 1 1 .3 2.8 2.8 0 0 1-1 .3h-5.2a1.7 1.7 0 0 0-.6 0l-1.4.6a8 8 0 0 0 1.4.3h5.8a2.8 2.8 0 0 0 1.5-.3c1-.7 2-.5 3.2-.6 1.5 0 3-.3 4.6-.4l3.7.2h9.9l5.5-.2a1.7 1.7 0 0 1 .6.2 3.8 3.8 0 0 1-.6.2 35 35 0 0 1-5 .7c-3 0-5.8-.3-8.7-.4a2.1 2.1 0 0 0-.8 0l-.3.4.4.2a13.7 13.7 0 0 1 1.5 0c.2 0 1.2-.5.6.6l.4.2 4 .3a2.2 2.2 0 0 1 .7.3c-.2.2-.4.5-.7.5a20.1 20.1 0 0 1-2.3.1zm5.2-1a2.8 2.8 0 0 1-1 .1l-.2-.4zm9.4-3.9-3-.5a.6.6 0 0 1-.2-.4 359.1 359.1 0 0 1 4.9.4l-.3.4a5.3 5.3 0 0 1-1.4 0zm1.2 1.4a3.7 3.7 0 0 1-1.1 0 4 4 0 0 1 .4-.6 1.7 1.7 0 0 1 .5-.2zm-2 .2a6.7 6.7 0 0 1-1 .1l-.1-.2.6-.2a1.3 1.3 0 0 1 .5.3zm16.6-11-.1-1.2h.3v1.1a.6.6 0 0 1-.2.1zm.6 1.1a3.5 3.5 0 0 1 0 .7 5.6 5.6 0 0 1 0 .8.6.6 0 0 1-.1 0l-.2-.7-.2-.8a3.2 3.2 0 0 1 .2-.7l.2.7zm1.3 7 .2-.3a1 1 0 0 1 .2.2l4 6.2a8.5 8.5 0 0 0 1.8 1.4 1.8 1.8 0 0 1 .2.3 2.2 2.2 0 0 1-.4 0 8 8 0 0 1-3.4-3c-1.6-1.4-2-3-2.6-4.8zm-74.7-36.6-.1.3-.3-.3-.5-1.9h.6zm-34.5 41.6h-.6a.6.6 0 0 1 .5-.2v.2zm-10-1.3H75a1.9 1.9 0 0 1-.5-.2l.5-.2c.5-.3 1.4 0 1.3-1a1.5 1.5 0 0 0-1.6-1.3h-3.1c-.8 0-1-.2-.6-1 .7-1.3.3-2-1.4-2h-1.7A10.6 10.6 0 0 1 69 341a7.7 7.7 0 0 1 1.7-.8c1.9-.7 3.8-1.2 5.7-2a1.3 1.3 0 0 1 1.6.5l5.8 7.3v.2l2.6 2.3a2.3 2.3 0 0 1 .4.5 2 2 0 0 1-.6 0 21.3 21.3 0 0 0-6.8-1zm.6 1.8a2 2 0 0 1-.8-.2l.2-.2h1c.5.8-.2.3-.4.4zm-2.7-.5-2 .2a1.2 1.2 0 0 1 0-.2 10.7 10.7 0 0 1 1.5-.4s.8-.3.5.4zm-9 2.7c1.4.2 2.9.1 4.3.3a3.4 3.4 0 0 1 1 .3 7 7 0 0 1-1 .3 8.2 8.2 0 0 1-1.1 0 20.4 20.4 0 0 1-2.5-.2l-2.4-.7-1.8-.4c-.4-.2-1-.3-1.1-.6-.3-.8-1-.6-1.6-.8-.2 0-.6.1-.8 0a13 13 0 0 1-1.3-.9 12 12 0 0 0 1.4 0l3.9-.2h7a3 3 0 0 1 1.4.5c.2.1.2.5.3.7a3.4 3.4 0 0 1-.6.1l-5.2-.2a6 6 0 0 0-1.7.7 6 6 0 0 0 1.8 1zm-14.8 0 2.4-.2 5-.3a1.9 1.9 0 0 1 .8 0l.5.6a1.9 1.9 0 0 1-.6.3l-7.7.2-3.5-.2-1.7-.2a6 6 0 0 1 1.4-.5 14 14 0 0 1 1.8.2 12.8 12.8 0 0 0 1.6.1zm-1.4-1.3a3.5 3.5 0 0 1 .8-.3l6-.4a5 5 0 0 1 .9.1c0 .3-.2.5-.3.5l-4.2.3-2.3.2a2.7 2.7 0 0 1-1-.4zm15.5-4.3a4.5 4.5 0 0 1 1.2-.4c.3 0 .6.3 1 .4a.9.9 0 0 1-.7.4c-.1 0-.3 0-.5-.2zm11.4-33.9.4-.9a1 1 0 0 1 .4-.5l-.7 1.7zm3.7-7 .2-.2v.6a.6.6 0 0 1-.2-.5zm1-4.3.5-.4a3.1 3.1 0 0 1 .3-.3l.7-.5c-.1.3-.1.8-.3 1a3 3 0 0 1-1.2.2zm-2-29 .4.2a8.1 8.1 0 0 1-.2 1l-.2.7h-.2v-1.8zm-.1-2.4.3.1-.3.8a2.5 2.5 0 0 1 0-.8zm-1.2 11.7-.1 1H80zm-.3-.5-.2-.8a1.3 1.3 0 0 1 .6.5zm.6 22.7-1.6 1.1c-.1.1-.4 0-.6-.2l1.9-2.6a3 3 0 0 1 .3-.3v.4l.2.3c1.3.7.2 1-.2 1.3zm-62 36.8.3.4a4.4 4.4 0 0 1-.7-.2s.3-.3.4-.2zm-9.8 1.2c-1.4 0-3 0-4.3-.2a10.3 10.3 0 0 1-1.5-.2 3.2 3.2 0 0 1-.6-.3 4.8 4.8 0 0 1 .4-.5c.8-.6 1.6-.2 2.4.1l3.6.7.5.1-.5.4zm4.3.3h-2.4a.9.9 0 0 1-.4-.5h3l.2.3a1 1 0 0 1-.4.2zm7 .4-5.7-.2a1.4 1.4 0 0 1-.5-.2l.5-.2H20c.3 0 .6.2.8.4a2.4 2.4 0 0 1-.8.2zm1.9-.8-2.2-.7a1 1 0 0 1-.3-.3l.3-.2 1.5.1c1 0 2 .2 3 .1l3.6-.2h8.7l9.6.2a17.1 17.1 0 0 0 2.4-.2c.2 0 .3-.2.4-.3a1.3 1.3 0 0 0-.2-.3l-1.3-.7a3.6 3.6 0 0 1-.6-.6 4.9 4.9 0 0 1 .8.2c1 .4 2 1.3 3.4 1.4h.6l10.5.3c1.4 0 2.8-.3 4.2-.4a3 3 0 0 1 1 0s.2.7 0 .8a2 2 0 0 1-1 .3l-5.5.2-5.5-.2a33.1 33.1 0 0 0-5.1.7c-.4 0-.7.8-1 1.2.3.2.6.5 1 .5h4.2l4.3-.2a11.2 11.2 0 0 1 2 .2l.8.2a3.2 3.2 0 0 1-1 .5 12.7 12.7 0 0 1-2 .2H47.3l-3.4-.2-9 .4a3.2 3.2 0 0 0-.4 0l-1 .2.5-.8c.8-1.4.2-2.4-1.4-2.5l-6.2-.4a9.7 9.7 0 0 0-1.7.2l-2.8.4zm42.2 2 2.7-.2a.5.5 0 0 1 .2 0l-.2.4-2.3.2a4.4 4.4 0 0 1-.8-.2zm-1.2-1.2c-.1 0-.2 0-.3-.2l.3-.2h1.6a3.6 3.6 0 0 1 .7.2l-.3.2zm-29.7.4-.3.3h-1.6c-1.2-.2-2.2-.2-3.3-.2l-3.1-.3-.4-.3.4-.3 6.9.4h1zm.7 3.8-5.7-.2-3.1.2c-1.1 0-1.8 0-2.6-.2-.2 0-.3-.2-.4-.3a1.7 1.7 0 0 1 .4 0l5.6-.3 6.7.2 6.4-.2 8.4-.2a1.7 1.7 0 0 1 .5.1 1.8 1.8 0 0 1-.6.3l-6 .2-9.6.5zm7.6 1.4h-1.1a4.4 4.4 0 0 1-1-.4 3 3 0 0 1 1-.2h8.3c3.5-.5 6.8-.7 10-.9l3.9-.3a2.1 2.1 0 0 0 .6-.2l-.5-.4a1.6 1.6 0 0 0-.3-.2l-.7-.4c.3 0 .6-.3 1-.3l4 .4a6 6 0 0 1 1 .3 4.3 4.3 0 0 0-.7.4s-.2.3-.1.4c.7 1-.1.8-.5.7-2.8-.5-5.4 0-8.1.5H58a47 47 0 0 0-5.3.2 2.4 2.4 0 0 0-.8.4l.6.7H55l3.6.2.4.3a1.6 1.6 0 0 1-.4.1l-6.2.3a5.2 5.2 0 0 0-1.3.5l-2.2.8a9.8 9.8 0 0 1-1.8.2l-.3-.2a1.4 1.4 0 0 1 .3-.2 8.6 8.6 0 0 0 1.5-.3 5.6 5.6 0 0 0 1-.7c-.3-.3-.6-1-1-1l-7.2-.7zm-6.5 4.2 4.5-.2c.5.5.6.8 1.4.5a4.7 4.7 0 0 1 2 .2v.2l-.2.2-3.4-.2c-1 0-2.3 0-3.5.2a3.4 3.4 0 0 1-1 0 2.8 2.8 0 0 1-.7-.6 3.3 3.3 0 0 1 .8-.3zm-11.2 3-5.6-.3a3.7 3.7 0 0 1-.8-.3 5.2 5.2 0 0 1 .8-.2l6.4-.4 6.5-.6a7.4 7.4 0 0 1 2 .4 7.2 7.2 0 0 0 1.7.4h7.4a8 8 0 0 1 1 .8 3.4 3.4 0 0 1-1 .3q-9.3 0-18.5-.2zm40 3h-9.2L44 358l-3.8.2-5.5-.2-.4-.2.4-.2 2-.3a1.7 1.7 0 0 0 .5-.2 2 2 0 0 0-.6-.2h-2.4c-.3 0-.5-.3-.8-.5a3.3 3.3 0 0 1 .8-.2l6.5.3h.5a1.9 1.9 0 0 0 1.7 1h5.2l1 .1h14.7a2.2 2.2 0 0 1 .7.3zm-16.3-2.5.3-.2h5l.3.3a1.2 1.2 0 0 1-.4.2h-5zm38.6 2.5-19-.3a9.4 9.4 0 0 1-2.4-.7c-.2 0-.2-.3-.3-.4a1 1 0 0 1 .4 0 7.8 7.8 0 0 1 1 0 11.9 11.9 0 0 0 1.6.3l6.8.2a2.9 2.9 0 0 0 .7 0c-.2-.3-.4-.5-.6-.5-1 0-1.7 0-2.5-.2a2 2 0 0 1-.7-.3 5.4 5.4 0 0 1 .7-.3h.6l.5-.6a2 2 0 0 0-.6-.3l-4.3-.4-4.6-.4-2.4.2H46.7a6 6 0 0 1-.7-1h1l3.7.1h16.6l5.6.2h.7c1.4-1.3 3.3-.6 4.9-1a4.7 4.7 0 0 0 .7-.5 2.8 2.8 0 0 0-.6-.5l-1.6-.7-.5-.2.5-.2c1.6.3 3.3-.2 4.6 1 .2.2.7.1 1 0 .7 0 1.5 0 2.2-.2a4.5 4.5 0 0 0 1-.5l-.7-.5H85l-1.2-.6c.5 0 1-.2 1.5 0a7.5 7.5 0 0 0 5 .6c.7 0 1.5.3 2.2.4l5.3.7a35.1 35.1 0 0 0 5 .2 22.2 22.2 0 0 0 4.8-.8l8-2.6a3 3 0 0 1 .5 0 2.3 2.3 0 0 1-.4.3l-4.3 2.4a2.8 2.8 0 0 0-.8.6c-.3.3-.6.8-.5 1 0 .2.7.5 1 .7a7.2 7.2 0 0 0 .8.2l8.2.7a1.4 1.4 0 0 1 .7.2 3 3 0 0 1 .5.8 2 2 0 0 1-.8.3c-1.5 0-3.1-.4-4.7-.4l-5 .2c-.2 0-.3.3-.5.5.6.2-.5 1.2.6 1.3l3.6.4 8.7.4h2.7l.4.3-.3.1h-9.5c-3.7 0-7.4-.3-11-.4a4.7 4.7 0 0 0-1.6.3c-.2 0-.3.5-.3.7 0 .5 0 .6-.5.6a38.8 38.8 0 0 0-4-.7l-8-.4zm31 1.6a6 6 0 0 1-1 .2 5 5 0 0 1-1-.2c-.5-.5-.6-.7 0-.7a3.9 3.9 0 0 1 1 .2zm-19.8 1-.8.3a.5.5 0 0 1-.2 0l-1.6-.2 1.6-.3a7.2 7.2 0 0 1 1 .3zm37 3-2-.2a5.3 5.3 0 0 1 2-.3l.4.2zm9.8.2-.5-.3a1.3 1.3 0 0 1 .7 0zm6.5-.3-1.8.3a4.4 4.4 0 0 1-.7-.2l.2-.3 2.3-.2.4.2-.4.3zm12.6-1.4-1 .3v-.5a3.4 3.4 0 0 1 1-.2zm56.7-2.8h4l.7.3a2.8 2.8 0 0 1-.6.1 8.6 8.6 0 0 1-.8 0H220l-.4-.2a1.6 1.6 0 0 1 .4 0zm-5.2-.9-.6-.2a2.1 2.1 0 0 1 .6-.2l9.5-.5 7.3-.4 2-.2a4.7 4.7 0 0 1 1.3.4 7 7 0 0 1-1.2.4 11.4 11.4 0 0 1-1.6 0l-9.7.5c-2.5.2-5 .2-7.6.3zm13.6 2.5h-1c-.4 0-.1-.4 0-.4a5.3 5.3 0 0 1 1 0l.7.3a4.1 4.1 0 0 1-.7.2zm16.3-.4a.8.8 0 0 1 .2 0l1.2.5h-8l-3.7.2a.6.6 0 0 1-.2 0l-3.3-.9c-1.1-.3-2.6-.4-4-.6a2.9 2.9 0 0 1-.4-.3 1.7 1.7 0 0 1 .5-.2 11 11 0 0 1 5.4.2 18.4 18.4 0 0 0 4.7 1zm-7-2.6a2 2 0 0 1 0-.3l1.2.3v.1h-1.3zm3.8-1.2-1.2-.2-8.1-.7a.7.7 0 0 1-.3-.2v-.2l.5-.4a6 6 0 0 0-.7-.5 7.5 7.5 0 0 1-1.2-.6 1 1 0 0 0-1.8.4 1 1 0 0 1-.3.3c-.5.5-.4.7.2.8.3 0 .5.3.8.5a7.3 7.3 0 0 1-.8.1l-3.2.5a2.5 2.5 0 0 1-.7 0 2 2 0 0 1-.6-.3 1.6 1.6 0 0 1 .5-.4c.3 0 .7 0 1-.2a4.8 4.8 0 0 0 .9-.4 4.5 4.5 0 0 0-.7-.2 3.3 3.3 0 0 0-3.2 1.2 1.2 1.2 0 0 1-.7.3l-8.2.7h-.2a7 7 0 0 0-1.5 1c-.1.1 1.4 1.4 1.8 1.4a3.2 3.2 0 0 1 .5 0 6.5 6.5 0 0 1 .6.2l-.5.4a6.1 6.1 0 0 0-.4.4l.7.3h8.6a1.6 1.6 0 0 1 .4 0 2.5 2.5 0 0 1 .5.3l-.5.2-6.2-.2-5.6.2c-.3 0-.5-.2-.8-.4a4 4 0 0 1 .5-.4l.9-.5c-.5-.4-1-1-1.4-1a4.5 4.5 0 0 0-2.3.3c-1.4.7-3 .4-4.3.4l-4.7-.2-5.6.2-11.7.2a14.6 14.6 0 0 0-1.5.3l-8.1-.7a2.1 2.1 0 0 0-.7 0 1.5 1.5 0 0 0-.4.3l.4.3a4.2 4.2 0 0 0 .4.3 1.4 1.4 0 0 1-.4.2h-10c-.7 1.3-1.8.5-2.8.6 0 0-.3-.3-.2-.4.3-.5.2-1-.4-1a2.3 2.3 0 0 0-2 .4 2.9 2.9 0 0 1-2.5 1 6.7 6.7 0 0 0-1.6 0 4.3 4.3 0 0 0-1 .2c.3.2.6.5 1 .5a8.5 8.5 0 0 1 3 1 23.9 23.9 0 0 0 3.9.4 2 2 0 0 1 .6.2 2.2 2.2 0 0 1-.6.2 24.3 24.3 0 0 1-4 0 25.5 25.5 0 0 1-3.7-1.2 6.6 6.6 0 0 0-1.7-.5l-8.2-.3h-9.4l-5.1-.2a3.3 3.3 0 0 0-1 .3 8.2 8.2 0 0 0-.8.3 6.7 6.7 0 0 0 .9.5h.6a2 2 0 0 1 .5.3c-.2.1-.3.4-.5.4H124l-5.6.2-3-.2-2.8.2a4 4 0 0 1-1.1-.3 6.3 6.3 0 0 1 1-.4 8.1 8.1 0 0 1 1 0c.4 0 1.2.2 1-.5a1.6 1.6 0 0 0-1-1.2 21.6 21.6 0 0 0-3.2 0h-4.7a12.8 12.8 0 0 0-2.4.5l-.2.3a1 1 0 0 0 .5.2l4.5.5a4.1 4.1 0 0 1 1 .4c-.4.2-.7.5-1 .5H96.6l-6-.3a3 3 0 0 1-.8-.2.3.3 0 0 1-.1-.2.3.3 0 0 1 .2-.2 20.8 20.8 0 0 1 4.9-.2 27.7 27.7 0 0 0 5.8.6 3.2 3.2 0 0 0 1-.4 11.5 11.5 0 0 0-1-.4h-.7l-1-.3a4.6 4.6 0 0 0 .7-.5v-.5a4.2 4.2 0 0 0-1-.3l-.7-.2c.3-.2.5-.6.9-.7a2.3 2.3 0 0 1 2 .6 1.9 1.9 0 0 0 1.3.5l3.8-.2.4-.3a2.6 2.6 0 0 0-.4 0l-1.6-.4c-.2 0-.3-.3-.4-.5h.5a39.7 39.7 0 0 0 4.4.3c3.4-.2 6.7.6 10 1a20.5 20.5 0 0 0 3 0l3.8-.3 4.5-.5h.2c1.4-1.5 3-.4 4.7-.4l4-.2h7.3c2 0 4.3-.4 6.5-.6a4 4 0 0 0 1.4-.8s0-.5-.2-.5a2.7 2.7 0 0 0-1-.3h-7.3c-3.7 0-7.3-.4-11-.6l-6-.5c-1.1 0-2.2-.3-3.3-.4-1 0-1.8.3-2.7-.2a7 7 0 0 1-.7-.6 3.2 3.2 0 0 1 1-.2c.9 0 1.7.3 2.6.3l12.2.7 3.5.2 13 .3c2.2 0 4.5.3 6.8.4 2.8 0 5.6 0 8.3-.3a8.2 8.2 0 0 0 1.7-.4 6 6 0 0 0-1.4-1 9.8 9.8 0 0 0-2.6-.7l-4.8-.3a2.7 2.7 0 0 1-.8-.3c.3-.2.5-.6.7-.5l5.3.2c1 .1 1.9.4 2.8.4l9 .2c2 0 4.3.1 6.4.3 2.3 0 4.7.2 7 .4a2.1 2.1 0 0 1 .6.3 2 2 0 0 1-.6.1h-19a1.7 1.7 0 0 0-1 .6 3.3 3.3 0 0 1-3 1.2 28.1 28.1 0 0 0-7.7 1c-.2 0-.4.3-.7.5a2.9 2.9 0 0 0 .8.3h1.9a1.6 1.6 0 0 1 .4.1 1.7 1.7 0 0 1-.3.3l-1.7.5 1.8.4c.6 0 1.4 0 2 .2 1.9.3 3.3-.8 5-1a34.8 34.8 0 0 1 4-.3v.1h12.4l11-.6c1 0 2-.5 2.9.5h.7a6.7 6.7 0 0 0 .9-.3l-.7-.4-.6-.3a2.8 2.8 0 0 1 .7-.3 7.8 7.8 0 0 1 1.6 0 4.7 4.7 0 0 1 1.2.3l1 .5h.8l-.5-.6a2 2 0 0 1-.2-.3 1.9 1.9 0 0 1 .4-.2c1 0 2 0 3-.2l10.5-1.3h1.7c.3 0 .4-.2.6-.4-.1 0-.3-.5-.5-.5-.5 0-1 .2-1.5.1h-3.1l-.2-.3.4-.2a38.3 38.3 0 0 0 5.2 0c2-.4 4.2 0 6-1h1l8-1a28.2 28.2 0 0 0 3.7-1.3 1.9 1.9 0 0 1 .5 0v.5c-.5 1.1-1.6.8-2.3 1l-6.3 1a.5.5 0 0 0-.3.4c.3.5.4 1 1.3 1.2a42.9 42.9 0 0 0 8.5.8 15 15 0 0 0 1.8-.4 2 2 0 0 1 .8 0 4.6 4.6 0 0 1-.5.6c-1 1-2.4.5-3.6.5zm-111.6 2 .3.3c-.1 0-.3.2-.4.1-.2 0-1 .5-1-.4a2 2 0 0 1 1 0zm-.4-1.4c.2 0 .4-.4.6-.3l7 .6h4.4a2.5 2.5 0 0 1 .8.2 1.2 1.2 0 0 1-.1.4l-7.2-.2-5-.4c-.2 0-.3-.2-.5-.3zm15.3.7a4 4 0 0 1 .8 0 8.7 8.7 0 0 1 .8.4 1.2 1.2 0 0 1-.8 0 4.4 4.4 0 0 1-.8-.4zm124-.2h-18c-2.2 0-4.3.3-6.4.4a2.8 2.8 0 0 1-1-.3 6.2 6.2 0 0 1 .9-.3l4-.7 1.6.2 3-.2 11.2.2h3.9a3.4 3.4 0 0 1 1 .2 3.7 3.7 0 0 1 .6.3zm-11.4-2 .6-.2 8.2.2c.2.1 0 .4 0 .4H258l-.6-.3zm14 2c-.4 0-.8-.2-1-.4h1zm15.5 0-7-.5a4.4 4.4 0 0 1-1.3-.5 7 7 0 0 0-1.5-.6c-2.5-.3-5-.5-7.4-1a62.4 62.4 0 0 0-12.3-.5c-2 0-4 .3-5.8.4a5.8 5.8 0 0 1-1.3-.2 9.8 9.8 0 0 1 1.2-1c.3-.3.6 0 1 0h3.2l11.5.1a89.8 89.8 0 0 1 9 1.2c2.6.4 5 1 7.5 1.6l2.6.3a3.2 3.2 0 0 1 .8.2v.4z"/>
    <path d="M234.8 357.6a7 7 0 0 1-1.2.4 11.4 11.4 0 0 1-1.5 0l-9.7.4-7.7.2-.6-.2a2.1 2.1 0 0 1 .6-.2l9.5-.4 7.3-.5 2-.2a4.7 4.7 0 0 1 1.3.5zm-84.8-6c-.2 0-.4.2-.6.4a1.9 1.9 0 0 0 .6.2l7 .3a2.4 2.4 0 0 1 .6.2 2 2 0 0 1-.6.2l-4.5.2c-1.5 0-2.8-.3-4.2-.4a39.5 39.5 0 0 1-5-.3 36.8 36.8 0 0 0-8.3-.6l-.3-.2.3-.2h7.5l4 .4a1.8 1.8 0 0 0 .8-.2 7.3 7.3 0 0 1 2-.7h16.3a4.6 4.6 0 0 1 .7.1 1.7 1.7 0 0 1-1 .4h-12.5a26.2 26.2 0 0 0-2.8.2z"/>
    <path d="M244.8 355.6a15 15 0 0 1-1.8.4 42.9 42.9 0 0 1-8.5-.8c-1-.2-1-.7-1.3-1.2a.5.5 0 0 1 .2-.4c2-.3 4.2-.5 6.3-1 .8 0 1.8.2 2.3-1v-.5a1.9 1.9 0 0 0-.4 0 28.2 28.2 0 0 1-3.8 1.2c-2.6.5-5.3.7-8 1h-1c-1.8 1.1-4 .7-6 1a38.3 38.3 0 0 1-5.1 0c-.2 0-.3.2-.4.3a52.2 52.2 0 0 0 3.3.4l1.5-.2.5.5c-.2.2-.4.4-.6.4h-1.8l-10.4 1.3-3 .2a1.9 1.9 0 0 0-.4.2 2 2 0 0 0 .2.3l.5.5c-.3 0-.5.2-.7.1-.4 0-.7-.3-1.1-.5a4.7 4.7 0 0 0-1.2-.3 7.8 7.8 0 0 0-1.6 0 2.8 2.8 0 0 0-.8.3l.6.3.7.4a6.7 6.7 0 0 1-.8.3c-.3 0-.6.1-.8 0-.8-1-1.8-.5-2.8-.5l-11 .5-1 .1h-11.1a34.8 34.8 0 0 0-4.2.1c-1.6.3-3 1.4-5 1.1l-2-.2-1.7-.3 1.6-.6a1.7 1.7 0 0 0 .4-.3 1.6 1.6 0 0 0-.5 0h-2a2.9 2.9 0 0 1-.6-.4c.2-.2.4-.5.7-.6a28.1 28.1 0 0 1 7.6-.9 3.3 3.3 0 0 0 3-1.2 1.7 1.7 0 0 1 1-.6h19a2 2 0 0 0 .7 0 2.1 2.1 0 0 0-.6-.4l-7-.4-6.4-.3c-3 0-6 0-9-.2-1 0-2-.3-2.8-.4l-5.3-.2c-.2 0-.4.3-.7.5a2.7 2.7 0 0 0 .8.3l4.8.3a9.8 9.8 0 0 1 2.6.6 6 6 0 0 1 1.4 1.1 8.2 8.2 0 0 1-1.7.5l-8.3.2c-2.3 0-4.6-.4-7-.4-4.2-.2-8.5-.2-13-.3l-3.3-.2-12.2-.7c-1 0-1.7-.3-2.6-.3a3.2 3.2 0 0 0-1 .2 7 7 0 0 0 .7.6c.9.6 1.8.2 2.7.2l3.3.4 6 .5 11 .7h7.3a2.7 2.7 0 0 1 1 .2l.2.5a4 4 0 0 1-1.4.8l-6.6.6h-7.1l-4.1.2c-1.6 0-3.3-1-4.7.4h-.2l-4.5.5-3.8.2a20.5 20.5 0 0 1-3 0c-3.3-.3-6.6-1-10-.9a39.7 39.7 0 0 1-4.4-.2h-.5s.2.4.4.4c.5.2 1 .2 1.6.3a2.6 2.6 0 0 1 .4.1l-.4.3-3.8.2a1.9 1.9 0 0 1-1.3-.5 2.3 2.3 0 0 0-2-.5c-.4 0-.6.4-1 .6l1 .2a4.2 4.2 0 0 1 .8.3v.5a4.6 4.6 0 0 1-.7.5l1 .3h.6a11.5 11.5 0 0 1 1.2.4 3.2 3.2 0 0 1-1 .4 27.7 27.7 0 0 1-6-.5 20.8 20.8 0 0 0-4.8.1.3.3 0 0 0-.2.2.3.3 0 0 0 0 .2 3 3 0 0 0 .9.3l6 .2h11c.5 0 .8-.3 1-.5a4.1 4.1 0 0 0-1-.4l-4.3-.4a1 1 0 0 1-.5-.3s0-.3.2-.3a12.8 12.8 0 0 1 2.4-.5h4.7a21.6 21.6 0 0 1 3.2 0 1.6 1.6 0 0 1 1 1.2c0 .7-.6.5-1 .6a8.1 8.1 0 0 0-1 0 6.3 6.3 0 0 0-1 .3 4 4 0 0 0 1 .3l2.9-.2 3 .2 5.6-.2h3.2c.2 0 .3-.3.5-.4a2 2 0 0 0-.5-.3h-.6a6.7 6.7 0 0 1-1-.5 8.2 8.2 0 0 1 .8-.3 3.3 3.3 0 0 1 1-.2l5.2.2h9.4l8.2.2a6.6 6.6 0 0 1 1.7.5 25.5 25.5 0 0 0 3.7 1.2 24.3 24.3 0 0 0 4 0 2.2 2.2 0 0 0 .5-.2 2 2 0 0 0-.5-.2 23.9 23.9 0 0 1-4-.5 8.5 8.5 0 0 0-3-.9c-.3 0-.6-.3-1-.5a4.3 4.3 0 0 1 1-.3 6.7 6.7 0 0 1 1.7 0 2.9 2.9 0 0 0 2.5-1 2.3 2.3 0 0 1 2-.4c.6 0 .7.6.4 1.1 0 .1 0 .5.2.4 1 0 2 .8 2.8-.5h10a1.4 1.4 0 0 0 .4-.3 4.2 4.2 0 0 1-.4-.2l-.4-.4a1.5 1.5 0 0 1 .4-.3 2.1 2.1 0 0 1 .7 0l8 .7a14.6 14.6 0 0 1 1.6-.2l11.7-.3 5.6-.2 4.7.2c1.6 0 2.9.3 4.3-.4a4.5 4.5 0 0 1 2.3-.4c.5 0 1 .7 1.3 1.1l-.8.5a4 4 0 0 0-.5.4c.3.2.5.4.8.4l5.6-.2 6.2.2.5-.2a2.5 2.5 0 0 0-.5-.3 1.6 1.6 0 0 0-.4 0h-8.7l-.7-.2a6.1 6.1 0 0 1 .4-.5l.5-.4a6.5 6.5 0 0 0-.6-.2 3.2 3.2 0 0 0-.5 0c-.4 0-2-1.3-1.8-1.5a7 7 0 0 1 1.5-1h.2l8.2-.6a1.2 1.2 0 0 0 .7-.3 3.3 3.3 0 0 1 3.2-1.2 4.5 4.5 0 0 1 .7.2 4.8 4.8 0 0 1-.8.4c-.4.1-.8.1-1.1.3a1.6 1.6 0 0 0-.5.3 2 2 0 0 0 .5.3 2.5 2.5 0 0 0 .8 0l3.2-.5a7.3 7.3 0 0 0 .8 0c-.3-.3-.5-.6-.8-.6-.6 0-.7-.3-.2-.8a1 1 0 0 0 .3-.3 1 1 0 0 1 1.8-.4 7.5 7.5 0 0 0 1 .8 6 6 0 0 1 .8.5l-.4.4-.2.2a.7.7 0 0 0 .3.2l8.2.7 1 .2c1.4 0 2.8.4 3.9-.7a4.6 4.6 0 0 0 .4-.5 2 2 0 0 0-.7 0zm-121.2 6.6-2.7.7h-4.3a1.6 1.6 0 0 1-1-.6c-.4-.5-.4-1 .5-1l7.5.3c.2 0 .4.3.6.4a5.1 5.1 0 0 1-.6.2zm25-.9H135l-2.7-.2a1.9 1.9 0 0 1-.4-.2l.4-.2h7.4l8.4-.2a2.7 2.7 0 0 1 .9.2zm8.2-1.8c-1.6.5-3.2 1.3-5 1l-.2-.2a1 1 0 0 1 .2-.3 6 6 0 0 1 5-.9v.4zM50.2 345.7a1.8 1.8 0 0 1-.6.3l-6 .2-9.6.4-5.7-.2-3.1.2c-1 0-1.8 0-2.6-.2-.2 0-.3-.2-.4-.3a1.7 1.7 0 0 1 .4 0l5.6-.3 6.7.2 6.4-.2 8.3-.3a1.7 1.7 0 0 1 .6.2zm19.4.8a.9.9 0 0 1-.6.4l-.6-.2-1-.3a4.5 4.5 0 0 1 1.3-.4c.3 0 .6.3.9.5z"/>
    <path d="M66.9 346.2c.8 1 0 .8-.5.7-2.7-.5-5.4 0-8 .4H58l-5.2.3a2.4 2.4 0 0 0-.8.4c.2.2.3.6.6.6.8.2 1.6.1 2.5.2l3.5.1c.2 0 .3.2.5.3a1.6 1.6 0 0 1-.5.1l-6.2.3a5.2 5.2 0 0 0-1.3.5l-2.1.8a9.8 9.8 0 0 1-1.8.2l-.4-.2a1.4 1.4 0 0 1 .4-.2 8.6 8.6 0 0 0 1.4-.3 5.6 5.6 0 0 0 1-.7c-.2-.4-.5-1-1-1l-7-.7h-1.2a4.4 4.4 0 0 1-1-.4 3 3 0 0 1 1-.3h8.4c3.5-.4 6.8-.6 10-.8l3.8-.3a2.1 2.1 0 0 0 .7-.3l-.6-.3a1.6 1.6 0 0 0-.2-.3l-.7-.3c.3 0 .6-.3 1-.3 1.3 0 2.7.3 4 .4a6 6 0 0 1 1 .3 4.3 4.3 0 0 0-.7.4zm.2-2.7-.2.3-2.4.2a4.4 4.4 0 0 1-.8-.2l.5-.2 2.7-.2a.5.5 0 0 1 .2.1zm-1.8-1.3-.3.2h-2.4l.3-.4h1.6a3.6 3.6 0 0 1 .8.2z"/>
    <path d="M67.5 340.1a3 3 0 0 0-1.1 0c-1.4 0-2.8.3-4.3.3l-10.4-.2H51c-1.3 0-2.2-1-3.4-1.5a4.9 4.9 0 0 0-.7-.2 3.6 3.6 0 0 0 .6.6l1.2.7a1.3 1.3 0 0 1 .3.4l-.4.2a17.1 17.1 0 0 1-2.4.2l-9.7-.2h-8.7l-3.4.2h-3.1l-1.5-.2-.3.2a1 1 0 0 0 .2.3c.7.2 1.4.4 2.2.8l2.7-.3a9.7 9.7 0 0 1 1.7-.3l6.2.4c1.6.1 2.2 1.2 1.4 2.5l-.4.8h1a3.2 3.2 0 0 1 .3 0l9-.5 3.4.2h11.4a12.7 12.7 0 0 0 2-.3 3.2 3.2 0 0 0 1-.4l-1-.2a11.2 11.2 0 0 0-1.8-.2l-4.3.2h-4.2c-.3 0-.6-.4-1-.6.3-.4.6-1 1-1a33.1 33.1 0 0 1 5-.8l5.6.2 5.6-.3a2 2 0 0 0 1-.3c.2 0 0-.7 0-.7zm-21.1 3.4a10.1 10.1 0 0 1-2-.4 5.2 5.2 0 0 1 .7-1c.3 0 .6-.4.7-.3a11.5 11.5 0 0 1 1.3 1c-.3.2-.5.7-.7.7zm130.4 3.8a3.8 3.8 0 0 1-.7.2 35 35 0 0 1-5 .7c-3 0-5.8-.3-8.7-.4a2.1 2.1 0 0 0-.7 0c-.2 0-.2.3-.3.4l.4.2a13.7 13.7 0 0 1 1.4 0c.3 0 1.3-.5.6.6.2 0 .3.3.5.3l4 .2a2.2 2.2 0 0 1 .6.3l-.6.6a20.1 20.1 0 0 1-2.3 0l-3.3-.3-4.8-.2-7.2.2a2.3 2.3 0 0 1-.7 0 2.8 2.8 0 0 1 .7-.4l6-.5.4-.3c-.2 0-.3-.3-.5-.3h-3.4l-7 .2H138a4.4 4.4 0 0 1-2.8-.5 2.8 2.8 0 0 1-.4-.5l.6-.4c4-.2 8-1 12-.6a4 4 0 0 1 1 .3 2.8 2.8 0 0 1-1 .3h-5.2a1.7 1.7 0 0 0-.5 0l-1.5.6a8 8 0 0 0 1.4.3h5.8a2.8 2.8 0 0 0 1.5-.3c1-.7 2-.5 3.2-.6 1.5 0 3-.4 4.6-.4l3.7.2h10l5.6-.2a1.7 1.7 0 0 1 .7.4zm5.5-2.2-.3.4a5.3 5.3 0 0 1-1.3 0l-3-.4a.6.6 0 0 1-.3-.5 359.1 359.1 0 0 1 5 .5zm-8.4 0h-7a2.5 2.5 0 0 1-.6-.2l.5-.2 3.4-.2c1 0 2.2 0 3.3.2zm1-1.6s-.1.3-.3.3h-1.7a5.8 5.8 0 0 1-1 0l-.3-.3.4-.2h2.7zm-5.7 2.7-.5.2-6-.2h-7.5a34 34 0 0 1-4.5-.8l-.2-.2.3-.3c1.7.3 3.4-.8 5.2.2.5.3 1.2 0 1.8 0a7.4 7.4 0 0 1 1 .3l10 .6a1.2 1.2 0 0 1 .4.2zM125.9 358h-2.7l-8.7-.4c-1.2 0-2.4-.4-3.6-.4-1.2 0 0-1-.7-1.3.2-.2.4-.5.6-.5 1.7 0 3.4-.3 5-.2l4.7.4a2 2 0 0 0 .8-.3 3 3 0 0 0-.5-.8 1.4 1.4 0 0 0-.7-.2l-8.2-.7a7.2 7.2 0 0 1-.8-.2c-.4-.2-1-.3-1-.6s.2-.8.4-1a2.8 2.8 0 0 1 1-.7l4-2.4a2.3 2.3 0 0 0 .5-.4 3 3 0 0 0-.5 0c-2.7 1-5.3 2-8 2.6a22.2 22.2 0 0 1-4.8.8 35.1 35.1 0 0 1-5-.2l-5.3-.6c-.7 0-1.4-.6-2-.4a7.5 7.5 0 0 1-5.1-.6c-.4-.2-1 0-1.5 0l1 .5h.2l.7.6a4.5 4.5 0 0 1-1 .5l-2.2.2c-.3 0-.8.2-1 0-1.3-1.2-3-.7-4.5-1l-.6.1.5.3 1.6.6a2.8 2.8 0 0 1 .6.6 4.7 4.7 0 0 1-.7.3c-1.6.6-3.5-.2-5 1.1H73l-5.6-.2H50.6l-3.7-.2h-1a6 6 0 0 0 .7 1c0 .2.4.1.7.1H61l2.3-.2 4.6.5 4.3.4a2 2 0 0 1 .5.3l-.4.5-.6.1a5.4 5.4 0 0 0-.7.3 2 2 0 0 0 .7.3l2.5.2c.2 0 .4.2.6.4a2.9 2.9 0 0 1-.7.1l-6.8-.2a11.9 11.9 0 0 1-1.6-.3 7.8 7.8 0 0 0-1 0 1 1 0 0 0-.4 0c0 .1 0 .4.3.4a9.4 9.4 0 0 0 2.5.8l18.9.2 5 .2 7.9.5a38.8 38.8 0 0 1 4 .6c.5.1.7 0 .6-.5 0-.3 0-.7.3-.8a4.7 4.7 0 0 1 1.5-.2l11 .4h9.8l-.3-.4zm-36.7-.9a93 93 0 0 1-4 .2 9.3 9.3 0 0 1-1.8-.2L81 357a2.8 2.8 0 0 1-1.2-.5c-.2-.2-.5-.7-.4-.9a1.3 1.3 0 0 1 .9-.6l6.5.4a2.7 2.7 0 0 0 1 0c1.3-.4 1.3 1 2 1.4-.2.1-.4.4-.6.4zm3-4.7H86l-.2-.3c.3-.2.5-.5.8-.5h5a1.9 1.9 0 0 1 .8.3l.2.3zm3.9 3.4a3.8 3.8 0 0 1-.8-.6 4.2 4.2 0 0 1 1-.3l3-.2a4.7 4.7 0 0 1 .9.2l1.6.3a5.7 5.7 0 0 1-1.5.6h-3.4a2.1 2.1 0 0 1-.8 0zm9 1.5-6.6.5a2.5 2.5 0 0 1-1-.2 6.7 6.7 0 0 1-.6-.4c.3-.2.6-.5.9-.5h2l3.7-.8c.6 0 1.2 0 1.7.2.3 0 .5.3.8.5-.3.3-.5.7-.8.7z"/>
    <path d="M72.6 352.2a3.4 3.4 0 0 1 1 .4 7 7 0 0 1-1 .3 8.2 8.2 0 0 1-1.2 0 20.4 20.4 0 0 1-2.5-.3l-2.4-.6-1.8-.5c-.4 0-1-.2-1-.5-.4-.8-1-.6-1.7-.8h-.7a13 13 0 0 1-1.3-.9 12 12 0 0 0 1.3 0l4-.2h7a3 3 0 0 1 1.4.5c.2.1.2.5.3.7a3.4 3.4 0 0 1-.7.1l-5.1-.2a6 6 0 0 0-1.8.7 6 6 0 0 0 1.8 1c1.5.3 3 .2 4.4.3zm3.2-273.4a3.4 3.4 0 0 1-1-.3c-2.6-2-5.2-4.3-8.3-5.8-2.6-1-5-2.5-7.7-3.4a41 41 0 0 0-8.8-2 90.5 90.5 0 0 0-11.8-.5c-2.3 0-4.7.4-7.1.4-1.5 0-3-.3-4.4-.4a27.7 27.7 0 0 0-3.1.2 2.6 2.6 0 0 1-.8-.4c.2-.2.3-.4.5-.4a6.7 6.7 0 0 1 1.4-.3 53.9 53.9 0 0 0 5.7-.5c3.3-.6 6.7-.3 10-.4a85.8 85.8 0 0 1 9 0 35.4 35.4 0 0 1 15 4.7c3.2 2 6 4 9 6.1a12.6 12.6 0 0 1 2.2 2c.3.2.2.7.2 1zM167.2 5l-.3.2a32.4 32.4 0 0 0-10.8 6.4 76.5 76.5 0 0 0-7.8 7.5 68.3 68.3 0 0 0-8.5 11.6c-1.3 2.3-2.8 4.7-4 7.1a58.1 58.1 0 0 0-3 8 30.4 30.4 0 0 0-.8 5.7l-.2 3.4a1.3 1.3 0 0 1-.3.8 7 7 0 0 1-1 .7 5.5 5.5 0 0 1-.2-1 36 36 0 0 1 3.2-15.7l3-6.6.3-1c2.4-3.7 4.5-7.5 6.8-11a37.3 37.3 0 0 1 7.3-8.8A30.6 30.6 0 0 1 160 7l6-2a2.3 2.3 0 0 1 .7-.2z"/>
    <path d="M160.6 25.2a35.2 35.2 0 0 0-.3 4.6c.3 3.8.7 7.6 2.4 11.2.8 1.5 1.3 3.2 2 4.7a1.6 1.6 0 0 1-.6 2.2 1.5 1.5 0 0 1-2-.5c-1.3-1.4-2.4-3-3.6-4.4l-.5-.7-.2 1a3.2 3.2 0 0 0 0 .3 14.6 14.6 0 0 1 0 2c0 .7-.3 1.4-1.2 1.4a1.3 1.3 0 0 1-1.4-1.4 3.9 3.9 0 0 0 0-.7c0-.3-.3-.4-.4-.6a2.4 2.4 0 0 0-.5.5c-1 2.7-2 5.4-3.2 8-.2.5-1 1.1-1.3 1a3.1 3.1 0 0 1-1.3-1.6c-.5-1.3 0-2.7.2-4a1.6 1.6 0 0 0-.1-.5 2.9 2.9 0 0 0-.4.4l-3.4 5.8-1.4 2.5c-.7 1.4-1.6 1.6-2.5.4a4.4 4.4 0 0 1-.8-2 20 20 0 0 1 2.2-10.5 129.6 129.6 0 0 1 9.6-17.8c2.2-3.3 4.2-6.6 7-9.4 1.4-1.3 2.6-2.8 3.8-4.2.6-.6 1.3-1.3 2.2-1a1.1 1.1 0 0 1 .5 2 17.4 17.4 0 0 0-4.6 9 12.6 12.6 0 0 0-.3 2.3zM71.8 91c0 .6-.3 1-1 .8l-4.4-1h-1.1l.7.4c.7.6 1.8 1.1 1.4 2.2-.4 1.1-1.6 1.3-2.6 1.5a3 3 0 0 1-3-1.2 4.4 4.4 0 0 0-.8-.7 1.6 1.6 0 0 0-.7-.2v.6a5.7 5.7 0 0 1 1.4 3.7c0 .6.3 1.4-.6 1.7a2.3 2.3 0 0 1-2.4-.4 17.5 17.5 0 0 1-1.2-1.5l-.4-.4-.3.6a6.8 6.8 0 0 1 .7 3.8v3.7l-.2 1.3c0 1-.2 1.5-1.2 1.7a1.6 1.6 0 0 1-1.7-1.5A41.6 41.6 0 0 0 51 95a47 47 0 0 0-3.8-7.3A35.1 35.1 0 0 0 41 81a58 58 0 0 0-9.3-6c-1.2-.8-1.3-1.6-.2-2.6l.4-.2H39a33.1 33.1 0 0 1 10 2.3 51 51 0 0 1 12.6 7c1.6 1.1 2.9 2.7 4.3 4 1.4 1.3 3 2.3 4.4 3.6.6.5 1.4 1 1.4 2zm106.5 74.6a16 16 0 0 1-3.8 6 42.4 42.4 0 0 0-4.2 5.2 12.8 12.8 0 0 0-1.1 3c-1 3-4.2 3.3-6.2 1.5-1.6-1.5-3.1-3-5.2-4l-4.8-2a9 9 0 0 1-5.6-6.2 11.5 11.5 0 0 1 .4-6.6 20 20 0 0 1 5-8.4 18.2 18.2 0 0 1 8.8-4.4 30.5 30.5 0 0 1 3.5-.6 13.9 13.9 0 0 1 8.7 1.8 11.4 11.4 0 0 1 5 7.4 14 14 0 0 1-.5 7.3zm-33.1-28.4a4.3 4.3 0 0 0 1.4-.4 11.4 11.4 0 0 0 4.7-6.2 2.4 2.4 0 0 1 1-1.3c.8-.4 1.3.3 1.6 1l1.3 3.7a2 2 0 0 0 1.2 1c3.3 1 6.3 0 9.4-1a11.3 11.3 0 0 1 2.2-.5.8.8 0 0 1 .7 1.3 4.8 4.8 0 0 1-1.5 1.2 16.5 16.5 0 0 1-8 1.6H158l-.6.2a2.2 2.2 0 0 0 .4.3 3.7 3.7 0 0 1 .8.2 10.4 10.4 0 0 1 1 1c-.4.4-.7 1-1.2 1-2 .4-3-1-3.8-2.3a17.2 17.2 0 0 1-1.7-3.2c0-.2-.2-.4-.3-.4a.9.9 0 0 0-.5.3c-1.8 2-3.5 4.2-5.2 6.3l-1.4 1.5a1 1 0 0 1-1.6.3 1.2 1.2 0 0 1-.3-1.8c1.2-1.2.3-1.4-.5-1.8l-1.5-.7a12 12 0 0 0-.4 1.6 15.3 15.3 0 0 1-4.8 9l-2.1 2.2c-.4.4-1 1-1.4.4a2 2 0 0 1-.2-1.8 39.8 39.8 0 0 1 3-3.7 15.6 15.6 0 0 0 3.3-7.6 26.3 26.3 0 0 1 1-4.2 1.5 1.5 0 0 1 1.3-.7 2 2 0 0 1 1.2.8c.8 1 1 2.4 2.7 2.7zm2.5.2-2 1.1-.3.3a2.1 2.1 0 0 0 .3.2c1.2.4 2-.2 2-1.6zm7.7-.6.3.4v-.6l-.5-.5a2.3 2.3 0 0 0 .2.8zm-38.5-3.5-3-8.4a16.8 16.8 0 0 0-5.7-6.5c-2-1.5-4.1-3-6.8-2.5a3.7 3.7 0 0 0-1.8.7c-3 2.6-3.1 6.1-3 9.6a13.7 13.7 0 0 0 1 4.8c1 3 2.4 5.7 3.8 8.5a31.3 31.3 0 0 0 2.7 4l1.7 1.6a6.2 6.2 0 0 0 4.3 1.6 6.3 6.3 0 0 0 5.5-3.5c1.4-3.2 2.4-6.4 1.3-9.9zm-14.8-1.5a13.2 13.2 0 0 1-1.2-3.2 42.7 42.7 0 0 1-.2-5 1 1 0 0 1 .2-.5 6.9 6.9 0 0 1 .6-.6 4.2 4.2 0 0 1 .3.8l.2 3.7 1 4v.3l-.1 1.1c-.3-.2-.7-.3-.8-.6zm75.7-23.5a72.8 72.8 0 0 0-2.8-8.6 18 18 0 0 0-10.3-10.3 5.3 5.3 0 0 0-4 0 6.6 6.6 0 0 0-3.2 4.7 24.8 24.8 0 0 0-.3 6.2 19.8 19.8 0 0 0 2.4 8l3.5 6.4a11 11 0 0 0 5 4.7 6.5 6.5 0 0 0 7.5-2.3 11.1 11.1 0 0 0 1.8-5c.2-1.2.7-2.6.4-3.8zm-14.4-2.7-1-.6a42.2 42.2 0 0 1-1.2-4.8 15.3 15.3 0 0 1 0-3 1.2 1.2 0 0 1 .3-.7 3.5 3.5 0 0 1 .6-.6 4 4 0 0 1 .2.8l.3 4.5a4 4 0 0 0 .2.8l.8 2.6zm-14.2 255.2-.5.6h-13.5l-2.7-.2a1.9 1.9 0 0 1-.4-.2l.4-.2h7.3l8.5-.2a2.7 2.7 0 0 1 .9.3zm-25 1.3a5.1 5.1 0 0 1-.6.2l-2.7.7h-4.2a1.6 1.6 0 0 1-1-.6c-.5-.5-.5-1 .4-1l7.5.3zm32.8-2.9-.1.4c-1.7.5-3.2 1.3-5 1l-.2-.2a1 1 0 0 1 .2-.3 6 6 0 0 1 5-.9zm-67.3-2.4c-.1.1-.3.4-.5.4a93 93 0 0 1-4 .2 9.3 9.3 0 0 1-1.8-.3H81a2.8 2.8 0 0 1-1.2-.7c-.2 0-.5-.7-.4-.8a1.3 1.3 0 0 1 .9-.6l6.5.4a2.7 2.7 0 0 0 1 0c1.2-.4 1.3 1 1.9 1.4zm16.3 0c-.2.2-.5.6-.8.6l-6.7.5a2.5 2.5 0 0 1-1-.2 6.7 6.7 0 0 1-.6-.4c.3-.2.6-.5.9-.5h2l3.7-.8 1.7.1zm-4.2-1.5a5.7 5.7 0 0 1-1.5.6h-3.4a2.1 2.1 0 0 1-.8 0 3.8 3.8 0 0 1-.8-.6 4.2 4.2 0 0 1 1-.3l3-.2a4.7 4.7 0 0 1 .9.2zm-9.2-3-.3.2H86l-.2-.3c.3-.2.5-.5.8-.5h5a1.9 1.9 0 0 1 .7.3c.2 0 .3.2.3.3zM47 342.7c-.3.3-.5.8-.7.8a10.1 10.1 0 0 1-2-.4 5.2 5.2 0 0 1 .6-1c.4-.2.7-.4.8-.3a11.5 11.5 0 0 1 1.3 1z"/>
  </g>
</svg>
