<svg xmlns="http://www.w3.org/2000/svg" width="721.1" height="865" data-name="Layer 1" viewBox="0 0 721.1 865">
  <path d="M544.6 593.3c-1.6-2-7-2.8-10-1.7a851 851 0 0 0-47.4 19.7c-5.7 2.6-7.3 2.2-7.2-4.2 0-4.8-1-9.5-1.7-14.3-4-29.9-22.7-53.4-35.1-79.6-3.6-7.6-11.2-13.6-21.6-7.7-6 3.4-12.7 5.6-18.9 8.7-11.5 6-23 12-34.1 18.4-3.9 2.3-4.7 4.6-1.2 9.8 14 21.2 26.6 43.2 39.7 65 3.5 5.8 2.8 10.5-4 14-10 5.4-19.6 11.5-29.4 17-10.2 6-10.8 15-1.4 21.6 18.8 13 37.5 26.5 56.4 39.6a3140.01 3140.01 0 0 0 46 31c8.1 5.5 13.5 2.1 16.9-6 4-9.8 8-19.5 12.6-29.8 3.89-7.2 7.59-14.5 11.1-21.9a3000.01 3000.01 0 0 0 31.5-68.3c1.4-3 0-8.5-2.2-11.3zM444.4 538c12.8 22 26.4 44 25 71-.1 2.2.2 4.4 0 6.5l-1.8 9.6c4-.5 8.1-.2 11.7-1.6 13.8-5.4 27.4-11.4 41.2-17 3-1.2 6.2-2.2 9.3-3.2l-4.7 8.7c-4.8 8-9.6 16-13.7 24.3-9 18-18 36.2-26.5 54.5-3 6.6-5.6 7.6-11.3 2.6-11-9.5-22.3-18.4-33.7-27.3-4.2-3.2-9.1-5.5-13.7-8.2a45 45 0 0 1-4-3 44.5 44.5 0 0 1 3.6-3.7l21.7-17.5c6-4.7 6-10.2 2.6-16.4L416.8 557c-.9-1.5-3.1-3.8-3-3.9 6.7-6 13.3-12.4 20.7-17.5 2-1.3 8.6.2 9.9 2.3zM173.6 280.5c16-3.6 30.9-7.2 45.9-10.7 4.5-1 6.5.7 5.2 5.7-2.9 11-6.1 21.8-8 33-1.7 9.1-1.5 18.6-2.5 28-.8 7.7 3.7 9.5 9.7 8.2a3084.7 3084.7 0 0 0 60.8-13.6c8.7-2.1 17-5.4 25.8-7.6 2.2-.5 5.2.9 7.5 2.1.5.3-.7 3.7-1.3 5.7-6.6 21-20.4 37.5-33.1 54.9-4.2 5.7-6 13.2-9.4 19.6-1.4 2.6-4 4.6-6 6.9-.8-3-2.6-6-2.3-9 1.7-18.8 15.4-31 25.6-45 3.8-5.3 7.7-10.5 11.3-15.8.7-1.1.5-2.9.7-4.4-1.5 0-3.1-.5-4.5-.2-20.8 5-41.6 10.1-62.4 14.9-6 1.4-12.2 1.8-18.4 2.2-7.8.5-15.6-8.6-14.5-17.7 1.7-15 4-29.7 6.4-44.5.6-4.3 2-8.5 3-12.8-4.3 1.4-8.6 3.2-13.1 4.2-18.6 4.6-37.2 8.9-55.8 12.9-1.4.3-4.8-2-4.7-3 0-7 1-13.9 1.1-20.8.3-12.5.5-25 .3-37.5 0-4.7-1-9.5-1.7-14.2-.8-6.2-1-10.7-10.5-8.4-13.2 3.2-27.2 3.7-41 4.6-25.8 1.8-51.6 3-77.5 4.3-4.2.2-10.3 2-10.2-5.3.1-7.3 6.2-5 10.4-5.3 30.2-1.4 60.3-2.4 90.4-4.5 11-.7 21.8-4.5 32.8-5.6 3.8-.3 11.1 3 11.6 5.5a364.5 364.5 0 0 1 5 45.9c.5 9.7-1.7 19.4-2.1 29.2 0 1.3 3.8 4.3 5.4 4 6.4-1.5 12.6-3.8 20-6zM454 91.1c-3.6 3.2-7 7-11.3 9-19.3 8.8-25.53 25.77-36.13 43.17-4.3 7.2-10.37 16.23-12.37 25.13-.7 3.2-2.8 6.2-4.2 9.3-2.2-3.2-6.2-6.5-6-9.6.6-15.7 2.9-31.3 3.4-47a67.4 67.4 0 0 0-12-38.4l-.7-.8c-11.3-16.3-18.3-18 6-29.3 8.7-4.1 15.6-12.3 23.9-19.1L422.2 9c1.8-2.5 3.3-5.6 5.7-7.2 2.4-1.6 5.7-1.3 8.5-1.9l.8 6.5c2.2 17.7 3.6 35.6 6.9 53.2 1.1 6 6.9 11.4 11 16.7 4.2 5.5 3.7 10.3-1.1 14.7zM154.2 808a788.3 788.3 0 0 0-42.5 13.6c-16.4 6-32.6 12.6-49 18.8-1.7.6-4-.1-5.9-.2.5-2 .3-5.1 1.5-5.8 10.6-5.5 21-11.6 32.1-15.5 17.3-6 35-10.2 52.6-15.5 1-.3 2-5.6 1.7-5.7-5.4-2.6-11-4.6-16.4-7-2.9-1.2-5.6-2.8-8.4-4.2 1.8-2.8 2.9-7.2 5.4-8.3 27.9-12 56-23.4 84-35 3.9-1.7 7.6-3.7 11.4-5.5l-12-5c-1.9-.7-4-1-5.6-2-1.5-1.1-2.6-3-3.9-4.4 1.8-1.4 4-4.3 5.2-4 12.8 3.7 25.4 7.9 38 12-1 2.2-1.5 5.8-3.2 6.5-20.5 9-41.3 17.6-61.9 26.4-9.7 4.1-19.3 8.6-29 12.8-6 2.6-6.7 5-.6 8.7 7 4.4 12.6 9.9 6.5 19.2zM457 391.4c3.9 6.4 2.3 12.5-3.6 15-5.6 2.4-12.9 2-16.1-5.4a121.7 121.7 0 0 1-4.4-13.2c-1.6-5.4-4.3-4.4-6.6-.8a92.3 92.3 0 0 0-7.6 14c-2.4 5.8-6.7 10.8-12.3 7.7-5.5-3-12.8-8.4-9.7-16.8a87.7 87.7 0 0 1 12.3-23.7c5.9-7.5 4-12.1-1.6-18a58.5 58.5 0 0 1-9.8-14.2c-4-8 .7-13.7 7.4-16.5 3.2-1.4 9 0 11.8 2.3 3 2.5 3.3 7.8 5.6 11.4 1.3 2.2 4 3.5 6.2 5.2a47 47 0 0 1 2.2-5.9c5.6-10.5 11.3-21 24.1-25.7 14.3 5.5 10.7 16.8 4.2 28-5.3 9.3-11 18.4-14.7 28.2-1.4 3.5 2.3 9.2 4.4 13.6a152.7 152.7 0 0 0 8.2 14.8zm244.4 186c-1.4 2.2-.9 6.7.5 9.3a56.8 56.8 0 0 0 9.8 14c8.5 8.5 1.6 15.5-1.5 22.8-.3.7-5.1.7-6.2-.4a171 171 0 0 1-15.8-19.2c-3-4.3-5-5.2-8.5-1-5.2 6.2-10.6 12.1-15.9 18.1-4.5 5.1-8.8 9.7-16.7 4.8-7.8-4.8-3.2-10.6-1.4-16.7 6.3-8.5 11.4-17.1 18.2-24.1 5-5.2 4.7-8.5 1-13.7-3.5-4.8-5.9-10.5-9.3-15.4-4.5-6.4.1-10.1 4-13.7 4.4-4.2 7.7-1 11 2.6 4.4 5 9.3 9.7 14 14.5 4-4.7 7.9-9.6 12.2-14 2.6-2.6 5.7-6.2 8.9-6.4a32 32 0 0 1 15 3.3c1 .4.2 7.5-1.6 10.3-5.5 8.6-12.3 16.3-17.7 24.9zM101 677.4c-6.9 7-8 12.9-2 21a47.4 47.4 0 0 1 8.3 16.9c1.1 4.7-.6 10-1 15.1-5.4-2.3-11.3-3.8-15.9-7.2-2.7-2-3.2-7-4.8-10.7-.8-1.8-1.9-5-2.7-5-2.5 0-5.9.7-7.3 2.5a127.6 127.6 0 0 0-11.3 16.7c-2.6 4.6-4.5 5.1-8.5 1.2-8.3-8.1-8.8-13.8-1.2-23 3.8-4.4 7.3-9.2 11.4-13.4 5.5-5.5.5-9-1.8-14.3a136.7 136.7 0 0 0-8.4-15.8c-5.1-8.2-1.4-14.2 5.3-18.3 4.7-2.8 11-6 12 4.9.5 4.9 5 9.3 7 14.1a43.4 43.4 0 0 1 2.1 6.6l2.2 4 8-8.2c6-8.7 7.1-21.6 20.3-23.9 3.7-.6 7.7.8 11.7 1.3-.5 3.2.2 7.2-1.5 9.4a247 247 0 0 1-21.8 26.1zm183.86-163.2c-.66-6.9-2.16-13-4.56-18.4-4.5-10.3-21.5-16.5-32.8-14-15 3.5-18.4 15.5-22.6 27.6-6.7 19.1 7.5 44.7 33.6 38.5 9.6-2.3 27.85-3.16 26.75-20.26-.3-4-.3-8.1-.39-13.44zm-41.6-15.18 3.15-7.33c7.89-6.44 10.33-3.34 12.68-1.51 2.33 1.38 3.64 1.86 4.24 2.46 4 3.3 8.17 7.26 10.07 11.76 1.1 2.7-2 7.9-4.1 11.3-2 3.2-5 7-8.2 8.1-6.2 2-14.8 4-17.5-3.4-2.7-7.5.05-13.28-.35-21.38zM629.6 247.8c-5.8-.4-11.3-.8-16.3-2.5-14.9-5.3-18.5-15.7-13.3-33 7.9-25.8 42.5-34.7 62.2-16.8 12.1 11 10.9 23.5 1.7 35.2-8.6 11-20.8 14.6-34.3 17.1zm.6-47.7c-3.7 2.3-7.2 5-11.1 6.7-10.4 4.2-8.8 13.2-8 21 1 7.8 7.8 8.3 14.4 7.7 2.9-.2 5.8.5 8.5 0 16.9-3.8 23.8-8.3 21.9-22.4-1.3-10-8.5-14-25.7-13zm17.1 226.2c-2.8 11.7-4.6 22.7-8.9 32.7-4.4 10.1-18.2 14.8-29.7 12.3-9.8-2-16-9.6-17-21.9-.6-8.2-1-16.7.1-24.9 1.6-11.7 15.9-19.8 32.4-19.6 11.8 0 20.5 7.7 23.1 21.4zm-45 24.7c6 9.6 13 12.2 19.7 5.7 8.8-8.6 15.4-19.2 14.3-32.2-.3-3.1-4.7-8-7.8-8.6-17.8-3.1-32.6 15.9-26.2 35zM324.1 859.9c-9.4 2.8-18.2 9-27.5 1.6-2.5-2-5.6-3.9-7.2-6.5-8-14-6.2-27 6.5-37.3 13-10.7 20.3-15 36.8-3.1 14.3 10.4 22.8 24 .2 38.8-2.9 1.8-5.5 4-8.8 6.5zm.6-15.5c11.7-4.6 17.6-8.3 4.2-19.4-.8-.6-1.4-1.6-2.2-2.2-6.7-4.5-13.1-5.9-19.8.6-7.4 7.2-11.5 19.9-7.7 25.6 5.4 7.8 13.7 6.6 25.5-4.6z"/>
</svg>
