<svg width="170" height="45" viewBox="0 0 170 45" fill="none" xmlns="http://www.w3.org/2000/svg">
<g clip-path="url(#clip0_42_23)">
<path d="M9.88064 29.6971V35.8534H11.8509L15.4973 29.6971H9.88064ZM30.877 16.329H30.9064C32.612 16.329 33.9941 14.9512 33.9941 13.2508C33.9941 11.5505 32.612 10.1727 30.9064 10.1727H30.877H30.1124L26.466 16.3583L30.877 16.329ZM9.88064 10.1727V17.1792L20.32 10.1727H9.88064ZM30.9064 29.6971H29.8772L20.7023 35.8534H30.877C32.5826 35.8534 33.9647 34.4756 33.9647 32.7753C33.9941 31.0749 32.612 29.6971 30.9064 29.6971ZM40.8753 22.3388L33.1413 27.5277C35.1998 28.4072 36.6407 30.43 36.6407 32.8046C36.6407 35.9707 34.0823 38.5212 30.9064 38.5212C30.8476 38.5212 19.0555 38.5212 16.8206 38.5212L7.23404 44.9707C7.17523 45 7.11642 45.0293 7.0576 45.0293C6.88116 45.0293 6.73413 44.8828 6.73413 44.7069C6.73413 44.6482 6.76354 44.5896 6.79294 44.531L10.3217 38.5505H7.58692C7.41048 38.5505 7.26345 38.4039 7.26345 38.228V27.4104C7.26345 27.2345 7.41048 27.088 7.58692 27.088H19.5554C19.7319 27.088 19.8789 27.2345 19.8789 27.4104C19.8789 27.4691 19.8495 27.557 19.8201 27.6157L14.2328 37.0847L33.1707 24.3323H3.9699H0.323473C0.147033 24.3323 0 24.1857 0 24.0098C0 23.8925 0.0588134 23.7753 0.17644 23.7166L7.26345 18.9381V10.1433V7.8567C7.26345 7.6808 7.41048 7.53422 7.58692 7.53422H24.2311L31.4946 2.63846L35.3762 0.0293351C35.435 1.90884e-05 35.4939 -0.0292969 35.5527 -0.0292969C35.7291 -0.0292969 35.8761 0.117283 35.8761 0.293179C35.8761 0.351811 35.8467 0.410443 35.8173 0.469074L31.6416 7.56354C34.4646 7.91533 36.6407 10.3192 36.6407 13.2215C36.6407 16.3876 34.0823 18.9381 30.9064 18.9381C30.877 18.9381 30.8476 18.9381 30.8182 18.9381H24.9369H22.4667C22.2903 18.9381 22.1432 18.7915 22.1432 18.6157C22.1432 18.557 22.1726 18.4984 22.1726 18.4691L28.4069 7.91533L7.9104 21.6938H37.1112H40.7577C40.9341 21.6938 41.0811 21.8404 41.0811 22.0163C41.0517 22.1629 40.9635 22.2801 40.8753 22.3388Z" fill="#0A0A0A"/>
<path d="M63.9889 16.7101L61.6658 17.9707C61.3129 17.2085 60.7247 15.5961 58.7839 15.6547C57.7253 15.684 56.7254 16.7394 56.7254 18.2052C56.7254 19.7003 57.4018 20.7557 59.4897 22.0163C62.3421 23.7459 63.7536 25.5928 63.7536 28.6417C63.7536 32.101 61.754 34.5049 58.5192 34.5049C55.2257 34.5049 53.7554 32.3355 52.8438 29.6971L55.4021 28.4365C55.9903 29.8437 56.549 31.5147 58.1958 31.544C59.5485 31.5733 60.6071 30.6059 60.6071 28.9642C60.6071 27.4984 60.019 26.4137 57.637 25.0652C55.1375 23.5994 53.5789 21.6059 53.5789 18.557C53.5789 15.2443 55.902 12.7231 58.6957 12.7231C62.4597 12.6938 63.5772 15.8013 63.9889 16.7101Z" fill="#0A0A0A"/>
<path d="M68.2237 13.0163H72.3701C76.1635 13.0163 78.4867 15.6547 78.4867 19.9642C78.4867 24.3323 76.193 27 72.4289 27H71.4291V34.0945H68.1943V13.0163H68.2237ZM71.4291 23.9511H72.1642C74.0169 23.9511 75.1049 22.4854 75.1049 19.9349C75.1049 17.4723 74.0169 16.0358 72.1348 16.0358H71.4291V23.9511Z" fill="#0A0A0A"/>
<path d="M89.1315 29.3746H84.5147L83.5442 34.0945H80.4565L85.1028 13.0163H88.7198L93.3073 34.0945H90.0725L89.1315 29.3746ZM85.0734 26.4723H88.5728L86.8672 18.0586H86.779L85.0734 26.4723Z" fill="#0A0A0A"/>
<path d="M97.248 13.0163H101.159C105.041 13.0163 107.393 15.5375 107.393 19.5831C107.393 22.1042 106.599 24.0098 105.129 25.2117L108.305 34.0651H104.835L102.277 26.4137C101.865 26.4723 101.483 26.5016 101.071 26.5016H100.512V34.0651H97.2774V13.0163H97.248ZM100.483 23.5407H100.983C102.924 23.5407 104.041 22.1629 104.041 19.671C104.041 17.3257 102.924 16.0652 100.983 16.0652H100.483V23.5407Z" fill="#0A0A0A"/>
<path d="M117.48 25.5635L116.068 28.202V34.0945H112.833V13.0163H116.068V23.1596L120.215 13.0163H123.773L119.597 22.2215L124.214 34.0652H120.538L117.48 25.5635Z" fill="#0A0A0A"/>
<path d="M128.36 13.0163H133.154C136.418 13.0163 138.623 15.1857 138.623 18.4984C138.623 20.5798 137.653 22.3681 136.153 23.1596C137.859 23.8632 138.976 25.7394 138.976 28.0554C138.976 31.6906 136.624 34.1238 133.154 34.1238H128.39V13.0163H128.36ZM131.507 22.0749H132.86C134.33 22.0749 135.242 20.8143 135.242 18.8209C135.242 17.0619 134.3 15.8599 132.889 15.8599H131.507V22.0749ZM132.948 31.2508C134.565 31.2508 135.624 29.9609 135.624 27.9967C135.624 26.1205 134.565 24.8599 132.918 24.8599H131.536V31.2508H132.948Z" fill="#0A0A0A"/>
<path d="M148.827 34.4463C144.769 34.4463 142.476 30.5766 142.476 23.5408C142.476 16.5343 144.769 12.6646 148.827 12.6646C152.886 12.6646 155.179 16.5636 155.179 23.5701C155.179 30.5766 152.886 34.4463 148.827 34.4463ZM148.827 31.2509C150.68 31.2509 151.768 28.5245 151.768 23.5408C151.768 18.5864 150.68 15.86 148.827 15.86C146.945 15.86 145.887 18.5864 145.887 23.5408C145.887 28.5245 146.945 31.2509 148.827 31.2509Z" fill="#0A0A0A"/>
<path d="M161.943 23.4235L157.796 12.987H161.443L164.089 20.5212L166.53 12.987H169.912L165.854 23.658L170 34.0945H166.383L163.707 26.531L161.149 34.0945H157.796L161.943 23.4235Z" fill="#0A0A0A"/>
</g>
<defs>
<clipPath id="clip0_42_23">
<rect width="170" height="45" fill="white"/>
</clipPath>
</defs>
</svg>
