<svg width="359.24" height="484.53" viewBox="0 0 299 275" fill="none" xmlns="http://www.w3.org/2000/svg">
<path d="M288.987 140.847C287.684 139.074 285.133 138.921 282.927 138.946L10.7596 141.397C8.37612 141.461 5.62165 141.618 4.22982 143.547C3.30438 144.819 3.25559 146.5 3.2291 148.061L2.65025 196.642C2.62833 198.696 2.68904 200.985 4.11166 202.457C5.53429 203.929 8.09237 204.048 10.2723 203.99L284.655 196.712C285.852 196.796 287.047 196.523 288.088 195.926C289.563 194.86 289.703 192.787 289.799 190.969C290.224 175.631 290.272 160.278 289.944 144.91C289.907 143.511 289.866 141.985 288.987 140.847ZM284.869 149.439C284.72 162.151 284.567 174.862 284.412 187.574C284.498 188.564 284.275 189.557 283.775 190.416C282.956 191.574 281.263 191.721 279.829 191.759L18.5774 198.688C17.3814 198.72 16.0305 198.671 15.2421 197.75C14.7381 196.962 14.5269 196.022 14.6454 195.094C14.8197 180.329 15.0166 165.566 15.2362 150.805C15.1474 149.928 15.3705 149.048 15.8664 148.32C16.5341 147.573 17.6611 147.5 18.6622 147.482C105.992 145.68 193.33 144.947 280.676 145.283C281.89 145.293 283.224 145.351 284.097 146.244C284.969 147.137 284.941 148.317 284.886 149.447L284.869 149.439Z" fill="black"/>
<path d="M53.3033 171.172C55.9915 168.836 59.8826 168.648 63.4206 168.588C118.195 167.644 172.972 167.322 227.751 167.622C230.774 167.644 234.079 167.76 236.364 169.735C235.338 172.978 231.076 173.583 227.672 173.597L63.6344 174.41C59.8746 174.425 55.5477 174.183 53.2701 171.198L53.3033 171.172Z" fill="black"/>
<path d="M35.1373 170.935C35.1735 170.952 35.2043 170.979 35.2265 171.012C35.2486 171.046 35.2612 171.085 35.2629 171.125C35.2646 171.165 35.2553 171.205 35.2361 171.24C35.2168 171.275 35.1884 171.304 35.1537 171.324C34.0093 171.879 32.7409 172.13 31.4711 172.051L23.0273 172.224C22.0618 172.244 20.9384 172.195 20.3312 171.479C20.2996 171.444 20.281 171.4 20.2787 171.353C20.2763 171.306 20.2903 171.259 20.3183 171.221C20.8863 170.475 22.0378 170.456 22.9995 170.515C25.3779 170.648 27.7622 170.633 30.1386 170.472C31.8221 170.374 33.6239 170.212 35.1373 170.935Z" fill="black" stroke="black" stroke-width="4" stroke-miterlimit="10"/>
<path d="M28.0711 178.62C28.0539 178.656 28.0277 178.685 27.9952 178.707C27.9626 178.729 27.9249 178.741 27.8859 178.743C27.8469 178.746 27.808 178.737 27.7732 178.72C27.7384 178.702 27.7089 178.675 27.6877 178.643C27.1321 177.498 26.8811 176.229 26.9589 174.959L26.7804 166.516C26.7544 165.545 26.8084 164.427 27.53 163.814C27.5644 163.783 27.6086 163.766 27.6547 163.765C27.7008 163.764 27.7458 163.779 27.7818 163.808C28.5229 164.37 28.5172 165.498 28.4898 166.489C28.3565 168.865 28.3703 171.248 28.5311 173.622C28.6115 175.276 28.7987 177.113 28.0711 178.62Z" fill="black" stroke="black" stroke-width="4" stroke-miterlimit="10"/>
<path d="M296.739 10.6423C296.772 9.5505 296.518 8.46909 296.002 7.50615C295.003 5.99721 292.965 5.66104 291.17 5.4881C281.078 4.55117 270.929 4.65918 260.797 4.76674C177.383 5.6841 93.9613 6.65538 10.5328 7.68057C8.05596 7.74627 5.19167 7.92404 3.71681 9.92276C2.69274 11.3157 2.65738 13.1829 2.6691 14.9047C2.78747 31.5284 2.903 48.1522 3.01572 64.7761C3.05125 66.1155 3.09015 67.582 3.92407 68.6203C5.06475 70.0237 7.14626 70.0957 8.95319 70.0563L286.426 63.1463C289.879 63.0547 293.851 62.7118 295.864 59.9099C297.149 58.1113 297.265 55.7584 297.317 53.5515C297.679 39.2507 297.486 24.9476 296.739 10.6423ZM291.915 14.3756C291.761 27.3362 291.607 40.3222 291.454 53.3337C291.431 54.6831 291.311 56.2472 290.202 57.0146C289.476 57.4218 288.645 57.6061 287.814 57.5446L13.6665 64.3833C14.0986 49.1023 14.5421 33.8209 14.997 18.5393C15.0418 17.0281 15.1586 15.3539 16.2602 14.3236C17.3618 13.2934 18.7799 13.3152 20.1799 13.295C109.442 11.8041 198.716 10.9999 288.003 10.8825C289.266 10.849 290.738 10.9796 291.47 12.0121C291.858 12.7356 292.013 13.5608 291.915 14.3756V14.3756Z" fill="black"/>
<path d="M36.9617 38.2822C36.9957 38.3007 37.0242 38.3278 37.0444 38.3607C37.0646 38.3937 37.0757 38.4314 37.0768 38.47C37.0778 38.5087 37.0686 38.5469 37.0502 38.5809C37.0318 38.6149 37.0047 38.6434 36.9718 38.6637C35.8275 39.2183 34.5601 39.471 33.2904 39.3976L24.8082 39.6225C23.8412 39.6482 22.7191 39.5846 22.1054 38.8459C22.0761 38.8087 22.0596 38.763 22.0584 38.7157C22.0571 38.6683 22.0712 38.6219 22.0984 38.5831C22.6645 37.847 23.8184 37.8249 24.7791 37.8843C27.1569 38.0135 29.5404 37.9984 31.9165 37.8392C33.6363 37.7172 35.4484 37.5504 36.9617 38.2822Z" fill="black" stroke="black" stroke-width="4" stroke-miterlimit="10"/>
<path d="M29.8824 45.9606C29.8639 45.9945 29.8368 46.023 29.8038 46.0432C29.7709 46.0634 29.7331 46.0745 29.6945 46.0756C29.6558 46.0766 29.6175 46.0674 29.5835 46.049C29.5495 46.0306 29.521 46.0036 29.5007 45.9707C28.9458 44.827 28.693 43.5604 28.7665 42.2915L28.5841 33.8133C28.5584 32.8469 28.6136 31.7256 29.3612 31.112C29.3985 31.0828 29.4442 31.0663 29.4916 31.0651C29.5389 31.0638 29.5854 31.0778 29.6242 31.105C30.3607 31.6708 30.3817 32.7815 30.3234 33.7841C30.1941 36.1605 30.2091 38.5426 30.3683 40.9172C30.4481 42.6456 30.6149 44.4566 29.8824 45.9606Z" fill="black" stroke="black" stroke-width="4" stroke-miterlimit="10"/>
<path d="M227.381 38.7626C225.401 40.605 222.435 40.7686 219.728 40.8149C166.201 41.8557 112.674 42.1444 59.1466 41.6809C56.2429 41.6561 53.0478 41.5203 50.8994 39.5668C52.7829 36.0133 57.5833 35.5466 61.6233 35.5328L215.777 34.8967C220.021 34.8859 225.038 35.2364 227.383 38.8304L227.381 38.7626Z" fill="black"/>
<path d="M288.987 210.847C287.684 209.074 285.133 208.921 282.927 208.946L10.7596 211.397C8.37612 211.461 5.62165 211.618 4.22982 213.547C3.30438 214.819 3.25559 216.5 3.2291 218.061L2.65025 266.642C2.62833 268.696 2.68904 270.985 4.11166 272.457C5.53429 273.929 8.09237 274.048 10.2723 273.99L284.655 266.712C285.852 266.796 287.047 266.523 288.088 265.926C289.563 264.86 289.703 262.787 289.799 260.969C290.224 245.631 290.272 230.278 289.944 214.91C289.907 213.511 289.866 211.985 288.987 210.847ZM284.869 219.439C284.72 232.151 284.567 244.862 284.412 257.574C284.498 258.564 284.275 259.557 283.775 260.416C282.956 261.574 281.263 261.721 279.829 261.759L18.5774 268.688C17.3814 268.72 16.0305 268.671 15.2421 267.75C14.7381 266.962 14.5269 266.022 14.6454 265.094C14.8197 250.329 15.0166 235.566 15.2362 220.805C15.1474 219.928 15.3705 219.048 15.8664 218.32C16.5341 217.573 17.6611 217.5 18.6622 217.482C105.992 215.68 193.33 214.947 280.676 215.283C281.89 215.293 283.224 215.351 284.097 216.244C284.969 217.137 284.941 218.317 284.886 219.447L284.869 219.439Z" fill="black"/>
<path d="M35.5195 241.797C35.5535 241.816 35.582 241.843 35.6022 241.876C35.6224 241.909 35.6336 241.946 35.6346 241.985C35.6356 242.024 35.6264 242.062 35.608 242.096C35.5896 242.13 35.5626 242.158 35.5296 242.179C34.3844 242.73 33.117 242.98 31.848 242.904L23.3658 243.129C22.3988 243.155 21.2769 243.1 20.6629 242.352C20.6337 242.315 20.6172 242.269 20.616 242.222C20.6147 242.175 20.6287 242.128 20.656 242.09C21.2221 241.353 22.3759 241.331 23.3365 241.382C25.7142 241.514 28.0978 241.502 30.474 241.346C32.2033 241.257 34.0146 241.065 35.5195 241.797Z" fill="black" stroke="black" stroke-width="4" stroke-miterlimit="10"/>
<path d="M28.4489 249.475C28.4304 249.509 28.4033 249.538 28.3703 249.558C28.3373 249.578 28.2996 249.589 28.2609 249.59C28.2223 249.591 28.184 249.582 28.15 249.564C28.116 249.545 28.0874 249.518 28.0672 249.485C27.5151 248.341 27.2653 247.074 27.3415 245.806L27.1166 237.329C27.091 236.363 27.1461 235.241 27.8938 234.628C27.9311 234.598 27.9768 234.582 28.0241 234.581C28.0715 234.579 28.118 234.593 28.1567 234.621C28.8932 235.186 28.9142 236.297 28.8644 237.299C28.7322 239.676 28.7444 242.058 28.9008 244.433C29.0145 246.16 29.1814 247.971 28.4489 249.475Z" fill="black" stroke="black" stroke-width="4" stroke-miterlimit="10"/>
<path d="M228.711 239.269C226.725 240.891 223.945 241.032 221.383 241.1C167.66 242.435 113.915 242.939 60.1483 242.611C57.4317 242.599 54.3631 242.434 52.5607 240.404C53.0493 237.701 56.5889 237.065 59.3385 237.043L220.306 235.997C223.505 235.971 227.386 236.369 228.711 239.269Z" fill="black"/>
<path d="M295.135 75.2921C293.46 72.622 289.743 72.3558 286.57 72.3891L7.38249 75.1623C5.68605 75.2073 3.74564 75.3351 2.7892 76.7178C2.28233 77.6363 2.05907 78.6842 2.14759 79.7294C1.91881 96.4924 1.69546 113.247 1.47754 129.992C1.45073 132.182 1.52419 134.632 3.10084 136.151C4.67749 137.67 6.9773 137.651 9.08088 137.595L285.615 130.804C288.745 130.721 292.219 130.501 294.366 128.23C296.513 125.959 296.544 122.641 296.505 119.605C296.355 106.466 296.199 93.3329 296.038 80.2054C296.07 78.5418 296.022 76.7531 295.135 75.2921ZM290.395 120.599C290.428 121.853 290.363 123.246 289.505 124.16C288.646 125.073 287.181 125.189 285.891 125.214L12.616 131.988C13.0331 116.99 13.453 101.992 13.8757 86.9937C13.924 85.2958 14.052 83.4007 15.2942 82.231C16.5364 81.0613 18.1829 81.0516 19.7693 81.018C109.857 79.1149 199.957 78.3821 290.068 78.8198L290.395 120.599Z" fill="black"/>
<path d="M35.7424 105.925C35.7787 105.941 35.8097 105.968 35.8317 106.001C35.8538 106.034 35.8661 106.073 35.8671 106.112C35.8682 106.152 35.858 106.191 35.8377 106.226C35.8175 106.26 35.7879 106.288 35.7525 106.306C34.6084 106.862 33.3409 107.114 32.0712 107.04L23.589 107.265C22.622 107.291 21.4999 107.227 20.8861 106.489C20.8569 106.451 20.8404 106.406 20.8392 106.358C20.8379 106.311 20.8519 106.264 20.8791 106.226C21.4453 105.49 22.5991 105.468 23.5598 105.527C25.9376 105.66 28.3213 105.645 30.6972 105.482C32.4262 105.385 34.2383 105.218 35.7424 105.925Z" fill="black" stroke="black" stroke-width="4" stroke-miterlimit="10"/>
<path d="M28.6809 113.628C28.6631 113.664 28.6359 113.695 28.602 113.716C28.5682 113.738 28.5291 113.75 28.4889 113.751C28.4488 113.752 28.4091 113.742 28.3742 113.722C28.3392 113.702 28.3104 113.673 28.2907 113.638C27.7387 112.494 27.4888 111.227 27.565 109.959L27.3402 101.482C27.3145 100.516 27.3697 99.3943 28.1173 98.7807C28.1527 98.7508 28.1971 98.7339 28.2434 98.7327C28.2896 98.7315 28.3349 98.746 28.3718 98.7739C29.1168 99.3395 29.1304 100.493 29.0795 101.453C28.946 103.829 28.961 106.211 29.1244 108.586C29.2473 110.339 29.405 112.124 28.6809 113.628Z" fill="black" stroke="black" stroke-width="4" stroke-miterlimit="10"/>
<path d="M49.7289 107.446C51.1764 103.776 56.0326 103.173 59.9706 103.153L215.618 102.494C219.462 102.477 223.987 102.815 226.042 106.061C224.403 108.259 221.286 108.511 218.563 108.558C168.319 109.449 118.074 109.75 67.8281 109.46C61.7667 109.425 55.5177 109.362 49.7289 107.446Z" fill="black"/>
</svg>
