<svg xmlns="http://www.w3.org/2000/svg" id="Layer_1" width="359.24" height="484.53" data-name="Layer 1" version="1.1" viewBox="0 0 359.24 484.53">
  <defs id="defs4">
    <style id="style2">
      .cls-1{stroke:#000;stroke-miterlimit:10;stroke-width:4px}
    </style>
  </defs>
  <path id="path6" d="M359.02 12.44a7.36 7.36 0 0 0-.77-3.72c-1.13-1.81-3.52-2.27-5.63-2.53-11.86-1.42-23.82-1.61-35.76-1.8Q169.41 2.1 21.93 0c-2.92 0-6.3.12-8.1 2.43-1.25 1.61-1.35 3.81-1.39 5.84l-1.15 58.8c0 1.58 0 3.31.95 4.56 1.3 1.69 3.75 1.84 5.88 1.85l327.11.53c4.07 0 8.76-.28 11.22-3.52 1.57-2.08 1.78-4.85 1.91-7.45q1.31-25.27.66-50.6zm-5.8 4.25-1.76 45.91c-.07 1.59-.26 3.43-1.59 4.3a5 5 0 0 1-2.83.55l-323.19-.51q1.48-27 3-54c.1-1.78.3-3.75 1.62-4.93 1.33-1.18 3-1.11 4.65-1.09q157.81 1.55 315.6 5.53c1.5 0 3.22.2 4.05 1.44a4.71 4.71 0 0 1 .45 2.8zm-.77 145.47c-1.5-2.32-4.75-2.57-7.5-2.58L18.2 158.42c-2.23 0-4.6 0-6.46 1.26-3 2-3.37 6.1-3.49 9.66L.62 399.2c-.13 4.07 5.34 5.45 9.41 5.49l323.08 2.61c3 0 6.27-.08 8.4-2.15 2.11-2.07 2.31-5.19 2.43-8.08l9.33-229.9c.08-1.72.12-3.57-.82-5.01zm-5.34 10.9-9.6 220.14c-.09 1.8-.22 3.74-1.36 5.14-1.6 2-4.49 2.12-7 2.1l-315.7-1.67q3.24-116.76 7.93-233.47l319.27.49c1.72 0 3.6.06 4.9 1.19 1.62 1.42 1.65 3.91 1.56 6.08zm8-84.46c-1.89-3.2-6.26-3.63-10-3.69l-329-5.46c-2 0-4.29.09-5.46 1.69a6.26 6.26 0 0 0-.85 3.53L7.44 143.9c-.1 2.58-.09 5.47 1.72 7.31 1.81 1.84 4.52 1.89 7 1.89l326 .64c3.7 0 7.8-.15 10.4-2.76 2.6-2.61 2.73-6.52 2.78-10.1l.68-46.46c.1-1.96.1-4.07-.9-5.82zm-7 53.26c0 1.48-.12 3.12-1.16 4.17-1.04 1.05-2.77 1.14-4.29 1.13L20.5 146.6l2.9-53c.1-2 .31-4.23 1.81-5.57 1.5-1.34 3.44-1.3 5.31-1.29q159.3.86 318.51 5.86zm-9 276.92c-1.48-2.13-4.48-2.39-7.08-2.43l-320.72-5.62c-2.8 0-6.06.1-7.76 2.33-1.13 1.47-1.24 3.45-1.32 5.29L.03 475.6c-.09 2.42-.09 5.12 1.54 6.9 1.63 1.78 4.64 2 7.21 2h323.48a7.13 7.13 0 0 0 4.07-.82c1.77-1.21 2-3.65 2.17-5.79q1.47-27.1 1.61-54.29c0-1.65 0-3.45-1-4.82zm-5.12 10-1.73 44.94a5.68 5.68 0 0 1-.84 3.33c-1 1.34-3 1.46-4.69 1.46h-308c-1.4 0-3-.1-3.9-1.21a4.71 4.71 0 0 1-.62-3.15q1-26.1 2.08-52.19a4.42 4.42 0 0 1 .82-2.91c.81-.86 2.14-.91 3.32-.9q154.41.91 308.75 5.6c1.43.05 3 .16 4 1.24s.93 2.47.83 3.8z"/>
  <path id="path8" d="M77.38 268.65c-4-.12-8.32-.37-11.29-3 2.53-4.16 8.33-4.49 13.2-4.35l186.28 5.52c5 .15 10.7.67 13.57 4.74-1.2 2.7-4.84 3-7.79 2.93l-158.75-4.75zm-11.22-34.99c3.24-2.67 7.83-2.77 12-2.73q96.84.9 193.63 4c3.56.12 7.45.36 10.08 2.76-1.3 3.79-6.35 4.37-10.36 4.28L78.23 237.8c-4.43-.1-9.52-.52-12.1-4.11zm195.5 86.33c-14.33 1.32-28.76 1-43.15.64q-71.13-1.71-142.26-3.52c-3.95-.1-8.3-.37-11.1-3.16 2.08-1.69 5-1.77 7.67-1.78 59.6-.19 119.23-.37 178.8 2a17.16 17.16 0 0 1 6.3 1 5.9 5.9 0 0 1 3.74 4.82zM181.73 191.6a14.83 14.83 0 0 1-1.13 5.45 5.22 5.22 0 0 1-4.29 3.14l-105.35 2.38c-1.92 0-3.95.06-5.62-.89-3.42-1.95-3.64-6.71-3.44-10.65.08-1.5.22-3.15 1.27-4.23 1.05-1.08 3-1.26 4.61-1.28l107.7-1.17c1.66 0 3.5 0 4.77 1.09 1.67 1.38 1.65 3.92 1.48 6.16zM226.21 366c-6.66 2.44-13.93 2.41-21 2.35l-125.1-1.05a120.1 120.1 0 0 1-16.19-1.22c-.85-1.65.27-3.76 1.9-4.64a10.84 10.84 0 0 1 5.43-.82c26.25.55 52.5.82 78.76 1.09l17.36.18c11.82.12 23.64.24 35.46-.11 8.08-.18 16.83-.49 23.38 4.22zm-81.57-33.89c-2.06 3.1-6.33 3.58-10 3.72-20.6.76-41.24.08-61.85-.6-3-.1-6.24-.25-8.84-1.83 1.77-3.92 7-4.47 11.31-4.47l55.8.13c4.7.01 9.82.14 13.58 3.05zM63.57 282.8c4.67-3.36 10.86-3.47 16.62-3.44l35 .14c4.22 0 9.16.4 11.48 3.92-2.27 3.55-7.35 3.51-11.55 3.16a240.48 240.48 0 0 0-29.53-.61c-7.54.31-15.63.83-22.02-3.17z"/>
  <path id="path10" d="M43.17 187.1a.26.26 0 0 1 .33.32 8.72 8.72 0 0 1-2.56 3.61l-7.08 7c-.8.8-1.8 1.67-2.9 1.55a.24.24 0 0 1-.23-.21c-.12-1.1.85-2.05 1.72-2.78a68.2 68.2 0 0 0 6.07-5.83c1.36-1.45 2.77-3.05 4.65-3.66z" class="cls-1"/>
  <path id="path12" d="M43.36 199.41a.26.26 0 0 1-.3.33 8.72 8.72 0 0 1-3.62-2.56l-7-7.08c-.8-.81-1.67-1.81-1.55-2.92a.23.23 0 0 1 .21-.21c1.1-.12 2 .85 2.78 1.72a68.08 68.08 0 0 0 5.82 6.07c1.41 1.35 3.06 2.77 3.66 4.65zm-3.83 247.93a.26.26 0 0 1 0 .45 8.78 8.78 0 0 1-4.36.74h-10c-1.14 0-2.46-.1-3.16-1a.26.26 0 0 1 0-.31c.7-.85 2.05-.84 3.18-.75a69.45 69.45 0 0 0 8.41.18c2.04-.05 4.18-.22 5.93.69z" class="cls-1"/>
  <path id="path14" d="M30.96 456.17a.26.26 0 0 1-.45 0 8.78 8.78 0 0 1-.74-4.36v-10c0-1.14.1-2.46 1-3.16a.26.26 0 0 1 .31 0c.85.69.84 2 .75 3.18a69.41 69.41 0 0 0-.18 8.41c.08 2.04.22 4.18-.69 5.93zm17.6-339.57a.25.25 0 0 1 0 .45 8.76 8.76 0 0 1-4.36.75h-10c-1.14 0-2.46-.11-3.16-1a.26.26 0 0 1 0-.31c.7-.85 2.05-.84 3.18-.74a67.47 67.47 0 0 0 8.41.17c2.04-.06 4.18-.2 5.93.68z" class="cls-1"/>
  <path id="path16" d="M40 125.46a.26.26 0 0 1-.46 0 8.78 8.78 0 0 1-.74-4.36v-10c0-1.14.1-2.46 1-3.16a.24.24 0 0 1 .3 0c.86.69.84 2.05.75 3.18a67.47 67.47 0 0 0-.17 8.41c.1 2.07.22 4.18-.68 5.93zM52.11 36.9a.26.26 0 0 1 0 .45 8.78 8.78 0 0 1-4.36.75h-10c-1.14 0-2.46-.11-3.16-1a.26.26 0 0 1 0-.31c.7-.85 2.05-.84 3.18-.74a69.41 69.41 0 0 0 8.41.17c2.03-.09 4.17-.23 5.93.68z" class="cls-1"/>
  <path id="path18" d="M43.53 45.73a.26.26 0 0 1-.45 0 8.78 8.78 0 0 1-.75-4.36l.05-10c0-1.14.1-2.46 1-3.16a.26.26 0 0 1 .31 0c.85.69.84 2 .74 3.18a69.45 69.45 0 0 0-.17 8.41c.04 2.04.18 4.18-.73 5.93z" class="cls-1"/>
  <path id="path20" d="M276.43 43.42c-2.39 2.11-5.89 2.21-9.08 2.18q-94.64-.67-189.2-4c-3.43-.12-7.19-.38-9.66-2.75 2.33-4.13 8-4.53 12.76-4.42l181.63 4.07c5 .12 10.9.69 13.55 5zm-9.22 406.98c-2.39 1.85-5.67 1.93-8.69 1.93q-95-.16-190-3.26c-3.2-.1-6.8-.39-8.87-2.84.66-3.17 4.85-3.81 8.1-3.75l189.66 3.8c3.77.07 8.33.66 9.8 4.12zM65 118.83c1.82-4.28 7.56-4.84 12.2-4.74l183.4 4.09c4.52.1 9.84.64 12.16 4.53-2 2.54-5.68 2.74-8.89 2.71q-88.83-.78-177.6-3.65c-7.15-.23-14.5-.5-21.27-2.94z"/>
</svg>
