<svg xmlns="http://www.w3.org/2000/svg" id="Layer_1" width="335" height="254.6" data-name="Layer 1" version="1.1" viewBox="0 0 335 254.6">
  <defs id="defs4">
    <style id="style2">
      .cls-1{stroke:#000;stroke-miterlimit:10;stroke-width:4px}
    </style>
  </defs>
  <path id="path6" d="M314.3 20.5a.3.3 0 0 1 .3.3 8.7 8.7 0 0 1-2.6 3.6l-7 7c-.9.8-1.9 1.7-3 1.6a.2.2 0 0 1-.2-.2c-.1-1.1.9-2 1.7-2.8a68 68 0 0 0 6.1-5.8c1.4-1.5 2.8-3.1 4.7-3.7z" class="cls-1"/>
  <path id="path8" d="M314.5 32.8a.3.3 0 0 1-.4.3 8.8 8.8 0 0 1-3.6-2.5l-7-7.1c-.8-.8-1.6-1.8-1.5-3a.3.3 0 0 1 .2-.1c1-.2 2 .8 2.8 1.7a69.6 69.6 0 0 0 5.8 6c1.4 1.4 3 2.8 3.7 4.7z" class="cls-1"/>
  <path id="path10" d="M314.3 155.2a.3.3 0 0 1 .3.3 8.7 8.7 0 0 1-2.6 3.6l-7 7c-.9.8-1.9 1.7-3 1.6a.2.2 0 0 1-.2-.2c-.1-1.1.9-2 1.7-2.8a68.2 68.2 0 0 0 6.1-5.8c1.4-1.5 2.8-3 4.7-3.7z" class="cls-1"/>
  <path id="path12" d="M314.5 167.5a.3.3 0 0 1-.4.4 8.8 8.8 0 0 1-3.6-2.6l-7-7c-.8-.9-1.6-1.9-1.5-3a.3.3 0 0 1 .2-.2c1-.1 2 .8 2.8 1.7a69.6 69.6 0 0 0 5.8 6c1.4 1.4 3 2.8 3.7 4.7z" class="cls-1"/>
  <path id="path14" d="M40 21.6a9 9 0 0 0-.8-1.8 10 10 0 0 0-5.3-4.4 2.3 2.3 0 0 0-.2 0 10.2 10.2 0 0 0-5.2-.4 1 1 0 0 0-.2 0 8.2 8.2 0 0 0-2.2.9 10 10 0 0 0-4.7 9.7 8 8 0 0 0 .2 1.2 8.5 8.5 0 0 0 1 2.2 9.2 9.2 0 0 0 4.4 3.8 9.3 9.3 0 0 0 6.2.7 8.3 8.3 0 0 0 2.5-1.2c.2 0 .4-.2.5-.4A10 10 0 0 0 40 21.6zm-5.1-.4a5.3 5.3 0 0 1-1.6 2.3l-.9.9.2.2h.1a6.6 6.6 0 0 1 2.1 2.8.8.8 0 0 1-.2.8.8.8 0 0 1-.5.2.8.8 0 0 1-.2 0 5.5 5.5 0 0 1-2.3-1.6l-.8-.8-1.3 1.3a3 3 0 0 1-2 1h-.1a.8.8 0 0 1-.7-.7 2.6 2.6 0 0 1 1.1-2l1.4-1.3-1.4-1.4a2.8 2.8 0 0 1-1-2.1.8.8 0 0 1 .7-.7 2.6 2.6 0 0 1 2 1.2l1.3 1.4.3-.3.1-.1a6.8 6.8 0 0 1 2.7-2 1 1 0 0 1 .3 0 .8.8 0 0 1 .5.2.8.8 0 0 1 .2.7z"/>
  <path id="path16" d="M333.9 11.7c-2.1-3.7-7-4.2-11.3-4.3L9.8 0c-2 0-4.2 0-5.7 1.4-1.4 1.3-1.6 3.4-1.7 5.3C1.5 22.1.6 37.6.2 53.1v61.2h10.6a1.6 1.6 0 0 0 0 .3l311.7 7.6c2.5 0 5.3 0 7.4-1.5 2.9-2 3.2-6.3 3.3-9.9l1.8-92.5c0-2.2 0-4.7-1.1-6.6zm-3.6 7-2.9 98.1L22 109.6c-2 0-4.1-.2-5.5-1.6a5.5 5.5 0 0 1-1.5-3.3 17.5 17.5 0 0 1 0-2.6l.5-52.7.3-40.7V5.3l309.5 7.6a6 6 0 0 1 3.8 1c1.3 1.1 1.4 3.1 1.3 4.8z"/>
  <path id="path18" d="M.2 53.1V82c-.3-9.7-.2-19.3 0-29z"/>
  <path id="path20" d="M2.6 114.3v.2a.8.8 0 0 1 0-.2z"/>
  <path id="path22" d="m15.8 8.7-.4 40.7.3-40.7z"/>
  <path id="path24" d="M15.8 140.2v5.1l-.3 1v-1.6z"/>
  <path id="path26" d="M15.8 139.4Z"/>
  <path id="path28" d="M49.3 92.2q-.7-10.4-.5-20.7a8.6 8.6 0 0 1 .5-3.6c1.4-2.9 5.2-3.3 8.4-3.4l51.7-1.2c2 0 4.5 0 5.9 1.7 1 1.2 1 3 1 4.5l.3 20.7c0 3.7-.4 8.3-3.8 10a10 10 0 0 1-4.4.6H60c-3.4 0-7.4-.3-9.4-3.1-1-1.6-1.2-3.6-1.3-5.5zm61.8-1.8 1.6-16.5c.3-3.7-4.8-5-8.5-4.9l-45.3 1c-1.4 0-3 0-3.9 1.2a5 5 0 0 0-.7 3.1v17.3c0 1.7.5 4.2 2.3 4.1l49.9-.5a5.3 5.3 0 0 0 3-.6c1.2-1 1.5-2.6 1.6-4.2z"/>
  <path id="path30" d="m116.3 201 .2 22.5c0 3-.2 6.7-2.7 8.5-1.6 1.2-3.8 1.2-5.8 1.2l-48.7-.2c-3 0-6.3-.2-8.2-2.4-1.7-1.8-1.8-4.5-1.9-7l-.5-19.8a8 8 0 0 1 .5-3.9c1.3-2.5 4.7-3 7.5-3l53.9-1.3c1.6 0 3.5 0 4.7 1.2 1 1.1 1 2.7 1 4.2zm-62 6.3-.1 15.9c0 2 .6 5 2.7 5l49.1-.6c1.4 0 3-.1 4-1.2a5.2 5.2 0 0 0 1-2.8l1.4-11.1c.6-4.8-.5-11.5-5.2-11.4l-48.7 1.3a5 5 0 0 0-2.7.6c-1.4.9-1.5 2.7-1.5 4.3z"/>
  <path id="path32" d="M175 50.8a9 9 0 0 1 5 .9c1.4.9 2.2 3 1 4.4L56.8 58.4c-3 0-6.6-.2-7.8-2.9 1-2.1 4-2.4 6.3-2.5z"/>
  <path id="path34" d="M175.1 183.2c1.7 0 3.5 0 5 .9 1.4.9 2.1 3 1 4.3l-124.4 2.4c-3 0-6.6-.3-7.8-3 1.8-2.3 5-2.5 8-2.5z"/>
  <path id="path36" d="M127 81.3c3.6-2.7 8.5-2.6 13-2.4l45.4 1.7a6.4 6.4 0 0 1 4 1c1 1 1.2 3 0 3.6a5 5 0 0 1 4.1 5.5 557.1 557.1 0 0 1-66.3-1.8 6.2 6.2 0 0 0-.2-7.6z"/>
  <path id="path38" d="M127 213.7c3.6-2.7 8.5-2.6 13-2.5l45.4 1.8a6.5 6.5 0 0 1 4 1c1 .9 1.2 3 0 3.5a5 5 0 0 1 4.1 5.6 544.8 544.8 0 0 1-66.3-1.8 6.2 6.2 0 0 0-.2-7.6z"/>
  <path id="path40" d="M178 20.7v.3c0 2.3-.2 13-.6 13.6a.2.2 0 0 1-.1.1 1.8 1.8 0 0 1-.3.6c-1.2 1.5-3.3 1.5-5.2 1.5L58.2 34.3a12.5 12.5 0 0 1-7.1-2 4.5 4.5 0 0 1-2.2-2.5c-1.3-3.5 1.2-7.6 4.5-9.4 3.4-1.8 7.4-1.8 11.2-1.9l109.9-.2a4.5 4.5 0 0 1 2.4.4 2.2 2.2 0 0 1 1 2 .5.5 0 0 1 .1 0z"/>
  <path id="path42" d="M178 153v.4c0 2.3-.2 13-.6 13.6a.3.3 0 0 1-.1.1 1.9 1.9 0 0 1-.3.6c-1.2 1.5-3.3 1.5-5.2 1.5l-113.6-2.6a12.5 12.5 0 0 1-7-2 4.5 4.5 0 0 1-2.2-2.4c-1.4-3.6 1-7.7 4.5-9.5 3.3-1.8 7.3-1.8 11.1-1.8l109.9-.3a4.5 4.5 0 0 1 2.4.5 2.2 2.2 0 0 1 1.1 1.9z"/>
  <path id="path44" d="M48.7 158.2c1-5.5 8.1-6.8 13.7-7q56-1 112.2-.3a4.4 4.4 0 0 1 3 .8c2.2 2.1-1.5 5.5-1.1 8.5-2.5-5.3-9.7-6-15.5-5.8l-98.5 1.7c-2.8 0-6 .2-8.2 1.9-2.3 1.6-3.2 5.5-1 7.3a6.4 6.4 0 0 1-4.6-7.1z"/>
  <path id="path46" d="M58.2 166.6c0-3.3 4.5-4.3 7.8-4.2q54.5 1.6 109 1.9c1.7-.9 3.1 2 2 3.4-1.2 1.5-3.3 1.5-5.2 1.5z"/>
  <path id="path48" d="M130.6 173.8a6.3 6.3 0 0 1 .7 4.7l-83.8-1.2c.2-4.3 6-5.5 10.3-5.4z"/>
  <path id="path50" d="M130.6 41.4a6.4 6.4 0 0 1 .7 4.7l-82.3-1c-.9-1.7.2-3.8 1.8-4.7a10.6 10.6 0 0 1 5.5-.8z"/>
  <path id="path52" d="M40.2 153.8a9.2 9.2 0 0 0-.7-1.8 10.1 10.1 0 0 0-5.3-4.4H34a10 10 0 0 0-5.2-.4h-.3a8.5 8.5 0 0 0-2.1 1 10 10 0 0 0-4.7 9.6 8.3 8.3 0 0 0 .2 1.2 8.4 8.4 0 0 0 .9 2.2 9.2 9.2 0 0 0 4.5 3.9 9.3 9.3 0 0 0 6.2.6 8.9 8.9 0 0 0 2.4-1.1l.6-.4a10 10 0 0 0 3.7-10.4zm-4 .5a4.6 4.6 0 0 1-1.4 2l-3 3a4 4 0 0 1-.9.6 1.8 1.8 0 0 1-.2.2 1.3 1.3 0 0 1-.7.2 1.5 1.5 0 0 1-.4 0 3.7 3.7 0 0 1-1.5-.9v-.1l-1.2-1.2a2.8 2.8 0 0 1-1-2.2 1.3 1.3 0 0 1 1.1-1 2 2 0 0 1 1 0 3.2 3.2 0 0 1 1.2 1l.5.6.2.2a26.6 26.6 0 0 0 2.2-2.1v-.1a5.7 5.7 0 0 1 2.5-1.8 1.3 1.3 0 0 1 1.6 1.6z"/>
  <path id="path54" d="m99.4 219-23.8 1.6c-3.8.3-8 .5-11.2-1.8-3.2-2.2-4-7.8-.5-9.6a8.5 8.5 0 0 1 4-.6l24.1.4c3.2 0 6.7.2 9 2.5 2.3 2.2 1.6 7.2-1.6 7.4z"/>
  <path id="path56" d="M103.1 81.9c.1 2.8-3.4 4.2-6.2 4.7a111.5 111.5 0 0 1-25.7 1.2c-2.9-.2-5.9-.6-8-2.4-2.2-1.8-2.8-5.7-.6-7.4a7.2 7.2 0 0 1 3.6-1.1 111.4 111.4 0 0 1 30.9.7c2.6.4 6 1.6 6 4.3z"/>
  <path id="path58" d="M178 20.6v.1a.5.5 0 0 0 0-.1z"/>
  <path id="path60" d="M334 144c-2.2-3.6-7-4.1-11.2-4.2l-313-7.5c-2 0-4.2 0-5.7 1.4-1.4 1.4-1.5 3.4-1.7 5.3-1.3 22-2.6 44.1-2.4 66.2v41.6h10.8l311.5 7.8c2.6 0 5.3 0 7.4-1.4 3-2.2 3.4-6.5 3.5-10.2l1.8-92.4c0-2.3 0-4.7-1-6.6zm-3.7 7-2.9 98-305.2-6.9c-2 0-4.4-.2-5.9-1.7-1.4-1.5-1.5-3.8-1.4-5.8l.8-89.3-.2 1v-1.6l.3-4.5v-2.5l309.4 7.6a5.8 5.8 0 0 1 3.8 1c1.3 1 1.4 3 1.3 4.7z"/>
  <path id="polygon62" d="m171.5 257 .1-1.6.1.4.1.1-.1.2z" transform="translate(-156 -110.7)"/>
  <path id="path64" d="m15.4 49.4-.5 55.3a17.5 17.5 0 0 1 0-2.6z"/>
</svg>
