<svg xmlns="http://www.w3.org/2000/svg" width="326.3" height="329" data-name="Layer 1" viewBox="0 0 326.3 329">
  <path d="M85.2 33.6c-3.5 0-8.3-3.9-5.2-5.6q119-2.4 237.9 1.6c3.6 0 8.5 1.6 8 5.2a45.2 45.2 0 0 1-21.7 3.2zm231 135c5.3.2 12.7 4.6 9.2 8.6q-122.6-1.6-245.2-4.4c-2-3.1 3.3-5.8 7-5.9q114.4-1.5 229 1.7zM86 246.4c-3.7-.1-8.6-4.7-5.1-6q117.5-1.8 235 1.7c3.8 0 9 1.8 8.2 5.5-6.5 3-14 2.9-21.1 2.8zm237.6-140.6-224.1-4c-6.7-.1-13.4-.2-20-1.8-1.9-3 3.3-5.5 7-5.5l225 1.8c6.2 0 15 4 12.1 9.5zM89 312.3c-4.7 0-10.6-1-11.8-5.5q118.6-2.8 237.3 1.4c3.8.1 9.1 2.3 7.7 5.9-8.7 2.6-18 2.5-27.2 2.3zM1.2 283.4c.2-3.1.7-6.6 3.3-8.3 1.7-1.2 4-1.3 6-1.3l28.8-.2c4.1 0 8.6.1 11.5 3 3 2.8 3.2 7.3 3.3 11.3l.8 27.3c.1 4.1 0 8.8-3.1 11.5-2.5 2.2-6.2 2.3-9.5 2.3H16.5c-7 0-16.4-2.2-16.5-9.2q-.2-18.2 1.2-36.4zm5.6 21a26 26 0 0 0 1 14c1.7 3.7 6.6 6.2 10.7 5.8l23.3-2.5a4.8 4.8 0 0 0 5.3-5 165 165 0 0 0 2-24.4c0-3-.2-6.5-2.4-8.5-2-1.7-5-1.8-7.7-1.8H14.5a6.6 6.6 0 0 0-3.9.7c-1.5 1.1-1.8 3.2-2 5l-1.8 16.8zM44.2 260l-27.7.1c-5.2 0-11.4-.5-14-5a15 15 0 0 1-1.4-7.7v-26.1c0-6.5 2.1-15.3 8.6-14.8l31.4 2.1c3 .3 6.3.5 8.8 2.4 4.3 3.1 4.5 9.3 4.3 14.7l-1 25.2c0 2.7-.3 5.7-2.3 7.5-1.8 1.5-4.3 1.6-6.7 1.6zm4.3-29.3c.5-5.4.6-12-3.9-15a15.8 15.8 0 0 0-8.4-1.6H15.1c-1.7 0-3.5 0-4.8 1-1.6 1.1-2 3.2-2.4 5a88.1 88.1 0 0 0 0 30c.7 3.9 5.9 4.5 9.7 4.2l24-2a6.5 6.5 0 0 0 3.4-1c1.4-1 1.7-3 1.9-4.7zM55.9 44l-.2-27.6c0-3.2 0-6.6-1.7-9.3-3-5-9.6-5.7-15.3-6L13.6.2C11-.1 8.2-.1 6 1.3c-3 2-3.7 6-4 9.5A207.7 207.7 0 0 0 1.2 42a14 14 0 0 0 1.2 6c2.2 4.3 7.8 5.2 12.5 5.5a268.4 268.4 0 0 0 30.6.4c3.3-.2 7.1-.7 9-3.4 1.4-2 1.4-4.4 1.4-6.6zm-11-25.8c-.8 3-3 5.1-4.4 6.6L31 34.2a13.9 13.9 0 0 1-2.9 2.2 9 9 0 0 1-.9.4 4.1 4.1 0 0 1-2.3.7 3.8 3.8 0 0 1-1-.1 12.2 12.2 0 0 1-4.8-2.7l-.4-.4-3.7-3.7c-1-1-3.5-3.6-3.1-7a4.1 4.1 0 0 1 3.6-3.6 6 6 0 0 1 2.9.4 10.4 10.4 0 0 1 4.1 3.2l1.6 1.8.6.7a87.4 87.4 0 0 0 7.1-7l.2-.2c2-2 4.3-4.6 7.7-5.7a4 4 0 0 1 4 1 4.1 4.1 0 0 1 1.2 4zm10 93.2L54.1 84c0-4-.4-8.6-3.3-11.4-2.9-2.8-7.4-3-11.5-3l-28.8.3c-2 0-4.3 0-6 1.2-2.6 1.8-3 5.3-3.3 8.3Q-.2 97.7 0 116c.1 7 9.5 9.2 16.5 9.2h25.8c3.3 0 7-.1 9.5-2.3 3-2.7 3.2-7.3 3.1-11.4zm-10-20.9c-.8 3-3 5.1-4.4 6.5l-9.5 9.4a13.9 13.9 0 0 1-2.9 2.3 9 9 0 0 1-.9.4 4.1 4.1 0 0 1-2.3.7 3.8 3.8 0 0 1-1-.2A12.2 12.2 0 0 1 19 107v-.1l-.4-.4L15 103c-1-1.1-3.5-3.6-3.1-7a4 4 0 0 1 3.6-3.7 6 6 0 0 1 3 .4 10.4 10.4 0 0 1 4 3.3l1.6 1.8.6.6a84.2 84.2 0 0 0 7.1-6.9l.3-.2a18 18 0 0 1 7.6-5.7 4.1 4.1 0 0 1 5.2 5zm5 53.3c-2.5-1.8-5.7-2-8.8-2.3l-31.4-2.1c-6.4-.5-8.7 8.3-8.7 14.8l.1 26.1c0 2.6 0 5.4 1.4 7.7 2.6 4.4 8.8 5 14 5h27.8c2.3 0 4.9-.2 6.6-1.7 2-1.8 2.3-4.8 2.4-7.5l1-25.2c.1-5.4 0-11.6-4.4-14.8zm-5 15.8c-.8 3-3 5.1-4.4 6.6l-9.5 9.4a13.2 13.2 0 0 1-2.9 2.2 9.2 9.2 0 0 1-.9.4 4.1 4.1 0 0 1-2.3.7 3.5 3.5 0 0 1-1-.1A12 12 0 0 1 19 176l-.4-.4L15 172c-1-1.1-3.5-3.6-3.1-7a4 4 0 0 1 3.6-3.7 6.2 6.2 0 0 1 3 .4 10.4 10.4 0 0 1 4 3.3 55.2 55.2 0 0 0 2.2 2.4 87.4 87.4 0 0 0 7.1-6.8l.3-.3c1.9-2 4.2-4.6 7.6-5.7a4.1 4.1 0 0 1 5.2 5z"/>
</svg>
