<svg xmlns="http://www.w3.org/2000/svg" id="Layer_1" width="332.5" height="168.7" data-name="Layer 1" version="1.1" viewBox="0 0 332.5 168.7">
  <defs id="defs4">
    <style id="style2">
      .cls-1{stroke:#000;stroke-miterlimit:10;stroke-width:2px}
    </style>
  </defs>
  <path id="path6" d="M214.6 49.6a3 3 0 0 1-3.7 3.3h-91.4c-1.8 0-4 0-5.1-1.6a6.2 6.2 0 0 1-1-3L112 36.7c-.2-1.4-.2-3 .8-3.8a4 4 0 0 1 2.4-.5l91-2c4-.1 7.3 3.4 8.5 7.2 1.1 3.9.5 8 0 12z" class="cls-1"/>
  <path id="path8" d="m103 70.4 121-.6c2.2 0 5.5 1.8 4 3.5q-64.3 1.8-128.7.6c-1.6-1.5 1.5-3.5 3.7-3.5z" class="cls-1"/>
  <path id="path10" d="M118.7 143.5c2.9 0 6.5.4 7.3 3.1a609 609 0 0 1-72.5 1.3c0-2.5 3.2-3.3 5.6-3.4z" class="cls-1"/>
  <path id="path12" d="m224.2 143.7 60.4-2.4a5.7 5.7 0 0 1 3.3.5c1 .6 1.4 2.2.6 3a2.8 2.8 0 0 1-1.8.4l-57.6 2.3a7.2 7.2 0 0 1-3.8-.6c-1.1-.6-1.8-2.1-1.1-3.2z" class="cls-1"/>
  <path id="path14" d="m331.4 10.2-3.9 149c0 1.8-.1 3.8-1.2 5.1-1.5 2-4.4 2.1-6.8 2.1l-304 1.3c-3 0-6.3-.1-8.4-2.3-2-2-2.1-5-2.2-7.8L1 8.5C1 6.4 1 4 2.6 2.6c1.3-1.1 3.2-1.2 4.9-1.2L322.8 1c2.4 0 5 0 6.7 1.7 2 1.8 2 4.8 2 7.5M5 11l3 102.5c0 1.5.5 3.5 2 3.6l309.1 3c1.4 0 3 0 4-.9 1.3-1 1.4-2.9 1.5-4.5L328 7.9c0-2.1-2.7-2.8-4.8-2.8l-312.7.3c-1.5 0-3.2 0-4.3 1.2C5 7.7 4.9 9.5 5 11m3.8 148.4c0 1.9.7 4.4 2.5 4.4l149.5-.8c1.6 0 3.4-.1 4.5-1.3.8-1 .8-2.6.8-4l-1.2-30c0-1.6-.2-3.4-1.6-4.3a5.1 5.1 0 0 0-2.8-.6L8.1 121l.7 38.5m162.5 3.1a5 5 0 0 0 3.5.9l144.2-1.1c1.2 0 2.5-.1 3.4-1a4.5 4.5 0 0 0 .8-3l2-33.9q-78.7-1.1-157.3-1.5l2.3 36.2a5 5 0 0 0 1 3.4z" class="cls-1"/>
</svg>
