<svg width="332.5" height="168.7" viewBox="0 0 333 71" fill="none" xmlns="http://www.w3.org/2000/svg">
<path d="M214.86 43.1917C214.917 43.6762 214.857 44.1673 214.687 44.6242C214.516 45.0812 214.238 45.4909 213.878 45.8193C213.517 46.1477 213.083 46.3855 212.612 46.5129C212.142 46.6402 211.647 46.6536 211.17 46.5517H119.78C117.94 46.5517 115.78 46.4217 114.68 44.9517C114.115 44.0485 113.792 43.0156 113.74 41.9517C113.233 38.065 112.717 34.175 112.19 30.2817C112.01 28.9617 111.94 27.3817 112.99 26.5617C113.695 26.1323 114.517 25.9363 115.34 26.0017L206.34 24.0017C210.34 23.9117 213.7 27.3917 214.85 31.2317C216 35.0717 215.43 39.2317 214.86 43.1917Z" fill="black" stroke="black" stroke-width="2" stroke-miterlimit="10"/>
<path d="M329.46 2.69599C329.032 2.29991 328.538 1.98177 328 1.75599C326.338 1.16283 324.572 0.91444 322.81 1.02598L7.48 1.456C6.43179 1.41589 5.38286 1.51336 4.36 1.74598C3.71035 1.90241 3.10713 2.21089 2.59999 2.64601C0.999991 4.02601 1 6.41599 1 8.50599C1.5 27.3593 1.99333 46.206 2.48 65.046C2.77825 65.8788 3.22931 66.6486 3.81 67.316C4.57907 68.1606 5.5542 68.7912 6.64 69.146C8.53008 69.7058 10.5011 69.9425 12.47 69.846L322.62 68.446C323.739 68.4622 324.856 68.3786 325.96 68.196C327.382 67.9958 328.672 67.2542 329.56 66.126C329.725 65.9105 329.869 65.6794 329.99 65.436L331.43 10.266V10.216C331.46 7.54598 331.46 4.52599 329.46 2.69599ZM160.71 64.696L8.14 65.556C7.81033 65.5467 7.48807 65.456 7.20193 65.292C6.9158 65.128 6.67466 64.8958 6.5 64.616C5.83944 63.4468 5.51417 62.1181 5.56 60.776L4.87 18.426H5.23C5.18 16.576 5.11999 14.726 5.07999 12.876C5.07999 12.276 5.07999 11.676 5.07999 11.076V11.126C5.01999 9.55599 5.08 7.81599 6.14 6.69599C7.2 5.57599 8.96999 5.50599 10.51 5.50599L323.2 5.21598C325.1 5.21598 327.61 5.806 327.92 7.516C327.93 7.65915 327.93 7.80285 327.92 7.94599L327.47 22.266H328.42L326.49 59.626C326.532 60.3039 326.44 60.9835 326.22 61.626C326.067 62.0498 325.862 62.4529 325.61 62.826C324.78 63.826 323.4 63.826 322.17 63.826L174.98 65.056L160.71 64.696Z" fill="black" stroke="black" stroke-width="2" stroke-miterlimit="10"/>
</svg>
