<svg width="338.3" height="334.5" viewBox="0 0 210 71" fill="none" xmlns="http://www.w3.org/2000/svg">
<path d="M22.6631 54.2059C16.9711 50.8829 16.7799 42.8659 17.2918 36.2941C17.5693 32.7241 18.0935 28.6971 20.9919 26.5971C23.1009 25.0653 25.9253 25.0282 28.5216 25.0468L188.329 26.2203C191.264 26.2203 194.687 26.5106 196.315 28.9565C197.302 30.4388 197.332 32.335 197.332 34.12C197.332 39.7777 197.332 45.4374 197.332 51.0991C197.332 52.5321 197.295 54.0638 196.463 55.225C195.18 57.0224 192.621 57.1706 190.413 57.1521L31.5988 55.8488C28.5462 55.8488 25.3272 55.7562 22.6878 54.2121M21.5531 45.8059C21.6394 47.6588 21.9416 49.7588 23.4709 50.8088C24.5008 51.5253 25.8452 51.5624 27.1032 51.5747L188.415 53.1621C189.648 53.1621 190.95 53.1621 191.85 52.3406C192.75 51.5191 192.954 50.0244 193.016 48.7212L193.675 34.9229C193.743 33.5332 193.725 31.9397 192.67 31.0318C191.85 30.3338 190.678 30.2968 189.587 30.2968L22.8728 30.0744C21.7505 35.2383 21.3068 40.5269 21.5531 45.8059V45.8059Z" fill="black"/>
<path d="M104.713 17.2644C103.886 19.735 100.649 20.1118 98.0649 20.0747C72.0779 19.7453 46.0909 19.7824 20.1039 20.1859C19.0308 19.1977 19.5859 17.2521 20.8069 16.48C22.0279 15.708 23.582 15.6709 25.0435 15.7018L104.713 17.2644Z" fill="black"/>
<path d="M74.9393 39.6912C75.2024 40.0855 75.3843 40.5284 75.4743 40.994C75.5643 41.4596 75.5607 41.9385 75.4635 42.4027C58.446 44.2249 41.2789 44.1461 24.2788 42.1679L23.7546 39.0797L74.9393 39.6912Z" fill="black"/>
<path d="M207.756 2.69927C207.487 2.30242 207.176 1.98367 206.837 1.75745C205.791 1.16315 204.679 0.914275 203.57 1.02603L5.07897 1.45688C4.41915 1.41669 3.75888 1.51436 3.11502 1.74742C2.70609 1.90415 2.32638 2.21323 2.00715 2.64919C0.999994 4.03185 1 6.42645 1 8.52049C1.31474 27.4102 1.62527 46.2933 1.93161 65.1697C2.11936 66.0041 2.40329 66.7755 2.76881 67.4441C3.25292 68.2903 3.86673 68.9221 4.55022 69.2776C5.73996 69.8385 6.98067 70.0756 8.22002 69.979L203.45 68.5763C204.155 68.5926 204.858 68.5087 205.553 68.3258C206.448 68.1252 207.26 67.3822 207.819 66.2518C207.923 66.0359 208.014 65.8044 208.09 65.5604L208.996 10.2839V10.2338C209.015 7.55863 209.015 4.53281 207.756 2.69927ZM101.533 64.819L5.49442 65.6807C5.2869 65.6713 5.08405 65.5805 4.90394 65.4162C4.72382 65.2518 4.57204 65.0192 4.46209 64.7389C4.04628 63.5675 3.84154 62.2361 3.87039 60.8914L3.43605 18.4597H3.66266C3.63119 16.6061 3.59341 14.7525 3.56823 12.8989C3.56823 12.2978 3.56823 11.6966 3.56823 11.0955V11.1455C3.53046 9.57251 3.56824 7.82916 4.23548 6.707C4.90272 5.58483 6.01688 5.5147 6.98627 5.5147L203.816 5.22413C205.012 5.22413 206.592 5.81528 206.787 7.52859C206.793 7.67201 206.793 7.81599 206.787 7.95941L206.503 22.3071H207.101L205.887 59.7392C205.913 60.4185 205.855 61.0994 205.717 61.7431C205.62 62.1677 205.491 62.5716 205.333 62.9454C204.81 63.9474 203.941 63.9474 203.167 63.9474L110.515 65.1797L101.533 64.819Z" fill="black" stroke="black" stroke-width="2" stroke-miterlimit="10"/>
</svg>
