<svg xmlns="http://www.w3.org/2000/svg" width="338.3" height="334.5" data-name="Layer 1" viewBox="0 0 338.3 334.5">
  <path d="M36.4 88.3c-9.2-5.4-9.5-18.4-8.7-29 .4-5.8 1.3-12.3 6-15.7 3.4-2.5 8-2.5 12.2-2.5l259.1 2c4.8 0 10.4.4 13 4.3 1.6 2.4 1.6 5.5 1.6 8.4v27.5c0 2.3 0 4.8-1.4 6.6-2 3-6.2 3.2-9.8 3.2l-257.5-2c-5 0-10.2-.3-14.5-2.8m-1.8-13.6c.1 3 .6 6.4 3.1 8.1 1.7 1.2 3.9 1.2 5.9 1.2l261.6 2.6c2 0 4 0 5.5-1.3s1.8-3.8 2-5.9l1-22.3c.1-2.3 0-4.9-1.6-6.3-1.4-1.2-3.3-1.2-5-1.2l-270.4-.4a98.2 98.2 0 0 0-2.1 25.5z"/>
  <path d="m314.4 334.5-300.8-2.4c-3.5 0-7.3-.2-10-2.5-3.4-2.9-3.6-8-3.6-12.4L3.2 11.3c0-3.7.3-7.9 3.3-10 2-1.3 4.6-1.4 7-1.3l312 4.4c3.8 0 8.2.3 10.7 3.3 2.1 2.5 2.2 6.1 2 9.4l-6 303.2c-.1 3-.2 6-1.7 8.5-3 5.1-10.1 5.7-16.1 5.6M6.6 325.6 312 328c5.7 0 13.3-1.7 13.4-7.3l6.2-303.3c0-1.5 0-3.2-.9-4.4-1.2-1.6-3.6-1.8-5.6-1.8L16.1 7c-1.8 0-3.8 0-5 1.4-1 1.1-1.2 2.8-1.2 4.3q-2.3 156.6-3.3 313Z"/>
  <path d="m25.6 299.1-2.4-32.8c-.2-2-.2-4.5 1.2-6 1.4-1.7 4-1.8 6.1-1.8l265.1 1c4.1 0 8.9.3 11.4 3.6 1.7 2 2 5 2.2 7.5l2.2 26.3c.4 3.6.4 8-2.3 10.2-2 1.7-4.9 1.8-7.5 2l-259.3 3.6c-5.1 0-11-.2-14-4.2-2-2.6-2.4-6-2.7-9.4m6.2-2.5c.2 2.4.5 5 2 7 2.3 2.4 6 2.6 9.4 2.5l253.7-3.9c1.6 0 3.5 0 4.8-1 1.3-1.2 1.7-3 2-4.7a42 42 0 0 0 1.2-18.6c-1.4-6-6.6-11.7-12.8-11.8l-263-.9zm133.6-138.2c0 3 0 6-1.7 8.4-2.6 3.8-8 4.2-12.6 4.2H36.3c-2.1 0-4.4-.2-5.9-1.7-1.1-1.2-1.4-3-1.6-4.6a294.3 294.3 0 0 1-2.3-38.6 6.1 6.1 0 0 1 .8-3.8c1.2-1.5 3.3-1.6 5.2-1.6h125.7a7 7 0 0 1 7 7l.2 30.7M33.1 133.1a57.6 57.6 0 0 0 .6 27.4c.6 2.2 1.9 4.8 4.2 4.8l114.9-.4c1.8 0 4 0 5.1-1.6 1-1 1-2.6 1-4V134a6.6 6.6 0 0 0-.9-3.9c-1.1-1.7-3.5-1.8-5.6-1.8H40c-1.9 0-4 0-5.3 1.4a6.8 6.8 0 0 0-1.6 3.5zm-8.5 55.2 165.6 1.3c41.4.3 83 .6 124.4 2.4 1.7 3.5-4 6-7.9 5.8l-270.7-3c-4.9 0-11.3-1.6-11.4-6.5zm40.2 41.4q61-3.3 122-2.8c3.3 0 7.9 1.4 7.3 4.7a37 37 0 0 1-18.3 2.4 1030 1030 0 0 0-107.3 1.7zM169.5 28.5c-1.4 4-6.6 4.6-10.8 4.5q-63.2-.8-126.4.2c-1.8-1.6-.9-4.7 1-6 1.9-1.3 4.6-1.3 7-1.2zm141.8 114.2-.2 21c0 3.3-.3 7-2.9 8.8-1.7 1.3-4 1.3-6.2 1.2l-111.7-1.6c-2.7 0-5.5 0-7.7-1.5-3.5-2.2-4.5-6.8-5-11a142 142 0 0 1-.3-29.9 5.6 5.6 0 0 1 1.2-3.6c1.1-1 2.7-1 4.2-1l114 3c4.3 0 9.1.4 12 3.6 2.5 3 2.6 7.1 2.6 11m-127.4 16.4c0 2 .4 4.5 2.2 5.5a6.2 6.2 0 0 0 2.8.5l106.7 2c2.9 0 6 0 8.4-1.5 2.4-1.5 3.6-5.4 1.6-7.5-3.2-3-1.5-8.3-.3-12.5 1.2-4.2.1-10.5-4.3-10.6l-112-3c-2.8 0-6.4.8-6.3 3.5zm-72.7-48.6c-3.4 2.4-7.8 2.5-12 2.6l-67.6.4c-1.6 0-2-2.4-1-3.6 1-1.2 2.9-1.2 4.5-1.3l52-1.7c8.3-.3 17-.4 24.1 3.6zm73.9-.8h25.1c2 0 4 0 5.6 1 1.6 1 2.5 3.5 1.3 5l-35.2-.5a3.8 3.8 0 0 1-1.7-.3c-1.5-.7-1.2-3 .1-4.2 1.3-1 3.1-1 4.8-1zM59.4 212.8a233.1 233.1 0 0 1-.7 24.4c-.3 3.8-3.6 6.8-7.3 8-3.7 1.2-7.5.8-11.3.5-4.2-.4-8.9-1-11.5-4.3-2.3-2.8-2.3-6.8-2.3-10.4l.3-13.4c0-1.6.1-3.5 1.4-4.6a6 6 0 0 1 3.8-1 160.3 160.3 0 0 1 27.7 1m-6.3 7c-5.3-3-12.6-3.3-17.3.7-4.7 4-5.2 12.3-.4 16 3.4 2.6 8 2.6 12.1 2.2a7.6 7.6 0 0 0 4.2-1.2c4-3.2-.8-10.9 2.8-14.5 1-1-.2-2.6-1.4-3.3zm68-155.2a5.8 5.8 0 0 1 .8 4.4 374.4 374.4 0 0 1-83-.4l-.8-5z"/>
  <path d="M66.6 146.6c3.5 0 8.6 2.5 6.7 5.5a140.7 140.7 0 0 1-31.3 1 4.5 4.5 0 0 1-2.7-1c-1.3-1.2-.7-3.6.8-4.6 1.5-1 3.5-1 5.3-1zm149 9-25.7-2a29.3 29.3 0 0 1 24.9-3 4.6 4.6 0 0 1 .8 5zm-12.8 129.7c0 2-1.6 5.3-1.7 5.5a2.6 2.6 0 0 1-.6 1.2c-1.4 1.5-3.8 1.7-6 1.7l-37.6.6c-4.8 0-9.9 0-14-2.4s-6.5-8.4-3.6-12.2c2.4-3.3 7.2-3.5 11.3-3.4l46.6 1.2a6.3 6.3 0 0 1 4.7 2.4c1.7 1.7 1 5.4 1 5.4z"/>
</svg>
