<svg xmlns="http://www.w3.org/2000/svg" width="329.6" height="324.2" data-name="Layer 1" viewBox="0 0 329.6 324.2">
  <path d="M85 24.7c-3.6-.1-8.4-4-5.4-5.8q121-2.4 241.8 1.6c3.7.2 8.7 1.7 8.2 5.4a45.9 45.9 0 0 1-22 3.2zm2 135.5q119.2-1.8 238.4 2.1c3.4.1 4.2 4.9 3.8 8.3Q204.5 168.9 80 166c-2-3.2 3.3-5.9 7.1-6zm-1.2 80.7c-3.8-.1-8.8-4.7-5.2-6.1q119.4-1.8 238.8 1.7c3.8.1 9 1.8 8.3 5.6-6.6 3-14.2 3-21.4 2.8zM79.4 87.3q119-1.2 238.1 1.9c5.6 0 13.4 4.7 9.7 8.9L88 93.7c-4.2 0-10.1-2.4-8.6-6.4zm6.3 220.5c-3.8-.1-9-1.8-8.2-5.6q120.2-2.7 240.4 1.5c4 .1 9.3 2.3 8 6-8.8 2.7-18 2.5-27.2 2.4zM7 109a26.3 26.3 0 0 1-5.8-21 26.8 26.8 0 0 1 27.4-21.7 26.8 26.8 0 0 1 24 25.4 25.9 25.9 0 0 1-45.5 17.2M26.2 73a19.1 19.1 0 0 0-10 3.1c-10.1 6.7-10.7 23.7-1 31 9.6 7.4 25.8 2.3 29.6-9.2 3.7-11.5-6.5-25.2-18.6-24.9zM12 252.5a28 28 0 0 1-9.5-17.2 24 24 0 0 1 .2-8.5c2.6-11.6 15.2-19 27-18.3 10.1.7 20 7 23.8 16.5a25.6 25.6 0 0 1-9.9 29.9c-9.5 6.2-23 5-31.7-2.4m36.2-21.4c-1.4-9.1-10.8-15.6-20-15.4-9.8.2-19.4 8.3-19.5 18 0 9.9 9.5 18 19.3 18.2 11 .2 21.8-10 20.2-20.8zM9.7 318.2A26.4 26.4 0 0 1 1.4 294c2.9-15.5 22.3-25.5 36.6-18.7A27 27 0 0 1 48.5 313a27 27 0 0 1-38.8 5.2M8 301.3a19 19 0 0 0 9.8 14.3c9 4.9 21.6.7 26-8.5 4.4-9.2-.4-21.6-9.8-25.6s-21.6 1.4-25 11a18.8 18.8 0 0 0-1 8.8zM42.6 45a28 28 0 0 1-32.3-.5C-.2 36.5-3.2 19.9 4.9 9.6 9.7 3.6 17.4.4 25.1 0c10.4-.5 21.5 4.7 26 14.1 5.2 10.5 1 24.2-8.5 31M8 27.4a18.9 18.9 0 0 0 9.8 14.3c9 4.8 21.7.6 26-8.6 4.4-9.2-.4-21.6-9.8-25.5-9.4-4-21.6 1.4-25 11a19 19 0 0 0-1 8.8zm31.4 155.9c-14.5 7.8-35.7-1-39-17.1a26.3 26.3 0 0 1 9.1-25 28.8 28.8 0 0 1 26.4-5 26.3 26.3 0 0 1 11.6 7.3c10.5 11.5 5.6 32.4-8 39.8z" data-name="Radio Group"/>
</svg>
