<svg xmlns="http://www.w3.org/2000/svg" width="971.7" height="253" data-name="Layer 1" viewBox="0 0 971.7 253">
  <path d="m775.8 135.6.3 17c0 1.8 0 3.7-1.2 5-1.2 1.4-3 1.6-4.6 1.8a332 332 0 0 1-70.5 1.3c-1.4-.1-3-.3-3.9-1.3-1.2-1.3-1-3.2-.9-4.9l1.3-11.1c.3-2.3.6-4.9 2.3-6.4 1.6-1.4 3.8-1.7 5.9-1.9q33.1-2.9 66.4-3.7c1.6 0 3.4 0 4.3 1.3a5 5 0 0 1 .7 2.9zm-4.2 4.9a3.8 3.8 0 0 0-.5-2.2c-.7-1-2.3-1-3.5-1l-56.2 3.1c-4 .2-9 1-10.9 4.6-1.9 3.7.7 8.5 4.4 10.4 3.7 2 8 1.8 12.2 1.6l46.7-2c6.2-.2 7.9-8.4 7.8-14.5zm-75.1 88.2c-1.7-1.5-1.6-4-1.3-6.3l1.2-11.7c.2-2.2.6-4.6 2.4-6a8.6 8.6 0 0 1 4.6-1.3q33-2.8 66-3.9c1.7 0 3.5 0 4.6 1.2a5.5 5.5 0 0 1 1 2.5 35.7 35.7 0 0 1 1.4 15.8c-1.2 5.2-5.4 10.1-10.7 10.2l-64.4.6c-1.7 0-3.5 0-4.8-1zm75.3-17c.2-1.8.3-3.8-1-5-1.3-1.3-2.9-1.2-4.4-1l-50.3 2.1c-4 .2-8.3.4-11.7 2.5-3.5 2.1-5.8 6.8-3.8 10.3 2 4 7.4 4.3 11.8 4.2l48-1.2c2.3-.1 4.8-.2 6.8-1.5 3.4-2 4.1-6.6 4.6-10.5zM776 92.3c-2.7 5.8-10.4 6.7-16.7 6.8l-57.7.5a6.8 6.8 0 0 1-4.2-.9c-1.6-1.1-1.8-3.3-2-5.2a33 33 0 0 1 .8-12.9c1.4-4 4.9-7.8 9.2-8q31.7-2 63.4-3.4c3.4-.1 8.2 1.4 7.2 4.7-1.8 6 2.5 12.7 0 18.4zm-4.2-11.6c.2-1.4.2-2.9-.6-4-1-1.4-3.2-1.5-5-1.4L716 77.5c-4 .2-8 .4-11.5 2.5-3.4 2-5.7 6.5-4 10 2 4.2 7.6 4.7 12.2 4.5l48.1-1.2a13.3 13.3 0 0 0 5.7-1c4-2 4.9-7.2 5.3-11.6zM192.3 206.5l-.4.1a.7.7 0 0 0 .3-.2zm115.1 12.7a962.4 962.4 0 0 1 100.7 1c1.9.2 4.4.9 4.4 2.8 0 2-2.7 2.7-4.8 2.7l-92.6-.7c-3.9 0-9.4-2.4-7.7-5.8zm105-124.8a876.3 876.3 0 0 1-100-.6c-2.8-.2-6.6-2.8-4.5-4.6a3.5 3.5 0 0 1 2.3-.7q48.3-1.3 96.5 1.3c2.9.2 6.8 2 5.7 4.6zm-105 56.6a962.4 962.4 0 0 1 100.7 1.2c1.9.1 4.4.8 4.4 2.7 0 2-2.7 2.7-4.8 2.7l-92.6-.7c-3.9 0-9.4-2.4-7.7-5.8z"/>
  <path d="M970.5 23c-.1-3.5-.3-7.3-2.5-10-3-3.6-8.3-4-13-4L100.4.2C69.5 0 38.6-.4 7.7 1.8L0 229.9c0 3.4 0 7 2 9.5 2.5 3 6.9 3.2 10.8 3.3L968.2 253q5.5-115 2.3-230zm-4.6 27.4q-474.7-4.3-949.3-7c24.7 5.4 50.2 5.7 75.5 5.9l867.7 7.3c4 0 5.3 5.4 5.3 9.5l-.7 180.3L5.6 235.8 14 6l950 10a107.8 107.8 0 0 1 2 34.5z"/>
  <path d="M192.2 206.4a.7.7 0 0 1-.3.2c-8.7 2.8-18 2.7-27 2.5l-58.4-.9c-3.4 0-6.9-.1-10-1.5-3.1-1.4-5.7-4.4-5.5-7.8.3-6.5 9-8.2 15.4-8l79 1.4c2.2 0 5.2 1 5.7 2.8a6 6 0 0 1 .9 3.6c0 3.6 1 6.8.2 7.7zm.8-74.7a12.7 12.7 0 0 1-1.7 6.7 3 3 0 0 1-.9 1.4c-1.4 1.3-3.5 1.3-5.4 1.3l-78.8-.9c-3.3 0-6.7 0-9.8-1.4-3-1.3-5.6-4.2-5.5-7.5 0-6.5 8.9-8.5 15.4-8.4l76 1c3.7.1 8.1.7 9.6 3.9.6.6 1.1 1.7 1.1 3.9zM66.6 64.2a17 17 0 0 1 4 5.3 17.2 17.2 0 0 1 .3 14A17.7 17.7 0 0 1 47 91.7c-8.3-4.7-11-17-5.5-24.7 5.5-7.8 18-9.2 25.1-2.8zM53.5 88c5 .1 9-3.7 12-7.7 2.6-3.3 1.8-8.6-1.3-11.5-3-2.9-7.9-3.5-11.8-2A12.4 12.4 0 0 0 44 78.2c.1 5 4.4 9.8 9.4 9.9zm14.7 60.9c-6.4 7.5-19.6 9.7-26 2a16.1 16.1 0 0 1-3.5-8.7c-1-9.6 6.7-19.5 16.3-20.3 9.7-.8 19 8.7 17.4 18.2a18.4 18.4 0 0 1-4.2 8.8zm-3-15c-3-5.9-12-7.7-17-3.3-5 4.3-4.7 13.5.7 17.4a11 11 0 0 0 16.4-14zm104.5 86.7q-34 .8-68-1c-2.5 0-5.7-.7-6.3-3.2 1.2-2.4 4.4-2.7 7-2.6l66.5 2zm.1-130.3q-34.7 1-69.5-1c-1.9-.1-4.2-.6-4.5-2.5-.5-2.4 3-3.4 5.4-3.3l67.8 2.1zM71.7 203.9c1.5 10.2-8.3 20.4-18.5 19.4a17 17 0 0 1-6-1.9c-10.3-5.3-11.5-22.1-2-28.8 9.4-6.8 24.8-.2 26.6 11.3zm-16.6 14.4c5.6-.6 9.5-5.8 12-10.8 1.3-2.8-.5-6.3-3-8.2-5.8-4.5-15.6-2.9-18.9 3.7-3.2 6.7 2.6 16 10 15.3zm40.5-70.6c4.8-2.3 10.2-2.1 15.4-2l58 2.3c1.3 1 .8 3.4-.6 4.4-1.5 1-3.3 1-5 1l-62.7-1.7c-2.6 0-6.1-1.7-5-4zM374.2 70c-.7 3-4.5 3.7-7.6 3.8q-28.8.9-57.6 0a4.5 4.5 0 0 1-3-.8c-1.3-1.3-.7-3.6.8-4.6 1.5-1 3.4-1 5.2-1q31.1.3 62.2 2.6zm-.1 130.2c-.4 3-4.2 3.8-7.2 3.9q-28.9.9-57.8 0a4.5 4.5 0 0 1-3.1-.9c-1.3-1.2-.6-3.6.9-4.6 1.5-1 3.4-1 5.2-1q31 .5 62 2.6zM374 132c0 3.2-4.3 4.2-7.5 4.2l-54.6.2c-2.8 0-6.3-.4-7.4-3 2.2-4 7.6-4.2 12-4q28.8 1.2 57.5 2.6zm124.4 13.5 32.5-2c7.2-.5 14.9-.8 21 2.9-2.3 3.8-7.6 4.2-12 4.2l-33.4-.2c-3.6 0-8.4-1.4-8-5zm8.3-57.2c-3.6 0-8.6-1.3-8.3-5a318.6 318.6 0 0 1 53-.8c1 3.9-4.6 5.8-8.6 5.8zm-8.3 125.2 32.5-2c7.2-.5 14.9-.8 21 2.9-2.3 3.8-7.6 4.2-12 4.2l-33.4-.1c-3.6 0-8.4-1.4-8-5zM138 28.2l-37.2 1.2A12.8 12.8 0 0 1 96 29a6.5 6.5 0 0 1-4-4.5 171 171 0 0 1 43-2.5c1.7 0 3.5.3 4.8 1.4 1.3 1 1.6 3.4.3 4.3a4.1 4.1 0 0 1-2.3.5zm223 1-37.2 1.2a12.8 12.8 0 0 1-4.7-.4 6.5 6.5 0 0 1-4-4.5 171 171 0 0 1 43-2.5c1.7 0 3.5.3 4.8 1.4 1.3 1 1.6 3.4.3 4.3a4.1 4.1 0 0 1-2.3.5zm151.1-2.4 37.2-1.2a12.8 12.8 0 0 1 4.6.4 6.5 6.5 0 0 1 4.2 4.5 171 171 0 0 1-43.2 2.5c-1.7 0-3.5-.3-4.8-1.3-1.2-1.1-1.6-3.5-.2-4.4a4.1 4.1 0 0 1 2.2-.5zm233.5 2.8c2.4-.1 4.9-.2 7 .8 2.3 1 4 3.5 3.3 5.8q-22.6.4-45.2.2c-1.5-.8-1.2-3.3 0-4.4 1.4-1 3.2-1.2 5-1.2zM937 138c3.5-.2 8.5 1.9 7 5a132.8 132.8 0 0 1-31.7 1.4c-1.5-.1-3.3-.5-3.8-1.9-.8-2.3 2.6-3.7 5.1-3.8zm.1 68c3.5 0 8.4 2 6.9 5a132.8 132.8 0 0 1-31.7 1.5c-1.5-.1-3.3-.5-3.8-1.9-.8-2.3 2.6-3.7 5.1-3.8zM944 80.8a135.7 135.7 0 0 1-30.4 1.5c-2.7-.1-6.2-2.1-4.8-4.3.6-1 2-1.2 3.3-1.3l24.7-1c3.5-.1 8.6 1.8 7.2 5zm-378.3 6a29.3 29.3 0 0 1-5.9-1c-1.6-.5-3.4-2.2-2.5-3.6a69 69 0 0 1 32.5.4c-6.4 5.4-15.7 4.9-24 4.2zm24.4 58.8a48.8 48.8 0 0 1-30.4 2.5 3.2 3.2 0 0 1-1.8-.9c-1.5-1.8 1.8-3.8 4.1-4a59 59 0 0 1 28.1 2.4zm-.1 67.2c-7.8 5.7-18.3 5-28 4-2-.2-4.4-1-4.3-3 0-1.8 2.4-2.5 4.2-2.6a96.5 96.5 0 0 1 28 1.6zM709 152c-1.7 0-2.2-2.7-1-3.9 1.2-1.2 3-1.3 4.7-1.4l47.1-1.9c2 0 4.1 0 5.5 1.3 1.4 1.3.8 4.4-1 4.3q-27.7-.5-55.3 1.6zm0 68c-1.7 0-2.2-2.6-1-3.8 1.2-1.2 3-1.4 4.7-1.4l47.1-1.9c2 0 4.1 0 5.5 1.3 1.4 1.3.8 4.4-1 4.3q-27.7-.5-55.3 1.6zm-2-134.4q26.3-2.1 52.7-3.1c3.2-.1 7.7 1.9 6.1 4.6-.8 1.3-2.7 1.4-4.2 1.4A424.1 424.1 0 0 0 709 90a3.1 3.1 0 0 1-2.1-4.4zm-514.7-9.4-.9.3a85.1 85.1 0 0 1-26.6 2.4l-58.3-1c-3.4 0-6.9-.2-10-1.5-3.1-1.4-5.7-4.5-5.5-7.8.3-6.5 9-8.2 15.4-8l79 1.3c2 0 4.5.9 5.4 2.3 0 0 2 .3 2 4.3s1 7.3-.5 7.7z"/>
</svg>
