<svg width="989.7" height="253" viewBox="0 0 677 173" fill="none" xmlns="http://www.w3.org/2000/svg">
<path d="M41.1132 72.6691L617.864 73.5647C620.893 73.5647 624.81 74.2484 625.303 77.2634L71.8928 76.0807C61.5213 76.0601 50.931 76.0055 41.1132 72.6691Z" fill="black"/>
<path d="M79.8988 116.938L599.5 123.515C607.582 123.617 615.984 123.788 623.218 127.405L40.368 120.001C53.1872 116.63 66.6148 116.774 79.8988 116.938Z" fill="black"/>
<path d="M84.3154 94.8205L506.328 101.049L621.016 102.738C619.902 105.691 615.977 106.156 612.812 106.095L38.8776 97.8287C53.6862 94.3898 69.0897 94.5949 84.3154 94.8205Z" fill="black"/>
<path d="M50.2063 31.6957H50.1447C50.09 31.6 50.0353 31.5111 49.9875 31.4154C50.0544 31.5134 50.1275 31.607 50.2063 31.6957V31.6957Z" fill="black"/>
<path d="M3.59937 7.99911H3.96172V7.80084L3.59937 7.99911Z" fill="black"/>
<path d="M169.879 41.5271L169.366 6.44032H168.683C168.532 18.3501 168.582 30.2827 168.833 42.2381L284.697 42.1971L169.879 41.5271ZM337.683 7.54789H337.533C337.077 17.4249 336.621 27.3087 336.165 37.1994C336.11 38.6761 336.165 40.399 337.293 41.3015C337.459 41.4304 337.641 41.5383 337.833 41.6228C337.601 30.2463 337.551 18.888 337.683 7.54789ZM676.655 165.534C675.579 114.558 674.508 63.5806 673.441 12.6003C673.4 10.5493 673.277 8.23842 671.842 6.73431C670.29 5.10714 667.739 4.97723 665.517 4.96356L18.0186 0.082039L7.46927 0C5.6575 0 3.6543 0.0478564 2.29377 1.23747L496.531 4.96356C498.753 4.96356 501.316 5.10714 502.855 6.73431C504.29 8.23842 504.414 10.5493 504.455 12.6003C504.687 23.7854 504.915 34.9683 505.138 46.1488L670.59 46.436L673.544 169.007L507.675 166.491L504.509 166.443L3.93462 158.896C3.61556 121.124 3.54264 83.3505 3.71584 45.5745H0.215361C-0.0717871 84.18 -0.0717871 122.788 0.215361 161.398C0.215361 161.856 0.215361 162.321 0.215361 162.765L506.875 170.505L669.237 172.993C671.342 173.027 673.701 172.993 675.185 171.469C676.668 169.944 676.696 167.633 676.655 165.534ZM669.715 41.5681C668.731 42.662 667.063 42.7372 665.613 42.7304L509.254 41.9989C508.214 42.1057 507.169 41.8653 506.28 41.3152C505.152 40.399 505.097 38.6761 505.152 37.213C505.608 27.3269 506.064 17.4431 506.519 7.56157L670.057 8.86741C670.235 18.5119 670.415 28.1633 670.597 37.8215C670.604 39.1274 670.604 40.5905 669.715 41.5681ZM337.533 7.54789C337.077 17.4249 336.621 27.3087 336.165 37.1994C336.11 38.6761 336.165 40.399 337.293 41.3015C337.459 41.4304 337.641 41.5383 337.833 41.6228C337.601 30.2281 337.551 18.8652 337.683 7.53422L337.533 7.54789ZM168.86 42.2313L284.725 42.1903L169.865 41.5066L169.353 6.41981H168.669C168.546 18.3296 168.61 30.2668 168.86 42.2313ZM337.683 7.54789H337.533C337.077 17.4249 336.621 27.3087 336.165 37.1994C336.11 38.6761 336.165 40.399 337.293 41.3015C337.459 41.4304 337.641 41.5383 337.833 41.6228C337.601 30.2463 337.551 18.888 337.683 7.54789ZM169.879 41.5271L169.366 6.44032H168.683C168.532 18.3501 168.582 30.2827 168.833 42.2381L284.697 42.1971L169.879 41.5271Z" fill="black"/>
<path d="M505.152 46.1625C504.91 34.9774 504.682 23.7946 504.468 12.614C504.427 10.563 504.304 8.25211 502.868 6.748C501.316 5.12083 498.766 4.99093 496.544 4.97725L2.30723 1.25116L2.23202 1.31269C1.16547 2.30404 0.809952 3.74662 0.680051 5.22338C0.632193 5.79084 0.61852 6.3583 0.611684 6.90525C0.57522 9.63999 0.543315 12.3747 0.515968 15.1095C0.40202 25.2645 0.306305 35.4127 0.228821 45.554H3.72929L337.847 46.1352V41.616C337.654 41.5315 337.473 41.4236 337.307 41.2947C336.179 40.3785 336.124 38.6556 336.179 37.1926C336.634 27.3065 337.09 17.4226 337.546 7.54108H337.696C337.696 7.17189 337.696 6.79586 337.696 6.42667L499.498 7.55475C500.31 7.47172 501.127 7.6722 501.809 8.12221C502.567 8.8059 502.608 9.9203 502.595 10.9253C502.465 19.1296 502.718 27.2723 502.595 35.4492V46.3061L505.152 46.1625ZM165.633 10.2143C165.633 10.3579 165.633 10.5014 165.633 10.6382C165.633 11.3219 165.585 12.0055 165.565 12.6892L164.724 37.425C164.683 38.7308 164.594 40.1598 163.739 41.1238C162.666 42.3476 160.813 42.4364 159.186 42.4228L3.73613 41.5408C3.79082 30.8662 3.86603 20.1961 3.96175 9.5306V8.02649H3.59939L3.96175 7.82822V4.55337L165.633 5.23705V10.2143ZM334.613 10.6382C334.312 19.5762 334.009 28.512 333.704 37.4455C333.663 38.7514 333.574 40.1803 332.719 41.1443C331.646 42.3681 329.793 42.4569 328.166 42.4433L284.724 42.1903L168.86 42.2313C168.605 30.2714 168.555 18.3388 168.71 6.4335H169.393V5.20287L330.101 6.33095C331.557 6.33095 333.239 6.46085 334.093 7.64363C334.654 8.48457 334.647 9.60581 334.613 10.6108V10.6382Z" fill="black"/>
<path d="M461.526 23.4436C460.5 27.4022 459.536 30.4035 457.964 30.2805C457.463 31.0709 456.787 31.7353 455.988 32.2222C453.513 33.6989 450.457 33.6716 447.578 33.5895L399.864 32.3931V32.4888C397.895 32.3042 395.913 32.3042 393.943 32.4888C393.467 32.5726 392.977 32.5446 392.513 32.407C392.049 32.2694 391.624 32.0259 391.27 31.6957C391.192 31.6185 391.119 31.5363 391.051 31.4496C390.842 31.0804 390.659 30.6965 390.504 30.301V30.301C389.41 27.6415 389.363 24.5922 389.342 21.6729C389.26 20.8197 389.409 19.9603 389.773 19.1842C390.593 17.7553 392.508 17.5571 394.183 17.5229L451.045 16.3743C454.709 16.2991 458.695 16.3333 461.553 18.61C461.526 18.61 462.558 19.4988 461.526 23.4436Z" fill="black"/>
<path d="M42.1661 28.3867C43.9984 26.4929 46.9519 26.3356 49.5841 26.3356L123.511 25.6519C125.186 25.6519 127.572 26.5681 126.93 28.1132C122.827 29.4806 118.411 29.5216 114.083 29.5421L47.3006 29.8771C45.4615 29.8224 43.3899 29.754 42.1661 28.3867Z" fill="black"/>
<path d="M229.995 25.4605L289.791 26.3356C291.158 26.3356 292.983 26.9646 292.689 28.2772C292.471 29.2412 291.219 29.4805 290.228 29.5147C268.542 30.2531 246.853 29.9181 225.162 28.5097C224.738 26.3356 227.801 25.4263 229.995 25.4605Z" fill="black"/>
<path d="M625.795 30.301L564.393 30.6565C562.287 30.6565 559.286 29.3233 560.291 27.4842C582.233 26.2626 604.191 25.9596 626.164 26.5749L625.795 30.301Z" fill="black"/>
<path d="M505.152 4.35507V9.35966C505.152 9.50323 505.152 9.64681 505.152 9.78354C505.152 10.4672 505.104 11.1509 505.077 11.8346L336.151 10.5083L334.627 3.67139L505.152 4.35507Z" fill="black"/>
<path d="M165.633 10.2143V12.7098H165.558C165.558 12.0261 165.606 11.3424 165.626 10.6587C165.633 10.5014 165.633 10.3579 165.633 10.2143Z" fill="black"/>
</svg>
