<svg xmlns="http://www.w3.org/2000/svg" width="989.7" height="253" data-name="Layer 1" viewBox="0 0 989.7 253">
  <path d="m60.1 106.3 843.6 1.3c4.4 0 10.2 1 10.9 5.4l-809.5-1.7a139 139 0 0 1-45-5zm56.8 64.7 760 9.7c11.8.1 24 .4 34.6 5.6L59 175.5c18.8-5 38.4-4.7 57.9-4.5zm6.4-32.3 617.3 9.1 167.7 2.5c-1.6 4.3-7.3 5-12 4.9L57 143c21.6-5 44.1-4.7 66.4-4.4zM73.4 46.4 73 46a3.5 3.5 0 0 0 .3.4zM5.3 11.7h.5v-.3z"/>
  <path d="M989.7 242.1 985 18.4c0-3-.2-6.3-2.3-8.5-2.3-2.4-6-2.6-9.3-2.6L26.4 0H10.8C8.2 0 5.2 0 3.2 1.9 1.1 3.9 1 7.2 1 10.1Q-.5 124 .3 238L979 253c3 0 6.5 0 8.7-2.3 2.1-2.2 2.2-5.6 2.1-8.7zM739 54.4l2-43.4 239 2 .7 42.3c0 2 0 4-1.2 5.5-1.5 1.6-4 1.7-6 1.7l-228.7-1c-1.6 0-3.2-.1-4.4-1-1.6-1.4-1.7-4-1.6-6zm-245-45 236.7 1.7a5.2 5.2 0 0 1 3.4.8c1 1 1.1 2.6 1.1 4l-.6 40c0 1.7-.1 3.5-1.3 4.6-1.2 1.2-2.9 1.2-4.4 1.2H494q-.5-26.2-.2-52.3zm-11.2-.1c2.2 0 4.6.2 5.9 1.9.9 1.2.9 2.8.8 4.4l-1.3 39.2c0 1.9-.2 4-1.5 5.4-1.5 1.8-4.2 1.9-6.6 1.9l-231.5-1.4-.8-53zM5.7 232.4q-.9-110.3.1-220.7h-.5l.5-.3v.3H26L243.6 15a461.7 461.7 0 0 0-.4 51.6L981 68l4.3 179.3z"/>
  <path d="M176.2 34.3c-1.5 5.8-2.9 10.2-5.2 10a9 9 0 0 1-2.9 2.8c-3.6 2.2-8 2.2-12.3 2L86 47.4v.1a46.6 46.6 0 0 0-8.7 0 4.6 4.6 0 0 1-3.9-1.1 3.5 3.5 0 0 1-.3-.4 11.7 11.7 0 0 1-.8-1.7 34 34 0 0 1-1.7-12.6 7 7 0 0 1 .6-3.6c1.2-2.1 4-2.4 6.5-2.5l83.2-1.6c5.3-.2 11.1-.1 15.3 3.2 0 0 1.5 1.3 0 7zm384.3 7.2c2.7-2.8 7-3 10.8-3l108.2-1c2.4 0 6 1.4 5 3.6-6 2-12.5 2-18.8 2.1l-97.7.5c-2.7 0-5.7-.2-7.5-2.2Zm-224.1-4.3 87.5 1.3c2 0 4.6 1 4.2 2.9-.3 1.4-2.2 1.7-3.6 1.8q-47.6 1.6-95.2-1.5c-.6-3.2 3.9-4.5 7.1-4.5zm578.9 7.1-89.8.5c-3 0-7.5-2-6-4.6q48.1-2.7 96.4-1.3Z"/>
</svg>
