<svg xmlns="http://www.w3.org/2000/svg" width="139.6" height="59.8" data-name="Layer 1" viewBox="0 0 139.6 59.8">
  <path d="M17 54.7C8.5 51.3.4 44.5 0 35.5c-.3-7 4.1-13.4 9.2-18.2A68.9 68.9 0 0 1 48.1.7C62.3-1 76.7.7 90.8 3.5c13.4 2.7 27 6.6 38 14.7 6.9 5 13 13.4 10 21.2-2.3 6-8.7 9-14.7 11a230.3 230.3 0 0 1-63.8 9.1c-14.7.6-29.8.8-43.4-4.7M64.3 4.5a77.8 77.8 0 0 0-49.6 14.3c-5 3.6-10 8.5-10.2 14.7-.3 7 5.6 13 12 16A70.6 70.6 0 0 0 46.2 55a303.3 303.3 0 0 0 73.1-7.6c4.4-1 9-2.2 12.2-5.3 3.3-3 4.8-8.5 2-12a49.7 49.7 0 0 0-27.3-17.6c2.9 2.2 1.7 7.8-1.8 8.7.1-5-4-9.5-8.6-11.3-4.7-2-10-1.8-15-1.7l-24.5.6a9.5 9.5 0 0 1 8-4.3z"/>
</svg>
