<?xml version="1.0" encoding="UTF-8" standalone="no"?>
<svg
   id="Layer_1"
   data-name="Layer 1"
   viewBox="0 0 354 80"
   version="1.1"
   sodipodi:docname="squiggle_dark.svg"
   inkscape:version="1.2.1 (9c6d41e4, 2022-07-14)"
   width="354"
   height="80"
   xmlns:inkscape="http://www.inkscape.org/namespaces/inkscape"
   xmlns:sodipodi="http://sodipodi.sourceforge.net/DTD/sodipodi-0.dtd"
   xmlns="http://www.w3.org/2000/svg"
   xmlns:svg="http://www.w3.org/2000/svg">
  <sodipodi:namedview
     id="namedview9"
     pagecolor="#505050"
     bordercolor="#eeeeee"
     borderopacity="1"
     inkscape:showpageshadow="0"
     inkscape:pageopacity="0"
     inkscape:pagecheckerboard="0"
     inkscape:deskcolor="#505050"
     showgrid="false"
     inkscape:zoom="0.84671331"
     inkscape:cx="187.78493"
     inkscape:cy="140.54344"
     inkscape:window-width="1309"
     inkscape:window-height="456"
     inkscape:window-x="0"
     inkscape:window-y="25"
     inkscape:window-maximized="0"
     inkscape:current-layer="Layer_1" />
  <defs
     id="defs4">
    <style
       id="style2">.cls-1{fill:#fff;}</style>
  </defs>
  <path
     style="fill:#000000"
     id="path1891"
     d="m 9.1148955,28.581313 c 5.0459155,0.09 10.0746905,-0.42654 15.1077315,-0.71773 6.416067,-0.35361 12.843097,-0.40364 19.267087,-0.44773 5.99104,-0.0304 11.98217,-0.0246 17.97325,-0.0219 7.45288,0.004 14.90576,0.005 22.35864,0.006 8.92467,0.28431 17.842736,0.72181 26.768906,0.96629 7.19771,-0.018 14.36916,0.58654 21.55338,0.9275 8.23981,0.34053 16.48697,0.41067 24.73261,0.45687 8.7515,0.0306 17.50309,0.0215 26.25464,0.0186 7.81096,-0.003 15.62192,-0.005 23.43289,-0.006 5.83297,-6.6e-4 11.66595,-6.5e-4 17.49892,-6.6e-4 6.15451,10e-6 12.30901,4e-5 18.46352,5e-5 5.33047,-0.0618 10.64561,-0.0367 15.96399,0.32752 5.63421,0.44657 11.28308,0.64612 16.93212,0.77614 4.10023,0.37958 8.19289,0.80884 12.30465,1.04652 3.76898,0.13447 7.51952,0.62068 11.2188,1.34135 2.70038,0.50035 5.3074,1.37604 7.99688,1.93615 1.08032,0.20046 2.17481,0.29935 3.26228,0.44954 -0.13869,-6.33725 2.69437,-7.50206 -1.06491,-7.52601 -1.50314,-0.12764 -2.94824,0.29632 -4.39763,0.62542 -2.57451,0.57153 -5.1352,1.22 -7.71147,1.79497 -3.75626,0.78208 -7.59225,0.93028 -11.41415,1.04861 -4.91167,0.10703 -9.82502,0.0859 -14.73753,0.0835 -7.93502,0.0607 -15.85964,0.58965 -23.79153,0.84545 -9.26168,0.26908 -18.52804,0.29346 -27.79287,0.31898 -9.91629,0.0165 -19.83261,0.0101 -29.74891,0.007 -8.49074,-0.11491 -16.98459,0.15973 -25.44667,0.86121 -5.92418,0.64515 -11.86397,1.09351 -17.79123,1.7035 -5.61236,0.38734 -11.18928,1.13274 -16.79054,1.63806 -3.77078,0.48022 -7.51318,1.14604 -11.29982,1.49566 -2.46642,0.0308 -4.86678,0.32707 -7.27722,0.82902 -1.46454,0.30056 -2.94836,0.45935 -4.44022,0.52284 -1.46473,0.0437 -2.93027,0.0408 -4.39548,0.0387 -1.56316,-0.13965 -3.038967,0.22947 -4.451077,0.88262 -0.33415,0.19365 -0.58622,0.23558 -0.9696,0.27286 -3.059889,-0.477 -3.057789,7.60484 -0.11946,7.58053 0.5009,-0.004 1.00182,-0.003 1.50273,-0.004 1.1407,-1.6e-4 2.281407,-6e-5 3.422117,-3e-5 1.93962,5e-5 3.87924,5e-5 5.81886,6e-5 2.62591,0 5.25183,0 7.87774,0 2.66534,-0.002 5.28792,-0.58283 7.93182,-0.8796 2.79406,-0.19516 5.5723,-0.288 8.35025,-0.67157 3.16343,-0.46389 6.35659,-0.63765 9.54884,-0.74149 3.37298,-0.0874 6.74742,-0.0778 10.12123,-0.0781 4.95131,0.002 9.90262,0.005 14.85393,0.007 3.7266,0.001 7.45321,0.002 11.17982,0.002 4.33041,6e-5 8.66082,1e-5 12.99124,0 3.65972,0.0307 7.31574,-0.17342 10.95105,0.30538 2.74186,0.53063 5.55148,0.50155 8.30487,0.90541 3.32434,0.55358 6.67761,0.84648 10.04041,1.02169 2.58264,-0.0521 5.09612,0.20913 7.63551,0.62442 2.42763,0.47593 4.90108,0.57538 7.36684,0.64811 2.77404,0.13798 5.51682,0.65256 8.29109,0.88831 3.06229,0.16242 6.07065,0.80079 9.11354,1.15988 2.44797,0.23992 4.83562,0.85086 7.27591,1.17792 2.8503,0.58258 5.72893,0.94122 8.56884,1.5719 4.07126,0.68789 8.15158,1.31555 12.25667,1.76782 4.62999,0.56507 9.27484,1.00112 13.90933,1.5283 5.30892,0.53875 10.60451,1.16675 15.90572,1.77558 4.78805,0.54179 9.60747,0.68389 14.42134,0.77141 2.94704,0.0423 5.89444,0.0435 8.8417,0.0367 0.41835,0.36795 1.13198,0.50647 1.67241,0.71168 0.43808,0.18897 0.84784,0.25325 1.33868,0.3735 5.27936,0.83545 6.46086,-6.63069 1.1815,-7.46614 v 0 c 1.16367,0.37149 0.38271,0.12744 0.162,0.0255 -1.41748,-0.53771 -2.83651,-1.1222 -4.37186,-1.20352 -2.89591,0.007 -5.79195,0.006 -8.68764,-0.0355 -4.57151,-0.0823 -9.14869,-0.2114 -13.69598,-0.72332 -5.30539,-0.60885 -10.60542,-1.23667 -15.9183,-1.77702 -4.64339,-0.52245 -9.29546,-0.96399 -13.93362,-1.53101 -3.8334,-0.41964 -7.64066,-1.01365 -11.4457,-1.63378 -3.05335,-0.67598 -6.1456,-1.07989 -9.21316,-1.68576 -2.47746,-0.32284 -4.89701,-0.97651 -7.38735,-1.19183 -3.12535,-0.36395 -6.21397,-1.03172 -9.36113,-1.18479 -2.91121,-0.24143 -5.78581,-0.80886 -8.70378,-0.91165 -2.13108,-0.0613 -4.27013,-0.13069 -6.36719,-0.55223 -2.81065,-0.45955 -5.61069,-0.75401 -8.46471,-0.7134 -3.15009,-0.16181 -6.29007,-0.43904 -9.40348,-0.96162 -2.78282,-0.3642 -5.59846,-0.42456 -8.36824,-0.91384 -3.95947,-0.49949 -7.93051,-0.377 -11.91531,-0.36713 -4.33032,2e-5 -8.66065,6e-5 -12.99098,0 -3.72573,-1.1e-4 -7.45147,-3.5e-4 -11.1772,-0.002 -4.95252,-0.002 -9.90504,-0.005 -14.85755,-0.007 -3.45626,3.6e-4 -6.91317,-0.009 -10.36855,0.0822 -3.45721,0.11453 -6.915,0.30798 -10.34108,0.80935 -2.71171,0.37951 -5.42876,0.41644 -8.15575,0.6471 -2.36407,0.26698 -4.71109,0.77786 -7.08598,0.83214 -2.62591,0 -5.25181,0 -7.87772,-10e-6 -1.93956,0 -3.87912,-1e-5 -5.81867,-5e-5 -1.14181,-3e-5 -2.283617,-1.4e-4 -3.425427,3e-5 -0.52074,2.1e-4 -1.04149,-2.9e-4 -1.56222,0.004 -3.304389,0.0274 -2.417779,8.83489 0.9819,7.49489 1.15873,-0.151 2.31725,-0.4 3.365797,-0.93933 0.36859,-0.17451 1.30022,-0.49897 -0.32597,-0.17787 -0.16053,0.0317 0.32726,8.7e-4 0.49089,10e-4 0.72436,0.002 0.36459,9.7e-4 1.07929,0.003 1.58135,0.002 3.1631,0.005 4.74383,-0.0463 1.89588,-0.0878 3.78296,-0.28858 5.64375,-0.67405 2.13704,-0.44502 4.24346,-0.67961 6.43691,-0.70282 3.7796,-0.35448 7.52019,-0.98278 11.28034,-1.49387 5.63197,-0.51114 11.23993,-1.25518 16.8831,-1.64701 5.87897,-0.60502 11.77049,-1.04858 17.64629,-1.68999 8.25141,-0.69408 16.53594,-0.94223 24.81551,-0.83501 9.92401,0.003 19.84802,0.009 29.77202,-0.007 9.33918,-0.0258 18.6799,-0.0509 28.01588,-0.32289 7.84941,-0.25357 15.69177,-0.7747 23.54396,-0.84152 4.99227,0.002 9.98543,0.0239 14.97682,-0.0871 4.29832,-0.1349 8.61012,-0.32914 12.83054,-1.22765 2.58823,-0.58144 5.15992,-1.23977 7.74866,-1.8034 1.49204,-0.34461 1.29384,-0.49823 2.66031,-0.43443 2.21314,0.0141 13.11671,-0.85697 2.20047,-7.51332 -0.94097,-0.13513 -1.88854,-0.21969 -2.82695,-0.37321 -2.71895,-0.54977 -5.34102,-1.4881 -8.07814,-1.9524 -4.03229,-0.78126 -8.1192,-1.31263 -12.22631,-1.46758 -4.19879,-0.24008 -8.37464,-0.71072 -12.56494,-1.057 -5.53523,-0.12699 -11.07033,-0.32184 -16.59095,-0.76058 -5.48993,-0.37367 -10.97673,-0.41191 -16.4788,-0.34507 -6.15452,-2e-5 -12.30904,-4e-5 -18.46355,-5e-5 -5.8333,10e-6 -11.6666,0 -17.49989,6.6e-4 -7.81149,0.001 -15.62297,0.003 -23.43445,0.006 -8.7366,0.003 -17.47324,0.012 -26.20979,-0.0185 -8.1405,-0.0455 -16.2825,-0.11385 -24.4173,-0.44852 -7.23442,-0.34193 -14.45622,-0.95064 -21.70419,-0.93313 -8.99485,-0.246 -17.981296,-0.6935 -26.974986,-0.96912 -7.45201,-7.2e-4 -14.90401,-0.002 -22.35602,-0.006 -6.00952,-0.003 -12.01909,-0.009 -18.02856,0.0221 -6.55245,0.0451 -13.10794,0.0981 -19.652223,0.4602 -4.887674,0.28341 -9.770753,0.79035 -14.6706355,0.70508 -5.3450589,0 -5.3450589,7.55906 0,7.55906 z" />
</svg>
