<svg xmlns="http://www.w3.org/2000/svg" width="80" height="98.1" data-name="Layer 1" viewBox="0 0 80 98.1">
  <path d="m80 48-2-34c-.3-4.5-1-9.6-4.6-12.2C70.3-.6 66-.2 62 .4L31.8 4.7c-3.2.5-4 5-2.5 7.7 1.6 2.8 4.5 4.5 6.6 6.8 2.1 2.4 3.3 6.3 1.1 8.6A324.2 324.2 0 0 0 1.2 73 5.3 5.3 0 0 0 0 76.2 5.4 5.4 0 0 0 1.5 79l13 16.2c1.2 1.5 2.8 3.2 4.7 2.9 1.3-.3 2.2-1.4 3-2.5l36-46.7c2.5-3.1 7.4-.6 10.4 2 3 2.7 7.8 5.4 10.3 2.3 1.1-1.4 1.1-3.4 1-5.3zM6.6 75.3c-.4-3.6 2-6.8 4.3-9.6l30.4-37.2c1-1.2 2.1-2.6 2-4.3a6.8 6.8 0 0 0-1.5-3.5L33.5 9q15.3-2.7 30.7-4.4l1.2 8.9c-.4 8.2 4.4 18 .4 25.7-.9-6-9.6-8.7-13.7-4.3Q32 56 14.4 78.8C12 81.7 7 79 6.7 75.4z" style="fill:#01f5ac"/>
</svg>
