<svg width="50" height="55" viewBox="0 0 50 55" fill="none" xmlns="http://www.w3.org/2000/svg">
<path d="M39.9913 30.4247C38.9913 31.4247 38.8913 33.4247 40.1913 34.1247C46.8913 37.7247 47.5913 48.8247 41.3913 53.1247C35.1913 57.4247 24.9913 53.0248 23.9913 45.4248C23.8913 43.9248 21.7913 43.4247 20.4913 44.1247C19.1913 44.8247 18.2913 46.1247 17.1913 47.1247C12.9913 50.7247 6.19128 48.1247 2.79128 43.8247C1.73837 42.5959 0.954212 41.1604 0.489216 39.6104C0.0242196 38.0604 -0.111329 36.4302 0.0912833 34.8247C0.591283 31.6247 3.39128 28.8247 6.59128 28.8247C9.59128 28.9247 10.0913 24.2247 8.29128 21.8247C6.49128 19.4247 3.29128 18.1247 2.19128 15.3247C0.191283 10.6248 4.39128 5.82475 8.19128 2.52475C9.18289 1.59266 10.3347 0.847361 11.5913 0.324749C16.0913 -1.27525 20.3913 3.32475 22.2913 7.82475C22.8913 9.32475 23.4913 11.0248 24.7913 12.1248C26.0913 13.2248 28.3913 13.4248 29.2913 12.1248C33.0913 6.52475 42.2913 5.82475 46.7913 10.8247C51.2913 15.8247 49.7913 24.8247 43.7913 28.0247C42.5913 28.7247 41.0913 29.2247 40.0913 30.3247L39.9913 30.4247Z" fill="#FE3CB0"/>
</svg>
