<svg xmlns="http://www.w3.org/2000/svg" width="80" height="99" fill="none" viewBox="0 0 80 99">
  <g clip-path="url(#a)">
    <path fill="#FE3CB0" d="m80 48-2-34c-.3-4.5-1-9.6-4.6-12.2C70.3-.6 66-.2 62 .4L31.8 4.7c-3.2.5-4 5-2.5 7.7 1.6 2.8 4.5 4.5 6.6 6.8 2.1 2.4 3.3 6.3 1.1 8.6A324.2 324.2 0 0 0 1.2 73c-.7.9-1.2 2-1.2 3.2.2 1 .7 2 1.5 2.8l13 16.2c1.2 1.5 2.8 3.2 4.7 2.9 1.3-.3 2.2-1.4 3-2.5l36-46.7c2.5-3.1 7.4-.6 10.4 2 3 2.7 7.8 5.4 10.3 2.3 1.1-1.4 1.1-3.4 1-5.3l.1.1ZM6.6 75.3c-.4-3.6 2-6.8 4.3-9.6l30.4-37.2c1-1.2 2.1-2.6 2-4.3a6.8 6.8 0 0 0-1.5-3.5L33.5 9c10.2-1.8 20.4-3.3 30.7-4.4l1.2 8.9c-.4 8.2 4.4 18 .4 25.7-.9-6-9.6-8.7-13.7-4.3-13.4 14-26 28.7-37.7 43.9-2.4 2.9-7.4.2-7.7-3.4l-.1-.1Z"/>
  </g>
  <defs>
    <clipPath id="a">
      <path fill="#fff" d="M0 0h80v98.1H0z"/>
    </clipPath>
  </defs>
</svg>
