<svg xmlns="http://www.w3.org/2000/svg" width="51" height="77" fill="none" viewBox="0 0 51 77">
  <g clip-path="url(#a)">
    <path fill="#FE3CB0" d="M49.6 39c-1.8 2.5-5 3.6-7.8 5a29 29 0 0 0-15 21.2c-.4 3.4-.4 7-2.5 9.7-2.1 2.7-7.5 2.6-8-.7a105.6 105.6 0 0 0-14.4-38c-1.8-2.8-3.2-7.5 0-8.7a40 40 0 0 0 23-25.2c.7-2.6 4.5-3 6.6-1.3 2 1.7 2.8 4.5 3.2 7.2.8 4.7 1 9.5 2.8 14 1.8 4.4 5.3 8.5 10 9.1 3.2.5 4 5 2.1 7.6v.1Z"/>
  </g>
  <defs>
    <clipPath id="a">
      <path fill="#fff" d="M0 0h50.6v76.8H0z"/>
    </clipPath>
  </defs>
</svg>
