<svg width="132" height="140" viewBox="0 0 132 140" fill="none" xmlns="http://www.w3.org/2000/svg">
<path d="M130.898 9.09891C127.164 19.8989 123.498 30.7322 119.898 41.5989C118.098 46.5989 116.198 51.7989 111.898 54.6989C107.498 57.6989 101.698 57.5989 96.3977 58.4989C91.0977 59.3989 85.1977 62.5989 84.9977 67.9989C84.5977 75.9989 73.9977 81.3989 67.2977 76.9989C62.0977 83.9989 64.3977 94.7989 59.2977 101.999C52.5977 111.499 37.9977 108.999 26.8977 105.599C19.6977 103.399 13.8977 112.099 12.4977 119.499C11.0977 126.899 10.4977 135.799 3.99769 139.499C1.09769 141.099 -0.602312 135.899 0.197688 132.599L6.69769 103.099C8.49769 95.2989 19.1977 94.1989 26.9977 96.0989C34.7977 97.8989 43.9977 100.499 49.8977 95.0989C53.6977 91.5989 54.3977 85.9989 54.8977 80.8989C55.3977 75.7989 56.0977 70.1989 59.8977 66.6989C63.6977 63.1989 71.3977 64.0989 72.1977 69.0989C74.4977 63.6989 76.8977 58.0989 80.9977 53.7989C84.9977 49.3989 91.1977 46.5989 96.9977 48.0989C101.098 49.0989 105.498 46.4989 107.998 42.8989C110.298 39.2989 111.198 34.8989 112.298 30.8989C114.614 21.8599 118.005 13.131 122.398 4.89891C123.898 2.19891 126.698 -1.00109 129.598 0.298909C132.498 1.59891 131.898 5.89891 130.898 8.99891V9.09891Z" fill="#FE3CB0"/>
</svg>
