<svg width="36" height="37" viewBox="0 0 36 37" fill="none" xmlns="http://www.w3.org/2000/svg">
<path d="M31.2974 7.92178C29.6683 5.51422 27.557 3.47111 25.0974 1.92178C20.0974 -1.07822 13.5974 -0.378216 8.79737 2.72178C6.46576 4.37141 4.49887 6.48356 3.01928 8.9266C1.53969 11.3697 0.579098 14.0912 0.197368 16.9218C-0.802632 24.1218 1.99737 32.4218 8.59737 35.5218C12.5974 37.5218 17.4974 37.1218 21.6974 35.8218C28.9974 33.5218 35.6974 27.2218 35.6974 19.5218C35.6974 15.3218 33.6974 11.3218 31.2974 7.92178V7.92178ZM9.59737 19.9218C9.19737 16.8218 10.1974 13.3218 12.6974 11.5218C17.4974 8.12178 24.8974 13.1218 24.6974 18.9218C24.6145 20.4803 24.1041 21.986 23.2221 23.2737C22.3401 24.5613 21.1207 25.5813 19.6974 26.2218C18.2641 26.8096 16.6824 26.9328 15.1754 26.574C13.6684 26.2152 12.312 25.3924 11.2974 24.2218C10.3532 22.968 9.7658 21.4822 9.59737 19.9218V19.9218Z" fill="#FE3CB0"/>
</svg>
