<svg width="51" height="77" viewBox="0 0 51 77" fill="none" xmlns="http://www.w3.org/2000/svg">
<g clip-path="url(#clip0_1631_74)">
<path d="M49.6 39C47.8 41.5 44.6 42.6 41.8 44C37.824 46.1247 34.3981 49.147 31.7943 52.8271C29.1905 56.5071 27.4805 60.7436 26.8 65.2C26.4 68.6 26.4 72.2 24.3 74.9C22.2 77.6 16.8 77.5 16.3 74.2C14.0055 60.7205 9.11495 47.8149 1.90005 36.2C0.100047 33.4 -1.29995 28.7 1.90005 27.5C7.35463 25.2552 12.2453 21.8319 16.2216 17.4752C20.1979 13.1185 23.1615 7.9364 24.9 2.3C25.6 -0.299999 29.4 -0.699999 31.5 1C33.5 2.7 34.3 5.5 34.7 8.2C35.5 12.9 35.7 17.7 37.5 22.2C39.3 26.6 42.8 30.7 47.5 31.3C50.7 31.8 51.5 36.3 49.6 38.9V39Z" fill="#FE3CB0"/>
</g>
<defs>
<clipPath id="clip0_1631_74">
<rect width="50.6" height="76.8" fill="white"/>
</clipPath>
</defs>
</svg>
