<svg width="80" height="99" viewBox="0 0 80 99" fill="none" xmlns="http://www.w3.org/2000/svg">
<g clip-path="url(#clip0_1631_72)">
<path d="M80 48L78 14C77.7 9.49999 77 4.39999 73.4 1.79999C70.3 -0.600007 66 -0.200007 62 0.399993L31.8 4.69999C28.6 5.19999 27.8 9.69999 29.3 12.4C30.9 15.2 33.8 16.9 35.9 19.2C38 21.6 39.2 25.5 37 27.8C23.7479 41.7735 11.7672 56.8999 1.2 73C0.457629 73.9049 0.0356825 75.0301 0 76.2C0.207974 77.2626 0.730589 78.2382 1.5 79L14.5 95.2C15.7 96.7 17.3 98.4 19.2 98.1C20.5 97.8 21.4 96.7 22.2 95.6L58.2 48.9C60.7 45.8 65.6 48.3 68.6 50.9C71.6 53.6 76.4 56.3 78.9 53.2C80 51.8 80 49.8 79.9 47.9L80 48ZM6.6 75.3C6.2 71.7 8.6 68.5 10.9 65.7L41.3 28.5C42.3 27.3 43.4 25.9 43.3 24.2C43.1435 22.9143 42.6231 21.7 41.8 20.7L33.5 8.99999C43.7 7.19999 53.9333 5.73333 64.2 4.59999L65.4 13.5C65 21.7 69.8 31.5 65.8 39.2C64.9 33.2 56.2 30.5 52.1 34.9C38.7 48.9667 26.1333 63.6 14.4 78.8C12 81.7 7 79 6.7 75.4L6.6 75.3Z" fill="#FE3CB0"/>
</g>
<defs>
<clipPath id="clip0_1631_72">
<rect width="80" height="98.1" fill="white"/>
</clipPath>
</defs>
</svg>
