<svg xmlns="http://www.w3.org/2000/svg" width="132" height="140" fill="none" viewBox="0 0 132 140">
  <path fill="#FE3CB0" d="m130.9 9.1-11 32.5c-1.8 5-3.7 10.2-8 13.1-4.4 3-10.2 2.9-15.5 3.8-5.3.9-11.2 4.1-11.4 9.5-.4 8-11 13.4-17.7 9-5.2 7-2.9 17.8-8 25-6.7 9.5-21.3 7-32.4 3.6-7.2-2.2-13 6.5-14.4 13.9-1.4 7.4-2 16.3-8.5 20-2.9 1.6-4.6-3.6-3.8-6.9l6.5-29.5c1.8-7.8 12.5-8.9 20.3-7 7.8 1.8 17 4.4 22.9-1 3.8-3.5 4.5-9.1 5-14.2s1.2-10.7 5-14.2 11.5-2.6 12.3 2.4c2.3-5.4 4.7-11 8.8-15.3 4-4.4 10.2-7.2 16-5.7 4.1 1 8.5-1.6 11-5.2 2.3-3.6 3.2-8 4.3-12 2.3-9 5.7-17.8 10.1-26 1.5-2.7 4.3-5.9 7.2-4.6 2.9 1.3 2.3 5.6 1.3 8.7v.1Z"/>
</svg>
