<svg xmlns="http://www.w3.org/2000/svg" width="50" height="55" fill="none" viewBox="0 0 50 55">
  <path fill="#FE3CB0" d="M40 30.4c-1 1-1.1 3 .2 3.7 6.7 3.6 7.4 14.7 1.2 19-6.2 4.3-16.4 0-17.4-7.7-.1-1.5-2.2-2-3.5-1.3-1.3.7-2.2 2-3.3 3-4.2 3.6-11 1-14.4-3.3a11.6 11.6 0 0 1-2.7-9c.5-3.2 3.3-6 6.5-6 3 .1 3.5-4.6 1.7-7-1.8-2.4-5-3.7-6.1-6.5-2-4.7 2.2-9.5 6-12.8 1-1 2.1-1.7 3.4-2.2 4.5-1.6 8.8 3 10.7 7.5.6 1.5 1.2 3.2 2.5 4.3 1.3 1.1 3.6 1.3 4.5 0 3.8-5.6 13-6.3 17.5-1.3s3 14-3 17.2c-1.2.7-2.7 1.2-3.7 2.3l-.1.1Z"/>
</svg>
