<svg xmlns="http://www.w3.org/2000/svg" width="11" height="11" data-name="Layer 1" viewBox="0 0 30.7 30.7">
  <path d="M225.8 180a21.8 21.8 0 0 1-17 9.7c-5.4.2-9.5-5.7-9-11 .6-5.4 4.6-9.8 9.2-12.6 5.6-3.5 14.2-4.5 17.9 1 2.6 3.8 1.4 9-1 12.9z" data-name="Bullet color" style="fill:#fe3cb0" transform="translate(-197.6 -163.2)"/>
  <path d="M226.7 179.7c0 7.6-8 13-15.4 14a13.2 13.2 0 0 1-5.7-.3c-4.2-1.3-6.8-5.8-7.6-10.2a18 18 0 0 1 3.4-14.9c3.3-4 9.2-6 14-4.2a16.7 16.7 0 0 1 6.7 5c2.5 3 4.7 6.6 4.6 10.6m-25.2-1.1a10 10 0 1 0 14.8-8.5 10 10 0 0 0-4.6-1.2 10.2 10.2 0 0 0-8.5 4.4 10 10 0 0 0-1.7 5.3z" data-name="Bullet Circle" style="fill:#fff" transform="translate(-197.6 -163.2)"/>
</svg>
