<svg xmlns="http://www.w3.org/2000/svg" width="11" height="11" data-name="Layer 1" viewBox="0 0 11.1 11.1">
  <path d="M10 6.1a7.7 7.7 0 0 1-6 3.4c-1.8.1-3.3-2-3-3.8.1-2 1.5-3.5 3.2-4.5 2-1.2 5-1.6 6.3.4.9 1.3.5 3.1-.4 4.5z" data-name="Bullet color" style="fill:#fe3cb0;stroke-width:.352224"/>
  <path d="M10.4 6c0 2.7-2.8 4.6-5.4 5a4.6 4.6 0 0 1-2-.2C1.5 10.4.6 8.8.3 7.2A6.3 6.3 0 0 1 1.5 2a4.7 4.7 0 0 1 5-1.5 5.9 5.9 0 0 1 2.3 1.8c.9 1 1.6 2.3 1.6 3.7m-8.9-.4a3.5 3.5 0 1 0 5.2-3 3.5 3.5 0 0 0-1.6-.4 3.6 3.6 0 0 0-3 1.6 3.5 3.5 0 0 0-.6 1.8Z" data-name="Bullet Circle" style="fill:#fff;stroke-width:.352224"/>
</svg>
