<svg xmlns="http://www.w3.org/2000/svg" width="11" height="11" data-name="Layer 1" viewBox="0 0 11 11">
  <path d="M10 6.1a7.5 7.5 0 0 1-5.8 3.4C2.3 9.5.9 7.4 1 5.6c.2-1.8 1.7-3.4 3.3-4.3 1.9-1.2 4.9-1.5 6.1.3 1 1.4.5 3.1-.3 4.5z" data-name="Bullet color" style="fill:#01f5ac;stroke-width:.345317"/>
  <path d="M10.3 6c0 2.6-2.7 4.5-5.2 4.7a4.6 4.6 0 0 1-2 0C1.6 10.3.6 8.7.3 7.2A6.2 6.2 0 0 1 1.6 2C2.8.6 4.9 0 6.4.6a5.7 5.7 0 0 1 2.4 1.7c.8 1 1.6 2.3 1.5 3.7m-8.6-.4a3.4 3.4 0 1 0 5-3 3.4 3.4 0 0 0-1.6-.5 3.6 3.6 0 0 0-2.8 1.5 3.4 3.4 0 0 0-.6 2Z" data-name="Bullet Circle" style="stroke-width:.345317"/>
</svg>
