<svg xmlns="http://www.w3.org/2000/svg" width="24" height="24" viewBox="0 0 24 24">
  <path d="M12 0a12 12 0 1 0 0 24 12 12 0 0 0 0-24zm9.9 11.4c-2.6-.4-5-.4-7.1 0L14 9.7c2.3-1 4.2-2.4 5.6-4a9.9 9.9 0 0 1 2.3 5.7zM18 4.2a12.1 12.1 0 0 1-5 3.6C12 6 11 4.2 9.7 2.4A9.9 9.9 0 0 1 18 4.2zm-10.5-1C9 4.9 10 6.7 11.1 8.5a32 32 0 0 1-8.7 1.2 10 10 0 0 1 5.1-6.5zM2.1 12v-.3c3.8 0 7.2-.4 10-1.3l.6 1.5c-3.4 1-6.1 3.2-8.3 6.4A9.9 9.9 0 0 1 2 12zm3.8 7.8c2-3 4.5-5 7.6-6 1 2.4 1.6 4.9 2 7.4a9.7 9.7 0 0 1-9.6-1.4zm11.6.4a30 30 0 0 0-2-6.9c2-.2 4-.2 6.3.2a10 10 0 0 1-4.3 6.7z"/>
</svg>
